<svg width="46" height="46" viewBox="0 0 46 46" fill="none" xmlns="http://www.w3.org/2000/svg">
<g clip-path="url(#clip0_5653_1989)">
<path fill-rule="evenodd" clip-rule="evenodd" d="M1.90137 18.7651C1.90137 10.2804 1.90137 6.03689 4.57284 3.40214C7.24203 0.765137 11.541 0.765137 20.1367 0.765137H24.6955C33.2911 0.765137 37.5878 0.767387 40.2593 3.40214C42.9308 6.03689 42.9308 10.2804 42.9308 18.7651V28.5593V29.346C40.8304 27.0801 37.8284 25.662 34.4951 25.662C28.1438 25.662 22.9951 30.8107 22.9951 37.162C22.9951 40.5839 24.4897 43.6568 26.8616 45.7634C26.1715 45.7651 25.45 45.7651 24.6955 45.7651H20.1367C11.541 45.7651 7.24431 45.7629 4.57284 43.1281C1.90137 40.4934 1.90137 36.2499 1.90137 27.7651V18.7651ZM12.0896 17.5719C12.4102 17.2554 12.845 17.0776 13.2984 17.0776H31.5337C31.9871 17.0776 32.422 17.2554 32.7426 17.5719C33.0632 17.8884 33.2433 18.3176 33.2433 18.7651C33.2433 19.2127 33.0632 19.6419 32.7426 19.9584C32.422 20.2748 31.9871 20.4526 31.5337 20.4526H13.2984C12.845 20.4526 12.4102 20.2748 12.0896 19.9584C11.769 19.6419 11.5889 19.2127 11.5889 18.7651C11.5889 18.3176 11.769 17.8884 12.0896 17.5719ZM12.0896 26.5719C12.4102 26.2554 12.845 26.0776 13.2984 26.0776H24.6955C25.1489 26.0776 25.5837 26.2554 25.9043 26.5719C26.2249 26.8884 26.405 27.3176 26.405 27.7651C26.405 28.2127 26.2249 28.6419 25.9043 28.9584C25.5837 29.2748 25.1489 29.4526 24.6955 29.4526H13.2984C12.845 29.4526 12.4102 29.2748 12.0896 28.9584C11.769 28.6419 11.5889 28.2127 11.5889 27.7651C11.5889 27.3176 11.769 26.8884 12.0896 26.5719Z" fill="#FF4426"/>
<path d="M34.3275 38.3664L36.8224 40.8613C36.9801 41.019 37.1809 41.0979 37.4246 41.0979C37.6684 41.0979 37.8691 41.019 38.0268 40.8613C38.1845 40.7036 38.2634 40.5028 38.2634 40.2591C38.2634 40.0153 38.1845 39.8146 38.0268 39.6569L35.532 37.162L38.0268 34.6672C38.1845 34.5094 38.2634 34.3087 38.2634 34.065C38.2634 33.8212 38.1845 33.6205 38.0268 33.4628C37.8691 33.305 37.6684 33.2262 37.4246 33.2262C37.1809 33.2262 36.9801 33.305 36.8224 33.4628L34.3275 35.9576L31.8327 33.4628C31.675 33.305 31.4742 33.2262 31.2305 33.2262C30.9867 33.2262 30.786 33.305 30.6283 33.4628C30.4706 33.6205 30.3917 33.8212 30.3917 34.065C30.3917 34.3087 30.4706 34.5094 30.6283 34.6672L33.1231 37.162L30.6283 39.6569C30.4706 39.8146 30.3917 40.0153 30.3917 40.2591C30.3917 40.5028 30.4706 40.7036 30.6283 40.8613C30.786 41.019 30.9867 41.0979 31.2305 41.0979C31.4742 41.0979 31.675 41.019 31.8327 40.8613L34.3275 38.3664ZM34.3275 45.765C33.1375 45.765 32.0191 45.539 30.9724 45.087C29.9257 44.6351 29.0152 44.0223 28.241 43.2486C27.4667 42.4749 26.8539 41.5644 26.4025 40.5172C25.9512 39.4699 25.7252 38.3515 25.7246 37.162C25.724 35.9725 25.95 34.8541 26.4025 33.8069C26.855 32.7596 27.4679 31.8491 28.241 31.0754C29.0141 30.3018 29.9246 29.6889 30.9724 29.237C32.0202 28.7851 33.1386 28.5591 34.3275 28.5591C35.5165 28.5591 36.6349 28.7851 37.6827 29.237C38.7305 29.6889 39.641 30.3018 40.4141 31.0754C41.1872 31.8491 41.8003 32.7596 42.2534 33.8069C42.7065 34.8541 42.9322 35.9725 42.9305 37.162C42.9288 38.3515 42.7028 39.4699 42.2526 40.5172C41.8024 41.5644 41.1895 42.4749 40.4141 43.2486C39.6387 44.0223 38.7282 44.6354 37.6827 45.0879C36.6371 45.5404 35.5188 45.7661 34.3275 45.765Z" fill="#FF4426"/>
</g>
<defs>
<clipPath id="clip0_5653_1989">
<rect width="45" height="45" fill="white" transform="translate(0.495117 0.765137)"/>
</clipPath>
</defs>
</svg>
