<svg width="18" height="19" viewBox="0 0 18 19" fill="none" xmlns="http://www.w3.org/2000/svg">
<path fill-rule="evenodd" clip-rule="evenodd" d="M3 0.470703C2.20435 0.470703 1.44129 0.786774 0.87868 1.34938C0.316071 1.91199 0 2.67505 0 3.4707V15.4707C0 16.2664 0.316071 17.0294 0.87868 17.592C1.44129 18.1546 2.20435 18.4707 3 18.4707H15C15.7956 18.4707 16.5587 18.1546 17.1213 17.592C17.6839 17.0294 18 16.2664 18 15.4707V3.4707C18 2.67505 17.6839 1.91199 17.1213 1.34938C16.5587 0.786774 15.7956 0.470703 15 0.470703H3ZM7 5.4707C7 5.20549 7.10536 4.95113 7.29289 4.7636C7.48043 4.57606 7.73478 4.4707 8 4.4707H14C14.2652 4.4707 14.5196 4.57606 14.7071 4.7636C14.8946 4.95113 15 5.20549 15 5.4707C15 5.73592 14.8946 5.99027 14.7071 6.17781C14.5196 6.36535 14.2652 6.4707 14 6.4707H8C7.73478 6.4707 7.48043 6.36535 7.29289 6.17781C7.10536 5.99027 7 5.73592 7 5.4707ZM7 9.4707C7 9.20549 7.10536 8.95113 7.29289 8.7636C7.48043 8.57606 7.73478 8.4707 8 8.4707H14C14.2652 8.4707 14.5196 8.57606 14.7071 8.7636C14.8946 8.95113 15 9.20549 15 9.4707C15 9.73592 14.8946 9.99027 14.7071 10.1778C14.5196 10.3653 14.2652 10.4707 14 10.4707H8C7.73478 10.4707 7.48043 10.3653 7.29289 10.1778C7.10536 9.99027 7 9.73592 7 9.4707ZM7 13.4707C7 13.2055 7.10536 12.9511 7.29289 12.7636C7.48043 12.5761 7.73478 12.4707 8 12.4707H14C14.2652 12.4707 14.5196 12.5761 14.7071 12.7636C14.8946 12.9511 15 13.2055 15 13.4707C15 13.7359 14.8946 13.9903 14.7071 14.1778C14.5196 14.3653 14.2652 14.4707 14 14.4707H8C7.73478 14.4707 7.48043 14.3653 7.29289 14.1778C7.10536 13.9903 7 13.7359 7 13.4707ZM4 4.4707C3.73478 4.4707 3.48043 4.57606 3.29289 4.7636C3.10536 4.95113 3 5.20549 3 5.4707C3 5.73592 3.10536 5.99027 3.29289 6.17781C3.48043 6.36535 3.73478 6.4707 4 6.4707C4.26522 6.4707 4.52057 6.36535 4.70811 6.17781C4.89564 5.99027 5.001 5.73592 5.001 5.4707C5.001 5.20549 4.89564 4.95113 4.70811 4.7636C4.52057 4.57606 4.26522 4.4707 4 4.4707ZM3 9.4707C3 9.20549 3.10536 8.95113 3.29289 8.7636C3.48043 8.57606 3.73478 8.4707 4 8.4707C4.26522 8.4707 4.52057 8.57606 4.70811 8.7636C4.89564 8.95113 5.001 9.20549 5.001 9.4707C5.001 9.73592 4.89564 9.99027 4.70811 10.1778C4.52057 10.3653 4.26622 10.4707 4.001 10.4707C3.73578 10.4707 3.48043 10.3653 3.29289 10.1778C3.10536 9.99027 3 9.73592 3 9.4707ZM4 12.4707C3.73478 12.4707 3.48043 12.5761 3.29289 12.7636C3.10536 12.9511 3 13.2055 3 13.4707C3 13.7359 3.10536 13.9903 3.29289 14.1778C3.48043 14.3653 3.73478 14.4707 4 14.4707C4.26522 14.4707 4.52057 14.3653 4.70811 14.1778C4.89564 13.9903 5.001 13.7359 5.001 13.4707C5.001 13.2055 4.89564 12.9511 4.70811 12.7636C4.52057 12.5761 4.26522 12.4707 4 12.4707Z" fill="white"/>
</svg>
