<svg width="18" height="24" viewBox="0 0 18 24" fill="none" xmlns="http://www.w3.org/2000/svg">
<path d="M3.31764 23.7897H14.6824C16.8978 23.7897 18 22.6661 18 20.4401V10.7233H10.252C8.8822 10.7233 8.24022 10.0703 8.24022 8.70056V0.845703H3.31764C1.11319 0.845703 0 1.97989 0 4.20626V20.4401C0 22.6766 1.11319 23.7897 3.31764 23.7897ZM10.2844 9.25715H17.8822C17.8073 8.81836 17.4968 8.39007 16.9941 7.8659L11.0867 1.86255C10.5944 1.34887 10.1451 1.03839 9.6954 0.963049V8.67955C9.6954 9.06446 9.89904 9.25715 10.2844 9.25715ZM4.88012 15.3573C4.44133 15.3573 4.13084 15.0468 4.13084 14.6295C4.13084 14.2117 4.44133 13.9017 4.87966 13.9017H13.1304C13.5587 13.9017 13.8906 14.2121 13.8906 14.629C13.8906 15.0468 13.5587 15.3568 13.1308 15.3568L4.88012 15.3573ZM4.88012 19.4343C4.44133 19.4343 4.13084 19.1238 4.13084 18.7064C4.13084 18.2891 4.44133 17.9786 4.87966 17.9786H13.1304C13.5587 17.9786 13.8906 18.2891 13.8906 18.7064C13.8906 19.1238 13.5587 19.4343 13.1308 19.4343H4.88012Z" fill="white"/>
</svg>
