<svg width="100" height="58" viewBox="0 0 100 58" fill="none" xmlns="http://www.w3.org/2000/svg">
<g clip-path="url(#clip0_4172_756)">
<path d="M20.344 22.0729C20.2185 22.0729 20.122 22.1694 20.122 22.2949C20.122 24.3514 18.4324 26.0217 16.3662 26.0217C14.3001 26.0217 12.6105 24.3514 12.6105 22.2949C12.6105 20.2385 14.1746 18.6937 16.1442 18.5778L15.8352 19.0413C15.787 19.1185 15.8739 19.2151 15.9511 19.1668L17.4379 18.433C17.5055 18.404 17.5055 18.3075 17.4379 18.2689L15.9511 17.5351C15.8642 17.4965 15.787 17.5834 15.8352 17.6606L16.1442 18.1337C13.9236 18.2496 12.1567 20.0647 12.1567 22.2949C12.1567 24.5252 14.0394 26.4658 16.3662 26.4658C18.6931 26.4658 20.5758 24.5928 20.5758 22.2949C20.5758 22.1694 20.4792 22.0729 20.3537 22.0729H20.344Z" fill="white"/>
<path d="M18.0556 18.713C18.0942 18.6261 18.0556 18.5296 17.959 18.491L17.8914 18.6454L17.8335 18.7999C17.8335 18.7999 17.8721 18.8096 17.8914 18.8096C17.959 18.8096 18.0169 18.771 18.0459 18.7034L18.0556 18.713Z" fill="white"/>
<path d="M20.0061 21.1943C20.0254 21.2811 20.093 21.3198 20.1702 21.3198C20.1895 21.3198 20.2088 21.3198 20.2185 21.3198C20.3054 21.2908 20.3536 21.1943 20.3247 21.1074C20.2957 21.0108 20.2088 20.9625 20.1123 20.9915C20.0254 21.0205 19.9771 21.1074 19.9964 21.1943H20.0061Z" fill="white"/>
<path d="M18.3359 19.0606C18.3359 19.0606 18.3939 19.0895 18.4228 19.0895C18.4807 19.0895 18.5387 19.0606 18.5676 19.0123C18.6159 18.9351 18.5966 18.8289 18.5097 18.7806H18.5001C18.4228 18.7227 18.3263 18.7516 18.278 18.8289C18.2297 18.9061 18.2587 19.0123 18.3359 19.0606Z" fill="white"/>
<path d="M19.1955 19.7652C19.1955 19.7652 19.2728 19.8231 19.321 19.8231C19.3597 19.8231 19.3983 19.8135 19.4369 19.7845C19.5045 19.7266 19.5141 19.6204 19.4466 19.5528C19.3886 19.4756 19.2824 19.4756 19.2052 19.5335C19.1376 19.5914 19.1279 19.6976 19.1955 19.7652Z" fill="white"/>
<path d="M19.5429 20.1998C19.5429 20.1998 19.6298 20.2771 19.6781 20.2771C19.7071 20.2771 19.7457 20.2674 19.7746 20.2481C19.8519 20.1998 19.8712 20.0936 19.8229 20.0164C19.7746 19.9295 19.6684 19.9102 19.5912 19.9585C19.514 20.0068 19.4946 20.113 19.5429 20.1902V20.1998Z" fill="white"/>
<path d="M19.8034 20.6727C19.8324 20.7403 19.8903 20.7789 19.9579 20.7789C19.9772 20.7789 20.0062 20.7789 20.0255 20.7596C20.1124 20.721 20.1413 20.6244 20.1027 20.5375C20.0641 20.441 19.9675 20.412 19.8806 20.4506C19.7937 20.4893 19.7648 20.5858 19.8034 20.6727Z" fill="white"/>
<path d="M18.7892 19.3787C18.7892 19.3787 18.8568 19.4174 18.8954 19.4174C18.9436 19.4174 18.9919 19.3981 19.0209 19.3594C19.0788 19.2918 19.0692 19.1856 18.9919 19.1277C18.9243 19.0601 18.8181 19.0698 18.7602 19.147C18.7023 19.2146 18.7119 19.3208 18.7795 19.3787H18.7892Z" fill="white"/>
<path d="M20.2767 21.5416C20.1802 21.5512 20.1222 21.6381 20.1319 21.725C20.1416 21.8216 20.2188 21.8795 20.296 21.8795C20.296 21.8795 20.3153 21.8795 20.325 21.8795C20.4215 21.8698 20.4795 21.7829 20.4602 21.6864C20.4505 21.5899 20.3636 21.5223 20.2671 21.5319L20.2767 21.5416Z" fill="white"/>
<path d="M16.25 24.6023V25.4423C16.25 25.5002 16.2983 25.5485 16.3659 25.5485C16.4334 25.5485 16.4817 25.5002 16.4817 25.4423V24.6023C16.4817 24.5444 16.4334 24.4961 16.3659 24.4961C16.2983 24.4961 16.25 24.5444 16.25 24.6023Z" fill="white"/>
<path d="M14.9758 24.5155L14.6958 24.9789C14.6958 24.9789 14.6958 25.0368 14.7151 25.0561C14.7151 25.0561 14.7344 25.0561 14.7441 25.0561C14.7634 25.0561 14.7827 25.0465 14.7923 25.0272L15.0627 24.5638C15.0627 24.5638 15.0627 24.5058 15.0434 24.4865C15.0144 24.4672 14.9854 24.4865 14.9661 24.5058L14.9758 24.5155Z" fill="white"/>
<path d="M14.0393 23.55L13.5662 23.8203C13.5662 23.8203 13.5276 23.8686 13.5469 23.8975C13.5566 23.9168 13.5759 23.9265 13.5952 23.9265C13.6048 23.9265 13.6145 23.9265 13.6241 23.9265L14.0972 23.6562C14.0972 23.6562 14.1359 23.6079 14.1165 23.5789C14.0972 23.55 14.0683 23.5403 14.0393 23.5596V23.55Z" fill="white"/>
<path d="M18.6736 23.5597C18.6736 23.5597 18.6157 23.5597 18.5964 23.579C18.5771 23.608 18.5964 23.6369 18.6157 23.6563L19.0888 23.9266C19.0888 23.9266 19.1081 23.9266 19.1177 23.9266C19.137 23.9266 19.1564 23.9169 19.166 23.8976C19.1853 23.8687 19.166 23.8397 19.1467 23.8204L18.6736 23.55V23.5597Z" fill="white"/>
<path d="M14.0969 20.9046L13.6238 20.6343C13.6238 20.6343 13.5659 20.6343 13.5466 20.6536C13.5273 20.6826 13.5466 20.7115 13.5659 20.7308L14.039 21.0012C14.039 21.0012 14.0583 21.0012 14.0679 21.0012C14.0872 21.0012 14.1066 20.9915 14.1162 20.9722C14.1355 20.9432 14.1162 20.9143 14.0969 20.895V20.9046Z" fill="white"/>
<path d="M17.9108 25.0367C17.9108 25.0367 17.9397 25.0656 17.959 25.0656C17.9687 25.0656 17.9783 25.0656 17.988 25.0656C18.017 25.0463 18.0266 25.0174 18.0073 24.9884L17.737 24.525C17.737 24.525 17.6887 24.4863 17.6597 24.5057C17.6308 24.525 17.6211 24.5539 17.6404 24.5829L17.9108 25.0463V25.0367Z" fill="white"/>
<path d="M15.024 20.0644C15.024 20.0644 15.0433 20.0644 15.0529 20.0644C15.0819 20.0451 15.0916 20.0161 15.0722 19.9872L14.8019 19.5237C14.8019 19.5237 14.7536 19.4851 14.7247 19.5044C14.6957 19.5237 14.686 19.5527 14.7054 19.5817L14.9757 20.0451C14.9757 20.0451 15.0047 20.0741 15.024 20.0741V20.0644Z" fill="white"/>
<path d="M14.0197 22.1694H13.1701C13.1121 22.1694 13.0542 22.2177 13.0542 22.2853C13.0542 22.3529 13.1025 22.3915 13.1701 22.3915H14.0197C14.0776 22.3915 14.1355 22.3432 14.1355 22.2853C14.1355 22.2274 14.0873 22.1694 14.0197 22.1694Z" fill="white"/>
<path d="M17.6688 20.0645C17.6688 20.0645 17.6881 20.0645 17.6978 20.0645C17.7171 20.0645 17.7364 20.0548 17.7461 20.0355L18.0261 19.5721C18.0261 19.5721 18.0261 19.5141 18.0068 19.4948C17.9778 19.4755 17.9488 19.4948 17.9295 19.5141L17.6592 19.9776C17.6592 19.9776 17.6592 20.0355 17.6785 20.0548L17.6688 20.0645Z" fill="white"/>
<path d="M18.6445 21.0202C18.6445 21.0202 18.6638 21.0202 18.6735 21.0202L19.1466 20.7499C19.1466 20.7499 19.1852 20.7016 19.1659 20.6727C19.1466 20.6437 19.1176 20.634 19.0886 20.6534L18.6155 20.9237C18.6155 20.9237 18.5769 20.972 18.5962 21.0009C18.6059 21.0202 18.6252 21.0299 18.6445 21.0299V21.0202Z" fill="white"/>
<path d="M18.7023 22.3915H19.5519C19.6098 22.3915 19.6678 22.3432 19.6678 22.2853C19.6678 22.2274 19.6195 22.1694 19.5519 22.1694H18.7023C18.6444 22.1694 18.5864 22.2177 18.5864 22.2853C18.5864 22.3529 18.6347 22.3915 18.7023 22.3915Z" fill="white"/>
<path d="M16.5788 21.0783C16.5788 21.0783 16.6367 21.059 16.6174 21.0396L16.3857 20.5762C16.3857 20.5762 16.3374 20.5569 16.3277 20.5762L16.096 21.0396C16.096 21.0396 16.1153 21.0976 16.1347 21.0783L16.2409 21.03V22.0534C16.2409 22.0534 16.2119 22.0727 16.2022 22.0824L14.9664 21.3486L15.0437 21.3003C15.0437 21.3003 15.063 21.2424 15.034 21.2424L14.5223 21.1652C14.5223 21.1652 14.474 21.1845 14.4933 21.2134L14.7444 21.6672C14.7444 21.6672 14.8023 21.6865 14.8023 21.6576L14.8216 21.5127L16.1057 22.2755C16.1057 22.4203 16.2215 22.5265 16.3567 22.5265C16.4919 22.5265 16.6077 22.4106 16.6077 22.2755C16.6077 22.1789 16.5498 22.092 16.4629 22.0534V21.03L16.5691 21.0783H16.5788Z" fill="white"/>
<path d="M9.50135 11.3463H9.51101C10.7661 10.8732 12.0599 10.516 13.4116 10.2843C14.7053 10.0815 15.9991 10.0525 17.3121 10.1974C19.9962 10.5449 22.3519 11.5201 24.3602 13.1324C25.4994 14.011 26.4166 14.9475 27.1214 15.9323C27.5849 16.5213 28.0966 17.4288 28.6662 18.655C29.1779 19.8426 29.5158 21.117 29.68 22.459C29.8248 23.8493 29.8441 25.1527 29.7476 26.3692C30.713 23.8397 30.7227 21.146 29.7862 18.2978C29.2552 16.7916 28.5986 15.5365 27.8166 14.5131C27.5462 14.1559 27.2373 13.7793 26.8897 13.3835C26.5518 12.9876 26.0208 12.4856 25.2967 11.8966C23.0181 10.1394 20.3824 9.18361 17.3604 9.01948C16.0087 8.95189 14.5991 9.10637 13.1219 9.51187C12.533 9.66635 11.8861 9.91738 11.162 10.2456C10.3993 10.6029 9.83927 10.9698 9.4917 11.3463H9.50135Z" fill="white"/>
<path fill-rule="evenodd" clip-rule="evenodd" d="M16.4239 11.1047C22.9119 11.1047 28.1642 16.3087 28.1642 22.7388C28.1642 24.9787 27.5269 27.0642 26.4263 28.831C25.8084 29.8351 25.2001 30.8392 24.5822 31.853C24.1381 32.0171 23.694 32.1523 23.2402 32.2681C21.9561 32.5868 20.6237 32.7509 19.3107 32.8474C18.8666 32.8764 18.4224 32.9054 17.9783 32.9343C17.0804 32.9923 16.1729 33.0502 15.275 33.1371C14.126 33.2529 12.9578 33.3688 11.8475 33.7067C11.1716 33.9095 10.5151 34.1701 9.91652 34.5274C8.76759 32.6543 7.61867 30.791 6.46974 28.9179C5.34012 27.1318 4.68359 25.0174 4.68359 22.7485C4.68359 16.3183 9.93583 11.1047 16.4239 11.1047ZM19.1176 34.0446C20.6141 33.9674 22.1299 33.8322 23.5878 33.4847L22.4485 35.348C21.6471 36.6418 20.9134 37.8197 20.1893 38.9976C19.4652 40.1755 18.7314 41.3437 17.93 42.6471C16.5108 44.9353 16.4142 44.9932 14.9853 42.6954C14.184 41.4016 13.4405 40.2141 12.7068 39.0265C11.973 37.839 11.2296 36.6514 10.4282 35.3577L10.3413 35.2225C10.3606 35.2225 10.3703 35.2032 10.3896 35.2032C10.602 35.097 10.8144 35.0101 11.0268 34.9232C11.0268 34.9232 11.0268 34.9232 11.0558 34.9136C11.0848 34.9039 11.1041 34.8943 11.133 34.8846C11.1813 34.8653 11.2392 34.846 11.2972 34.8267C11.413 34.7881 11.5289 34.7494 11.6447 34.7108C12.6778 34.3826 13.7881 34.2667 14.8598 34.2184C15.5839 34.1798 16.308 34.1605 17.0225 34.1412C17.7176 34.1219 18.4128 34.1026 19.1079 34.0639L19.1176 34.0446ZM16.4239 16.9363C19.33 16.9363 21.6858 19.2727 21.6858 22.1499C21.6858 25.027 19.33 27.3635 16.4239 27.3635C13.5178 27.3635 11.162 25.027 11.162 22.1499C11.162 19.2727 13.5178 16.9363 16.4239 16.9363ZM23.2498 24.6215C24.0222 22.6133 24.4277 18.0466 19.9093 15.8066C18.741 15.1887 15.7674 14.3295 13.2378 15.8935C15.1205 15.3818 18.5383 15.1308 21.1065 17.67C23.4429 19.9872 23.3174 22.845 23.2595 24.2546C23.2595 24.3898 23.2498 24.5153 23.2498 24.6215Z" fill="white"/>
<path d="M15.7484 45.5049C8.71964 45.3021 8.80653 43.9987 10.3513 43.207C10.3513 43.207 7.03004 43.1201 6.39282 44.8966C6.34455 47.262 13.4698 47.7448 15.9994 47.7448C19.4365 47.7448 26.3977 46.7696 26.0308 44.9159C25.9149 43.178 21.2323 43.0429 22.584 43.1973C23.6653 43.3132 23.115 43.9697 22.9702 44.2208C21.6861 45.3793 18.4324 45.4469 16.1732 45.5145C16.038 45.5145 15.8932 45.5145 15.758 45.5145L15.7484 45.5049Z" fill="white"/>
<path d="M38.7667 29.1779C38.6878 29.1779 38.6393 29.1142 38.6211 28.9869C38.5544 28.4167 38.5028 27.9739 38.4664 27.6585C38.4301 27.343 38.4028 27.1065 38.3846 26.9488C38.3724 26.7911 38.3633 26.691 38.3573 26.6485C38.3573 26.6 38.3573 26.5666 38.3573 26.5484C38.3573 26.4817 38.3876 26.4089 38.4483 26.3301C38.5089 26.2512 38.5817 26.2118 38.6666 26.2118C38.7273 26.2118 38.791 26.2482 38.8577 26.321C38.9305 26.3938 38.9972 26.4787 39.0579 26.5757C39.1246 26.6728 39.1792 26.7698 39.2216 26.8669C39.2702 26.9639 39.3005 27.0337 39.3126 27.0762C39.4703 27.4098 39.6402 27.6918 39.8221 27.9223C40.0102 28.1468 40.2225 28.3287 40.459 28.4682C40.6956 28.6017 40.9625 28.6987 41.2597 28.7594C41.5569 28.82 41.8966 28.8504 42.2787 28.8504C42.9278 28.8504 43.4312 28.6957 43.7891 28.3863C44.153 28.077 44.335 27.5796 44.335 26.8942C44.335 26.4999 44.2471 26.142 44.0712 25.8206C43.9013 25.4991 43.6769 25.2019 43.3979 24.9289C43.1188 24.6499 42.8004 24.386 42.4425 24.1373C42.0846 23.8886 41.7177 23.6369 41.3416 23.3821C40.9655 23.1274 40.5985 22.8635 40.2407 22.5906C39.8828 22.3115 39.5643 22.0052 39.2853 21.6716C39.0063 21.338 38.7788 20.968 38.6029 20.5616C38.4331 20.1552 38.3482 19.6972 38.3482 19.1877C38.3482 18.8784 38.4028 18.5902 38.5119 18.3233C38.6272 18.0565 38.7788 17.8138 38.9669 17.5955C39.1549 17.3771 39.3733 17.183 39.622 17.0132C39.8767 16.8372 40.1466 16.6917 40.4317 16.5764C40.7168 16.4551 41.0049 16.3641 41.2961 16.3035C41.5933 16.2428 41.8814 16.2125 42.1605 16.2125C42.3849 16.2125 42.6093 16.2337 42.8338 16.2762C43.0643 16.3126 43.2887 16.3581 43.507 16.4126C43.7315 16.4672 43.9559 16.5279 44.1803 16.5946C44.4048 16.6553 44.6262 16.7129 44.8445 16.7675L45.445 16.7129C45.4996 16.7129 45.533 16.7372 45.5451 16.7857C45.5633 16.8281 45.5755 16.8676 45.5815 16.904L45.8454 19.0421C45.8454 19.0725 45.8059 19.0937 45.7271 19.1058C45.6482 19.118 45.5876 19.124 45.5451 19.124C45.5087 19.124 45.4541 19.121 45.3814 19.1149C45.3086 19.1028 45.2661 19.0907 45.254 19.0785C45.2358 19.0603 45.2115 19.0239 45.1812 18.9693C45.1569 18.9087 45.1296 18.845 45.0993 18.7783C45.069 18.7055 45.0356 18.6327 44.9992 18.5599C44.9689 18.4871 44.9355 18.4234 44.8991 18.3688C44.608 17.92 44.2349 17.5864 43.78 17.368C43.3251 17.1436 42.8247 17.0314 42.2787 17.0314C42.0422 17.0314 41.8208 17.0586 41.6145 17.1132C41.4083 17.1678 41.2294 17.2558 41.0777 17.3771C40.9261 17.4923 40.8048 17.641 40.7138 17.8229C40.6289 18.0049 40.5864 18.2233 40.5864 18.478C40.5864 18.848 40.6713 19.1847 40.8412 19.488C41.0171 19.7852 41.2445 20.0672 41.5236 20.3341C41.8087 20.595 42.1301 20.8497 42.488 21.0984C42.852 21.3471 43.2189 21.6019 43.5889 21.8627C43.965 22.1174 44.332 22.3904 44.6899 22.6816C45.0538 22.9727 45.3753 23.2942 45.6543 23.646C45.9394 23.9978 46.1669 24.389 46.3367 24.8197C46.5126 25.2504 46.6006 25.7356 46.6006 26.2755C46.6006 26.6334 46.5369 26.967 46.4095 27.2763C46.2882 27.5857 46.1214 27.8677 45.9091 28.1225C45.6968 28.3712 45.4481 28.5926 45.163 28.7867C44.8779 28.9808 44.5716 29.1446 44.244 29.278C43.9225 29.4054 43.5889 29.5024 43.2432 29.5692C42.9035 29.6359 42.5699 29.6692 42.2423 29.6692C41.8299 29.6692 41.469 29.6389 41.1596 29.5783C40.8563 29.5176 40.5925 29.4509 40.368 29.3781C40.1497 29.2992 39.9647 29.2295 39.813 29.1688C39.6614 29.1082 39.534 29.0778 39.4309 29.0778C39.3945 29.0778 39.3672 29.0809 39.349 29.0869L38.7667 29.1779ZM48.0654 25.7387C48.0654 25.029 48.1655 24.3769 48.3657 23.7825C48.5658 23.182 48.854 22.6634 49.23 22.2266C49.6061 21.7899 50.0641 21.4502 50.6039 21.2076C51.1498 20.965 51.7685 20.8436 52.46 20.8436C52.6663 20.8436 52.8513 20.8588 53.015 20.8891C53.1788 20.9134 53.3274 20.9498 53.4609 20.9983C53.6004 21.0408 53.7278 21.0954 53.843 21.1621C53.9643 21.2228 54.0856 21.2895 54.207 21.3623C54.3465 21.4351 54.5042 21.5655 54.6801 21.7535C54.862 21.9415 55.0319 22.1599 55.1896 22.4086C55.3473 22.6573 55.4807 22.9242 55.5899 23.2093C55.6991 23.4883 55.7537 23.7582 55.7537 24.019C55.7537 24.104 55.7355 24.198 55.6991 24.3011C55.6688 24.3981 55.6142 24.4467 55.5353 24.4467H50.1672C50.1065 24.4467 50.0641 24.5013 50.0398 24.6104C50.0216 24.7196 50.0125 24.8531 50.0125 25.0108C50.0125 25.5446 50.0883 26.0207 50.24 26.4393C50.3977 26.8517 50.607 27.2035 50.8678 27.4947C51.1286 27.7798 51.4289 27.9981 51.7685 28.1498C52.1082 28.2954 52.4661 28.3682 52.8422 28.3682C53.0787 28.3682 53.3062 28.3378 53.5246 28.2772C53.7429 28.2104 53.9522 28.1255 54.1524 28.0224C54.3525 27.9193 54.5406 27.804 54.7165 27.6767C54.8924 27.5493 55.0592 27.4219 55.2169 27.2945C55.2533 27.2824 55.2775 27.2763 55.2897 27.2763C55.3079 27.2763 55.3321 27.2915 55.3625 27.3218C55.4171 27.3703 55.4716 27.428 55.5262 27.4947C55.5808 27.5553 55.6233 27.6069 55.6536 27.6494C55.6718 27.6676 55.6809 27.6858 55.6809 27.704C55.6809 27.7222 55.6688 27.7434 55.6445 27.7676C55.4444 28.0042 55.1987 28.2377 54.9075 28.4682C54.6164 28.6927 54.304 28.8959 53.9704 29.0778C53.6428 29.2537 53.3062 29.3963 52.9604 29.5055C52.6147 29.6147 52.2872 29.6692 51.9778 29.6692C51.353 29.6692 50.798 29.557 50.3128 29.3326C49.8275 29.1021 49.4181 28.8018 49.0845 28.4318C48.7508 28.0618 48.4961 27.6433 48.3202 27.1762C48.1503 26.7031 48.0654 26.2239 48.0654 25.7387ZM53.4063 23.7461C53.564 23.7461 53.6428 23.6763 53.6428 23.5368C53.6428 23.3003 53.6034 23.0789 53.5246 22.8726C53.4518 22.6603 53.3456 22.4753 53.2061 22.3176C53.0666 22.1538 52.8968 22.0265 52.6966 21.9355C52.5025 21.8445 52.2841 21.799 52.0415 21.799C51.7503 21.799 51.4956 21.8627 51.2772 21.9901C51.0588 22.1114 50.8738 22.26 50.7222 22.4359C50.5706 22.6118 50.4553 22.7938 50.3765 22.9818C50.3037 23.1698 50.2673 23.3306 50.2673 23.464C50.2673 23.5671 50.2824 23.6399 50.3128 23.6824C50.3431 23.7249 50.3825 23.7461 50.431 23.7461H53.4063ZM59.5933 20.88C59.6176 20.8679 59.6418 20.8558 59.6661 20.8436C59.6964 20.8315 59.7176 20.8254 59.7298 20.8254C59.8329 20.8254 59.8844 20.8982 59.8844 21.0438V22.5906C59.8844 22.6088 59.8844 22.633 59.8844 22.6634C59.8905 22.6876 59.9087 22.6998 59.939 22.6998C59.9694 22.6998 59.9936 22.6907 60.0118 22.6725C60.03 22.6482 60.0482 22.627 60.0664 22.6088C60.1756 22.4632 60.2969 22.3024 60.4304 22.1265C60.5699 21.9446 60.7154 21.7747 60.8671 21.617C61.0248 21.4593 61.1855 21.3289 61.3493 21.2258C61.5131 21.1166 61.6738 21.062 61.8315 21.062C61.9407 21.062 62.0833 21.0923 62.2592 21.153C62.4351 21.2137 62.6049 21.2864 62.7687 21.3714C62.9385 21.4502 63.0811 21.5351 63.1963 21.6261C63.3176 21.711 63.3783 21.7808 63.3783 21.8354C63.3783 21.89 63.351 21.9931 63.2964 22.1447C63.2418 22.2903 63.1721 22.4389 63.0871 22.5906C63.0083 22.7422 62.9203 22.8787 62.8233 23C62.7323 23.1153 62.6474 23.1729 62.5685 23.1729H62.5503C62.4411 23.1365 62.3289 23.094 62.2137 23.0455C62.1045 22.9909 61.9923 22.9393 61.877 22.8908C61.7618 22.8362 61.6435 22.7938 61.5222 22.7634C61.4069 22.727 61.2887 22.7088 61.1673 22.7088C60.9854 22.7088 60.8155 22.7483 60.6578 22.8271C60.5001 22.8999 60.3636 22.997 60.2484 23.1183C60.1392 23.2335 60.0513 23.3639 59.9845 23.5095C59.9178 23.6551 59.8844 23.7946 59.8844 23.9281V27.7676C59.8844 27.9436 59.9208 28.0922 59.9936 28.2135C60.0725 28.3287 60.1695 28.4258 60.2848 28.5046C60.4061 28.5774 60.5365 28.635 60.676 28.6775C60.8216 28.7139 60.9611 28.7442 61.0946 28.7685C61.228 28.7928 61.3493 28.814 61.4585 28.8322C61.5677 28.8443 61.6496 28.8625 61.7042 28.8868C61.7648 28.911 61.7951 28.996 61.7951 29.1415C61.7951 29.3174 61.7648 29.4115 61.7042 29.4236H56.4543C56.3936 29.4115 56.3633 29.3174 56.3633 29.1415C56.3633 28.996 56.3936 28.911 56.4543 28.8868C56.5331 28.8504 56.6454 28.8231 56.7909 28.8049C56.9365 28.7806 57.0821 28.7382 57.2277 28.6775C57.3732 28.6108 57.5006 28.5107 57.6098 28.3773C57.719 28.2377 57.7736 28.0345 57.7736 27.7676V23.3912C57.7736 23.2457 57.7342 23.1334 57.6553 23.0546C57.5764 22.9697 57.4764 22.906 57.355 22.8635C57.2337 22.8211 57.1033 22.7877 56.9638 22.7634C56.8243 22.7331 56.6909 22.6998 56.5635 22.6634C56.5271 22.6512 56.4968 22.6361 56.4725 22.6179C56.4543 22.5936 56.4452 22.5481 56.4452 22.4814C56.4452 22.4511 56.4543 22.4207 56.4725 22.3904C56.4907 22.3601 56.5271 22.3297 56.5817 22.2994L59.5933 20.88ZM67.7456 29.6692C67.6971 29.6692 67.6546 29.6329 67.6182 29.5601C67.5879 29.4933 67.5636 29.4357 67.5454 29.3872L65.0797 22.6998C64.9766 22.4207 64.828 22.1781 64.6339 21.9719C64.4398 21.7596 64.2032 21.6079 63.9242 21.5169C63.8817 21.5048 63.8302 21.4957 63.7695 21.4896C63.7089 21.4836 63.6482 21.4745 63.5876 21.4623C63.533 21.4502 63.4844 21.429 63.442 21.3987C63.4056 21.3683 63.3874 21.3198 63.3874 21.2531C63.3874 21.1924 63.4026 21.1378 63.4329 21.0893C63.4632 21.0347 63.5148 21.0074 63.5876 21.0074H68.3734C68.4098 21.0074 68.4341 21.0408 68.4462 21.1075C68.4583 21.1682 68.4644 21.2076 68.4644 21.2258C68.4644 21.3107 68.431 21.3683 68.3643 21.3987C68.2976 21.4229 68.2127 21.4381 68.1095 21.4442C68.0064 21.4502 67.8972 21.4532 67.782 21.4532C67.6667 21.4472 67.5576 21.4593 67.4544 21.4896C67.3513 21.52 67.2664 21.5746 67.1997 21.6534C67.133 21.7262 67.0996 21.8415 67.0996 21.9992C67.0996 22.0174 67.1087 22.0568 67.1269 22.1174C67.1451 22.172 67.1542 22.2054 67.1542 22.2175L68.9648 27.1671C68.9769 27.1975 68.9951 27.243 69.0194 27.3036C69.0497 27.3582 69.0892 27.3855 69.1377 27.3855C69.1619 27.3855 69.1862 27.3734 69.2105 27.3491C69.2408 27.3188 69.2651 27.2854 69.2833 27.249C69.3015 27.2126 69.3166 27.1793 69.3287 27.1489C69.3409 27.1126 69.35 27.0883 69.356 27.0762C69.6411 26.3483 69.8807 25.7356 70.0748 25.2382C70.2689 24.7348 70.4297 24.3163 70.5571 23.9826C70.6844 23.649 70.7815 23.3882 70.8482 23.2002C70.921 23.0061 70.9726 22.8575 71.0029 22.7543C71.0332 22.6512 71.0514 22.5784 71.0575 22.536C71.0635 22.4875 71.0666 22.442 71.0666 22.3995C71.0666 22.1872 70.9999 22.0143 70.8664 21.8809C70.733 21.7414 70.5692 21.6352 70.3751 21.5624C70.3205 21.5503 70.2507 21.5442 70.1658 21.5442C70.087 21.5442 70.0081 21.5382 69.9293 21.526C69.8565 21.5139 69.7897 21.4896 69.7291 21.4532C69.6745 21.4169 69.6472 21.3562 69.6472 21.2713C69.6472 21.2228 69.6715 21.1742 69.72 21.1257C69.7685 21.0772 69.817 21.0529 69.8656 21.0529H73.4959C73.5323 21.059 73.5535 21.0832 73.5596 21.1257C73.5717 21.1621 73.5778 21.2137 73.5778 21.2804C73.5778 21.3228 73.5717 21.3562 73.5596 21.3805C73.5474 21.3987 73.5171 21.4169 73.4686 21.4351C73.4261 21.4472 73.3624 21.4593 73.2775 21.4714C73.1987 21.4836 73.0925 21.5018 72.9591 21.526C72.8256 21.5503 72.7073 21.614 72.6042 21.7171C72.5072 21.8142 72.4162 21.9294 72.3313 22.0629C72.2524 22.1963 72.1827 22.3358 72.122 22.4814C72.0613 22.6209 72.0037 22.7483 71.9491 22.8635C71.5367 23.919 71.1879 24.8136 70.9028 25.5476C70.6238 26.2815 70.3902 26.8912 70.2022 27.3764C70.0142 27.8617 69.8656 28.2408 69.7564 28.5137C69.6533 28.7806 69.5744 28.9808 69.5198 29.1142C69.4652 29.2477 69.4319 29.3296 69.4197 29.3599C69.4076 29.3902 69.4015 29.4054 69.4015 29.4054C69.3833 29.4478 69.356 29.5024 69.3197 29.5692C69.2893 29.6359 69.2499 29.6692 69.2014 29.6692H67.7456ZM74.3057 29.4236C74.2693 29.4115 74.245 29.372 74.2329 29.3053C74.2207 29.2325 74.2147 29.1779 74.2147 29.1415C74.2147 29.1112 74.2238 29.0627 74.242 28.996C74.2602 28.9292 74.2814 28.8898 74.3057 28.8777C74.3845 28.8413 74.4967 28.814 74.6423 28.7958C74.7879 28.7715 74.9335 28.7291 75.079 28.6684C75.2246 28.6017 75.352 28.5016 75.4612 28.3682C75.5704 28.2286 75.625 28.0254 75.625 27.7585V23.3912C75.625 23.2457 75.5855 23.1334 75.5067 23.0546C75.4278 22.9697 75.3277 22.906 75.2064 22.8635C75.0851 22.8211 74.9547 22.7877 74.8152 22.7634C74.6757 22.7331 74.5422 22.6998 74.4148 22.6634C74.3784 22.6512 74.3481 22.6361 74.3239 22.6179C74.3057 22.5936 74.2966 22.5481 74.2966 22.4814C74.2966 22.4511 74.3057 22.4207 74.3239 22.3904C74.3421 22.3601 74.3784 22.3297 74.433 22.2994L77.4447 20.88C77.4689 20.8679 77.4932 20.8558 77.5175 20.8436C77.5478 20.8315 77.569 20.8254 77.5811 20.8254C77.6843 20.8254 77.7358 20.8982 77.7358 21.0438V27.7585C77.7358 28.0254 77.7904 28.2286 77.8996 28.3682C78.0088 28.5016 78.1362 28.6017 78.2817 28.6684C78.4273 28.7291 78.5729 28.7715 78.7185 28.7958C78.864 28.814 78.9763 28.8413 79.0551 28.8777C79.0794 28.8898 79.1006 28.9292 79.1188 28.996C79.137 29.0627 79.1461 29.1112 79.1461 29.1415C79.1461 29.1779 79.14 29.2325 79.1279 29.3053C79.1158 29.372 79.0915 29.4115 79.0551 29.4236H74.3057ZM75.2337 17.5318C75.2337 17.1436 75.349 16.8342 75.5795 16.6037C75.81 16.3732 76.1193 16.258 76.5075 16.258C76.8957 16.258 77.2051 16.3732 77.4356 16.6037C77.6661 16.8342 77.7813 17.1436 77.7813 17.5318C77.7813 17.92 77.6661 18.2293 77.4356 18.4598C77.2051 18.6843 76.8957 18.7965 76.5075 18.7965C76.1193 18.7965 75.81 18.6843 75.5795 18.4598C75.349 18.2293 75.2337 17.92 75.2337 17.5318ZM80.4199 25.5749C80.426 24.6954 80.5594 23.9554 80.8202 23.3548C81.0811 22.7483 81.4298 22.26 81.8666 21.89C82.3033 21.52 82.8098 21.2531 83.386 21.0893C83.9683 20.9255 84.5779 20.8436 85.2148 20.8436C85.3483 20.8436 85.506 20.8497 85.688 20.8618C85.876 20.8679 86.0671 20.8861 86.2612 20.9164C86.4613 20.9407 86.6554 20.9801 86.8435 21.0347C87.0376 21.0893 87.2104 21.1651 87.3621 21.2622C87.5198 21.3532 87.6441 21.4684 87.7351 21.6079C87.8322 21.7414 87.8807 21.9051 87.8807 22.0992C87.8807 22.2448 87.8534 22.3631 87.7988 22.4541C87.7442 22.539 87.6684 22.6088 87.5714 22.6634C87.4743 22.7119 87.3621 22.7452 87.2347 22.7634C87.1073 22.7816 86.9709 22.7907 86.8253 22.7907C86.6554 22.7907 86.5099 22.7634 86.3885 22.7088C86.2733 22.6482 86.1671 22.5784 86.0701 22.4996C85.973 22.4147 85.8821 22.3237 85.7971 22.2266C85.7122 22.1235 85.6182 22.0325 85.5151 21.9537C85.418 21.8687 85.3058 21.799 85.1784 21.7444C85.0511 21.6837 84.8964 21.6534 84.7144 21.6534C84.2898 21.6534 83.941 21.7626 83.6681 21.981C83.3951 22.1933 83.1798 22.4662 83.0221 22.7998C82.8704 23.1274 82.7643 23.4883 82.7036 23.8826C82.649 24.2768 82.6217 24.6529 82.6217 25.0108C82.6217 25.496 82.6672 25.9449 82.7582 26.3574C82.8492 26.7638 82.9948 27.1156 83.195 27.4128C83.4012 27.71 83.665 27.9436 83.9865 28.1134C84.3141 28.2772 84.7083 28.3591 85.1693 28.3591C85.3392 28.3591 85.506 28.3318 85.6698 28.2772C85.8396 28.2226 86.0003 28.1498 86.152 28.0588C86.3097 27.9617 86.4553 27.8526 86.5887 27.7313C86.7282 27.6099 86.8556 27.4795 86.9709 27.34C87.0315 27.2672 87.0891 27.2066 87.1437 27.158C87.2044 27.1095 87.2954 27.0853 87.4167 27.0853C87.5623 27.0853 87.6866 27.1247 87.7897 27.2035C87.8989 27.2763 87.9535 27.3552 87.9535 27.4401C87.9535 27.4644 87.9474 27.4977 87.9353 27.5402C87.9292 27.5766 87.8989 27.6312 87.8443 27.704C87.6138 27.9951 87.3651 28.262 87.0982 28.5046C86.8313 28.7473 86.5463 28.9535 86.243 29.1233C85.9397 29.2932 85.6121 29.4236 85.2603 29.5146C84.9146 29.6116 84.5446 29.6601 84.1503 29.6601C83.6286 29.6601 83.1404 29.5449 82.6854 29.3144C82.2366 29.0778 81.8423 28.7685 81.5026 28.3863C81.169 27.9981 80.9051 27.5614 80.711 27.0762C80.5169 26.5848 80.4199 26.0844 80.4199 25.5749ZM89.2273 25.7387C89.2273 25.029 89.3274 24.3769 89.5275 23.7825C89.7277 23.182 90.0158 22.6634 90.3919 22.2266C90.768 21.7899 91.2259 21.4502 91.7658 21.2076C92.3117 20.965 92.9304 20.8436 93.6219 20.8436C93.8281 20.8436 94.0131 20.8588 94.1769 20.8891C94.3407 20.9134 94.4893 20.9498 94.6227 20.9983C94.7622 21.0408 94.8896 21.0954 95.0049 21.1621C95.1262 21.2228 95.2475 21.2895 95.3688 21.3623C95.5083 21.4351 95.666 21.5655 95.8419 21.7535C96.0239 21.9415 96.1938 22.1599 96.3515 22.4086C96.5092 22.6573 96.6426 22.9242 96.7518 23.2093C96.861 23.4883 96.9156 23.7582 96.9156 24.019C96.9156 24.104 96.8974 24.198 96.861 24.3011C96.8307 24.3981 96.7761 24.4467 96.6972 24.4467H91.3291C91.2684 24.4467 91.2259 24.5013 91.2017 24.6104C91.1835 24.7196 91.1744 24.8531 91.1744 25.0108C91.1744 25.5446 91.2502 26.0207 91.4018 26.4393C91.5596 26.8517 91.7688 27.2035 92.0296 27.4947C92.2905 27.7798 92.5907 27.9981 92.9304 28.1498C93.2701 28.2954 93.628 28.3682 94.004 28.3682C94.2406 28.3682 94.4681 28.3378 94.6864 28.2772C94.9048 28.2104 95.1141 28.1255 95.3142 28.0224C95.5144 27.9193 95.7024 27.804 95.8783 27.6767C96.0542 27.5493 96.221 27.4219 96.3788 27.2945C96.4152 27.2824 96.4394 27.2763 96.4515 27.2763C96.4697 27.2763 96.494 27.2915 96.5243 27.3218C96.5789 27.3703 96.6335 27.428 96.6881 27.4947C96.7427 27.5553 96.7852 27.6069 96.8155 27.6494C96.8337 27.6676 96.8428 27.6858 96.8428 27.704C96.8428 27.7222 96.8307 27.7434 96.8064 27.7676C96.6062 28.0042 96.3606 28.2377 96.0694 28.4682C95.7783 28.6927 95.4659 28.8959 95.1323 29.0778C94.8047 29.2537 94.4681 29.3963 94.1223 29.5055C93.7766 29.6147 93.449 29.6692 93.1397 29.6692C92.5149 29.6692 91.9599 29.557 91.4746 29.3326C90.9894 29.1021 90.5799 28.8018 90.2463 28.4318C89.9127 28.0618 89.658 27.6433 89.4821 27.1762C89.3122 26.7031 89.2273 26.2239 89.2273 25.7387ZM94.5681 23.7461C94.7259 23.7461 94.8047 23.6763 94.8047 23.5368C94.8047 23.3003 94.7653 23.0789 94.6864 22.8726C94.6136 22.6603 94.5075 22.4753 94.368 22.3176C94.2285 22.1538 94.0586 22.0265 93.8585 21.9355C93.6644 21.8445 93.446 21.799 93.2034 21.799C92.9122 21.799 92.6574 21.8627 92.4391 21.9901C92.2207 22.1114 92.0357 22.26 91.8841 22.4359C91.7324 22.6118 91.6172 22.7938 91.5383 22.9818C91.4655 23.1698 91.4291 23.3306 91.4291 23.464C91.4291 23.5671 91.4443 23.6399 91.4746 23.6824C91.505 23.7249 91.5444 23.7461 91.5929 23.7461H94.5681Z" fill="white"/>
<path d="M38.8223 36.4615C38.8223 36.126 38.8643 35.81 38.9481 35.5135C39.032 35.214 39.1503 34.9384 39.303 34.6868C39.4558 34.4352 39.64 34.2091 39.8556 34.0084C40.0713 33.8078 40.3094 33.6385 40.57 33.5008C40.8336 33.36 41.1151 33.2522 41.4146 33.1773C41.7141 33.1024 42.0271 33.065 42.3536 33.065C42.6291 33.065 42.8942 33.0904 43.1488 33.1413C43.4064 33.1893 43.6714 33.2462 43.944 33.3121C43.9889 33.324 44.0354 33.339 44.0833 33.357C44.1342 33.375 44.1806 33.3929 44.2226 33.4109C44.2675 33.4259 44.3079 33.4394 44.3439 33.4513C44.3798 33.4633 44.4068 33.4693 44.4247 33.4693C44.4307 33.4693 44.4502 33.4633 44.4831 33.4513C44.5191 33.4394 44.5445 33.4334 44.5595 33.4334H44.7662C44.8021 33.4334 44.8201 33.4588 44.8201 33.5097V34.9744C44.8201 34.9923 44.8126 35.0043 44.7976 35.0103C44.7856 35.0163 44.7572 35.0193 44.7123 35.0193C44.7033 35.0193 44.6793 35.0193 44.6404 35.0193C44.6044 35.0163 44.582 35.0073 44.573 34.9923C44.567 34.9834 44.555 34.9654 44.537 34.9384C44.5221 34.9115 44.5041 34.8845 44.4831 34.8576C44.4652 34.8276 44.4472 34.8007 44.4292 34.7767C44.4142 34.7497 44.4053 34.7318 44.4023 34.7228C44.2884 34.4981 44.1641 34.3094 44.0294 34.1567C43.8946 34.001 43.7448 33.8752 43.5801 33.7793C43.4184 33.6835 43.2416 33.6146 43.05 33.5726C42.8583 33.5277 42.6501 33.5053 42.4255 33.5053C42.1409 33.5053 41.8878 33.5382 41.6662 33.6041C41.4476 33.67 41.2559 33.7628 41.0911 33.8826C40.9264 34.0024 40.7871 34.1462 40.6733 34.3139C40.5625 34.4817 40.4711 34.6659 40.3993 34.8665C40.3304 35.0642 40.2795 35.2769 40.2465 35.5045C40.2166 35.7291 40.2016 35.9613 40.2016 36.2009C40.2016 36.4555 40.2196 36.7086 40.2555 36.9601C40.2914 37.2087 40.3498 37.4469 40.4307 37.6745C40.5116 37.8991 40.6149 38.1088 40.7407 38.3035C40.8695 38.4952 41.0237 38.6629 41.2035 38.8066C41.3832 38.9474 41.5928 39.0582 41.8324 39.1391C42.072 39.22 42.3431 39.2604 42.6456 39.2604C42.9002 39.2604 43.1368 39.223 43.3555 39.1481C43.5771 39.0702 43.7793 38.9669 43.962 38.8381C44.1447 38.7063 44.3064 38.5566 44.4472 38.3888C44.591 38.2181 44.7138 38.0399 44.8156 37.8542C44.8216 37.8392 44.8276 37.8317 44.8336 37.8317C44.8425 37.8287 44.8545 37.8272 44.8695 37.8272H45.0986C45.1076 37.8272 45.1166 37.8317 45.1256 37.8407C45.1376 37.8467 45.1436 37.8617 45.1436 37.8856C45.1436 37.8946 45.1361 37.9186 45.1211 37.9575C45.1091 37.9935 45.0956 38.0249 45.0807 38.0519L44.4607 39.4177C44.4547 39.4266 44.4457 39.4341 44.4337 39.4401C44.4217 39.4461 44.4112 39.4491 44.4023 39.4491C44.3304 39.4491 44.2795 39.4431 44.2495 39.4311C44.2226 39.4192 44.1941 39.4132 44.1641 39.4132C44.0743 39.4132 43.9545 39.4296 43.8047 39.4626C43.658 39.4925 43.4977 39.5255 43.324 39.5614C43.1533 39.5974 42.9796 39.6303 42.8029 39.6603C42.6291 39.6932 42.4734 39.7097 42.3356 39.7097C42.0211 39.7097 41.7156 39.6752 41.4191 39.6063C41.1226 39.5375 40.844 39.4386 40.5835 39.3098C40.3229 39.178 40.0848 39.0178 39.8691 38.8291C39.6535 38.6374 39.4678 38.4218 39.312 38.1822C39.1563 37.9426 39.035 37.679 38.9481 37.3914C38.8643 37.1009 38.8223 36.7909 38.8223 36.4615ZM45.8309 37.4903C45.8309 37.2087 45.8923 36.9392 46.0151 36.6816C46.1409 36.424 46.3087 36.1964 46.5183 35.9987C46.728 35.801 46.9721 35.6438 47.2506 35.527C47.5292 35.4102 47.8227 35.3518 48.1312 35.3518C48.4547 35.3518 48.7617 35.4072 49.0522 35.518C49.3427 35.6288 49.5973 35.7816 49.816 35.9762C50.0376 36.1679 50.2128 36.3956 50.3416 36.6591C50.4704 36.9197 50.5348 37.2028 50.5348 37.5083C50.5348 37.8198 50.4749 38.1103 50.3551 38.3798C50.2383 38.6464 50.0751 38.8785 49.8654 39.0762C49.6557 39.2739 49.4056 39.4296 49.1151 39.5435C48.8276 39.6543 48.5131 39.7097 48.1716 39.7097C47.8332 39.7097 47.5202 39.6528 47.2327 39.539C46.9481 39.4221 46.701 39.2649 46.4914 39.0672C46.2847 38.8666 46.123 38.6314 46.0062 38.3619C45.8893 38.0923 45.8309 37.8018 45.8309 37.4903ZM46.9811 37.2072C46.9811 37.369 46.9931 37.5367 47.017 37.7104C47.041 37.8812 47.0769 38.0489 47.1248 38.2136C47.1728 38.3753 47.2327 38.5281 47.3045 38.6719C47.3794 38.8156 47.4678 38.9429 47.5696 39.0537C47.6715 39.1616 47.7868 39.2469 47.9156 39.3098C48.0443 39.3727 48.1896 39.4042 48.3513 39.4042C48.5281 39.4042 48.6793 39.3593 48.8051 39.2694C48.9339 39.1765 49.0387 39.0567 49.1196 38.91C49.2035 38.7632 49.2649 38.5985 49.3038 38.4158C49.3427 38.2331 49.3622 38.0504 49.3622 37.8677C49.3622 37.7209 49.3487 37.5667 49.3218 37.4049C49.2948 37.2402 49.2544 37.0785 49.2005 36.9197C49.1466 36.758 49.0807 36.6037 49.0028 36.457C48.9249 36.3102 48.8336 36.1814 48.7287 36.0706C48.6269 35.9568 48.5116 35.8669 48.3828 35.801C48.257 35.7351 48.1192 35.7022 47.9695 35.7022C47.8017 35.7022 47.655 35.7486 47.5292 35.8415C47.4064 35.9313 47.3045 36.0496 47.2237 36.1964C47.1428 36.3402 47.0814 36.5019 47.0395 36.6816C47.0005 36.8583 46.9811 37.0335 46.9811 37.2072ZM52.2825 35.2305C52.2944 35.2245 52.3064 35.2185 52.3184 35.2125C52.3334 35.2065 52.3439 35.2035 52.3499 35.2035C52.4008 35.2035 52.4262 35.2394 52.4262 35.3113V36.0122C52.4352 36.0421 52.4472 36.0571 52.4622 36.0571C52.4772 36.0571 52.4891 36.0571 52.4981 36.0571C52.5071 36.0541 52.5191 36.0481 52.5341 36.0391C52.7257 35.9403 52.8875 35.8579 53.0193 35.792C53.1541 35.7232 53.2694 35.6662 53.3652 35.6213C53.464 35.5734 53.5509 35.5375 53.6258 35.5135C53.7037 35.4865 53.7815 35.4671 53.8594 35.4551C53.9373 35.4401 54.0226 35.4311 54.1155 35.4281C54.2083 35.4251 54.3222 35.4236 54.4569 35.4236C54.6037 35.4236 54.731 35.4551 54.8388 35.518C54.9466 35.5809 55.0365 35.6647 55.1084 35.7696C55.1833 35.8714 55.2432 35.9897 55.2881 36.1245C55.336 36.2563 55.372 36.3926 55.3959 36.5333C55.4199 36.6711 55.4363 36.8089 55.4453 36.9467C55.4543 37.0814 55.4588 37.2042 55.4588 37.3151C55.4588 37.4199 55.4558 37.5172 55.4498 37.6071C55.4468 37.6969 55.4423 37.7958 55.4363 37.9036C55.4334 38.0084 55.4289 38.1282 55.4229 38.263C55.4199 38.3978 55.4184 38.561 55.4184 38.7527C55.4184 38.8426 55.4348 38.9175 55.4678 38.9774C55.5007 39.0373 55.5427 39.0867 55.5936 39.1256C55.6475 39.1646 55.7059 39.1945 55.7688 39.2155C55.8317 39.2335 55.8931 39.2484 55.953 39.2604C56.0129 39.2724 56.0668 39.2829 56.1147 39.2919C56.1657 39.2979 56.2046 39.3068 56.2316 39.3188C56.2435 39.3248 56.254 39.3443 56.263 39.3772C56.272 39.4102 56.2765 39.4341 56.2765 39.4491C56.2765 39.4671 56.2735 39.494 56.2675 39.53C56.2615 39.5629 56.2495 39.5824 56.2316 39.5884H53.7246C53.7067 39.5824 53.6947 39.5629 53.6887 39.53C53.6827 39.494 53.6797 39.4671 53.6797 39.4491C53.6797 39.4341 53.6842 39.4102 53.6932 39.3772C53.7022 39.3443 53.7126 39.3248 53.7246 39.3188C53.7636 39.3008 53.8145 39.2874 53.8774 39.2784C53.9433 39.2664 54.0092 39.2424 54.0751 39.2065C54.1439 39.1706 54.2053 39.1166 54.2593 39.0448C54.3162 38.9699 54.3536 38.8606 54.3716 38.7168C54.3776 38.6719 54.3821 38.6299 54.3851 38.591C54.391 38.5521 54.3955 38.5131 54.3985 38.4742C54.4015 38.4323 54.403 38.3873 54.403 38.3394C54.406 38.2915 54.4075 38.2361 54.4075 38.1732C54.4075 38.0384 54.406 37.8946 54.403 37.7419C54.4 37.5891 54.3985 37.4184 54.3985 37.2297C54.3985 37.0829 54.391 36.9377 54.3761 36.7939C54.3641 36.6501 54.3311 36.5214 54.2772 36.4075C54.2263 36.2937 54.1499 36.2009 54.0481 36.129C53.9463 36.0571 53.8055 36.0212 53.6258 36.0212C53.5629 36.0212 53.506 36.0257 53.4551 36.0346C53.4071 36.0406 53.3472 36.0571 53.2754 36.0841C53.2065 36.111 53.1151 36.1515 53.0013 36.2054C52.8875 36.2593 52.7347 36.3327 52.543 36.4255C52.5191 36.4405 52.4936 36.4585 52.4667 36.4794C52.4427 36.4974 52.4292 36.5214 52.4262 36.5513V38.7527C52.4262 38.8875 52.4532 38.9908 52.5071 39.0627C52.561 39.1316 52.6239 39.1825 52.6958 39.2155C52.7677 39.2454 52.8396 39.2664 52.9114 39.2784C52.9833 39.2874 53.0387 39.3008 53.0777 39.3188C53.0897 39.3248 53.1001 39.3443 53.1091 39.3772C53.1181 39.4102 53.1226 39.4341 53.1226 39.4491C53.1226 39.4671 53.1196 39.494 53.1136 39.53C53.1076 39.5629 53.0956 39.5824 53.0777 39.5884H50.7325C50.7145 39.5824 50.7025 39.5629 50.6965 39.53C50.6906 39.494 50.6876 39.4671 50.6876 39.4491C50.6876 39.4341 50.692 39.4102 50.701 39.3772C50.71 39.3443 50.7205 39.3248 50.7325 39.3188C50.7714 39.3008 50.8268 39.2874 50.8987 39.2784C50.9706 39.2664 51.0425 39.2454 51.1144 39.2155C51.1862 39.1825 51.2491 39.1316 51.3031 39.0627C51.357 38.9908 51.3839 38.8875 51.3839 38.7527V36.4704C51.3839 36.3986 51.3645 36.3431 51.3255 36.3042C51.2866 36.2623 51.2372 36.2308 51.1773 36.2099C51.1174 36.1889 51.053 36.1724 50.9841 36.1604C50.9152 36.1455 50.8493 36.129 50.7864 36.111C50.7684 36.105 50.7534 36.0975 50.7415 36.0886C50.7325 36.0766 50.728 36.0541 50.728 36.0212C50.728 36.0062 50.7325 35.9912 50.7415 35.9762C50.7505 35.9613 50.7684 35.9463 50.7954 35.9313L52.2825 35.2305ZM58.1949 35.2305C58.2068 35.2245 58.2188 35.2185 58.2308 35.2125C58.2458 35.2065 58.2563 35.2035 58.2623 35.2035C58.3132 35.2035 58.3386 35.2394 58.3386 35.3113V36.0122C58.3476 36.0421 58.3596 36.0571 58.3746 36.0571C58.3896 36.0571 58.4015 36.0571 58.4105 36.0571C58.4195 36.0541 58.4315 36.0481 58.4465 36.0391C58.6381 35.9403 58.7999 35.8579 58.9317 35.792C59.0665 35.7232 59.1818 35.6662 59.2776 35.6213C59.3764 35.5734 59.4633 35.5375 59.5382 35.5135C59.6161 35.4865 59.6939 35.4671 59.7718 35.4551C59.8497 35.4401 59.935 35.4311 60.0279 35.4281C60.1207 35.4251 60.2346 35.4236 60.3693 35.4236C60.5161 35.4236 60.6434 35.4551 60.7512 35.518C60.859 35.5809 60.9489 35.6647 61.0208 35.7696C61.0957 35.8714 61.1556 35.9897 61.2005 36.1245C61.2484 36.2563 61.2844 36.3926 61.3083 36.5333C61.3323 36.6711 61.3487 36.8089 61.3577 36.9467C61.3667 37.0814 61.3712 37.2042 61.3712 37.3151C61.3712 37.4199 61.3682 37.5172 61.3622 37.6071C61.3592 37.6969 61.3547 37.7958 61.3487 37.9036C61.3458 38.0084 61.3413 38.1282 61.3353 38.263C61.3323 38.3978 61.3308 38.561 61.3308 38.7527C61.3308 38.8426 61.3473 38.9175 61.3802 38.9774C61.4131 39.0373 61.4551 39.0867 61.506 39.1256C61.5599 39.1646 61.6183 39.1945 61.6812 39.2155C61.7441 39.2335 61.8055 39.2484 61.8654 39.2604C61.9253 39.2724 61.9792 39.2829 62.0271 39.2919C62.0781 39.2979 62.117 39.3068 62.144 39.3188C62.1559 39.3248 62.1664 39.3443 62.1754 39.3772C62.1844 39.4102 62.1889 39.4341 62.1889 39.4491C62.1889 39.4671 62.1859 39.494 62.1799 39.53C62.1739 39.5629 62.1619 39.5824 62.144 39.5884H59.637C59.6191 39.5824 59.6071 39.5629 59.6011 39.53C59.5951 39.494 59.5921 39.4671 59.5921 39.4491C59.5921 39.4341 59.5966 39.4102 59.6056 39.3772C59.6146 39.3443 59.625 39.3248 59.637 39.3188C59.676 39.3008 59.7269 39.2874 59.7898 39.2784C59.8557 39.2664 59.9216 39.2424 59.9875 39.2065C60.0563 39.1706 60.1177 39.1166 60.1717 39.0448C60.2286 38.9699 60.266 38.8606 60.284 38.7168C60.29 38.6719 60.2945 38.6299 60.2975 38.591C60.3034 38.5521 60.3079 38.5131 60.3109 38.4742C60.3139 38.4323 60.3154 38.3873 60.3154 38.3394C60.3184 38.2915 60.3199 38.2361 60.3199 38.1732C60.3199 38.0384 60.3184 37.8946 60.3154 37.7419C60.3124 37.5891 60.3109 37.4184 60.3109 37.2297C60.3109 37.0829 60.3034 36.9377 60.2885 36.7939C60.2765 36.6501 60.2435 36.5214 60.1896 36.4075C60.1387 36.2937 60.0623 36.2009 59.9605 36.129C59.8587 36.0571 59.7179 36.0212 59.5382 36.0212C59.4753 36.0212 59.4184 36.0257 59.3675 36.0346C59.3195 36.0406 59.2596 36.0571 59.1878 36.0841C59.1189 36.111 59.0275 36.1515 58.9137 36.2054C58.7999 36.2593 58.6471 36.3327 58.4554 36.4255C58.4315 36.4405 58.406 36.4585 58.3791 36.4794C58.3551 36.4974 58.3416 36.5214 58.3386 36.5513V38.7527C58.3386 38.8875 58.3656 38.9908 58.4195 39.0627C58.4734 39.1316 58.5363 39.1825 58.6082 39.2155C58.6801 39.2454 58.752 39.2664 58.8238 39.2784C58.8957 39.2874 58.9511 39.3008 58.9901 39.3188C59.0021 39.3248 59.0125 39.3443 59.0215 39.3772C59.0305 39.4102 59.035 39.4341 59.035 39.4491C59.035 39.4671 59.032 39.494 59.026 39.53C59.02 39.5629 59.008 39.5824 58.9901 39.5884H56.6449C56.6269 39.5824 56.6149 39.5629 56.6089 39.53C56.603 39.494 56.6 39.4671 56.6 39.4491C56.6 39.4341 56.6045 39.4102 56.6134 39.3772C56.6224 39.3443 56.6329 39.3248 56.6449 39.3188C56.6838 39.3008 56.7392 39.2874 56.8111 39.2784C56.883 39.2664 56.9549 39.2454 57.0268 39.2155C57.0986 39.1825 57.1615 39.1316 57.2155 39.0627C57.2694 38.9908 57.2963 38.8875 57.2963 38.7527V36.4704C57.2963 36.3986 57.2769 36.3431 57.2379 36.3042C57.199 36.2623 57.1496 36.2308 57.0897 36.2099C57.0298 36.1889 56.9654 36.1724 56.8965 36.1604C56.8276 36.1455 56.7617 36.129 56.6988 36.111C56.6808 36.105 56.6659 36.0975 56.6539 36.0886C56.6449 36.0766 56.6404 36.0541 56.6404 36.0212C56.6404 36.0062 56.6449 35.9912 56.6539 35.9762C56.6629 35.9613 56.6808 35.9463 56.7078 35.9313L58.1949 35.2305ZM62.5932 37.7688C62.5932 37.4184 62.6426 37.0964 62.7415 36.8029C62.8403 36.5064 62.9826 36.2503 63.1683 36.0346C63.354 35.819 63.5801 35.6513 63.8467 35.5315C64.1163 35.4117 64.4218 35.3518 64.7632 35.3518C64.865 35.3518 64.9564 35.3592 65.0373 35.3742C65.1181 35.3862 65.1915 35.4042 65.2574 35.4281C65.3263 35.4491 65.3892 35.4761 65.4461 35.509C65.506 35.539 65.5659 35.5719 65.6258 35.6078C65.6947 35.6438 65.7726 35.7082 65.8594 35.801C65.9493 35.8939 66.0331 36.0017 66.111 36.1245C66.1889 36.2473 66.2548 36.3791 66.3087 36.5199C66.3626 36.6576 66.3896 36.7909 66.3896 36.9197C66.3896 36.9616 66.3806 37.0081 66.3626 37.059C66.3476 37.1069 66.3207 37.1309 66.2817 37.1309H63.631C63.6011 37.1309 63.5801 37.1578 63.5681 37.2117C63.5592 37.2656 63.5547 37.3315 63.5547 37.4094C63.5547 37.673 63.5921 37.9081 63.667 38.1148C63.7449 38.3184 63.8482 38.4922 63.977 38.6359C64.1058 38.7767 64.254 38.8845 64.4218 38.9594C64.5895 39.0313 64.7662 39.0672 64.9519 39.0672C65.0687 39.0672 65.181 39.0522 65.2889 39.0223C65.3967 38.9894 65.5 38.9474 65.5988 38.8965C65.6977 38.8456 65.7905 38.7887 65.8774 38.7258C65.9643 38.6629 66.0466 38.6 66.1245 38.5371C66.1425 38.5311 66.1544 38.5281 66.1604 38.5281C66.1694 38.5281 66.1814 38.5356 66.1964 38.5506C66.2233 38.5745 66.2503 38.603 66.2772 38.6359C66.3042 38.6659 66.3252 38.6913 66.3401 38.7123C66.3491 38.7213 66.3536 38.7303 66.3536 38.7393C66.3536 38.7482 66.3476 38.7587 66.3357 38.7707C66.2368 38.8875 66.1155 39.0028 65.9717 39.1166C65.828 39.2275 65.6737 39.3278 65.509 39.4177C65.3473 39.5045 65.181 39.5749 65.0103 39.6288C64.8396 39.6827 64.6778 39.7097 64.5251 39.7097C64.2166 39.7097 63.9425 39.6543 63.7029 39.5435C63.4633 39.4296 63.2611 39.2814 63.0964 39.0987C62.9317 38.916 62.8059 38.7093 62.719 38.4787C62.6352 38.2451 62.5932 38.0084 62.5932 37.7688ZM65.2304 36.7849C65.3083 36.7849 65.3473 36.7505 65.3473 36.6816C65.3473 36.5648 65.3278 36.4555 65.2889 36.3536C65.2529 36.2488 65.2005 36.1574 65.1316 36.0796C65.0627 35.9987 64.9789 35.9358 64.88 35.8909C64.7842 35.846 64.6763 35.8235 64.5565 35.8235C64.4128 35.8235 64.287 35.8549 64.1792 35.9178C64.0713 35.9777 63.98 36.0511 63.9051 36.138C63.8302 36.2248 63.7733 36.3147 63.7344 36.4075C63.6984 36.5004 63.6805 36.5798 63.6805 36.6457C63.6805 36.6966 63.688 36.7325 63.7029 36.7535C63.7179 36.7744 63.7374 36.7849 63.7613 36.7849H65.2304ZM67.2387 37.688C67.2417 37.2537 67.3076 36.8883 67.4364 36.5917C67.5652 36.2922 67.7374 36.0511 67.953 35.8684C68.1687 35.6857 68.4188 35.5539 68.7033 35.4731C68.9908 35.3922 69.2919 35.3518 69.6063 35.3518C69.6722 35.3518 69.7501 35.3548 69.84 35.3607C69.9328 35.3637 70.0272 35.3727 70.123 35.3877C70.2218 35.3997 70.3177 35.4191 70.4105 35.4461C70.5064 35.4731 70.5917 35.5105 70.6666 35.5584C70.7445 35.6033 70.8059 35.6603 70.8508 35.7291C70.8987 35.795 70.9227 35.8759 70.9227 35.9718C70.9227 36.0436 70.9092 36.102 70.8823 36.147C70.8553 36.1889 70.8179 36.2233 70.77 36.2503C70.722 36.2743 70.6666 36.2907 70.6037 36.2997C70.5408 36.3087 70.4734 36.3132 70.4016 36.3132C70.3177 36.3132 70.2458 36.2997 70.1859 36.2728C70.129 36.2428 70.0766 36.2084 70.0287 36.1694C69.9807 36.1275 69.9358 36.0826 69.8939 36.0346C69.8519 35.9837 69.8055 35.9388 69.7546 35.8999C69.7067 35.8579 69.6513 35.8235 69.5884 35.7965C69.5255 35.7666 69.4491 35.7516 69.3592 35.7516C69.1496 35.7516 68.9774 35.8055 68.8426 35.9133C68.7078 36.0182 68.6015 36.153 68.5236 36.3177C68.4487 36.4794 68.3963 36.6576 68.3664 36.8523C68.3394 37.047 68.3259 37.2327 68.3259 37.4094C68.3259 37.649 68.3484 37.8707 68.3933 38.0743C68.4382 38.275 68.5101 38.4487 68.609 38.5955C68.7108 38.7423 68.8411 38.8576 68.9998 38.9414C69.1616 39.0223 69.3562 39.0627 69.5839 39.0627C69.6677 39.0627 69.7501 39.0493 69.831 39.0223C69.9148 38.9953 69.9942 38.9594 70.0691 38.9145C70.147 38.8666 70.2188 38.8126 70.2847 38.7527C70.3536 38.6928 70.4165 38.6284 70.4734 38.5595C70.5034 38.5236 70.5318 38.4937 70.5588 38.4697C70.5887 38.4457 70.6337 38.4338 70.6936 38.4338C70.7655 38.4338 70.8269 38.4532 70.8778 38.4922C70.9317 38.5281 70.9586 38.567 70.9586 38.609C70.9586 38.6209 70.9557 38.6374 70.9497 38.6584C70.9467 38.6764 70.9317 38.7033 70.9047 38.7393C70.7909 38.883 70.6681 39.0148 70.5363 39.1346C70.4045 39.2544 70.2638 39.3563 70.114 39.4401C69.9643 39.524 69.8025 39.5884 69.6288 39.6333C69.4581 39.6812 69.2754 39.7052 69.0807 39.7052C68.8231 39.7052 68.582 39.6483 68.3574 39.5345C68.1357 39.4177 67.941 39.2649 67.7733 39.0762C67.6086 38.8845 67.4783 38.6689 67.3825 38.4293C67.2866 38.1867 67.2387 37.9396 67.2387 37.688ZM71.9515 36.1245H71.6146C71.5726 36.1245 71.5397 36.114 71.5157 36.0931C71.4918 36.0721 71.4783 36.0496 71.4753 36.0257C71.4753 36.0107 71.4783 35.9942 71.4843 35.9762C71.4903 35.9583 71.4978 35.9463 71.5068 35.9403C71.5667 35.9014 71.6311 35.8564 71.6999 35.8055C71.7718 35.7516 71.8422 35.6962 71.9111 35.6393C71.98 35.5824 72.0474 35.5255 72.1133 35.4686C72.1792 35.4117 72.2376 35.3592 72.2885 35.3113C72.3184 35.2784 72.3589 35.229 72.4098 35.1631C72.4637 35.0972 72.5236 35.0328 72.5895 34.9699C72.6584 34.904 72.7318 34.8471 72.8096 34.7992C72.8875 34.7482 72.9669 34.7228 73.0478 34.7228C73.0657 34.7228 73.0867 34.7288 73.1107 34.7407C73.1346 34.7527 73.1466 34.7677 73.1466 34.7857C73.1466 34.8066 73.1406 34.8396 73.1286 34.8845C73.1196 34.9264 73.1077 34.9744 73.0927 35.0283C73.0777 35.0822 73.0612 35.1391 73.0433 35.199C73.0253 35.2589 73.0088 35.3173 72.9938 35.3742C72.9938 35.3982 72.9968 35.4177 73.0028 35.4326C73.0118 35.4476 73.0328 35.4566 73.0657 35.4596H74.2114C74.2593 35.4596 74.2922 35.4686 74.3102 35.4865C74.3282 35.5015 74.3417 35.5225 74.3506 35.5494C74.3566 35.5644 74.3626 35.5959 74.3686 35.6438C74.3746 35.6887 74.3806 35.7396 74.3866 35.7965C74.3926 35.8504 74.3971 35.9059 74.4001 35.9628C74.406 36.0167 74.409 36.0616 74.409 36.0975C74.409 36.1155 74.3971 36.1245 74.3731 36.1245H73.0208C73.0058 36.1245 72.9968 36.1275 72.9938 36.1335C72.9938 36.1395 72.9938 36.15 72.9938 36.1649V38.3978C72.9938 38.4937 73.0058 38.5775 73.0298 38.6494C73.0537 38.7213 73.0837 38.7812 73.1196 38.8291C73.1586 38.877 73.202 38.913 73.2499 38.9369C73.2978 38.9609 73.3458 38.9729 73.3937 38.9729C73.5315 38.9729 73.6438 38.9534 73.7306 38.9145C73.8175 38.8725 73.8924 38.8276 73.9553 38.7797C74.0182 38.7318 74.0736 38.6883 74.1215 38.6494C74.1694 38.6075 74.2233 38.5865 74.2832 38.5865C74.3252 38.5865 74.3491 38.603 74.3551 38.6359C74.3641 38.6689 74.3686 38.6943 74.3686 38.7123C74.3686 38.7512 74.3626 38.7827 74.3506 38.8066C74.3417 38.8276 74.3342 38.8441 74.3282 38.8561C74.3252 38.8621 74.3087 38.8875 74.2788 38.9324C74.2488 38.9774 74.2084 39.0313 74.1575 39.0942C74.1065 39.1571 74.0436 39.2245 73.9688 39.2964C73.8969 39.3682 73.816 39.4356 73.7262 39.4985C73.6363 39.5584 73.5375 39.6078 73.4296 39.6468C73.3248 39.6887 73.214 39.7097 73.0972 39.7097C72.9354 39.7097 72.7842 39.6797 72.6434 39.6198C72.5026 39.5599 72.3813 39.4806 72.2795 39.3817C72.1777 39.2799 72.0968 39.1646 72.0369 39.0358C71.98 38.907 71.9515 38.7737 71.9515 38.6359V36.1245Z" fill="white"/>
</g>
<defs>
<clipPath id="clip0_4172_756">
<rect width="96.3553" height="40" fill="white" transform="translate(2 9)"/>
</clipPath>
</defs>
</svg>
