<?xml version="1.0" encoding="UTF-8"?>
<svg id="Layer_2" data-name="Layer 2" xmlns="http://www.w3.org/2000/svg" xmlns:xlink="http://www.w3.org/1999/xlink" viewBox="0 0 79.09 104.34">
  <defs>
    <style>
      .cls-1 {
        mask: url(#mask-1);
      }

      .cls-2, .cls-3 {
        fill: #fff;
      }

      .cls-4 {
        mask: url(#mask);
      }

      .cls-3 {
        fill-rule: evenodd;
      }

      .cls-5 {
        fill: none;
      }

      .cls-6 {
        mask: url(#mask-2);
      }

      .cls-7 {
        mask: url(#mask-3);
      }
    </style>
    <mask id="mask" x="26.23" y="22.15" width="21.74" height="23.42" maskUnits="userSpaceOnUse">
      <g id="mask0_6942_1716" data-name="mask0 6942 1716">
        <path class="cls-2" d="M26.23,22.15h21.67v23.42h-21.67v-23.42Z"/>
      </g>
    </mask>
    <mask id="mask-1" x="46.43" y="32.17" width="1.47" height="1.77" maskUnits="userSpaceOnUse">
      <g id="mask1_6942_1716" data-name="mask1 6942 1716">
        <path class="cls-2" d="M46.43,32.17h1.47v1.77h-1.47v-1.77Z"/>
      </g>
    </mask>
    <mask id="mask-2" x="-.14" y="83.68" width="79.24" height="20.66" maskUnits="userSpaceOnUse">
      <g id="mask2_6942_1716" data-name="mask2 6942 1716">
        <path class="cls-2" d="M-.14,83.75h79v20.36H-.14v-20.36Z"/>
      </g>
    </mask>
    <mask id="mask-3" x="0" y="83.68" width="79.09" height="20.66" maskUnits="userSpaceOnUse">
      <g id="mask3_6942_1716" data-name="mask3 6942 1716">
        <rect class="cls-5" y="83.68" width="79.09" height="20.66"/>
      </g>
    </mask>
  </defs>
  <g id="Layer_1-2" data-name="Layer 1">
    <g>
      <g>
        <g class="cls-4">
          <path class="cls-2" d="M47.4,34.09c-.32,0-.58.26-.58.58,0,5.36-4.36,9.72-9.72,9.72s-9.71-4.36-9.71-9.72,4.05-9.4,9.14-9.7l-.79,1.2c-.13.2.09.44.3.34l3.85-1.93c.17-.09.17-.33,0-.42l-3.85-1.92c-.21-.11-.43.14-.3.34l.81,1.23c-5.74.29-10.31,5.05-10.31,10.86s4.88,10.87,10.87,10.87,10.87-4.88,10.87-10.87c0-.32-.26-.58-.58-.58Z"/>
        </g>
        <path class="cls-2" d="M41.49,25.35c.09-.22-.02-.48-.24-.57l-.17.4-.15.41c.05.02.11.03.16.03.17,0,.33-.1.4-.27Z"/>
        <path class="cls-2" d="M46.54,31.8v.04c.07.18.24.3.42.3.04,0,.09,0,.13-.02.23-.07.35-.32.28-.54v-.02c-.07-.23-.32-.36-.55-.29-.23.07-.36.31-.29.54Z"/>
        <path class="cls-2" d="M42.21,26.24c.07.04.15.06.23.06.15,0,.29-.07.37-.21.13-.2.06-.47-.14-.6l-.03-.02c-.2-.12-.46-.05-.58.15-.12.2-.05.48.16.6Z"/>
        <path class="cls-2" d="M44.44,28.08c.09.09.2.14.32.14.1,0,.21-.04.29-.11.18-.16.19-.43.03-.61l-.02-.02c-.16-.18-.44-.19-.61-.03-.18.16-.19.43-.03.61l.02.02Z"/>
        <path class="cls-2" d="M45.32,29.22c.08.12.22.19.36.19.08,0,.17-.03.24-.07.2-.13.25-.4.12-.6l-.02-.03c-.13-.2-.4-.25-.6-.12-.2.13-.25.4-.12.6l.02.03Z"/>
        <path class="cls-2" d="M46.02,30.46v.03c.09.15.24.25.4.25.06,0,.13-.01.19-.04.22-.1.31-.36.2-.58v-.03c-.12-.22-.37-.31-.59-.2-.22.1-.31.36-.2.58Z"/>
        <path class="cls-2" d="M43.39,27.08c.08.06.18.1.27.1.12,0,.25-.06.34-.16.15-.19.12-.46-.06-.61l-.02-.02c-.18-.15-.46-.13-.61.06-.15.18-.13.46.06.61l.03.02Z"/>
        <g class="cls-1">
          <path class="cls-2" d="M47.23,32.72c-.24.03-.4.26-.37.49v.03c.04.21.22.37.43.37.02,0,.04,0,.07,0,.24-.04.4-.26.36-.5v-.03c-.04-.23-.26-.4-.5-.37Z"/>
        </g>
        <path class="cls-2" d="M36.82,40.7v2.19c0,.16.13.29.29.29s.29-.13.29-.29v-2.19c0-.16-.13-.29-.29-.29s-.29.13-.29.29Z"/>
        <path class="cls-2" d="M33.53,40.47l-.71,1.21c-.04.07-.02.16.05.2.02.01.05.02.07.02.05,0,.1-.03.13-.07l.71-1.21c.04-.07.02-.16-.05-.2-.07-.04-.16-.02-.2.05Z"/>
        <path class="cls-2" d="M31.12,37.96l-1.22.7c-.07.04-.09.13-.05.2.03.05.07.07.12.07.03,0,.05,0,.07-.02l1.21-.71c.07-.04.09-.13.05-.2-.04-.07-.13-.09-.2-.05Z"/>
        <path class="cls-2" d="M43.08,37.98c-.07-.04-.16-.02-.2.05-.04.07-.02.16.05.2l1.21.71s.05.02.07.02c.05,0,.1-.03.12-.07.04-.07.02-.16-.05-.2l-1.21-.71Z"/>
        <path class="cls-2" d="M31.28,31.06l-1.21-.71c-.07-.04-.16-.02-.2.05-.04.07-.02.16.05.2l1.21.71s.05.02.07.02c.05,0,.1-.03.13-.07.04-.07.02-.16-.05-.2Z"/>
        <path class="cls-2" d="M41.13,41.84s.08.07.13.07c.03,0,.05,0,.07-.02.07-.04.09-.13.05-.2l-.71-1.21c-.04-.07-.13-.09-.2-.05-.07.04-.09.13-.05.2l.7,1.22Z"/>
        <path class="cls-2" d="M33.67,28.87s.05,0,.07-.02c.07-.04.09-.13.05-.2l-.7-1.22c-.04-.07-.13-.09-.2-.05-.07.04-.09.13-.05.2l.71,1.22s.08.07.12.07Z"/>
        <path class="cls-2" d="M31.05,34.35h-2.19c-.16,0-.29.13-.29.29s.13.29.29.29h2.19c.16,0,.29-.13.29-.29s-.13-.29-.29-.29Z"/>
        <path class="cls-2" d="M40.49,28.86s.05.02.07.02c.05,0,.1-.03.12-.07l.71-1.21c.04-.07.02-.16-.05-.2-.07-.04-.16-.02-.2.05l-.71,1.21c-.04.07-.02.16.05.2Z"/>
        <path class="cls-2" d="M43.02,31.35s.05,0,.07-.02l1.22-.71c.07-.04.09-.13.05-.2-.04-.07-.13-.09-.2-.05l-1.22.71c-.07.04-.09.13-.05.2.03.05.07.07.12.07Z"/>
        <path class="cls-2" d="M43.16,34.93h2.19c.16,0,.29-.13.29-.29s-.13-.29-.29-.29h-2.19c-.16,0-.29.13-.29.29s.13.29.29.29Z"/>
        <path class="cls-2" d="M37.67,31.51c.07.03.15-.04.11-.11l-.6-1.21c-.03-.06-.12-.06-.15,0l-.6,1.21c-.04.07.04.15.11.11l.28-.13v2.68s-.07.04-.1.06l-3.2-1.92.21-.12c.07-.04.05-.14-.03-.15l-1.33-.2c-.07,0-.12.06-.09.12l.64,1.18c.04.07.14.05.15-.03l.06-.37,3.31,1.99h0c0,.37.29.67.66.67s.66-.29.66-.66c0-.26-.15-.48-.37-.59v-2.68l.28.13Z"/>
        <path class="cls-2" d="M19.38,6.11h.03c3.23-1.24,6.59-2.17,10.07-2.78,3.34-.54,6.7-.61,10.09-.23,6.95.9,13.01,3.45,18.21,7.64,2.94,2.29,5.32,4.73,7.15,7.31,1.2,1.54,2.53,3.91,3.99,7.09,1.32,3.1,2.2,6.41,2.63,9.93.36,3.62.42,7.02.16,10.2,2.48-6.6,2.52-13.62.09-21.06-1.37-3.92-3.07-7.21-5.1-9.88-.69-.94-1.5-1.93-2.4-2.95-.88-1.04-2.25-2.33-4.11-3.89C54.33,2.97,47.5.48,39.71.04c-3.49-.19-7.15.24-10.96,1.27-1.52.41-3.2,1.05-5.05,1.92-1.97.93-3.41,1.9-4.32,2.88Z"/>
        <g class="cls-6">
          <g class="cls-7">
            <rect class="cls-5" y="83.68" width="79.09" height="20.66"/>
          </g>
        </g>
        <path class="cls-3" d="M37.28,5.5c16.76,0,30.34,13.58,30.34,30.34,0,5.83-1.64,11.28-4.5,15.9-1.58,2.62-3.17,5.25-4.75,7.87-1.14.42-2.3.78-3.47,1.07-3.32.83-6.76,1.26-10.16,1.5-1.15.08-2.3.16-3.45.23-2.33.15-4.65.3-6.97.52-2.97.29-5.99.6-8.86,1.48-1.74.54-3.43,1.22-5,2.13-2.97-4.87-5.94-9.75-8.91-14.62-2.92-4.67-4.62-10.18-4.62-16.09,0-16.76,13.58-30.34,30.34-30.34ZM44.24,65.33c3.86-.21,7.79-.54,11.56-1.45l-2.93,4.86c-2.08,3.39-3.97,6.45-5.85,9.51-1.88,3.06-3.77,6.12-5.85,9.51-3.67,5.97-3.92,6.12-7.61.12-2.07-3.37-3.98-6.47-5.89-9.57-1.91-3.1-3.81-6.2-5.89-9.57h0s-.22-.36-.22-.36c.04-.02.08-.04.11-.06.54-.27,1.09-.51,1.65-.74,0,0,.02,0,.08-.03.07-.03.14-.05.2-.08.14-.05.27-.1.41-.15h0c.3-.1.6-.2.9-.3,2.67-.85,5.54-1.15,8.32-1.3,1.87-.1,3.73-.16,5.6-.21h0c1.8-.05,3.6-.1,5.39-.2ZM37.28,20.71c7.51,0,13.6,6.09,13.6,13.6s-6.09,13.6-13.6,13.6-13.6-6.09-13.6-13.6,6.09-13.6,13.6-13.6ZM54.91,40.75c1.99-5.23,3.05-17.16-8.62-22.99-3.02-1.62-10.7-3.85-17.24.22,4.86-1.33,13.71-1.99,20.34,4.64,6.05,6.05,5.72,13.51,5.56,17.18-.02.35-.03.67-.04.95Z"/>
      </g>
      <path class="cls-2" d="M35.53,95.22c-18.17-.54-17.93-3.94-13.95-5.99,0,0-8.59-.22-10.24,4.42-.12,6.17,18.3,7.42,24.82,7.42,8.88,0,26.88-2.55,25.93-7.39-.29-4.55-12.41-4.88-8.91-4.49,2.8.31,1.38,2.02.99,2.66-3.32,3.02-11.73,3.21-17.56,3.37-.36,0-.72.01-1.08,0Z"/>
    </g>
  </g>
</svg>