<svg width="192" height="192" viewBox="0 0 192 192" fill="none" xmlns="http://www.w3.org/2000/svg">
<path d="M104.572 76.5287C104.183 76.5287 103.883 76.8281 103.883 77.2173C103.883 83.5949 98.6434 88.7748 92.2358 88.7748C85.8282 88.7748 80.5883 83.5949 80.5883 77.2173C80.5883 70.8398 85.4389 66.0491 91.5471 65.6898L90.589 67.127C90.4392 67.3666 90.7087 67.666 90.9483 67.5163L95.5593 65.2407C95.7689 65.1509 95.7689 64.8515 95.5593 64.7317L90.9483 62.4562C90.6788 62.3364 90.4392 62.6059 90.589 62.8454L91.5471 64.3125C84.6604 64.6718 79.181 70.3008 79.181 77.2173C79.181 84.1338 85.0197 90.1521 92.2358 90.1521C99.4518 90.1521 105.29 84.3434 105.29 77.2173C105.29 76.8281 104.991 76.5287 104.602 76.5287H104.572Z" fill="#007D85"/>
<path d="M97.4685 66.1105C97.5882 65.8411 97.4685 65.5416 97.169 65.4219L96.9594 65.9009L96.7798 66.38C96.7798 66.38 96.8996 66.4099 96.9594 66.4099C97.169 66.4099 97.3487 66.2902 97.4385 66.0806L97.4685 66.1105Z" fill="#007D85"/>
<path d="M103.52 73.806C103.579 74.0755 103.789 74.1953 104.029 74.1953C104.089 74.1953 104.148 74.1953 104.178 74.1953C104.448 74.1054 104.598 73.806 104.508 73.5366C104.418 73.2371 104.148 73.0874 103.849 73.1773C103.579 73.2671 103.43 73.5366 103.49 73.806H103.52Z" fill="#007D85"/>
<path d="M98.3405 67.1848C98.3405 67.1848 98.5201 67.2746 98.61 67.2746C98.7896 67.2746 98.9693 67.1848 99.0591 67.0351C99.2088 66.7956 99.1489 66.4662 98.8794 66.3165H98.8495C98.61 66.1369 98.3105 66.2267 98.1608 66.4662C98.0111 66.7058 98.101 67.0351 98.3405 67.1848Z" fill="#007D85"/>
<path d="M101.004 69.373C101.004 69.373 101.244 69.5527 101.394 69.5527C101.513 69.5527 101.633 69.5227 101.753 69.4329C101.962 69.2533 101.992 68.9239 101.783 68.7143C101.603 68.4748 101.274 68.4748 101.034 68.6544C100.825 68.8341 100.795 69.1634 101.004 69.373Z" fill="#007D85"/>
<path d="M102.083 70.7194C102.083 70.7194 102.352 70.9589 102.502 70.9589C102.592 70.9589 102.712 70.929 102.801 70.8691C103.041 70.7194 103.101 70.39 102.951 70.1505C102.801 69.881 102.472 69.8211 102.233 69.9708C101.993 70.1205 101.933 70.4499 102.083 70.6894V70.7194Z" fill="#007D85"/>
<path d="M102.891 72.1843C102.981 72.3939 103.161 72.5137 103.37 72.5137C103.43 72.5137 103.52 72.5137 103.58 72.4538C103.85 72.334 103.939 72.0346 103.82 71.7651C103.7 71.4657 103.4 71.3759 103.131 71.4957C102.861 71.6154 102.772 71.9148 102.891 72.1843Z" fill="#007D85"/>
<path d="M99.745 68.1725C99.745 68.1725 99.9546 68.2923 100.074 68.2923C100.224 68.2923 100.374 68.2324 100.464 68.1127C100.643 67.9031 100.613 67.5737 100.374 67.3941C100.164 67.1845 99.8348 67.2144 99.6552 67.454C99.4755 67.6635 99.5055 67.9929 99.7151 68.1725H99.745Z" fill="#007D85"/>
<path d="M104.356 74.8814C104.057 74.9114 103.877 75.1808 103.907 75.4503C103.937 75.7497 104.176 75.9294 104.416 75.9294C104.416 75.9294 104.476 75.9294 104.506 75.9294C104.805 75.8994 104.985 75.63 104.925 75.3305C104.895 75.0311 104.626 74.8215 104.326 74.8515L104.356 74.8814Z" fill="#007D85"/>
<path d="M91.869 84.3714V86.9763C91.869 87.1559 92.0187 87.3056 92.2283 87.3056C92.4379 87.3056 92.5876 87.1559 92.5876 86.9763V84.3714C92.5876 84.1917 92.4379 84.042 92.2283 84.042C92.0187 84.042 91.869 84.1917 91.869 84.3714Z" fill="#007D85"/>
<path d="M87.9187 84.1029L87.0504 85.5401C87.0504 85.5401 87.0504 85.7197 87.1102 85.7796C87.1102 85.7796 87.1701 85.7796 87.2001 85.7796C87.2599 85.7796 87.3198 85.7497 87.3498 85.6898L88.1882 84.2526C88.1882 84.2526 88.1882 84.073 88.1283 84.0131C88.0384 83.9532 87.9486 84.0131 87.8887 84.073L87.9187 84.1029Z" fill="#007D85"/>
<path d="M85.0153 81.1096L83.5481 81.948C83.5481 81.948 83.4284 82.0977 83.4883 82.1875C83.5182 82.2474 83.5781 82.2773 83.638 82.2773C83.6679 82.2773 83.6979 82.2773 83.7278 82.2773L85.195 81.439C85.195 81.439 85.3147 81.2893 85.2548 81.1994C85.195 81.1096 85.1051 81.0797 85.0153 81.1396V81.1096Z" fill="#007D85"/>
<path d="M99.391 81.1413C99.391 81.1413 99.2113 81.1413 99.1515 81.2012C99.0916 81.291 99.1514 81.3808 99.2113 81.4407L100.678 82.279C100.678 82.279 100.738 82.279 100.768 82.279C100.828 82.279 100.888 82.2491 100.918 82.1892C100.978 82.0994 100.918 82.0096 100.858 81.9497L99.391 81.1113V81.1413Z" fill="#007D85"/>
<path d="M85.1949 72.9057L83.7277 72.0674C83.7277 72.0674 83.5481 72.0674 83.4882 72.1273C83.4283 72.2171 83.4882 72.3069 83.5481 72.3668L85.0152 73.2052C85.0152 73.2052 85.0751 73.2052 85.1051 73.2052C85.1649 73.2052 85.2248 73.1752 85.2548 73.1153C85.3146 73.0255 85.2548 72.9357 85.1949 72.8758V72.9057Z" fill="#007D85"/>
<path d="M97.0214 85.7163C97.0214 85.7163 97.1113 85.8061 97.1712 85.8061C97.2011 85.8061 97.231 85.8061 97.261 85.8061C97.3508 85.7462 97.3808 85.6564 97.3209 85.5666L96.4825 84.1294C96.4825 84.1294 96.3328 84.0096 96.243 84.0695C96.1531 84.1294 96.1232 84.2192 96.1831 84.309L97.0214 85.7462V85.7163Z" fill="#007D85"/>
<path d="M88.0696 70.2983C88.0696 70.2983 88.1295 70.2983 88.1594 70.2983C88.2493 70.2384 88.2792 70.1486 88.2193 70.0588L87.3809 68.6216C87.3809 68.6216 87.2312 68.5018 87.1414 68.5617C87.0516 68.6216 87.0216 68.7114 87.0815 68.8012L87.9199 70.2384C87.9199 70.2384 88.0097 70.3282 88.0696 70.3282V70.2983Z" fill="#007D85"/>
<path d="M84.9493 76.8271H82.3144C82.1348 76.8271 81.9551 76.9769 81.9551 77.1864C81.9551 77.396 82.1048 77.5158 82.3144 77.5158H84.9493C85.129 77.5158 85.3086 77.3661 85.3086 77.1864C85.3086 77.0068 85.1589 76.8271 84.9493 76.8271Z" fill="#007D85"/>
<path d="M96.2653 70.2992C96.2653 70.2992 96.3252 70.2992 96.3551 70.2992C96.415 70.2992 96.4749 70.2692 96.5048 70.2093L97.3732 68.7721C97.3732 68.7721 97.3732 68.5925 97.3133 68.5326C97.2234 68.4727 97.1336 68.5326 97.0737 68.5925L96.2354 70.0297C96.2354 70.0297 96.2354 70.2093 96.2952 70.2692L96.2653 70.2992Z" fill="#007D85"/>
<path d="M99.2931 73.2637C99.2931 73.2637 99.353 73.2637 99.383 73.2637L100.85 72.4253C100.85 72.4253 100.97 72.2756 100.91 72.1858C100.85 72.0959 100.76 72.066 100.67 72.1259L99.2033 72.9642C99.2033 72.9642 99.0835 73.114 99.1434 73.2038C99.1734 73.2637 99.2332 73.2936 99.2931 73.2936V73.2637Z" fill="#007D85"/>
<path d="M99.4692 77.5158H102.104C102.284 77.5158 102.463 77.3661 102.463 77.1864C102.463 77.0068 102.314 76.8271 102.104 76.8271H99.4692C99.2896 76.8271 99.1099 76.9769 99.1099 77.1864C99.1099 77.396 99.2596 77.5158 99.4692 77.5158Z" fill="#007D85"/>
<path d="M92.8865 73.4439C92.8865 73.4439 93.0661 73.384 93.0062 73.3242L92.2876 71.887C92.2876 71.887 92.1379 71.8271 92.108 71.887L91.3894 73.3242C91.3894 73.3242 91.4493 73.5038 91.5091 73.4439L91.8385 73.2942V76.468C91.8385 76.468 91.7487 76.5279 91.7187 76.5578L87.8861 74.2823L88.1257 74.1326C88.1257 74.1326 88.1856 73.9529 88.0957 73.9529L86.5088 73.7134C86.5088 73.7134 86.3591 73.7733 86.419 73.8631L87.1975 75.2704C87.1975 75.2704 87.3771 75.3302 87.3771 75.2404L87.437 74.7913L91.4193 77.1567C91.4193 77.6058 91.7786 77.9352 92.1978 77.9352C92.617 77.9352 92.9763 77.5759 92.9763 77.1567C92.9763 76.8573 92.7966 76.5878 92.5272 76.468V73.2942L92.8565 73.4439H92.8865Z" fill="#007D85"/>
<path d="M70.9392 43.2634H70.9692C74.8617 41.7963 78.8739 40.6885 83.0658 39.9699C87.078 39.3411 91.0902 39.2513 95.1624 39.7004C103.486 40.7783 110.792 43.8024 117.02 48.8026C120.553 51.5273 123.398 54.4316 125.583 57.4857C127.021 59.3121 128.608 62.1266 130.374 65.9292C131.961 69.612 133.009 73.5643 133.518 77.7261C133.967 82.0377 134.027 86.0798 133.728 89.8525C136.722 82.0078 136.752 73.6541 133.847 64.8213C132.201 60.1505 130.165 56.2581 127.739 53.0843C126.901 51.9764 125.943 50.8087 124.865 49.5811C123.817 48.3535 122.17 46.7965 119.924 44.9701C112.858 39.5207 104.684 36.5565 95.3121 36.0475C91.1202 35.8379 86.7486 36.317 82.1675 37.5745C80.341 38.0536 78.3349 38.8321 76.0893 39.8501C73.7239 40.9579 71.9872 42.0957 70.9093 43.2634H70.9392Z" fill="#007D85"/>
<path fill-rule="evenodd" clip-rule="evenodd" d="M92.4095 42.5127C112.531 42.5127 128.819 58.6512 128.819 78.5922C128.819 85.5387 126.843 92.006 123.429 97.4853C121.513 100.599 119.627 103.713 117.711 106.857C116.333 107.366 114.956 107.785 113.549 108.145C109.566 109.133 105.434 109.642 101.362 109.941C99.9849 110.031 98.6075 110.121 97.2302 110.21C94.4456 110.39 91.631 110.57 88.8464 110.839C85.2833 111.199 81.6603 111.558 78.217 112.606C76.1211 113.235 74.085 114.043 72.2286 115.151C68.6655 109.342 65.1024 103.563 61.5393 97.7548C58.0361 92.2156 56 85.6584 56 78.6222C56 58.6811 72.2885 42.5127 92.4095 42.5127ZM100.763 113.654C105.404 113.414 110.105 112.995 114.627 111.917L111.093 117.696C108.608 121.708 106.333 125.361 104.087 129.014C101.841 132.667 99.5657 136.29 97.0805 140.332C92.679 147.428 92.3796 147.607 87.9482 140.481C85.463 136.469 83.1574 132.786 80.8818 129.104C78.6063 125.421 76.3007 121.738 73.8155 117.726L73.546 117.307C73.6059 117.307 73.6359 117.247 73.6958 117.247C74.3545 116.917 75.0132 116.648 75.6719 116.378C75.6719 116.378 75.6719 116.378 75.7618 116.349C75.8516 116.319 75.9115 116.289 76.0013 116.259C76.151 116.199 76.3307 116.139 76.5103 116.079C76.8696 115.959 77.2289 115.839 77.5882 115.72C80.792 114.702 84.2354 114.342 87.5589 114.193C89.8046 114.073 92.0502 114.013 94.2659 113.953C96.4218 113.893 98.5776 113.833 100.733 113.714L100.763 113.654ZM92.4095 60.5974C101.422 60.5974 108.728 67.8432 108.728 76.7658C108.728 85.6884 101.422 92.9342 92.4095 92.9342C83.397 92.9342 76.0911 85.6884 76.0911 76.7658C76.0911 67.8432 83.397 60.5974 92.4095 60.5974ZM113.579 84.4308C115.974 78.203 117.231 64.0407 103.219 57.0942C99.5956 55.178 90.3735 52.5132 82.5287 57.3637C88.3674 55.7768 98.9668 54.9983 106.931 62.8729C114.177 70.0589 113.788 78.9216 113.609 83.2931C113.609 83.7122 113.579 84.1015 113.579 84.4308Z" fill="#007D85"/>
<path d="M90.3195 149.196C68.5217 148.567 68.7912 144.525 73.5819 142.069C73.5819 142.069 63.2819 141.8 61.3057 147.309C61.156 154.645 83.2532 156.142 91.098 156.142C101.757 156.142 123.346 153.118 122.208 147.369C121.849 141.98 107.327 141.56 111.519 142.039C114.872 142.399 113.165 144.435 112.716 145.213C108.734 148.806 98.6434 149.016 91.637 149.225C91.2178 149.225 90.7687 149.225 90.3495 149.225L90.3195 149.196Z" fill="#007D85"/>
</svg>
