<svg width="45" height="46" viewBox="0 0 45 46" fill="none" xmlns="http://www.w3.org/2000/svg">
<path d="M41.5076 27.7672C42.6087 27.4453 43.1592 27.2876 43.3765 26.9812C43.5937 26.6748 43.5938 26.1863 43.5938 25.2049V20.8263C43.5938 19.8449 43.5937 19.3542 43.3765 19.05C43.1592 18.7436 42.6087 18.5837 41.5076 18.2662C37.3943 17.0739 34.8188 12.4555 35.8798 8.06578C36.173 6.85789 36.3185 6.25394 36.1793 5.9009C36.0401 5.54786 35.6393 5.3014 34.8398 4.81292L31.2012 2.59697C30.4165 2.11737 30.0241 1.87757 29.6719 1.93086C29.3196 1.9797 28.9209 2.40602 28.1257 3.25865C27.3901 4.04175 26.5141 4.66346 25.5486 5.08777C24.5832 5.51208 23.5473 5.73056 22.5011 5.73056C21.4548 5.73056 20.4189 5.51208 19.4535 5.08777C18.488 4.66346 17.6121 4.04175 16.8764 3.25865C16.0812 2.40602 15.6846 1.97971 15.3323 1.92864C14.9801 1.87757 14.5877 2.11737 13.803 2.59475L10.1644 4.81514C9.36281 5.30362 8.96203 5.54786 8.82492 5.9009C8.6857 6.25616 8.83125 6.85789 9.12234 8.06578C10.1834 12.4555 7.60781 17.0739 3.49242 18.2662C2.39133 18.586 1.84078 18.7436 1.62352 19.05C1.40625 19.3564 1.40625 19.8449 1.40625 20.8263V25.2071C1.40625 26.1863 1.40625 26.677 1.62352 26.9835C1.84078 27.2876 2.39133 27.4453 3.49242 27.765C7.6057 28.9574 10.1813 33.5758 9.12023 37.9655C8.82703 39.1734 8.68148 39.7773 8.8207 40.1304C8.95992 40.4834 9.3607 40.7299 10.1602 41.2183L13.7988 43.4365C14.5835 43.9139 14.9759 44.1537 15.3281 44.1026C15.6804 44.0515 16.0791 43.6252 16.8743 42.7726C17.6101 41.9885 18.4864 41.3659 19.4524 40.941C20.4185 40.5161 21.4551 40.2973 22.5021 40.2973C23.5491 40.2973 24.5857 40.5161 25.5518 40.941C26.5178 41.3659 27.3942 41.9885 28.1299 42.7726C28.9252 43.6252 29.3217 44.0515 29.674 44.1026C30.0263 44.1537 30.4186 43.9139 31.2054 43.4365L34.842 41.2161C35.6435 40.7276 36.0443 40.4834 36.1814 40.1304C36.3206 39.7751 36.1751 39.1734 35.884 37.9655C34.8209 33.5758 37.3943 28.9574 41.5076 27.765" stroke="#00A956" stroke-width="2" stroke-linecap="round" stroke-linejoin="round"/>
<path d="M22.5 11.7656C23.5327 11.7656 24.5288 11.8975 25.4883 12.1611C26.4478 12.4248 27.3413 12.8057 28.1689 13.3037C28.9966 13.8018 29.7546 14.3877 30.4431 15.0615C31.1316 15.7354 31.7212 16.4934 32.2119 17.3357C32.7026 18.178 33.0798 19.0752 33.3435 20.0273C33.6072 20.9795 33.7427 21.9756 33.75 23.0156C33.75 24.0483 33.6182 25.0444 33.3545 26.0039C33.0908 26.9634 32.71 27.8569 32.2119 28.6846C31.7139 29.5122 31.1279 30.2703 30.4541 30.9587C29.7803 31.6472 29.0222 32.2368 28.1799 32.7275C27.3376 33.2183 26.4404 33.5955 25.4883 33.8591C24.5361 34.1228 23.54 34.2583 22.5 34.2656C21.4673 34.2656 20.4712 34.1338 19.5117 33.8701C18.5522 33.6064 17.6587 33.2256 16.8311 32.7275C16.0034 32.2295 15.2454 31.6436 14.5569 30.9697C13.8684 30.2959 13.2788 29.5378 12.7881 28.6956C12.2974 27.8533 11.9202 26.9561 11.6565 26.0039C11.3928 25.0518 11.2573 24.0557 11.25 23.0156C11.25 21.9829 11.3818 20.9868 11.6455 20.0273C11.9092 19.0679 12.29 18.1743 12.7881 17.3467C13.2861 16.519 13.8721 15.761 14.5459 15.0725C15.2197 14.384 15.9778 13.7944 16.8201 13.3037C17.6624 12.813 18.5596 12.4358 19.5117 12.1721C20.4639 11.9084 21.46 11.7729 22.5 11.7656ZM28.3777 20.0383C28.7903 19.6257 28.7903 18.9568 28.3777 18.5442V18.5442C27.9651 18.1316 27.2961 18.1316 26.8835 18.5442L20.3906 25.0371L18.1165 22.7629C17.7039 22.3503 17.0349 22.3503 16.6223 22.7629V22.7629C16.2097 23.1755 16.2097 23.8445 16.6223 24.2571L19.6311 27.2659C20.0506 27.6854 20.7307 27.6854 21.1501 27.2659L28.3777 20.0383Z" fill="#00A956"/>
</svg>
