<svg width="45" height="46" viewBox="0 0 45 46" fill="none" xmlns="http://www.w3.org/2000/svg">
<path d="M35.3458 25.1094C34.8155 24.9985 34.3463 25.426 34.3463 25.9678V25.9678C34.3463 26.4316 34.6948 26.8163 35.1465 26.9214C38.7395 27.7574 41.1852 31.1389 40.7239 34.8342C40.3365 37.8549 38.0913 40.3035 35.1409 40.9814C34.6928 41.0843 34.3463 41.4651 34.3463 41.9248V41.9248C34.3463 42.4601 34.81 42.8824 35.3342 42.7739C39.8558 41.8382 43.0178 37.6907 42.5474 33.0555C42.1673 29.1021 39.2021 25.9159 35.3458 25.1094ZM32.5136 25.9913C32.5136 25.4511 32.0467 25.0245 31.5176 25.1334C30.4323 25.3568 29.3953 25.7719 28.4617 26.3679C27.9965 26.6648 27.9627 27.3097 28.3491 27.7037V27.7037C28.6851 28.0463 29.2224 28.0743 29.6307 27.8222C30.2781 27.4225 30.987 27.1249 31.7303 26.9402C32.1742 26.8299 32.5136 26.4487 32.5136 25.9913V25.9913ZM27.0535 28.9485C26.668 28.5686 26.036 28.5973 25.7378 29.0489C25.1339 29.9633 24.7049 30.979 24.4722 32.0454C24.3554 32.5808 24.7877 33.0555 25.3357 33.0555V33.0555C25.7994 33.0555 26.1854 32.7108 26.2984 32.2611C26.4797 31.54 26.7714 30.8493 27.1663 30.2152C27.417 29.8126 27.3913 29.2814 27.0535 28.9485V28.9485ZM25.3448 34.8613C24.7976 34.8613 24.3668 35.3365 24.4849 35.8708C24.7203 36.9363 25.1485 37.9493 25.7479 38.8629C26.045 39.3158 26.6781 39.3449 27.0626 38.9634V38.9634C27.3959 38.6327 27.4214 38.1074 27.1736 37.7087C26.7782 37.0729 26.4852 36.3805 26.3049 35.6563C26.193 35.2068 25.808 34.8613 25.3448 34.8613V34.8613ZM29.5763 40.1483C29.1967 39.9153 28.7016 39.9348 28.3778 40.2405V40.2405C27.9808 40.6153 28.0017 41.2568 28.4598 41.5537C29.3923 42.1581 30.4293 42.5897 31.5194 42.8269C32.0454 42.9414 32.5136 42.5181 32.5136 41.9798V41.9798C32.5136 41.5235 32.1726 41.1443 31.7288 41.0385C30.9677 40.8569 30.2409 40.5564 29.5763 40.1483ZM33.2009 29.4439C33.5804 29.4439 33.8881 29.7516 33.8881 30.1312V32.4705C33.8881 33.5318 34.4513 34.5134 35.3675 35.049L37.4351 36.2578C37.7511 36.4426 37.8528 36.8514 37.6602 37.1627V37.1627C37.4736 37.4642 37.0802 37.5611 36.775 37.3806L34.2076 35.8628C33.1577 35.2421 32.5136 34.1131 32.5136 32.8934V30.1312C32.5136 29.7516 32.8213 29.4439 33.2009 29.4439V29.4439Z" fill="#FFA206"/>
<path fill-rule="evenodd" clip-rule="evenodd" d="M20.25 1.13184C18.4598 1.13184 16.7429 1.91119 15.477 3.29844C14.2112 4.6857 13.5 6.56722 13.5 8.5291V10.9948H6.75C4.95979 10.9948 3.2429 11.7742 1.97703 13.1615C0.711159 14.5487 0 16.4302 0 18.3921V38.1181C0 40.08 0.711159 41.9615 1.97703 43.3488C3.2429 44.736 4.95979 45.5154 6.75 45.5154H29.4275C29.1115 45.2752 28.8096 45.0177 28.5234 44.7444C24.0487 43.0438 20.8688 38.7153 20.8688 33.644C20.8688 27.0879 26.1836 21.773 32.7398 21.773C38.4136 21.773 43.1577 25.7535 44.3319 31.0743C44.5734 31.395 44.7966 31.7299 45 32.0774V18.3921C45 16.4302 44.2888 14.5487 43.023 13.1615C41.7571 11.7742 40.0402 10.9948 38.25 10.9948H31.5V8.5291C31.5 6.56722 30.7888 4.6857 29.523 3.29844C28.2571 1.91119 26.5402 1.13184 24.75 1.13184H20.25ZM27 10.9948H18V8.5291C18 7.87514 18.2371 7.24796 18.659 6.78555C19.081 6.32313 19.6533 6.06334 20.25 6.06334H24.75C25.3467 6.06334 25.919 6.32313 26.341 6.78555C26.7629 7.24796 27 7.87514 27 8.5291V10.9948Z" fill="#FFA206"/>
</svg>
