<svg width="46" height="46" viewBox="0 0 46 46" fill="none" xmlns="http://www.w3.org/2000/svg">
<path d="M4.5 29.8131V39.6931C4.5 40.2454 4.94772 40.6931 5.5 40.6931H10.1604C10.4262 40.6931 10.6894 40.7461 10.9345 40.849L20.8705 45.0202C21.6458 45.4154 22.5479 45.4804 23.3718 45.2004L23.7857 45.0597C23.8627 45.0335 23.9346 44.9943 23.9984 44.9438L39.9659 32.2821C40.1631 32.1258 40.2975 31.9004 40.3227 31.6501C40.5362 29.5308 39.6145 28.4213 37.5117 28.3355C37.3349 28.3282 37.1605 28.377 37.0077 28.466L25.2901 35.2925C24.7932 35.582 24.4827 36.0932 24.2054 36.597C23.3718 38.1115 21.3228 38.3619 20.0298 38.2615C19.7826 38.2423 19.5472 38.1578 19.3316 38.0357L14.3562 35.2176C14.2603 35.1633 14.201 35.0616 14.201 34.9514C14.201 34.7382 14.4135 34.5904 14.6134 34.6645L20.8705 36.9842C23.9718 36.2773 24.4292 34.8888 22.6894 32.039L14.0471 28.1842C13.3555 27.8757 12.5906 27.7699 11.8412 27.879L5.35587 28.8236C4.86445 28.8951 4.5 29.3165 4.5 29.8131Z" fill="#6291FF"/>
<path d="M32.368 28.3424L24.8502 32.4695C24.7595 32.5193 24.7772 32.7506 24.8417 32.8314C25.0147 33.048 25.0874 33.4246 25.1081 33.7153C25.1136 33.7932 25.2002 33.8411 25.2669 33.8003L33.9065 28.5154C33.9926 28.4627 33.9553 28.3301 33.8543 28.3301H32.4161C32.3993 28.3301 32.3827 28.3343 32.368 28.3424Z" fill="#6291FF"/>
<path d="M29.5575 12.0499C28.0219 12.0499 27.394 10.981 28.1576 9.66994C28.5988 8.91003 28.3358 7.94135 27.5637 7.50712L26.096 6.68041C25.4257 6.28792 24.5603 6.52174 24.1616 7.18144L24.0683 7.34011C23.3047 8.65116 22.049 8.65116 21.277 7.34011L21.1836 7.18144C20.8019 6.52174 19.9365 6.28792 19.2662 6.68041L17.7985 7.50712C17.0264 7.94135 16.7634 8.91838 17.2046 9.67829C17.9766 10.981 17.3488 12.0499 15.8132 12.0499C14.9308 12.0499 14.2012 12.7597 14.2012 13.6365V15.1062C14.2012 15.9747 14.9223 16.6928 15.8132 16.6928C17.3488 16.6928 17.9766 17.7617 17.2046 19.0728C16.7634 19.8327 17.0264 20.8013 17.7985 21.2356L19.2662 22.0623C19.9365 22.4548 20.8019 22.221 21.2006 21.5613L21.2939 21.4026C22.0575 20.0915 23.3132 20.0915 24.0852 21.4026L24.1785 21.5613C24.5773 22.221 25.4427 22.4548 26.1129 22.0623L27.5807 21.2356C28.3528 20.8013 28.6158 19.8243 28.1746 19.0728C27.4025 17.7617 28.0304 16.6928 29.566 16.6928C30.4483 16.6928 31.178 15.983 31.178 15.1062V13.6365C31.1695 12.768 30.4483 12.0499 29.5575 12.0499ZM22.6853 17.0853C21.1667 17.0853 19.928 15.8661 19.928 14.3713C19.928 12.8766 21.1667 11.6574 22.6853 11.6574C24.204 11.6574 25.4427 12.8766 25.4427 14.3713C25.4427 15.8661 24.204 17.0853 22.6853 17.0853Z" fill="#6291FF"/>
<path d="M10.697 23.5756V19.7554C10.697 19.4205 10.9685 19.1491 11.3033 19.1491L15.2918 19.2095L15.4137 19.2213C15.6902 19.2777 15.8981 19.5227 15.8981 19.8158C15.8978 20.1087 15.69 20.3527 15.4137 20.4091L15.2918 20.4221L12.4698 20.3617C12.4886 20.3864 12.507 20.4121 12.5266 20.4375C12.9981 21.0485 13.6941 21.8636 14.5907 22.6768C16.3918 24.3104 18.947 25.8908 22.0832 25.8908C28.4421 25.8908 33.6032 20.7296 33.6032 14.3708C33.6032 14.0359 33.8746 13.7645 34.2095 13.7645C34.5443 13.7645 34.8158 14.0359 34.8158 14.3708C34.8158 21.3994 29.1118 27.1034 22.0832 27.1034C18.5261 27.1034 15.6916 25.313 13.776 23.5756C13.0123 22.883 12.3876 22.1889 11.9097 21.6063V23.5756C11.9094 23.9101 11.6378 24.1817 11.3033 24.182C10.9687 24.182 10.6973 23.9103 10.697 23.5756ZM9.35059 14.3708C9.35059 7.3438 15.0045 1.63818 22.0832 1.63818C26.3073 1.63818 29.4713 3.40187 31.5675 5.15055C32.4197 5.86147 33.0971 6.5732 33.6032 7.16725V4.66976C33.6035 4.33514 33.8748 4.06344 34.2095 4.06344C34.5442 4.06344 34.8155 4.33514 34.8158 4.66976V8.9862C34.8158 9.32106 34.5443 9.59251 34.2095 9.59251L29.9653 9.52028C29.6307 9.51999 29.359 9.24864 29.359 8.91396C29.3593 8.57951 29.6308 8.30793 29.9653 8.30765L33.0312 8.37988C33.0137 8.35767 32.9961 8.334 32.9779 8.3112C32.4928 7.70406 31.7632 6.89261 30.7907 6.08133C28.8458 4.45894 25.9472 2.85081 22.0832 2.85081C15.6774 2.85081 10.5632 8.01035 10.5632 14.3708C10.5632 14.7057 10.2918 14.9771 9.9569 14.9771C9.62204 14.9771 9.35059 14.7057 9.35059 14.3708Z" fill="#6291FF"/>
</svg>
