<svg width="18" height="18" viewBox="0 0 18 18" fill="none" xmlns="http://www.w3.org/2000/svg">
<path fill-rule="evenodd" clip-rule="evenodd" d="M14.4 2.4H16.2C16.6774 2.4 17.1352 2.58964 17.4728 2.92721C17.8104 3.26477 18 3.72261 18 4.2V16.2C18 16.6774 17.8104 17.1352 17.4728 17.4728C17.1352 17.8104 16.6774 18 16.2 18H1.8C1.32261 18 0.864773 17.8104 0.527208 17.4728C0.189642 17.1352 0 16.6774 0 16.2L0 4.2C0 3.72261 0.189642 3.26477 0.527208 2.92721C0.864773 2.58964 1.32261 2.4 1.8 2.4H3.6V0H4.8V2.4H13.2V0H14.4V2.4ZM7.2 9.6H3.6V8.4H7.2V9.6ZM14.4 8.4H10.8V9.6H14.4V8.4ZM7.2 13.2H3.6V12H7.2V13.2ZM10.8 13.2H14.4V12H10.8V13.2Z" fill="white"/>
</svg>
