<svg width="18" height="24" viewBox="0 0 18 24" fill="none" xmlns="http://www.w3.org/2000/svg">
<path fill-rule="evenodd" clip-rule="evenodd" d="M0 1.16562C0 0.860623 0.118527 0.568117 0.329505 0.352451C0.540484 0.136785 0.826631 0.015625 1.125 0.015625H16.875C17.1734 0.015625 17.4595 0.136785 17.6705 0.352451C17.8815 0.568117 18 0.860623 18 1.16562V21.8656C18 22.0854 17.9384 22.3006 17.8224 22.4858C17.7064 22.6709 17.541 22.8182 17.3457 22.9101C17.1503 23.0021 16.9333 23.0349 16.7203 23.0047C16.5073 22.9745 16.3072 22.8824 16.1438 22.7395L14.9816 21.7218C14.7778 21.5433 14.5182 21.4452 14.2498 21.4452C13.9814 21.4452 13.7219 21.5433 13.518 21.7218L12.357 22.7384C12.1531 22.9172 11.8933 23.0155 11.6246 23.0155C11.356 23.0155 11.0962 22.9172 10.8923 22.7384L9.73238 21.7218C9.52844 21.543 9.26866 21.4447 9 21.4447C8.73134 21.4447 8.47156 21.543 8.26762 21.7218L7.10775 22.7384C6.90382 22.9172 6.64403 23.0155 6.37537 23.0155C6.10672 23.0155 5.84693 22.9172 5.643 22.7384L4.482 21.7218C4.27815 21.5433 4.01859 21.4452 3.75019 21.4452C3.48179 21.4452 3.22223 21.5433 3.01838 21.7218L1.85738 22.7384C1.69404 22.8816 1.49396 22.9739 1.28087 23.0044C1.06777 23.0348 0.850594 23.0022 0.655091 22.9103C0.459589 22.8185 0.293962 22.6712 0.177851 22.486C0.0617401 22.3008 1.67248e-05 22.0855 0 21.8656V1.16562ZM5.625 4.61561C5.32663 4.61561 5.04048 4.73677 4.8295 4.95244C4.61853 5.1681 4.5 5.46061 4.5 5.76561C4.5 6.0706 4.61853 6.36311 4.8295 6.57878C5.04048 6.79444 5.32663 6.9156 5.625 6.9156H12.375C12.6734 6.9156 12.9595 6.79444 13.1705 6.57878C13.3815 6.36311 13.5 6.0706 13.5 5.76561C13.5 5.46061 13.3815 5.1681 13.1705 4.95244C12.9595 4.73677 12.6734 4.61561 12.375 4.61561H5.625ZM5.625 9.21559C5.32663 9.21559 5.04048 9.33675 4.8295 9.55242C4.61853 9.76809 4.5 10.0606 4.5 10.3656C4.5 10.6706 4.61853 10.9631 4.8295 11.1788C5.04048 11.3944 5.32663 11.5156 5.625 11.5156H12.375C12.6734 11.5156 12.9595 11.3944 13.1705 11.1788C13.3815 10.9631 13.5 10.6706 13.5 10.3656C13.5 10.0606 13.3815 9.76809 13.1705 9.55242C12.9595 9.33675 12.6734 9.21559 12.375 9.21559H5.625ZM6.75 14.9656C6.75 14.6606 6.86853 14.3681 7.0795 14.1524C7.29048 13.9367 7.57663 13.8156 7.875 13.8156H12.375C12.6734 13.8156 12.9595 13.9367 13.1705 14.1524C13.3815 14.3681 13.5 14.6606 13.5 14.9656C13.5 15.2706 13.3815 15.5631 13.1705 15.7787C12.9595 15.9944 12.6734 16.1156 12.375 16.1156H7.875C7.57663 16.1156 7.29048 15.9944 7.0795 15.7787C6.86853 15.5631 6.75 15.2706 6.75 14.9656Z" fill="white"/>
</svg>
