<svg width="18" height="18" viewBox="0 0 18 18" fill="none" xmlns="http://www.w3.org/2000/svg">
<path d="M9.00059 18C4.43419 16.9895 0.783203 12.6998 0.783203 8.18182V3.27273L9.00059 0L17.218 3.27273V8.18182C17.218 12.7015 13.567 16.9895 9.00059 18ZM2.42668 4.09091V8.18182C2.47364 10.0736 3.14189 11.8979 4.32915 13.3755C5.51642 14.8532 7.15728 15.9028 9.00059 16.3636C10.8439 15.9028 12.4848 14.8532 13.672 13.3755C14.8593 11.8979 15.5275 10.0736 15.5745 8.18182V4.09091L9.00059 1.63636L2.42668 4.09091Z" fill="white"/>
<path d="M9.00064 8.18173C10.1352 8.18173 11.055 7.26595 11.055 6.13627C11.055 5.0066 10.1352 4.09082 9.00064 4.09082C7.86605 4.09082 6.94629 5.0066 6.94629 6.13627C6.94629 7.26595 7.86605 8.18173 9.00064 8.18173Z" fill="white"/>
<path d="M4.89258 11.4536C5.29747 12.1886 5.89131 12.8032 6.61328 13.2345C7.33525 13.6658 8.15938 13.8983 9.00127 13.9081C9.84316 13.8983 10.6673 13.6658 11.3893 13.2345C12.1112 12.8032 12.7051 12.1886 13.11 11.4536C13.0894 9.9023 10.3637 8.99902 9.00127 8.99902C7.63143 8.99902 4.91312 9.9023 4.89258 11.4536Z" fill="white"/>
</svg>
