<svg width="200" height="200" viewBox="0 0 200 200" fill="none" xmlns="http://www.w3.org/2000/svg">
<path d="M111.652 102.568H37.664C37.2991 102.568 37.0254 102.294 37.0254 101.93V31.7513C37.0254 31.3867 37.2991 31.1133 37.664 31.1133H111.652C112.017 31.1133 112.29 31.3867 112.29 31.7513V101.93C112.29 102.203 112.017 102.568 111.652 102.568ZM38.3026 101.2H111.013V32.2981H38.3026V101.2Z" fill="#B5B5B5"/>
<path d="M98.3535 45.405H57.621C57.2376 45.405 56.9501 44.5884 57.0459 43.7718C57.0459 43.1594 57.3334 42.5469 57.621 42.5469H98.3535C98.7369 42.5469 99.0244 43.3635 98.9285 44.1801C98.9285 44.7926 98.641 45.405 98.3535 45.405Z" fill="#4EA9B0"/>
<path d="M50.9559 45.4046H49.843C49.5647 45.4046 49.356 44.5881 49.4256 43.7716C49.4256 43.1592 49.6343 42.5469 49.843 42.5469H50.8864C51.1646 42.5469 51.3733 43.3634 51.3037 44.1798C51.3037 44.7922 51.1646 45.4046 50.9559 45.4046Z" fill="#B5B5B5"/>
<path d="M82.1031 53.0226H57.6751C57.3049 53.0226 57.0273 52.6143 57.0273 52.0699C57.0273 51.5255 57.3049 51.1172 57.6751 51.1172H82.1031C82.4732 51.1172 82.7508 51.5255 82.7508 52.0699C82.7508 52.6143 82.4732 53.0226 82.1031 53.0226Z" fill="#4EA9B0"/>
<path d="M50.9231 53.0223H49.872C49.6092 53.0223 49.4121 52.6141 49.4121 52.0698C49.4121 51.5254 49.6092 51.1172 49.872 51.1172H50.8574C51.1201 51.1172 51.3172 51.5254 51.3172 52.0698C51.3172 52.6141 51.1201 53.0223 50.9231 53.0223Z" fill="#B5B5B5"/>
<path d="M102.092 62.55H57.6929C57.3126 62.55 57.0273 62.1417 57.0273 61.5973C57.0273 61.0528 57.3126 60.6445 57.6929 60.6445H102.092C102.473 60.6445 102.758 61.0528 102.758 61.5973C102.758 62.1417 102.473 62.55 102.092 62.55Z" fill="#4EA9B0"/>
<path d="M50.9231 62.5497H49.872C49.6092 62.5497 49.4121 62.1414 49.4121 61.5971C49.4121 61.0528 49.6092 60.6445 49.872 60.6445H50.8574C51.1201 60.6445 51.3172 61.0528 51.3172 61.5971C51.3172 62.1414 51.1201 62.5497 50.9231 62.5497Z" fill="#B5B5B5"/>
<path d="M87.8795 71.1281H57.615C57.2355 71.1281 56.9509 70.5837 57.0457 70.0393C57.0457 69.631 57.3303 69.2227 57.615 69.2227H87.8795C88.259 69.2227 88.5437 69.7671 88.4488 70.3115C88.4488 70.7198 88.1642 71.1281 87.8795 71.1281Z" fill="#4EA9B0"/>
<path d="M50.9559 71.1278H49.843C49.5647 71.1278 49.356 70.5835 49.4256 70.0391C49.4256 69.6309 49.6343 69.2227 49.843 69.2227H50.8864C51.1646 69.2227 51.3733 69.767 51.3037 70.3113C51.3037 70.7195 51.1646 71.1278 50.9559 71.1278Z" fill="#B5B5B5"/>
<path d="M98.2993 80.6515H57.6751C57.305 80.6515 57.0273 80.2432 57.0273 79.6988C57.0273 79.1544 57.305 78.7461 57.6751 78.7461H98.2993C98.6695 78.7461 98.9471 79.1544 98.9471 79.6988C98.9471 80.2432 98.6695 80.6515 98.2993 80.6515Z" fill="#4EA9B0"/>
<path d="M50.9231 80.6512H49.872C49.6092 80.6512 49.4121 80.243 49.4121 79.6987C49.4121 79.1543 49.6092 78.7461 49.872 78.7461H50.8574C51.1201 78.7461 51.3172 79.1543 51.3172 79.6987C51.3172 80.243 51.1201 80.6512 50.9231 80.6512Z" fill="#B5B5B5"/>
<path d="M93.5333 88.2765H57.6776C57.306 88.2765 57.0273 87.8682 57.0273 87.3238C57.0273 86.7794 57.306 86.3711 57.6776 86.3711H93.5333C93.9048 86.3711 94.1835 86.7794 94.1835 87.3238C94.1835 87.8682 93.9048 88.2765 93.5333 88.2765Z" fill="#4EA9B0"/>
<path d="M50.9231 88.2762H49.872C49.6092 88.2762 49.4121 87.868 49.4121 87.3237C49.4121 86.7793 49.6092 86.3711 49.872 86.3711H50.8574C51.1201 86.3711 51.3172 86.7793 51.3172 87.3237C51.3172 87.868 51.1201 88.2762 50.9231 88.2762Z" fill="#B5B5B5"/>
<path d="M160.618 96.211H136.445C136.28 96.211 136.156 96.0872 136.156 95.9222V60.777C136.156 60.612 136.28 60.4883 136.445 60.4883H160.618C160.783 60.4883 160.906 60.612 160.906 60.777V95.9222C160.906 96.0872 160.783 96.211 160.618 96.211ZM136.734 95.5922H160.329V61.0658H136.734V95.5922Z" fill="#B5B5B5"/>
<path d="M144.126 70.5552H139.3C139.135 70.5552 139.012 70.4315 139.012 70.2665V65.441C139.012 65.2761 139.135 65.1523 139.3 65.1523H144.126C144.291 65.1523 144.415 65.2761 144.415 65.441V70.2665C144.456 70.3902 144.291 70.5552 144.126 70.5552ZM139.589 69.9366H143.796V65.7297H139.589V69.9366Z" fill="#B5B5B5"/>
<path d="M141.237 69.3168C141.195 69.3168 141.195 69.3168 141.154 69.3168C141.072 69.2755 140.989 69.2343 140.948 69.1518L140.329 67.6258C140.247 67.4608 140.329 67.2958 140.494 67.2546C140.659 67.1721 140.824 67.2546 140.907 67.3783C140.907 67.3783 140.907 67.3783 140.907 67.4196L141.402 68.5744L144.99 65.9761C145.113 65.8936 145.32 65.8936 145.402 66.0585C145.485 66.1823 145.485 66.3885 145.32 66.471L141.443 69.2755C141.36 69.3168 141.319 69.3168 141.237 69.3168Z" fill="#B5B5B5"/>
<path d="M157.736 67.9095H146.929C146.764 67.9095 146.641 67.7858 146.641 67.6208C146.641 67.4558 146.764 67.332 146.929 67.332H157.736C157.901 67.332 158.025 67.4558 158.025 67.6208C158.025 67.7858 157.901 67.9095 157.736 67.9095Z" fill="#B5B5B5"/>
<path d="M144.126 77.5201H139.3C139.135 77.5201 139.012 77.3963 139.012 77.2313V72.4059C139.012 72.2409 139.135 72.1172 139.3 72.1172H144.126C144.291 72.1172 144.415 72.2409 144.415 72.4059V77.2313C144.456 77.3963 144.291 77.5201 144.126 77.5201ZM139.589 76.9426H143.796V72.7358H139.589V76.9426Z" fill="#B5B5B5"/>
<path d="M141.237 76.3302C141.195 76.3302 141.195 76.3302 141.154 76.3302C141.072 76.289 140.989 76.2477 140.948 76.1652L140.329 74.6805C140.247 74.5155 140.329 74.3505 140.494 74.3093C140.659 74.2268 140.824 74.3093 140.907 74.4743L141.402 75.6291L144.99 73.0307C145.113 72.9483 145.32 72.9483 145.402 73.1132C145.485 73.237 145.485 73.4432 145.32 73.5257L141.443 76.3302C141.36 76.3302 141.319 76.3302 141.237 76.3302Z" fill="#B5B5B5"/>
<path d="M157.736 74.929H146.929C146.764 74.929 146.641 74.8053 146.641 74.6403C146.641 74.4753 146.764 74.3516 146.929 74.3516H157.736C157.901 74.3516 158.025 74.4753 158.025 74.6403C158.025 74.8053 157.901 74.929 157.736 74.929Z" fill="#B5B5B5"/>
<path d="M144.161 79.4258H139.336V84.2512H144.161V79.4258Z" fill="white"/>
<path d="M144.126 84.5357H139.3C139.135 84.5357 139.012 84.4119 139.012 84.247V79.4215C139.012 79.2565 139.135 79.1328 139.3 79.1328H144.126C144.291 79.1328 144.415 79.2565 144.415 79.4215V84.247C144.456 84.4119 144.291 84.5357 144.126 84.5357ZM139.589 83.9583H143.796V79.7515H139.589V83.9583Z" fill="#B5B5B5"/>
<path d="M141.23 83.3402H141.147C141.065 83.2989 140.982 83.2577 140.941 83.1752L140.322 81.6905C140.24 81.5255 140.322 81.3605 140.446 81.278C140.611 81.1955 140.776 81.278 140.858 81.4018C140.858 81.4018 140.858 81.4018 140.858 81.443L141.353 82.5978L144.942 79.9995C145.065 79.917 145.271 79.917 145.354 80.082C145.436 80.2057 145.436 80.4119 145.271 80.4944L141.395 83.3402C141.395 83.2989 141.312 83.3402 141.23 83.3402Z" fill="#B5B5B5"/>
<path d="M157.736 81.9368H146.929C146.764 81.9368 146.641 81.8131 146.641 81.6481C146.641 81.4831 146.764 81.3594 146.929 81.3594H157.736C157.901 81.3594 158.025 81.4831 158.025 81.6481C158.025 81.8131 157.901 81.9368 157.736 81.9368Z" fill="#B5B5B5"/>
<path d="M144.126 91.5474H139.3C139.135 91.5474 139.012 91.4237 139.012 91.2587V86.4332C139.012 86.2683 139.135 86.1445 139.3 86.1445H144.126C144.291 86.1445 144.415 86.2683 144.415 86.4332V91.2587C144.456 91.4237 144.291 91.5474 144.126 91.5474ZM139.589 90.97H143.796V86.7632H139.589V90.97Z" fill="#B5B5B5"/>
<path d="M141.237 90.3536C141.195 90.3536 141.195 90.3536 141.154 90.3536C141.072 90.3124 140.989 90.2712 140.948 90.1887L140.329 88.7039C140.247 88.5389 140.329 88.374 140.494 88.3327C140.659 88.2502 140.824 88.3327 140.907 88.4565C140.907 88.4565 140.907 88.4565 140.907 88.4977L141.402 89.6525L144.99 87.0542C145.113 86.9717 145.32 86.9717 145.402 87.1367C145.485 87.2604 145.485 87.4666 145.32 87.5491L141.443 90.3536C141.36 90.3536 141.319 90.3536 141.237 90.3536Z" fill="#B5B5B5"/>
<path d="M157.736 88.9486H146.929C146.764 88.9486 146.641 88.8248 146.641 88.6598C146.641 88.4948 146.764 88.3711 146.929 88.3711H157.736C157.901 88.3711 158.025 88.4948 158.025 88.6598C158.025 88.7836 157.901 88.9486 157.736 88.9486Z" fill="#B5B5B5"/>
<path d="M86.8118 139.522H48.368C48.1811 139.522 48.041 139.382 48.041 139.195V115.886C48.041 115.699 48.1811 115.559 48.368 115.559H86.8118C86.9986 115.559 87.1387 115.699 87.1387 115.886V139.195C87.1387 139.382 86.9986 139.522 86.8118 139.522ZM48.695 138.868H86.4848V116.259H48.695V138.868Z" fill="#B5B5B5"/>
<path d="M86.8118 121.259H48.368C48.1811 121.259 48.041 121.119 48.041 120.932C48.041 120.746 48.1811 120.605 48.368 120.605H86.8118C86.9986 120.605 87.1387 120.746 87.1387 120.932C87.1387 121.073 86.9986 121.259 86.8118 121.259Z" fill="#B5B5B5"/>
<path d="M54.4891 139.382C54.3023 139.382 54.1621 139.242 54.1621 139.055V115.932C54.1621 115.746 54.3023 115.605 54.4891 115.605C54.6759 115.605 54.8161 115.746 54.8161 115.932V139.055C54.8161 139.195 54.6759 139.382 54.4891 139.382Z" fill="#B5B5B5"/>
<path d="M77.0487 124.88H59.6547C59.3509 124.88 59.123 124.652 59.123 124.348C59.123 124.044 59.3509 123.816 59.6547 123.816H77.0487C77.3525 123.816 77.5804 124.044 77.5804 124.348C77.5804 124.652 77.3525 124.88 77.0487 124.88Z" fill="#B5B5B5"/>
<path d="M77.0487 130.427H59.6547C59.3509 130.427 59.123 130.199 59.123 129.895C59.123 129.591 59.3509 129.363 59.6547 129.363H77.0487C77.3525 129.363 77.5804 129.591 77.5804 129.895C77.5804 130.199 77.3525 130.427 77.0487 130.427Z" fill="#B5B5B5"/>
<path d="M69.9158 136.044H59.5863C59.2825 136.044 59.0547 135.816 59.0547 135.512C59.0547 135.208 59.2825 134.98 59.5863 134.98H69.9158C70.2196 134.98 70.4475 135.208 70.4475 135.512C70.4475 135.816 70.2196 136.044 69.9158 136.044Z" fill="#B5B5B5"/>
<path d="M123.782 118.541C126.252 116.796 129.675 117.4 131.42 119.87L146.412 141.187C148.157 143.657 147.565 147.083 145.083 148.824C142.613 150.569 139.19 149.965 137.446 147.495L122.453 126.178C120.709 123.708 121.301 120.282 123.782 118.541Z" fill="#E9E9E9"/>
<path fill-rule="evenodd" clip-rule="evenodd" d="M140.946 101.337C134.827 121.801 113.277 133.429 92.8141 127.309C72.3508 121.19 60.7226 99.6406 66.8419 79.1772C72.9612 58.7138 94.5107 47.0857 114.974 53.205C135.437 59.3243 147.066 80.8738 140.946 101.337ZM128.479 97.6091C124.418 111.191 110.115 118.909 96.533 114.847C82.951 110.786 75.2331 96.483 79.2947 82.901C83.3562 69.319 97.659 61.6012 111.241 65.6627C124.823 69.7242 132.541 84.0271 128.479 97.6091Z" fill="#E9E9E9"/>
<path d="M137.293 131.668L131.875 135.48C129.489 137.159 128.916 140.454 130.595 142.84L145.878 164.561C147.557 166.947 150.852 167.52 153.238 165.841L158.656 162.029C161.042 160.35 161.615 157.055 159.936 154.669L144.653 132.948C142.974 130.562 139.679 129.989 137.293 131.668Z" fill="#4EA9B0"/>
<path d="M100.162 87.0112C100.196 86.2455 100.522 85.5225 101.071 84.9928C101.621 84.4632 102.352 84.1676 103.113 84.1677C103.895 84.1677 104.645 84.481 105.199 85.0387C105.752 85.5964 106.063 86.3527 106.063 87.1414C106.063 87.9846 105.867 88.4763 105.619 88.8364C105.378 89.1867 105.071 89.4477 104.655 89.8006L104.468 89.9598C103.979 90.3775 103.41 90.8982 102.981 91.6965C102.549 92.5007 102.293 93.5204 102.293 94.9061C102.293 95.1252 102.379 95.3353 102.533 95.4902C102.687 95.6451 102.895 95.7322 103.113 95.7322C103.33 95.7322 103.538 95.6451 103.692 95.4902C103.846 95.3353 103.932 95.1252 103.932 94.9061C103.932 93.7312 104.147 92.995 104.422 92.4829C104.7 91.9655 105.073 91.6079 105.527 91.2207L105.697 91.0773C106.101 90.737 106.59 90.3246 106.967 89.7781C107.426 89.1107 107.702 88.2807 107.702 87.1414C107.702 85.9146 107.218 84.738 106.357 83.8705C105.497 83.003 104.33 82.5156 103.113 82.5156C101.93 82.5155 100.792 82.9754 99.9376 83.7996C99.0829 84.6238 98.5765 85.7487 98.5242 86.9399C98.5148 87.1588 98.5921 87.3725 98.739 87.5339C98.8859 87.6954 99.0905 87.7915 99.3076 87.8009C99.5248 87.8104 99.7368 87.7325 99.897 87.5844C100.057 87.4363 100.152 87.2301 100.162 87.0112ZM103.113 99.0363C103.373 99.0363 103.623 98.9319 103.808 98.746C103.992 98.5601 104.096 98.308 104.096 98.0451C104.096 97.7822 103.992 97.53 103.808 97.3441C103.623 97.1583 103.373 97.0538 103.113 97.0538C102.852 97.0538 102.602 97.1583 102.417 97.3441C102.233 97.53 102.129 97.7822 102.129 98.0451C102.129 98.308 102.233 98.5601 102.417 98.746C102.602 98.9319 102.852 99.0363 103.113 99.0363Z" fill="#4EA9B0"/>
</svg>
