<svg width="166" height="193" viewBox="0 0 166 193" fill="none" xmlns="http://www.w3.org/2000/svg">
<path d="M27.8095 0H129.147C134.012 0 137.957 3.46791 137.957 7.7488V152.251C137.957 156.532 134.012 160 129.147 160H27.8095C22.9443 160 19 156.532 19 152.251V7.75515C19 3.47426 22.9443 0.00635283 27.8095 0.00635283V0Z" fill="#4EA9B0"/>
<path d="M31.1884 0H132.526C137.391 0 141.336 3.46791 141.336 7.7488V152.251C141.336 156.532 137.391 160 132.526 160H31.1884C26.3232 160 22.3789 156.532 22.3789 152.251V7.75515C22.3789 3.47426 26.3232 0.00635283 31.1884 0.00635283V0Z" fill="#4EA9B0"/>
<path d="M31.1884 0H132.526C137.391 0 141.336 3.46791 141.336 7.7488V152.251C141.336 156.532 137.391 160 132.526 160H31.1884C26.3232 160 22.3789 156.532 22.3789 152.251V7.75515C22.3789 3.47426 26.3232 0.00635283 31.1884 0.00635283V0Z" fill="url(#paint0_linear_5095_4889)"/>
<path d="M31.4688 92.0409L34.581 7.76953L124.619 9.43997C124.619 9.43997 112.844 96.9125 121.158 119.492C129.472 142.071 130.857 150.538 130.857 150.538L33.5457 152.964L31.4688 92.0409Z" fill="url(#paint1_linear_5095_4889)"/>
<path d="M147.043 143.088L48.608 144.002C48.608 144.002 38.4901 92.2569 36.7308 74.911C35.0032 58.2002 34.6094 7.76953 34.6094 7.76953H128.605C128.605 7.76953 128.84 56.6441 130.504 72.834C132.346 90.7007 147.043 143.088 147.043 143.088Z" fill="white"/>
<path d="M45.3242 24.8398H91.7217C92.5855 24.8398 93.2842 25.4559 93.2842 26.2118C93.2842 26.9676 92.5855 27.5837 91.7217 27.5837H45.3242C44.4604 27.5837 43.7617 26.9676 43.7617 26.2118C43.7617 25.4559 44.4604 24.8398 45.3242 24.8398Z" fill="#4EA9B0"/>
<path d="M61.2493 39.0156H92.0095C92.7145 39.0156 93.2861 39.5174 93.2861 40.1398V40.6289C93.2861 41.2513 92.7145 41.7531 92.0095 41.7531H61.2493C60.5443 41.7531 59.9727 41.2513 59.9727 40.6289V40.1398C59.9727 39.5174 60.5443 39.0156 61.2493 39.0156Z" fill="#4EA9B0"/>
<path d="M45.8437 54.7891H92.2412C93.105 54.7891 93.8037 55.4051 93.8037 56.161C93.8037 56.9168 93.105 57.5329 92.2412 57.5329H45.8437C44.9799 57.5329 44.2812 56.9168 44.2812 56.161C44.2812 55.4051 44.9799 54.7891 45.8437 54.7891Z" fill="#4EA9B0"/>
<path d="M61.7688 68.9531H92.529C93.234 68.9531 93.8057 69.4549 93.8057 70.0773V70.5664C93.8057 71.1888 93.234 71.6906 92.529 71.6906H61.7688C61.0638 71.6906 60.4922 71.1888 60.4922 70.5664V70.0773C60.4922 69.4549 61.0638 68.9531 61.7688 68.9531Z" fill="#4EA9B0"/>
<path d="M95.7756 86.0993H49.3717C48.4825 86.0739 47.7458 85.4959 47.606 84.7274C47.479 84.0922 47.9681 83.4888 48.6858 83.3745C48.7747 83.3618 48.8636 83.3555 48.9525 83.3555H95.3501C96.2393 83.3745 96.9824 83.9525 97.1221 84.721C97.2492 85.3625 96.7601 85.9659 96.036 86.0802C95.9471 86.093 95.8645 86.0993 95.7756 86.0993Z" fill="#4EA9B0"/>
<path d="M98.2085 100.244H67.4483C66.7243 100.225 66.1145 99.7552 66.0002 99.1265L65.924 98.6437C65.8287 98.1166 66.2352 97.6148 66.8386 97.5322C66.9021 97.5259 66.9656 97.5195 67.0291 97.5195H97.7893C98.5198 97.5386 99.1295 98.0086 99.2375 98.6437L99.3073 99.1265C99.4026 99.6536 98.9898 100.155 98.3864 100.238C98.3229 100.244 98.2657 100.251 98.2022 100.251L98.2085 100.244Z" fill="#4EA9B0"/>
<path d="M101.411 116.099H55.0067C54.0985 116.067 53.3363 115.496 53.1521 114.714C52.9806 114.117 53.3935 113.508 54.0731 113.362C54.1874 113.336 54.3017 113.323 54.416 113.33H100.82C101.728 113.362 102.49 113.933 102.675 114.714C102.846 115.311 102.44 115.915 101.766 116.067C101.652 116.093 101.531 116.105 101.411 116.099Z" fill="#4EA9B0"/>
<path d="M104.776 130.436H74.016C73.2729 130.404 72.6505 129.934 72.4917 129.299L72.39 128.817C72.244 128.334 72.5742 127.838 73.1268 127.711C73.2221 127.686 73.3237 127.68 73.4253 127.68H104.186C104.922 127.718 105.545 128.181 105.71 128.817L105.818 129.299C105.964 129.788 105.627 130.284 105.075 130.411C104.979 130.43 104.878 130.443 104.783 130.443L104.776 130.436Z" fill="#4EA9B0"/>
<path d="M115.178 44.9333H105.93C102.24 44.9333 99.2485 42.2974 99.2422 39.0518V30.2487C99.2422 27.0031 102.24 24.3672 105.93 24.3672H115.178C118.868 24.3672 121.86 27.0031 121.866 30.2487V39.0709C121.853 42.3101 118.862 44.9333 115.178 44.9333ZM105.93 25.9614C103.256 25.9614 101.09 27.8732 101.084 30.2232V39.0454C101.084 41.4018 103.256 43.3073 105.93 43.3073H115.178C117.852 43.3073 120.018 41.3955 120.018 39.0454V30.2423C120.018 27.8923 117.852 25.9805 115.178 25.9805L105.93 25.9614Z" fill="#4EA9B0"/>
<path d="M117.615 75.2213H108.392C104.817 75.2213 101.869 72.7505 101.711 69.6065L101.272 60.9622C101.107 57.7166 103.959 54.9664 107.649 54.8203C107.751 54.8203 107.853 54.8203 107.954 54.8203H117.189C120.752 54.833 123.68 57.3101 123.833 60.4414L124.277 69.0794C124.443 72.325 121.591 75.0752 117.901 75.2213C117.799 75.2213 117.697 75.2213 117.596 75.2213H117.615ZM107.935 56.4336C105.261 56.4336 103.095 58.339 103.089 60.6891C103.089 60.7526 103.089 60.8225 103.089 60.886L103.534 69.5303C103.648 71.8042 105.776 73.6016 108.367 73.5953H117.608C120.282 73.5953 122.448 71.6898 122.455 69.3398C122.455 69.2763 122.455 69.2064 122.455 69.1429L122.01 60.5049C121.896 58.2247 119.762 56.4336 117.17 56.4336H107.935Z" fill="#4EA9B0"/>
<path d="M111.313 103.242C107.826 103.242 104.93 100.885 104.657 97.8304L103.869 89.2115C103.577 85.9722 106.321 83.1331 110.005 82.8727C110.1 82.8664 110.201 82.86 110.303 82.86L119.538 82.5806C123.095 82.4916 126.118 84.8544 126.442 87.973L127.23 96.5919C127.522 99.8375 124.772 102.677 121.081 102.931C120.986 102.937 120.891 102.943 120.796 102.943L111.561 103.223L111.319 103.242H111.313ZM119.773 84.1875H119.595L110.36 84.4669C107.686 84.5559 105.59 86.5312 105.692 88.8876C105.692 88.9511 105.698 89.0082 105.705 89.0718L106.492 97.6907C106.708 99.9582 108.899 101.679 111.484 101.61L120.719 101.324C123.393 101.241 125.483 99.2722 125.388 96.9222C125.388 96.8587 125.381 96.7888 125.375 96.7253L124.587 88.1063C124.391 85.896 122.295 84.1875 119.773 84.1875Z" fill="#4EA9B0"/>
<path d="M118.563 131.811C115.279 131.811 112.478 129.721 111.951 126.869L110.408 118.466C109.817 115.259 112.288 112.235 115.933 111.715C116.213 111.677 116.492 111.651 116.772 111.645L125.924 111.365C129.284 111.289 132.193 113.398 132.758 116.307L134.302 124.71C134.892 127.924 132.415 130.947 128.763 131.461C128.49 131.499 128.211 131.525 127.938 131.531L118.785 131.811H118.569H118.563ZM126.172 112.979H126L116.848 113.258C114.174 113.347 112.091 115.329 112.192 117.685C112.199 117.856 112.218 118.034 112.249 118.206L113.799 126.609C114.212 128.718 116.327 130.242 118.76 130.191L127.912 129.912C130.58 129.835 132.669 127.866 132.581 125.516C132.574 125.332 132.555 125.154 132.517 124.97L130.974 116.561C130.586 114.49 128.554 112.972 126.166 112.979H126.172Z" fill="#4EA9B0"/>
<path d="M60.9766 4.57422H105.843C107.654 4.57422 109.121 5.86357 109.121 7.45779V11.9673C109.121 13.5616 107.654 14.8509 105.843 14.8509H60.9766C59.1664 14.8509 57.6992 13.5616 57.6992 11.9673V7.45779C57.6992 5.86357 59.1664 4.57422 60.9766 4.57422Z" fill="#4EA9B0"/>
<path d="M60.9766 4.57422H105.843C107.654 4.57422 109.121 5.86357 109.121 7.45779V11.9673C109.121 13.5616 107.654 14.8509 105.843 14.8509H60.9766C59.1664 14.8509 57.6992 13.5616 57.6992 11.9673V7.45779C57.6992 5.86357 59.1664 4.57422 60.9766 4.57422Z" fill="url(#paint2_linear_5095_4889)"/>
<path d="M107.119 33.7667L109.865 38.0373C110.12 38.4319 110.65 38.547 111.045 38.2921C111.11 38.2469 111.172 38.1935 111.225 38.1319L118.791 29.4098C119.099 29.0563 119.062 28.5179 118.708 28.2096C118.552 28.074 118.355 28 118.149 28H118.088C117.837 28 117.595 28.111 117.434 28.3042L111.517 35.3903C111.217 35.7479 110.683 35.8013 110.325 35.5013C110.259 35.4478 110.202 35.3821 110.157 35.3122L108.545 32.8583C108.36 32.583 108.036 32.435 107.707 32.4843C107.247 32.5624 106.934 33.0022 107.012 33.4626C107.029 33.5653 107.066 33.664 107.119 33.7544L107.119 33.7667Z" fill="#47989E"/>
<path d="M111.119 92.7669L113.865 97.0375C114.12 97.4321 114.65 97.5472 115.045 97.2924C115.11 97.2472 115.172 97.1937 115.225 97.1321L122.791 88.4099C123.099 88.0564 123.062 87.5179 122.709 87.2096C122.552 87.074 122.355 87 122.15 87H122.088C121.837 87 121.595 87.111 121.434 87.3042L115.517 94.3905C115.217 94.7481 114.683 94.8015 114.325 94.5014C114.259 94.448 114.202 94.3822 114.157 94.3124L112.545 91.8585C112.36 91.5831 112.036 91.4351 111.707 91.4844C111.247 91.5625 110.934 92.0023 111.012 92.4627C111.029 92.5654 111.066 92.6641 111.119 92.7545L111.119 92.7669Z" fill="#47989E"/>
<path d="M114.686 64.4988L117.77 67.5322C118.071 67.8289 118.074 68.3161 117.778 68.6165C117.635 68.7631 117.437 68.8437 117.232 68.8437H117.1C116.895 68.8437 116.701 68.7631 116.554 68.6202L113.554 65.6162C113.254 65.3158 112.77 65.3158 112.47 65.6162L109.47 68.6202C109.327 68.7631 109.133 68.8437 108.928 68.8437H108.796C108.371 68.8437 108.027 68.4993 108.027 68.078C108.027 67.8729 108.107 67.675 108.254 67.5322L111.338 64.4988C111.635 64.2021 111.635 63.7185 111.338 63.4218L108.224 60.3079C107.924 60.0074 107.927 59.5202 108.224 59.2235C108.367 59.0806 108.561 59 108.762 59C108.964 59 109.154 59.0769 109.301 59.2198L112.459 62.3337C112.759 62.6268 113.235 62.6268 113.535 62.3337L116.693 59.2198C116.835 59.0806 117.03 59 117.231 59C117.656 59 118 59.3444 118 59.7657C118 59.9672 117.92 60.165 117.777 60.3079L114.664 63.4218C114.371 63.7222 114.378 64.2058 114.678 64.4988H114.689H114.686Z" fill="#47989E"/>
<path d="M124.39 120.907L127.868 123.479C128.207 123.731 128.279 124.213 128.027 124.552C127.907 124.717 127.722 124.824 127.519 124.853L127.388 124.871C127.185 124.9 126.982 124.848 126.817 124.727L123.425 122.172C123.086 121.917 122.607 121.984 122.352 122.324L119.802 125.718C119.681 125.88 119.5 125.987 119.297 126.015L119.166 126.034C118.745 126.093 118.356 125.8 118.297 125.383C118.269 125.18 118.321 124.973 118.446 124.811L121.075 121.376C121.327 121.041 121.259 120.562 120.924 120.309L117.405 117.662C117.065 117.407 117.001 116.924 117.253 116.588C117.374 116.427 117.555 116.32 117.755 116.292C117.954 116.264 118.154 116.313 118.319 116.434L121.881 119.075C122.22 119.323 122.691 119.257 122.948 118.925L125.638 115.399C125.76 115.242 125.941 115.135 126.14 115.106C126.561 115.047 126.95 115.34 127.009 115.757C127.037 115.956 126.985 116.163 126.864 116.325L124.217 119.844C123.969 120.182 124.044 120.66 124.382 120.908L124.393 120.907L124.39 120.907Z" fill="#47989E"/>
<path d="M0.839844 180.503C0.839844 174.065 6.05715 168.848 12.4955 168.848H152.64C159.078 168.848 164.295 174.065 164.295 180.503" fill="white"/>
<path d="M165.152 180.5C165.152 187.403 159.554 193 152.652 193H12.5078C5.60523 193 0.0078125 187.403 0.0078125 180.5" fill="#4EA9B0"/>
<path d="M0 180.5C0 173.597 5.59742 168 12.5 168H152.644C159.547 168 165.144 173.597 165.144 180.5" fill="#4EA9B0"/>
<path d="M163.466 180.501C163.459 174.533 158.622 169.696 152.651 169.689H12.5073C6.53648 169.578 1.6051 174.328 1.49409 180.299C1.38309 186.27 6.13282 191.201 12.1036 191.312C12.2382 191.312 12.3727 191.312 12.5073 191.312H152.651C158.622 191.305 163.459 186.468 163.466 180.497" fill="white"/>
<path d="M12.2468 171.496H119.681C124.616 171.496 128.615 175.496 128.615 180.43C128.615 185.365 124.616 189.365 119.681 189.365H12.2468C7.3121 189.365 3.3125 185.365 3.3125 180.43C3.3125 175.496 7.3121 171.496 12.2468 171.496Z" fill="#4EA9B0"/>
<path d="M56.8477 183.292C56.8813 182.999 56.8981 182.707 56.8947 182.414V179.192C56.8947 178.899 56.8813 178.61 56.8477 178.32H59.0241C60.2048 178.32 60.854 178.885 60.854 179.922C60.854 180.958 60.1745 181.614 59.0207 181.614H58.0788V182.37C58.0788 182.67 58.0923 182.969 58.1293 183.269L56.8477 183.292ZM58.9669 180.618C59.2898 180.658 59.5858 180.426 59.6228 180.103C59.6295 180.059 59.6295 180.019 59.6228 179.975C59.6531 179.659 59.421 179.377 59.1048 179.346C59.0577 179.343 59.0106 179.346 58.9635 179.35H58.0721V180.618H58.9635H58.9669Z" fill="white"/>
<path d="M64.3979 183.292C64.3239 182.976 64.2263 182.666 64.1052 182.364C63.9135 181.846 63.8395 181.708 63.6915 181.577C63.5637 181.465 63.3955 181.408 63.2273 181.418H62.6218V182.397C62.6151 182.697 62.6319 182.996 62.6722 183.295H61.3906C61.4276 182.999 61.4411 182.7 61.4377 182.401V179.195C61.4411 178.902 61.4276 178.61 61.3906 178.32H63.826C64.7915 178.32 65.3398 178.822 65.3398 179.676C65.4138 180.275 65.0135 180.83 64.4248 180.951C64.7275 181.045 64.8688 181.183 65.0572 181.607C65.1447 181.795 65.2288 181.987 65.4979 182.646C65.5651 182.814 65.6358 182.959 65.7872 183.275L64.4013 183.295L64.3979 183.292ZM63.5502 180.399C63.8361 180.426 64.0918 180.214 64.1187 179.925C64.1187 179.898 64.1187 179.871 64.1187 179.847C64.1187 179.514 63.9303 179.34 63.5569 179.34H62.6218V180.399H63.5502Z" fill="white"/>
<path d="M70.9475 180.79C70.9475 182.361 69.9888 183.404 68.539 183.404C67.0892 183.404 66.1406 182.385 66.1406 180.811C66.1406 179.236 67.0791 178.23 68.5458 178.23C70.0124 178.23 70.9475 179.23 70.9475 180.79ZM69.7097 180.79C69.7097 179.825 69.2656 179.24 68.5458 179.24C67.8259 179.24 67.3718 179.832 67.3718 180.79C67.3718 181.749 67.8192 182.361 68.5458 182.361C69.2724 182.361 69.7097 181.779 69.7097 180.8V180.79Z" fill="white"/>
<path d="M74.7209 180.063C74.6771 179.582 74.26 179.225 73.779 179.252C73.0524 179.252 72.642 179.824 72.642 180.81C72.642 181.795 73.0827 182.367 73.8194 182.367C74.1255 182.374 74.4181 182.233 74.5998 181.987C74.7074 181.836 74.768 181.661 74.7781 181.476L76.016 181.661C75.952 182.061 75.7838 182.438 75.5248 182.751C75.0875 183.198 74.4787 183.437 73.853 183.4C73.2004 183.427 72.568 183.191 72.0904 182.744C71.6161 182.213 71.3671 181.516 71.3974 180.803C71.3638 180.08 71.6262 179.37 72.1206 178.842C72.5882 178.422 73.2004 178.199 73.8295 178.223C74.509 178.179 75.1649 178.472 75.5854 179.003C75.7771 179.239 75.905 179.518 75.9655 179.817L74.7209 180.06V180.063Z" fill="white"/>
<path d="M80.3042 183.334C79.9779 183.3 79.6516 183.283 79.3219 183.293H77.4483C76.9942 183.293 76.826 183.293 76.5703 183.314C76.6107 183.024 76.6275 182.735 76.6208 182.442V179.193C76.6241 178.9 76.6107 178.611 76.5703 178.322H79.3421C79.6381 178.325 79.9375 178.312 80.2335 178.281V179.395C79.9375 179.361 79.6415 179.348 79.3421 179.354H77.7914V180.246H79.0797C79.3791 180.249 79.6751 180.236 79.9745 180.205V181.309C79.6785 181.275 79.3791 181.262 79.0797 181.268H77.7914V182.267H79.3287C79.6516 182.274 79.9779 182.261 80.2974 182.227V183.344L80.3042 183.334Z" fill="white"/>
<path d="M81.9991 181.679C82.0058 181.837 82.0596 181.991 82.1538 182.119C82.3321 182.314 82.5877 182.419 82.8501 182.398C83.3076 182.398 83.5834 182.197 83.5834 181.864C83.5902 181.689 83.4926 181.524 83.3345 181.446C83.0452 181.335 82.7458 181.255 82.4397 181.201C82.1 181.161 81.7703 181.043 81.481 180.858C81.1076 180.602 80.889 180.175 80.9025 179.721C80.9025 178.806 81.6425 178.207 82.8165 178.207C83.4455 178.15 84.0645 178.406 84.4715 178.89C84.6229 179.102 84.7271 179.344 84.7709 179.603L83.5061 179.744C83.4354 179.364 83.2235 179.196 82.766 179.196C82.3859 179.196 82.137 179.395 82.137 179.667C82.1403 179.839 82.2547 179.99 82.4162 180.047C82.6819 180.145 82.9578 180.212 83.237 180.246C83.5767 180.299 83.8996 180.414 84.199 180.582C84.6229 180.834 84.8718 181.305 84.8415 181.796C84.8583 182.203 84.7069 182.597 84.4244 182.89C83.9871 183.26 83.4253 183.441 82.8569 183.398C82.3994 183.411 81.9419 183.31 81.5315 183.105C81.2321 182.94 81.0034 182.671 80.889 182.348C80.8217 182.17 80.7746 181.985 80.7578 181.796L81.9957 181.685L81.9991 181.679Z" fill="white"/>
<path d="M86.5538 181.679C86.5571 181.837 86.6109 181.991 86.7085 182.119C86.8834 182.314 87.1424 182.419 87.4048 182.398C87.8623 182.398 88.1348 182.197 88.1348 181.864C88.1415 181.689 88.0439 181.524 87.8858 181.446C87.5965 181.335 87.2972 181.251 86.9911 181.201C86.6513 181.161 86.3217 181.043 86.0324 180.858C85.659 180.602 85.4403 180.175 85.4538 179.721C85.4538 178.806 86.1938 178.207 87.3678 178.207C87.9968 178.15 88.6158 178.406 89.0228 178.89C89.1775 179.102 89.2785 179.344 89.3222 179.603L88.0608 179.744C87.9901 179.364 87.7715 179.196 87.3207 179.196C86.9406 179.196 86.6883 179.395 86.6883 179.667C86.6917 179.839 86.806 179.99 86.9675 180.047C87.2333 180.145 87.5091 180.212 87.7883 180.246C88.128 180.299 88.4543 180.414 88.7537 180.582C89.1775 180.838 89.4231 181.305 89.3928 181.796C89.4096 182.203 89.2616 182.6 88.9757 182.89C88.5418 183.26 87.98 183.441 87.4115 183.398C86.9507 183.411 86.4932 183.31 86.0828 183.105C85.7834 182.94 85.5547 182.671 85.4403 182.348C85.3731 182.17 85.3293 181.985 85.3125 181.796L86.5504 181.685L86.5538 181.679Z" fill="white"/>
<path d="M95.8815 179.304C95.5485 179.657 95.2727 180.061 95.0675 180.501C94.6033 181.366 94.3174 182.314 94.2265 183.293H92.8507C92.9752 182.499 93.2174 181.726 93.5639 180.999C93.8363 180.434 94.1626 179.899 94.5427 179.401H92.8474C92.548 179.395 92.2486 179.411 91.9492 179.442V178.305C92.2688 178.338 92.5917 178.352 92.9113 178.345H94.9296C95.4779 178.345 95.6461 178.345 95.8883 178.322V179.304H95.8815Z" fill="white"/>
<path d="M97.8644 180.007C97.8644 180.038 97.8644 180.095 97.8442 180.196C98.1268 179.997 98.4665 179.896 98.8096 179.913C99.2839 179.893 99.7482 180.071 100.091 180.401C100.397 180.721 100.559 181.151 100.539 181.592C100.539 182.729 99.7818 183.415 98.5237 183.415C97.8745 183.462 97.2455 183.19 96.8384 182.685C96.6972 182.483 96.5962 182.258 96.5391 182.019L97.7366 181.834C97.8039 182.201 98.1436 182.456 98.517 182.413C98.9341 182.456 99.3075 182.157 99.3512 181.74C99.3546 181.699 99.358 181.659 99.3512 181.615C99.3176 181.151 98.9139 180.805 98.4531 180.838C98.1672 180.858 97.9149 181.023 97.777 181.272L96.6703 181.165C96.6938 180.986 96.7106 180.842 96.7308 180.677L96.8889 178.817C96.8889 178.692 96.9091 178.548 96.9125 178.326H99.2907C99.617 178.336 99.9466 178.319 100.273 178.285V179.328C99.95 179.298 99.6271 179.284 99.3041 179.288H97.9216L97.8644 180.014V180.007Z" fill="white"/>
<path d="M103.371 180.682C103.119 180.396 102.991 180.02 103.014 179.636C102.991 179.249 103.119 178.869 103.374 178.58C103.627 178.351 103.96 178.23 104.299 178.244C104.639 178.227 104.972 178.348 105.225 178.58C105.706 179.202 105.706 180.067 105.225 180.689C104.696 181.15 103.909 181.15 103.381 180.689L103.374 180.682H103.371ZM107.535 178.18L107.848 178.419L103.966 183.458L103.657 183.219L107.535 178.18ZM103.825 179.629C103.825 180.131 103.98 180.386 104.283 180.386C104.585 180.386 104.737 180.134 104.737 179.629C104.737 179.125 104.582 178.873 104.283 178.873C103.983 178.873 103.839 179.142 103.839 179.629H103.822H103.825ZM106.301 183.037C106.045 182.748 105.917 182.364 105.944 181.981C105.924 181.594 106.062 181.217 106.324 180.935C106.577 180.703 106.91 180.581 107.253 180.595C108.064 180.595 108.535 181.106 108.535 181.981C108.558 182.371 108.42 182.754 108.154 183.04C107.905 183.273 107.576 183.397 107.233 183.38C106.896 183.39 106.567 183.273 106.318 183.047L106.301 183.037ZM106.775 181.967C106.775 182.482 106.927 182.744 107.233 182.744C107.539 182.744 107.69 182.485 107.69 181.967C107.69 181.449 107.535 181.237 107.236 181.237C106.937 181.237 106.789 181.5 106.789 181.981L106.772 181.971L106.775 181.967Z" fill="white"/>
<defs>
<linearGradient id="paint0_linear_5095_4889" x1="73.4321" y1="-54.4702" x2="89.9713" y2="209.472" gradientUnits="userSpaceOnUse">
<stop stop-color="white" stop-opacity="0"/>
<stop offset="0.14" stop-color="white" stop-opacity="0.22"/>
<stop offset="0.3" stop-color="white" stop-opacity="0.45"/>
<stop offset="0.45" stop-color="white" stop-opacity="0.65"/>
<stop offset="0.6" stop-color="white" stop-opacity="0.8"/>
<stop offset="0.73" stop-color="white" stop-opacity="0.91"/>
<stop offset="0.85" stop-color="white" stop-opacity="0.98"/>
<stop offset="0.94" stop-color="white"/>
</linearGradient>
<linearGradient id="paint1_linear_5095_4889" x1="15.3995" y1="153.371" x2="251.909" y2="-107.364" gradientUnits="userSpaceOnUse">
<stop stop-color="#010101" stop-opacity="0"/>
<stop offset="0.95" stop-color="#010101"/>
</linearGradient>
<linearGradient id="paint2_linear_5095_4889" x1="83.5497" y1="16.4261" x2="83.2449" y2="1.34767" gradientUnits="userSpaceOnUse">
<stop stop-color="white" stop-opacity="0"/>
<stop offset="0.14" stop-color="white" stop-opacity="0.22"/>
<stop offset="0.3" stop-color="white" stop-opacity="0.45"/>
<stop offset="0.45" stop-color="white" stop-opacity="0.65"/>
<stop offset="0.6" stop-color="white" stop-opacity="0.8"/>
<stop offset="0.73" stop-color="white" stop-opacity="0.91"/>
<stop offset="0.85" stop-color="white" stop-opacity="0.98"/>
<stop offset="0.94" stop-color="white"/>
</linearGradient>
</defs>
</svg>
