<svg width="226" height="182" viewBox="0 0 226 182" fill="none" xmlns="http://www.w3.org/2000/svg">
<path d="M57.8629 38.4141H22.0864C22.0864 38.4141 14.7597 3.20408 31.1423 2.63762C47.525 2.07116 60.7772 16.106 57.8629 38.4141Z" fill="#4EA9B0"/>
<path d="M49.8977 170.809C37.6145 168.655 50.412 32.6 49.8977 18.9602C49.3835 5.32044 31.1523 2.57758 31.1523 2.57758C31.1523 2.57758 156.549 -2.31188 163.399 1.37757C170.248 5.06703 174.385 10.6273 173.789 36.7218C173.193 62.8163 173.848 172.166 173.848 172.166C173.848 172.166 58.6928 172.352 49.8977 170.809Z" fill="#F2F2F2"/>
<path d="M71.7009 146.133H185.187C185.187 146.133 186.968 172.145 171.95 172.615C156.931 173.084 51.3828 171.311 51.3828 171.311C51.3828 171.311 75.4947 165.519 71.7009 146.133Z" fill="#4EA9B0"/>
<path opacity="0.51" d="M154.172 21.5039H70.9319C69.9275 21.5039 69.1133 22.3181 69.1133 23.3225V23.9859C69.1133 24.9903 69.9275 25.8045 70.9319 25.8045H154.172C155.176 25.8045 155.991 24.9903 155.991 23.9859V23.3225C155.991 22.3181 155.176 21.5039 154.172 21.5039Z" fill="#4EA9B0"/>
<path opacity="0.51" d="M154.172 35.4492H70.9319C69.9275 35.4492 69.1133 36.2634 69.1133 37.2678V37.9312C69.1133 38.9356 69.9275 39.7498 70.9319 39.7498H154.172C155.176 39.7498 155.991 38.9356 155.991 37.9312V37.2678C155.991 36.2634 155.176 35.4492 154.172 35.4492Z" fill="#4EA9B0"/>
<path opacity="0.51" d="M154.172 49.3945H70.9319C69.9275 49.3945 69.1133 50.2088 69.1133 51.2132V51.8765C69.1133 52.8809 69.9275 53.6952 70.9319 53.6952H154.172C155.176 53.6952 155.991 52.8809 155.991 51.8765V51.2132C155.991 50.2088 155.176 49.3945 154.172 49.3945Z" fill="#4EA9B0"/>
<path opacity="0.51" d="M154.172 63.3438H70.9319C69.9275 63.3438 69.1133 64.158 69.1133 65.1624V65.8257C69.1133 66.8302 69.9275 67.6444 70.9319 67.6444H154.172C155.176 67.6444 155.991 66.8302 155.991 65.8257V65.1624C155.991 64.158 155.176 63.3438 154.172 63.3438Z" fill="#4EA9B0"/>
<path opacity="0.51" d="M154.172 77.2891H70.9319C69.9275 77.2891 69.1133 78.1033 69.1133 79.1077V79.771C69.1133 80.7755 69.9275 81.5897 70.9319 81.5897H154.172C155.176 81.5897 155.991 80.7755 155.991 79.771V79.1077C155.991 78.1033 155.176 77.2891 154.172 77.2891Z" fill="#4EA9B0"/>
<path opacity="0.51" d="M138.669 92.5977H70.4698C69.7206 92.5977 69.1133 93.205 69.1133 93.9542V94.1778C69.1133 94.927 69.7206 95.5343 70.4698 95.5343H138.669C139.418 95.5343 140.025 94.927 140.025 94.1778V93.9542C140.025 93.205 139.418 92.5977 138.669 92.5977Z" fill="#4EA9B0"/>
<path d="M17.0312 104.639L19.4238 102.209C19.6549 101.933 19.9605 101.717 20.3033 101.598C20.594 101.546 20.8996 101.568 21.1828 101.658C23.9406 102.44 26.5642 103.648 28.9642 105.228C30.9319 106.42 33.8537 107.583 35.4338 109.141C33.1978 109.961 29.7319 108.56 27.5779 107.993C26.4077 107.68 17.4114 104.251 17.0312 104.639Z" fill="#4EA9B0"/>
<path d="M22.7751 132.071L21.8508 128.791C21.7241 128.448 21.6943 128.083 21.7614 127.725C21.8657 127.442 22.0297 127.189 22.2459 126.98C24.2956 124.968 26.6359 123.283 29.1999 121.986C31.2124 120.861 33.672 118.901 35.7962 118.297C35.4086 120.63 32.472 122.963 30.9142 124.558C30.0645 125.43 22.626 131.527 22.7751 132.071Z" fill="#4EA9B0"/>
<path d="M27.8359 87.5512L31.2123 87.0667C31.5627 86.9847 31.9353 86.9922 32.2782 87.104C32.5465 87.2382 32.7776 87.4394 32.949 87.6854C34.6782 89.981 36.0347 92.5226 36.9813 95.2357C37.831 97.3748 39.4559 100.066 39.7689 102.264C37.5329 101.571 35.5801 98.3512 34.2086 96.5997C33.4633 95.6158 28.3726 87.4394 27.8359 87.5512Z" fill="#4EA9B0"/>
<path opacity="0.51" d="M91.9653 101.707C82.4323 101.707 74.7031 109.436 74.7031 118.969C74.7031 128.502 82.4323 136.231 91.9653 136.231C101.498 136.231 109.227 128.502 109.227 118.969C109.227 109.436 101.498 101.707 91.9653 101.707ZM91.9653 133.854C83.7292 133.854 77.0584 127.183 77.0584 118.947C77.0584 110.711 83.7292 104.04 91.9653 104.04C100.201 104.04 106.872 110.711 106.872 118.947C106.857 127.168 100.186 133.831 91.9653 133.831V133.854Z" fill="#4EA9B0"/>
<path d="M81.8828 118.468L89.3288 125.683L102.805 113.139L100.747 111.082L89.217 120.839L84.5437 116.165L81.8828 118.468Z" fill="#4EA9B0"/>
<path d="M156.933 49.8743C155.943 43.6413 158.082 36.4442 163.602 33.3673C166.877 31.5317 170.799 31.3997 174.55 31.3072L199.984 30.6602C199.046 38.7156 201.212 46.8238 206.045 53.3474C210.482 59.2635 216.913 63.595 221.007 69.696C227.689 80.3529 226.461 94.1528 217.983 103.45C206.005 101.786 193.803 102.525 182.116 105.602C184.678 98.6427 180.136 91.1287 175.091 85.6484C166.468 76.246 158.941 62.7894 156.92 49.8611L156.933 49.8743Z" fill="#4EA9B0"/>
<path d="M160.924 52.621C159.643 46.7974 161.135 39.9172 165.744 36.7083C168.491 34.8067 171.885 34.4633 175.133 34.1464L197.173 32.1523C196.79 39.7324 199.115 47.1936 203.723 53.2153C207.923 58.5636 213.773 62.1819 217.682 67.8075C224.086 77.0382 223.862 91.023 217.048 99.8312C206.549 98.9068 195.985 100.267 186.054 103.806C187.916 97.1108 183.492 90.2835 178.778 85.3974C170.762 76.959 163.433 64.6778 160.924 52.621Z" fill="url(#paint0_linear_5271_3769)"/>
<path d="M179.367 70.9273L182.167 70.0557C181.322 66.2129 182.84 63.4133 185.719 62.1983L186.564 64.9187C184.914 65.7506 184.002 67.573 184.332 69.3954L191.794 67.0712C191.794 62.5813 192.81 60.508 195.636 59.61C198.753 58.646 201.566 60.4156 202.807 63.651L204.894 63.0039L205.448 64.7734L203.322 65.4205C204.194 69.6463 201.949 71.8252 200.1 72.578L199.281 69.9236C200.668 69.1841 201.434 67.6391 201.209 66.0808L194.488 68.1541C194.593 73.2779 193.035 75.2719 190.288 76.1171C186.868 77.1867 184.148 75.5096 182.708 71.812L179.895 72.6836L179.394 70.9141L179.367 70.9273ZM194.501 66.3053L200.76 64.3773C200.351 62.7662 198.713 61.789 197.102 62.1851C197.01 62.2115 196.917 62.238 196.825 62.2644C195.32 62.6737 194.58 63.7434 194.488 66.3053H194.501ZM191.833 69.0521L184.861 71.2178C185.732 73.2779 187.172 74.0834 189.179 73.4759C190.803 72.8949 191.728 71.8384 191.833 68.986V69.0521Z" fill="white"/>
<path d="M4.72933 83.2716L39.8426 81.3405C41.3041 81.2608 42.9517 81.0925 43.8641 79.9587C44.7765 78.8249 44.6082 77.2216 44.4222 75.7866C43.3592 67.46 43.2352 59.0449 44.0501 50.6918C44.3425 47.6623 44.8119 44.5089 46.5747 42.0286C48.3374 39.5484 51.73 37.9982 54.5115 39.2915C54.9721 39.5749 55.477 39.7787 56.0085 39.9027C57.7269 40.0887 58.4976 37.4401 57.3992 36.1026C56.3008 34.765 54.3786 34.5259 52.6513 34.3841C43.3769 33.6843 34.0583 34.0652 24.8016 33.3477C19.4779 32.9314 14.048 31.2218 9.09634 33.9767C-6.0509 42.4095 1.58472 70.3743 4.72047 83.2716H4.72933Z" fill="#4EA9B0"/>
<path d="M7.0903 35.2217C7.0903 35.2217 -0.0758557 39.757 8.80875 72.5317C8.80875 72.5317 12.2457 72.4166 12.166 76.3761L35.2145 74.6576C35.2145 74.6576 33.9036 71.4776 38.182 70.6007C38.182 70.6007 31.9282 47.118 33.2392 42.7244C33.9833 39.9342 33.6732 36.9667 32.38 34.389C32.38 34.389 21.1126 33.0692 19.2169 32.9186C17.3213 32.768 12.5026 30.8281 7.0903 35.2217Z" fill="url(#paint1_linear_5271_3769)"/>
<path d="M29.7011 43.8772H27.2651C27.0082 47.0927 25.1038 48.9617 22.5349 49.2363V46.8801C24.0408 46.6143 25.2012 45.3919 25.3961 43.8683H18.9209C17.8579 47.4381 16.5203 48.8288 14.0312 48.8377C11.3207 48.8377 9.53135 46.756 9.33647 43.8949H7.51172V42.3625H9.36304C9.70851 38.8015 12.0027 37.6411 13.6592 37.4817V39.7848C12.3748 40.0328 11.3827 41.0692 11.2055 42.3625H17.043C18.2122 38.2612 19.9218 37.0742 22.3135 37.0742C25.2809 37.0742 27.026 39.0407 27.274 42.3359H29.7188V43.8683L29.7011 43.8772ZM16.5823 43.8772H11.1435C11.3118 45.8082 12.4634 46.4549 13.7212 46.4549C14.979 46.4549 15.8826 45.9145 16.5823 43.9126V43.8772ZM19.3638 42.3359H25.3784C25.1923 40.4846 24.2534 39.5013 22.5084 39.5013C21.1265 39.5368 20.1344 40.148 19.3638 42.3713V42.3359Z" fill="white"/>
<path d="M130.622 115.282C144.878 124.616 154.331 139.706 167.429 150.607L155.864 181.997L148.285 173.737C141.795 166.737 135.221 159.651 127.335 154.235C119.449 148.819 110.03 145.225 100.492 145.855C100.492 145.855 105.312 116.73 107.714 113.851C114.731 105.403 121.629 109.389 130.622 115.265V115.282Z" fill="#4EA9B0"/>
<path d="M111.985 116.475L109.566 134.308C112.905 135.057 115.374 137.867 115.681 141.274C115.681 141.274 139.645 149.194 148.502 166.175C148.502 166.175 154.515 164.523 156.763 167.231L161.498 155.666C161.498 155.666 158.347 151.664 159.181 148.393C159.181 148.393 136.273 117.855 121.932 115.266C118.798 116.611 115.34 117.02 111.968 116.475H111.985Z" fill="white"/>
<path d="M136.4 149.434L136.843 147.254C134.39 146.794 132.704 144.529 132.959 142.042L135.054 142.468C135.003 143.864 135.872 145.125 137.183 145.567L138.392 139.794C135.412 138.141 134.424 136.745 134.884 134.531C135.395 132.18 137.711 130.698 140.045 131.209C140.079 131.209 140.113 131.209 140.147 131.226L140.47 129.574L141.85 129.847L141.509 131.499C143.724 131.942 145.256 133.986 145.052 136.234L143.008 135.808C143.008 134.616 142.293 133.56 141.169 133.151L140.096 138.346C143.519 140.168 144.252 141.906 143.809 144.035C143.264 146.675 141.169 147.85 138.188 147.458L137.745 149.638L136.383 149.417L136.4 149.434ZM138.835 137.75L139.84 132.913C138.631 132.589 137.388 133.304 137.064 134.514C137.047 134.582 137.03 134.667 137.013 134.735C136.757 135.91 137.166 136.762 138.835 137.767V137.75ZM139.67 140.509L138.546 145.891C139.857 146.232 141.203 145.448 141.543 144.137C141.56 144.052 141.577 143.966 141.595 143.864C141.867 142.604 141.492 141.599 139.653 140.509H139.67Z" fill="#4EA9B0"/>
<defs>
<linearGradient id="paint0_linear_5271_3769" x1="236.117" y1="43.5884" x2="33.6746" y2="155.163" gradientUnits="userSpaceOnUse">
<stop stop-color="#231F20" stop-opacity="0"/>
<stop offset="1" stop-color="#231F20"/>
</linearGradient>
<linearGradient id="paint1_linear_5271_3769" x1="33.0443" y1="20.9868" x2="-5.58556" y2="135.406" gradientUnits="userSpaceOnUse">
<stop stop-color="white" stop-opacity="0"/>
<stop offset="0.95" stop-color="white"/>
</linearGradient>
</defs>
</svg>
