<svg width="200" height="177" viewBox="0 0 200 177" fill="none" xmlns="http://www.w3.org/2000/svg">
<path opacity="0.18" d="M17.4503 128.053C18.1048 121.994 19.435 116.008 21.4092 110.238C23.8003 117.322 30.4776 122.764 37.8992 123.672C42.0957 124.184 46.6827 123.192 49.607 120.141C48.6252 127.504 48.2926 134.958 48.6252 142.384C43.9484 142.854 39.2241 142.801 34.5632 142.226C31.8184 141.888 29.0419 141.355 26.6032 140.051C24.6343 138.996 22.961 137.481 21.3089 135.982C19.5722 134.409 17.7353 132.651 17.3711 130.339" fill="#4EA9B0"/>
<path opacity="0.18" d="M183.716 134.5C187.116 132.874 189.787 129.607 190.283 125.875C192.31 132.125 194.353 138.48 194.5 145.047C190.415 146.319 186.261 147.517 181.99 147.823C177.72 148.129 173.275 147.485 169.602 145.289C170.747 143.875 171.634 142.244 172.214 140.518C172.526 139.583 172.547 136.099 173.202 135.572C173.882 135.023 177.298 135.899 178.332 135.841C180.19 135.735 182.038 135.308 183.722 134.505L183.716 134.5Z" fill="#4EA9B0"/>
<path opacity="0.18" d="M177.931 36.4325C178.544 36.2583 179.161 36.0577 179.657 35.6565C180.375 35.0812 180.734 34.1838 181.035 33.3181C182.518 29.0689 183.226 24.0016 180.586 20.3594C182.851 21.8796 185.295 23.1148 187.586 24.5927C192.658 27.8707 196.939 32.3627 199.964 37.5937C197.626 46.4616 189.301 53.4134 180.159 54.1313C175.614 48.4358 170.573 42.8934 166.445 36.897C168.208 37.3087 169.655 37.9104 171.492 37.7099C173.645 37.4776 175.852 37.0289 177.931 36.4325Z" fill="#4EA9B0"/>
<path d="M177.931 35.0887C178.544 34.9145 179.161 34.7139 179.657 34.3128C180.375 33.7374 180.734 32.8401 181.035 31.9744C182.518 27.7252 183.226 22.6578 180.586 19.0156C182.851 20.5358 185.295 21.771 187.586 23.249C192.658 26.527 196.939 31.019 199.964 36.25C197.626 45.1179 189.301 52.0697 180.159 52.7876C175.614 47.092 170.573 41.5496 166.445 35.5532C168.208 35.9649 169.655 36.5667 171.492 36.3661C173.645 36.1339 175.852 35.6852 177.931 35.0887Z" fill="url(#paint0_linear_5095_4606)"/>
<path d="M17.4503 126.706C18.1048 120.646 19.435 114.66 21.4092 108.891C23.8003 115.974 30.4776 121.417 37.8992 122.324C42.0957 122.836 46.6827 121.844 49.607 118.793C48.6252 126.157 48.2926 133.61 48.6252 141.037C43.9484 141.507 39.2241 141.454 34.5632 140.878C31.8184 140.541 29.0419 140.007 26.6032 138.704C24.6343 137.648 22.961 136.133 21.3089 134.634C19.5722 133.061 17.7353 131.303 17.3711 128.991" fill="url(#paint1_linear_5095_4606)"/>
<path d="M183.716 133.149C187.116 131.523 189.787 128.255 190.283 124.523C192.31 130.773 194.353 137.129 194.5 143.695C190.415 144.967 186.261 146.165 181.99 146.471C177.72 146.778 173.275 146.134 169.602 143.938C170.747 142.523 171.634 140.892 172.214 139.166C172.526 138.232 172.547 134.748 173.202 134.22C173.882 133.671 177.298 134.547 178.332 134.489C180.19 134.384 182.038 133.956 183.722 133.154L183.716 133.149Z" fill="url(#paint2_linear_5095_4606)"/>
<path opacity="0.18" d="M72.1092 158.932L83.8328 154.746L90.1195 167.119C90.1195 167.119 75.0599 169.083 72.4734 176.742L68.8788 165.467C68.0184 162.775 69.4488 159.882 72.1145 158.932H72.1092Z" fill="#4EA9B0"/>
<path d="M71.6678 158.092L83.3914 153.906L89.6781 166.279C89.6781 166.279 74.6185 168.243 72.032 175.902L68.4373 164.627C67.5769 161.935 69.0074 159.042 71.6731 158.092H71.6678Z" fill="url(#paint3_linear_5095_4606)"/>
<path d="M56.9288 58.4121L46.1501 0L8.14475 8.0339C7.58523 8.91014 0.221698 20.6865 0 20.7182L10.652 67.8712L57.8948 57.7364" fill="url(#paint4_linear_5095_4606)"/>
<path d="M43.0185 46.9296L18.8059 52.0551L18.5156 50.9994L42.7071 45.7578L43.0185 46.9296Z" fill="#4EA9B0"/>
<path d="M41.8818 41.3412L17.6692 46.4613L17.3789 45.4056L41.5703 40.1641L41.8818 41.3412Z" fill="#4EA9B0"/>
<path d="M40.9013 36.3568L16.6888 41.477L16.3984 40.4213L40.5899 35.1797L40.9013 36.3568Z" fill="#4EA9B0"/>
<path d="M39.7216 30.6171L15.5091 35.7426L15.2188 34.6869L39.4102 29.4453L39.7216 30.6171Z" fill="#4EA9B0"/>
<path d="M9.39576 19.3826L0 20.7181L8.14475 8.03906L9.39576 19.3826Z" fill="#4EA9B0"/>
<path d="M9.39576 19.3826L0 20.7181L8.14475 8.03906L9.39576 19.3826Z" fill="url(#paint5_linear_5095_4606)"/>
<path d="M115.567 35.9298L122.773 12.4311L107.286 8.11719C106.913 8.32952 101.96 11.2478 101.872 11.2167L96.7734 30.5594L116.051 35.8676" fill="url(#paint6_linear_5095_4606)"/>
<path opacity="0.34" d="M114.354 28.8711L104.488 26.1264L104.584 25.6836L114.465 28.3817L114.354 28.8711Z" fill="#4EA9B0"/>
<path opacity="0.34" d="M115.854 24.0612L105.988 21.3139L106.084 20.8711L115.965 23.5718L115.854 24.0612Z" fill="#4EA9B0"/>
<path opacity="0.34" d="M117.763 18.8542L107.895 16.1068L107.99 15.6641L117.871 18.3622L117.763 18.8542Z" fill="#4EA9B0"/>
<path d="M105.574 12.5191L101.871 11.2167L107.285 8.11719L105.574 12.5191Z" fill="#4EA9B0"/>
<path d="M105.574 12.5191L101.871 11.2167L107.285 8.11719L105.574 12.5191Z" fill="url(#paint7_linear_5095_4606)"/>
<path opacity="0.34" d="M101.087 23.998L100.637 25.52C100.574 25.7312 100.695 25.953 100.906 26.0155L102.689 26.5433C102.9 26.6058 103.122 26.4853 103.184 26.2741L103.635 24.7521C103.697 24.5409 103.577 24.319 103.365 24.2565L101.583 23.7288C101.372 23.6663 101.15 23.7868 101.087 23.998Z" fill="#4EA9B0"/>
<path opacity="0.34" d="M102.603 19.1386L102.152 20.6606C102.09 20.8718 102.21 21.0936 102.421 21.1562L104.204 21.6839C104.415 21.7464 104.637 21.6259 104.7 21.4147L105.15 19.8927C105.213 19.6815 105.092 19.4597 104.881 19.3972L103.098 18.8694C102.887 18.8069 102.665 18.9274 102.603 19.1386Z" fill="#4EA9B0"/>
<path opacity="0.34" d="M104.322 14.2948L103.871 15.8169C103.808 16.028 103.929 16.2499 104.14 16.3124L105.923 16.8401C106.134 16.9026 106.356 16.7821 106.418 16.571L106.869 15.049C106.931 14.8378 106.811 14.6159 106.6 14.5534L104.817 14.0257C104.606 13.9632 104.384 14.0837 104.322 14.2948Z" fill="#4EA9B0"/>
<path d="M105.14 16.0092L104.492 14.7326L104.956 14.4995L105.367 15.3152L107.594 14.1914L107.827 14.6549L105.14 16.0092Z" fill="#4EA9B0"/>
<path d="M103.558 20.5795L102.91 19.3029L103.374 19.0699L103.785 19.8855L106.012 18.7617L106.245 19.2226L103.558 20.5795Z" fill="#4EA9B0"/>
<path d="M101.977 25.6029L101.332 24.3237L101.793 24.0907L102.207 24.9064L104.434 23.7852L104.667 24.2461L101.977 25.6029Z" fill="#4EA9B0"/>
<path d="M72 103.559L133.724 79.2031L142.034 108.533L101.032 125.769L72 103.559Z" fill="#231F20"/>
<path d="M94.9956 88.0078L75.9531 91.8849L97.0696 120.375L114.316 115.905L94.9956 88.0078Z" fill="url(#paint8_linear_5095_4606)"/>
<path d="M87.4844 81.6977L133.999 66.0798V61.3663L143.566 58L156 106.88L101.471 125.768L87.4844 81.6977Z" fill="#4EA9B0"/>
<path d="M100.23 84.6293L112.187 80.9922L112.571 82.8125L100.611 86.3501L100.23 84.6293Z" fill="#231F20"/>
<defs>
<linearGradient id="paint0_linear_5095_4606" x1="183.205" y1="19.0156" x2="183.205" y2="52.7876" gradientUnits="userSpaceOnUse">
<stop stop-color="#E9E9E9"/>
<stop offset="1" stop-color="white"/>
</linearGradient>
<linearGradient id="paint1_linear_5095_4606" x1="33.489" y1="108.891" x2="33.489" y2="141.354" gradientUnits="userSpaceOnUse">
<stop stop-color="#E9E9E9"/>
<stop offset="1" stop-color="white"/>
</linearGradient>
<linearGradient id="paint2_linear_5095_4606" x1="182.051" y1="124.523" x2="182.051" y2="146.543" gradientUnits="userSpaceOnUse">
<stop stop-color="#E9E9E9"/>
<stop offset="1" stop-color="white"/>
</linearGradient>
<linearGradient id="paint3_linear_5095_4606" x1="78.9328" y1="153.906" x2="78.9328" y2="175.902" gradientUnits="userSpaceOnUse">
<stop stop-color="#E9E9E9"/>
<stop offset="1" stop-color="white"/>
</linearGradient>
<linearGradient id="paint4_linear_5095_4606" x1="57.2765" y1="15.8432" x2="1.57858" y2="54.9593" gradientUnits="userSpaceOnUse">
<stop stop-color="white"/>
<stop offset="1" stop-color="#F3F1F3"/>
</linearGradient>
<linearGradient id="paint5_linear_5095_4606" x1="1.92026" y1="4.58187" x2="6.38918" y2="24.9608" gradientUnits="userSpaceOnUse">
<stop stop-color="#231F20"/>
<stop offset="0.08" stop-color="#231F20" stop-opacity="0.69"/>
<stop offset="0.21" stop-color="#231F20" stop-opacity="0.32"/>
<stop offset="1" stop-color="#231F20" stop-opacity="0"/>
</linearGradient>
<linearGradient id="paint6_linear_5095_4606" x1="123.829" y1="20.3734" x2="95.9108" y2="24.0887" gradientUnits="userSpaceOnUse">
<stop stop-color="white"/>
<stop offset="1" stop-color="#F3F1F3"/>
</linearGradient>
<linearGradient id="paint7_linear_5095_4606" x1="105.657" y1="5.66588" x2="103.405" y2="14.0008" gradientUnits="userSpaceOnUse">
<stop stop-color="#231F20"/>
<stop offset="0.08" stop-color="#231F20" stop-opacity="0.69"/>
<stop offset="0.21" stop-color="#231F20" stop-opacity="0.32"/>
<stop offset="1" stop-color="#231F20" stop-opacity="0"/>
</linearGradient>
<linearGradient id="paint8_linear_5095_4606" x1="75.9531" y1="104.191" x2="114.316" y2="104.191" gradientUnits="userSpaceOnUse">
<stop stop-color="#E3E3E3"/>
<stop offset="1" stop-color="white"/>
</linearGradient>
</defs>
</svg>
