<svg width="20" height="23" viewBox="0 0 20 23" fill="none" xmlns="http://www.w3.org/2000/svg">
<path d="M8.33398 4.88911L10.144 6.24688C10.2561 6.33098 10.3959 6.36959 10.5353 6.35496C10.6747 6.34032 10.8034 6.27354 10.8957 6.16799L14.4451 2.11133" stroke="white" stroke-width="1.25" stroke-linecap="round"/>
<path d="M15.002 5.99991C15.002 7.04465 14.6747 8.06315 14.0662 8.91236C13.4577 9.76158 12.5984 10.3988 11.6091 10.7347C10.6198 11.0705 9.5502 11.088 8.55046 10.7847C7.55071 10.4814 6.67108 9.87256 6.03511 9.0437C5.39913 8.21484 5.03877 7.20758 5.00463 6.1634C4.97048 5.11923 5.26428 4.09058 5.84474 3.22194C6.42521 2.35331 7.26319 1.68831 8.24099 1.32036C9.21879 0.952415 10.2873 0.899995 11.2964 1.17047" stroke="white" stroke-width="1.25" stroke-linecap="round"/>
<path d="M19.38 17.4395L19.4218 17.4049C20.0318 16.8998 20.1628 15.9345 19.713 15.247C19.2641 14.5608 18.4094 14.4155 17.8008 14.9193L13.6446 18.3646L13.6321 18.375V18.3691H9.44455C9.1261 18.3691 8.86945 18.0769 8.86945 17.7246C8.86945 17.3723 9.1261 17.0801 9.44455 17.0801H12.2224C12.8241 17.0801 13.3139 16.5325 13.3139 15.8496C13.3139 15.1668 12.8241 14.6191 12.2224 14.6191H6.72577C5.72044 14.6191 4.74586 15.0039 3.96104 15.7079L19.38 17.4395ZM19.38 17.4395H19.3836L15.0294 21.0494C14.2202 21.7185 13.2419 22.0801 12.2397 22.0801H1.11112C0.509419 22.0801 0.0195312 21.5325 0.0195312 20.8496V18.3496C0.0195312 17.6668 0.509419 17.1191 1.11112 17.1191H2.38892V17.1259L2.402 17.1141L3.961 15.7079L19.38 17.4395Z" fill="white" stroke="#81C200" stroke-width="0.0390625"/>
</svg>
