<svg width="20" height="18" viewBox="0 0 20 18" fill="none" xmlns="http://www.w3.org/2000/svg">
<path fill-rule="evenodd" clip-rule="evenodd" d="M6.66929 0.841415C7.21478 0.302666 7.95461 0 8.72604 0H10.6652C11.4366 0 12.1764 0.302666 12.7219 0.841415C13.2674 1.38016 13.5738 2.11086 13.5738 2.87277V3.83036H16.4825C17.2539 3.83036 17.9938 4.13303 18.5393 4.67178C19.0848 5.21052 19.3912 5.94123 19.3912 6.70313V11.2264C18.8709 11.021 18.3039 10.9082 17.7106 10.9082C15.1813 10.9082 13.1309 12.9586 13.1309 15.488C13.1309 16.1073 13.2538 16.6978 13.4765 17.2366H2.90868C2.13725 17.2366 1.39742 16.934 0.851933 16.3952C0.306449 15.8565 0 15.1258 0 14.3639V6.70313C0 5.94123 0.306449 5.21052 0.851933 4.67178C1.39742 4.13303 2.13725 3.83036 2.90868 3.83036H5.81736V2.87277C5.81736 2.11086 6.12381 1.38016 6.66929 0.841415ZM7.75648 3.83036H11.6347V2.87277C11.6347 2.6188 11.5326 2.37524 11.3507 2.19565C11.1689 2.01607 10.9223 1.91518 10.6652 1.91518H8.72604C8.4689 1.91518 8.22229 2.01607 8.04046 2.19565C7.85863 2.37524 7.75648 2.6188 7.75648 2.87277V3.83036Z" fill="white"/>
<path d="M17.7351 12.1023C17.5667 12.0663 17.4174 12.2021 17.4174 12.3742C17.4174 12.5213 17.5279 12.6433 17.6709 12.6773C18.7945 12.9439 19.5589 14.0166 19.4146 15.1889C19.2934 16.1469 18.5917 16.9237 17.6692 17.1399C17.5272 17.1731 17.4174 17.2939 17.4174 17.4397C17.4174 17.6098 17.5649 17.7439 17.7314 17.7087C19.1449 17.4097 20.1328 16.0942 19.9856 14.6241C19.8667 13.3705 18.9404 12.3599 17.7351 12.1023ZM16.8436 12.3817C16.8436 12.21 16.695 12.0745 16.527 12.1099C16.1878 12.1812 15.8637 12.3133 15.5719 12.5026C15.4271 12.5966 15.4166 12.798 15.5366 12.9221C15.6431 13.0321 15.8148 13.041 15.9447 12.9601C16.1456 12.8349 16.3652 12.7416 16.5955 12.6833C16.736 12.6477 16.8436 12.5268 16.8436 12.3817ZM15.1365 13.323C15.0148 13.2014 14.8136 13.2106 14.7199 13.3548C14.5309 13.6457 14.3968 13.9689 14.3244 14.3081C14.2886 14.4758 14.4239 14.6241 14.5954 14.6241C14.7407 14.6241 14.8618 14.5159 14.8966 14.3748C14.9537 14.1433 15.046 13.9217 15.1714 13.7184C15.2491 13.5926 15.2411 13.4274 15.1365 13.323ZM14.5982 15.1975C14.427 15.1975 14.2922 15.346 14.3284 15.5133C14.4016 15.8522 14.5355 16.1745 14.7231 16.4652C14.8165 16.6098 15.018 16.6192 15.1394 16.4971C15.2425 16.3933 15.2504 16.2299 15.1737 16.1054C15.0482 15.9016 14.9554 15.6794 14.8986 15.447C14.8642 15.3059 14.7434 15.1975 14.5982 15.1975ZM15.9274 16.8784C15.8066 16.8035 15.6483 16.8097 15.5457 16.908C15.4223 17.0261 15.4287 17.2265 15.5714 17.3205C15.8628 17.5124 16.1869 17.6497 16.5276 17.7255C16.6946 17.7626 16.8436 17.6282 16.8436 17.4571C16.8436 17.3124 16.7355 17.1922 16.595 17.158C16.3591 17.1006 16.1337 17.0063 15.9274 16.8784ZM17.0588 13.4775C17.1776 13.4775 17.274 13.5738 17.274 13.6927V14.4421C17.274 14.7771 17.4506 15.0872 17.7388 15.258L18.3857 15.6414C18.4845 15.7 18.5163 15.828 18.4565 15.926C18.3976 16.0226 18.2718 16.0536 18.1747 15.9954L17.377 15.5172C17.0461 15.3189 16.8436 14.9613 16.8436 14.5755V13.6927C16.8436 13.5738 16.9399 13.4775 17.0588 13.4775Z" fill="white"/>
</svg>
