<svg width="20" height="19" viewBox="0 0 20 19" fill="none" xmlns="http://www.w3.org/2000/svg">
<path d="M19.4342 13.8203C20.0523 13.3086 20.1842 12.332 19.7294 11.6367C19.2745 10.9414 18.4065 10.793 17.7884 11.3047L13.6321 14.75H9.44455C9.13899 14.75 8.88899 14.4687 8.88899 14.125C8.88899 13.7812 9.13899 13.5 9.44455 13.5H12.2224C12.8369 13.5 13.3335 12.9414 13.3335 12.25C13.3335 11.5586 12.8369 11 12.2224 11H6.72577C5.71534 11 4.73616 11.3867 3.94796 12.0937L2.38892 13.5H1.11112C0.496533 13.5 0 14.0586 0 14.75V17.25C0 17.9414 0.496533 18.5 1.11112 18.5H12.2397C13.2467 18.5 14.2293 18.1367 15.0418 17.4648L19.4377 13.8203H19.4342Z" fill="white"/>
<path d="M11.003 5.98201L11.845 4.51274C11.845 4.51274 11.8004 4.47276 11.7311 4.42279L11.003 3.84308L10.998 3.85307C11.0129 3.73313 11.0228 3.61819 11.0228 3.49825C11.0228 3.37831 11.0129 3.26337 10.9931 3.15342L10.998 3.15842L11.845 2.48876L11.003 1.01449L10.0074 1.41929V1.42429C9.82417 1.28436 9.62605 1.16442 9.41308 1.07446H9.41803L9.26944 0H7.58049L7.42694 1.07446H7.4319C7.21892 1.16442 7.0208 1.28436 6.83754 1.42429V1.41929L5.842 1.01449L5 2.48876L5.842 3.15842L5.84695 3.15342C5.8321 3.26337 5.82219 3.37831 5.82219 3.49825C5.82219 3.61819 5.8321 3.73313 5.84695 3.85307L5.842 3.84308L5.11392 4.42279C5.04953 4.47276 5 4.51274 5 4.51274L5.842 5.98201L6.8425 5.58221L6.83259 5.56722C7.01585 5.71214 7.21397 5.83208 7.4319 5.92204H7.42694L7.58049 6.9965H9.26449C9.26449 6.9965 9.27439 6.93153 9.2843 6.84658L9.41803 5.92204H9.41308C9.63101 5.83208 9.82912 5.71214 10.0124 5.56722L10.0025 5.58221L11.003 5.98201ZM8.42249 4.49775C7.87766 4.49775 7.4319 4.04798 7.4319 3.49825C7.4319 2.94853 7.87766 2.49875 8.42249 2.49875C8.96731 2.49875 9.41308 2.94853 9.41308 3.49825C9.41308 4.04798 8.96731 4.49775 8.42249 4.49775ZM14.4502 7.96602L14.4453 7.97101C14.4552 7.89605 14.4601 7.82109 14.4601 7.74613C14.4601 7.67116 14.4552 7.5962 14.4403 7.52624L14.4453 7.53123L14.9901 7.10145L14.4502 6.15192L13.8113 6.41179V6.41679C13.6924 6.32684 13.5686 6.25187 13.4299 6.1919H13.4349L13.3358 5.49725H12.2511L12.1521 6.18691H12.157C12.0183 6.24688 11.8945 6.32184 11.7756 6.41179V6.4068L11.1367 6.14693L10.5968 7.09645L11.1367 7.52624L11.1417 7.52124C11.1317 7.5912 11.1268 7.66617 11.1268 7.74113C11.1268 7.81609 11.1317 7.89105 11.1417 7.97101L11.1367 7.96602L10.6711 8.34083C10.6315 8.37081 10.5968 8.4008 10.5968 8.4008L11.1367 9.34533L11.7806 9.09045L11.7756 9.08046C11.8945 9.17541 12.0233 9.25037 12.162 9.31034H12.157L12.2561 10H13.3408C13.3408 10 13.3457 9.96002 13.3556 9.90505L13.4398 9.31034H13.4349C13.5736 9.25037 13.7023 9.17541 13.8212 9.08046L13.8162 9.09045L14.4601 9.34533L15 8.4008C15 8.4008 14.9703 8.37581 14.9257 8.34083L14.4502 7.96602ZM12.791 8.3908C12.4393 8.3908 12.1521 8.10095 12.1521 7.74613C12.1521 7.3913 12.4393 7.10145 12.791 7.10145C13.1426 7.10145 13.4299 7.3913 13.4299 7.74613C13.4299 8.10095 13.1426 8.3908 12.791 8.3908Z" fill="white"/>
</svg>
