<svg width="210" height="172" viewBox="0 0 210 172" fill="none" xmlns="http://www.w3.org/2000/svg">
<path opacity="0.18" d="M16.4841 137.071C3.61503 127.125 1.24723 108.627 11.1928 95.7581C11.9023 94.8392 12.6674 93.9631 13.4794 93.1339C17.8389 88.7359 23.4721 85.9108 28.306 82.1027C36.6659 75.5592 42.8589 66.1094 52.1848 61.1131C63.4169 55.0953 77.0253 56.6809 89.3601 59.6855C101.695 62.6902 114.085 66.9898 126.736 65.9042C134.267 65.2503 141.52 62.703 148.983 61.4592C156.445 60.2155 164.63 60.442 170.874 64.7887C179.965 71.1612 182.123 84.0388 189.581 92.3432C193.193 96.3693 197.988 99.2329 201.189 103.614C206.335 110.653 206.199 121.223 200.882 128.125C194.069 136.951 181.773 138.353 171.853 143.204C166.331 145.905 161.386 149.803 155.671 152.068C143.67 156.825 130.168 153.731 117.863 149.884C105.559 146.038 92.8819 141.413 80.1411 143.298C68.2465 145.067 57.5231 152.41 45.5259 153.526C39.9569 154.043 33.6014 153.051 30.1993 148.243C26.5408 143.088 21.4376 140.875 16.4841 137.071Z" fill="#00A7B2" fill-opacity="0.46"/>
<path d="M27.4727 110.641C29.494 108.393 31.6504 105.921 33.9419 103.225L48.5768 86.0999C51.8135 82.39 53.0969 80.7055 54.8295 78.0625H68.6743C68.2773 81.7804 68.0968 85.5143 68.1329 89.2523V111.183H70.0901C72.3321 111.163 74.57 110.982 76.7879 110.641V122.914C74.5941 122.645 72.3882 122.509 70.1783 122.513H68.157V125.886C68.0928 128.661 68.2733 131.437 68.6984 134.18H54.7854C55.1664 131.388 55.3469 128.573 55.3268 125.753V122.449H36.244C31.8603 122.449 29.9914 122.517 27.4767 122.717V110.649L27.4727 110.641ZM55.383 103.498C55.383 100.462 55.5153 96.7563 55.788 93.7844C54.4485 95.6734 53.4257 97.021 51.6089 99.3111L41.7627 111.315H55.383V103.494V103.498Z" fill="#00A7B2"/>
<path d="M131.578 110.399C133.6 108.15 135.756 105.679 138.047 102.983L152.682 85.8538C154.964 83.3351 157.058 80.6479 158.935 77.8164H172.78C172.383 81.5343 172.202 85.2723 172.238 89.0102V110.929H174.196C176.43 110.904 178.659 110.724 180.873 110.387V122.66C178.68 122.387 176.474 122.251 174.264 122.255H172.242V125.628C172.178 128.403 172.359 131.178 172.784 133.922H158.891C159.272 131.142 159.452 128.339 159.432 125.531V122.227H140.349C135.966 122.227 134.077 122.295 131.582 122.499V110.407L131.578 110.399ZM159.492 103.252C159.492 100.216 159.625 96.5102 159.894 93.5423C158.554 95.4273 157.535 96.7749 155.714 99.069L145.892 111.073H159.512L159.496 103.248L159.492 103.252Z" fill="#00A7B2"/>
<path d="M87.9514 128.618C85.8017 126.501 84.1252 123.946 83.0383 121.131C81.2616 116.177 80.3712 110.951 80.4073 105.689C80.4073 98.6106 82.0958 91.2631 84.6586 87.0157C88.7696 80.1334 95.7802 76.3594 104.279 76.3594C110.82 76.3594 116.552 78.5933 120.662 82.612C122.812 84.7297 124.489 87.2804 125.576 90.0959C127.356 95.0692 128.247 100.319 128.203 105.605C128.203 112.688 126.518 120.104 123.955 124.359C119.908 131.109 112.834 134.899 104.267 134.899C97.6572 134.899 92.0623 132.729 87.9514 128.623V128.618ZM94.204 105.156C94.204 117.212 97.6412 123.429 104.319 123.429C110.997 123.429 114.298 117.361 114.298 105.357C114.298 93.3526 110.792 87.7577 104.251 87.7577C97.934 87.7577 94.2201 94.1628 94.2201 105.156H94.204Z" fill="#00A7B2"/>
<path d="M87.9514 128.618C85.8017 126.501 84.1252 123.946 83.0383 121.131C81.2616 116.177 80.3712 110.951 80.4073 105.689C80.4073 98.6106 82.0958 91.2631 84.6586 87.0157C88.7696 80.1334 95.7802 76.3594 104.279 76.3594C110.82 76.3594 116.552 78.5933 120.662 82.612C122.812 84.7297 124.489 87.2804 125.576 90.0959C127.356 95.0692 128.247 100.319 128.203 105.605C128.203 112.688 126.518 120.104 123.955 124.359C119.908 131.109 112.834 134.899 104.267 134.899C97.6572 134.899 92.0623 132.729 87.9514 128.623V128.618ZM94.204 105.156C94.204 117.212 97.6412 123.429 104.319 123.429C110.997 123.429 114.298 117.361 114.298 105.357C114.298 93.3526 110.792 87.7577 104.251 87.7577C97.934 87.7577 94.2201 94.1628 94.2201 105.156H94.204Z" fill="url(#paint0_linear_8548_2908)"/>
<path d="M28.9844 110.399C31.0084 108.15 33.1662 105.679 35.4576 102.983L50.0926 85.8538C52.3746 83.3351 54.4682 80.6479 56.3452 77.8164H70.1901C69.793 81.5343 69.6125 85.2723 69.6486 89.0102V110.929H71.6058C73.8478 110.904 76.0858 110.724 78.3037 110.387V122.66C76.1098 122.387 73.904 122.251 71.6941 122.255H69.6727V125.628C69.6085 128.403 69.789 131.178 70.2141 133.922H56.3011C56.6821 131.142 56.8626 128.339 56.8425 125.531V122.227H37.7557C33.3761 122.227 31.5031 122.295 28.9884 122.499V110.407L28.9844 110.399ZM56.9027 103.252C56.9027 100.216 57.035 96.5102 57.3038 93.5423C55.9642 95.4273 54.9455 96.7749 53.1246 99.069L43.3025 111.073H56.9027V103.248V103.252Z" fill="#00A7B2"/>
<path d="M127.075 90.3498C125.988 87.5303 124.312 84.9796 122.162 82.8619C118.047 78.8432 112.316 76.6133 105.779 76.6133C97.28 76.6133 90.2693 80.3873 86.1584 87.2616C83.5956 91.5129 81.9071 98.8645 81.9071 105.939C81.875 111.205 82.7694 116.431 84.5501 121.384C85.637 124.196 87.3135 126.751 89.4632 128.868C93.5782 132.979 99.1731 135.137 105.783 135.141C114.341 135.141 121.424 131.367 125.471 124.625C128.034 120.37 129.718 112.946 129.718 105.871C129.758 100.581 128.864 95.3271 127.075 90.3498ZM108.037 123.442C107.812 123.502 107.579 123.546 107.343 123.582C106.87 123.659 106.376 123.695 105.863 123.695C99.1851 123.695 95.7479 117.478 95.7479 105.422C95.7479 102.382 96.0287 99.6907 96.5741 97.3926C96.6303 97.16 96.6864 96.9314 96.7466 96.7068C98.2386 91.1119 101.371 88.0116 105.795 88.0277C112.332 88.0277 115.841 94.0958 115.841 105.631C115.841 116.231 113.21 122.203 108.037 123.442Z" fill="#00A7B2"/>
<path d="M133.223 110.399C135.244 108.15 137.4 105.679 139.692 102.983L154.327 85.8538C157.563 82.1479 158.847 80.4594 160.579 77.8164H174.424C174.031 81.5383 173.855 85.2803 173.899 89.0262V110.945H175.856C178.09 110.921 180.32 110.74 182.534 110.403V122.676C180.34 122.403 178.134 122.267 175.924 122.271H173.903V125.644C173.839 128.419 174.019 131.195 174.444 133.938H160.539C160.92 131.154 161.101 128.343 161.081 125.535V122.231H141.998C137.614 122.231 135.725 122.299 133.231 122.503V110.411L133.223 110.399ZM161.137 103.252C161.137 100.216 161.269 96.5102 161.542 93.5423C160.202 95.4273 159.18 96.7749 157.363 99.069L147.517 111.073H161.137V103.248V103.252Z" fill="#00A7B2"/>
<path d="M112.973 109.425C111.778 114.306 110.266 119.183 107.988 123.434C107.763 123.495 107.531 123.539 107.294 123.575C106.821 123.651 106.328 123.687 105.814 123.687C99.1364 123.687 95.6992 117.47 95.6992 105.414C95.6992 102.374 95.98 99.6831 96.5254 97.385C96.5816 97.1524 96.6377 96.9238 96.6979 96.6992C98.1136 94.6337 100.035 93.3262 102.457 93.7233C103.797 93.9479 105.04 94.7701 106.388 95.0628C107.559 95.3316 108.798 95.1952 109.957 95.6043C112.123 96.3743 113.531 98.9853 113.84 101.608C114.148 104.227 113.599 106.878 112.973 109.425Z" fill="#00A7B2"/>
<path d="M107.294 123.578C106.821 123.654 106.328 123.69 105.814 123.69C99.1364 123.69 95.6992 117.473 95.6992 105.417C95.6992 102.377 95.98 99.6859 96.5254 97.3878C97.0107 97.1071 97.5802 97.0148 98.1337 97.1111C99.008 97.3156 97.2834 102.084 100.701 111.818C103.267 119.134 106.624 118.753 107.069 120.918C107.206 121.596 107.318 122.615 107.294 123.578Z" fill="url(#paint1_linear_8548_2908)"/>
<path d="M116.728 81.9492C117.755 82.6992 118.232 83.9907 117.939 85.2259C119.64 85.3904 121.208 86.2246 122.287 87.5481C123.246 88.8155 123.827 90.3275 123.964 91.9117C124.092 93.4839 124.06 95.0681 123.859 96.6363C123.835 97.1778 123.727 97.7112 123.53 98.2165C123.061 99.1029 122.223 99.7326 121.24 99.9371C120.27 100.13 119.275 100.178 118.292 100.077L115.946 99.9531C115.87 99.9531 115.794 99.9371 115.722 99.905C115.625 99.8248 115.569 99.7085 115.565 99.5842C115.405 98.6256 115.16 98.2045 114.984 97.2459C114.55 95.2205 113.696 93.3034 112.485 91.623C112.268 91.3703 112.116 91.0735 112.04 90.7527C112.012 90.3075 112.112 89.8663 112.325 89.4773C112.641 88.7112 112.906 87.9211 113.111 87.115C113.299 86.1524 113.548 85.2019 113.849 84.2674C114.157 83.3249 114.787 82.5187 115.633 81.9973" fill="url(#paint2_linear_8548_2908)"/>
<path d="M115.633 109.995C115.633 109.995 124.216 110.753 128.134 105.531C129.698 103.457 126.213 93.6992 126.213 93.6992L122.251 100.79L115.998 102.21L115.629 109.999L115.633 109.995Z" fill="url(#paint3_linear_8548_2908)"/>
<path d="M95.4934 94.7281C95.2608 94.8124 95.0362 94.9166 94.8236 95.037C94.6231 95.1372 94.4466 95.2856 94.3062 95.4621C94.1659 95.6466 94.1338 95.8872 94.218 96.0998C94.4025 96.3845 94.7474 96.5289 95.0803 96.4607C95.6298 96.4086 96.1391 96.1359 96.6886 96.0396C97.238 95.9434 97.7554 95.5664 97.3664 94.9808C96.9774 94.3952 96.0429 94.5196 95.4934 94.7281Z" fill="#FFAA71"/>
<path d="M97.2494 96.0423C96.4473 95.8338 95.605 96.1867 94.8831 96.5918C94.7106 96.676 94.5622 96.7923 94.4379 96.9367C94.2454 97.0891 94.2133 97.3699 94.3657 97.5624C94.458 97.6787 94.5983 97.7388 94.7467 97.7308C94.9112 97.7469 95.0756 97.7348 95.236 97.6987L96.347 97.5062C96.6037 97.4741 96.8564 97.402 97.093 97.2937C97.5983 97.0009 98.0275 96.2348 97.2494 96.0423Z" fill="#FFAA71"/>
<path d="M95.6976 97.5145C95.469 97.6028 95.2444 97.707 95.0279 97.8274C94.8233 97.9357 94.6468 98.0881 94.5105 98.2726C94.3741 98.453 94.342 98.6937 94.4223 98.9062C94.6067 99.191 94.9517 99.3354 95.2845 99.2672C95.834 99.2151 96.3434 98.9423 96.8928 98.8461C97.4423 98.7498 97.9597 98.3768 97.5706 97.7873C97.1816 97.1977 96.2391 97.306 95.6976 97.5105V97.5145Z" fill="#FFAA71"/>
<path d="M97.4289 98.6389C96.6027 98.5707 95.8407 99.0841 95.1949 99.5935C95.0385 99.7098 94.9062 99.8502 94.8059 100.019C94.6455 100.207 94.6695 100.488 94.854 100.648C94.9623 100.741 95.1107 100.777 95.2511 100.741C95.4155 100.728 95.576 100.688 95.7244 100.624L96.7832 100.235C97.0358 100.159 97.2725 100.043 97.485 99.8903C97.9262 99.5253 98.227 98.7111 97.4289 98.6349V98.6389Z" fill="#FFAA71"/>
<path d="M121.098 86.0355C119.795 85.4139 118.363 85.1171 116.923 85.1652C116.678 85.1532 116.438 85.1933 116.209 85.2815C115.98 85.3818 115.836 85.6064 115.832 85.855C115.876 86.0676 115.996 86.2561 116.173 86.3804C116.698 86.8617 117.292 87.2628 117.934 87.5756C118.126 87.6518 118.303 87.7641 118.451 87.9125C118.599 88.0649 118.631 88.2935 118.527 88.478C118.379 88.6826 118.042 88.6906 117.93 88.9232C117.781 89.212 118.154 89.5007 118.475 89.5529C118.816 89.613 119.169 89.581 119.494 89.4606C119.722 89.3443 119.971 89.2721 120.228 89.2561C120.48 89.3082 120.717 89.4165 120.926 89.5729C121.631 89.974 123.825 89.99 123.685 88.7628C123.557 87.6278 122.004 86.5048 121.102 86.0355H121.098Z" fill="#FFAA71"/>
<path d="M110.305 95.8824C110.305 95.8824 120.179 99.9492 121.306 99.7407C122.437 99.5321 120.608 89.7862 120.608 89.7862L123.973 88.2461C123.973 88.2461 131.565 103.294 125.349 105.484C121.507 106.771 117.34 106.727 113.525 105.36L110.301 95.8824H110.305Z" fill="#00A7B2"/>
<path d="M115.56 90.233C115.523 91.1074 115.319 91.9657 114.954 92.7598C114.228 93.959 112.977 94.7491 111.581 94.8894C111.08 94.9215 110.582 94.9937 110.089 95.098C109.628 95.1943 109.243 95.5111 109.066 95.9523C108.669 96.9148 108.256 97.8934 106.977 97.5686C106.856 97.5405 106.74 97.5004 106.628 97.4483C106.227 97.2597 105.862 96.995 105.561 96.6662C105.184 96.2852 104.859 95.86 104.586 95.3988C104.446 95.1862 104.354 94.9456 104.31 94.6929C104.281 94.3841 104.322 94.0713 104.418 93.7785C104.863 91.9937 104.935 89.9683 105.569 88.2277C106.219 86.463 107.458 84.975 109.078 84.0205C110.683 83.086 112.908 83.074 114.272 84.3454C115.018 85.0914 115.487 86.0659 115.612 87.1127C115.72 88.1515 115.7 89.1983 115.56 90.229V90.233Z" fill="#FFAA71"/>
<path d="M104.702 88.0004C104.786 87.1622 104.782 86.3079 104.946 85.4817C105.071 84.6395 105.496 83.8654 106.138 83.3079C106.298 83.1796 106.478 83.0753 106.675 83.0031C106.847 82.9389 107.032 82.9069 107.212 82.8547C107.738 82.6662 108.239 82.4176 108.704 82.1127C109.41 81.6876 110.184 81.3868 110.99 81.2184C111.536 81.1341 112.085 81.0981 112.639 81.1021C113.65 81.086 114.668 81.074 115.687 81.074C115.928 81.0579 116.168 81.094 116.389 81.1903C116.633 81.3387 116.81 81.5753 116.886 81.8521C117.079 82.4697 117.079 83.1275 116.886 83.7451C116.69 84.3547 116.425 84.9403 116.104 85.4938C115.948 85.8427 115.727 86.1595 115.45 86.4282C115.214 86.0192 115.005 85.594 114.789 85.1649C114.107 85.8748 113.028 86.0593 112.045 85.9831C111.063 85.9069 110.1 85.6542 109.117 85.6381C108.644 85.59 108.175 85.7264 107.806 86.0272C107.585 86.2839 107.433 86.5887 107.361 86.9216C107.152 87.6555 106.984 88.4015 106.855 89.1555C106.739 88.9349 106.27 88.3654 106.025 88.3734C105.881 88.3854 105.753 88.4617 105.664 88.574C105.259 89.0191 105.46 90.6595 105.833 91.1328C105.909 91.205 105.965 91.2932 105.997 91.3935C106.013 91.5258 105.973 91.6582 105.889 91.7624C105.68 92.0111 105.363 92.1394 105.039 92.1114C104.646 92.1114 104.569 91.3614 104.529 91.0846C104.365 90.0539 104.601 89.0111 104.698 88.0004H104.702Z" fill="#606060"/>
<path d="M106.261 89.8879C106.205 89.7716 106.181 89.6433 106.189 89.5189C106.197 89.3906 106.185 89.2622 106.149 89.1379C106.109 89.0256 106.028 88.9294 105.92 88.8732C105.888 88.8652 105.856 88.8652 105.828 88.8732C105.776 88.8973 105.736 88.9414 105.724 88.9975C105.567 89.4868 105.583 90.0162 105.772 90.4935C105.824 90.666 105.948 90.8104 106.117 90.8785C106.265 90.9066 106.417 90.8625 106.522 90.7542C106.666 90.6018 106.71 90.3812 106.638 90.1887C106.562 90.0082 106.353 90.0483 106.257 89.8879H106.261Z" fill="url(#paint4_linear_8548_2908)"/>
<path d="M110.086 95.0878C109.625 95.184 109.24 95.5009 109.063 95.9421C108.666 96.9046 108.253 97.8832 106.974 97.5584C106.854 97.5303 106.737 97.4902 106.625 97.438C106.517 97.3458 106.428 97.2295 106.364 97.1011C106.248 96.7963 106.26 96.4594 106.4 96.1626C106.717 95.3966 107.455 94.8872 108.285 94.8672C108.626 94.8832 108.967 94.9273 109.3 94.9995C109.505 95.0276 109.745 94.9995 109.934 95.0236C109.99 95.0316 110.038 95.0557 110.086 95.0878Z" fill="url(#paint5_linear_8548_2908)"/>
<defs>
<linearGradient id="paint0_linear_8548_2908" x1="145.717" y1="107.31" x2="5.47984" y2="101.623" gradientUnits="userSpaceOnUse">
<stop stop-opacity="0"/>
<stop offset="0.99"/>
</linearGradient>
<linearGradient id="paint1_linear_8548_2908" x1="118.929" y1="121.6" x2="48.2208" y2="78.0884" gradientUnits="userSpaceOnUse">
<stop stop-opacity="0"/>
<stop offset="0.99"/>
</linearGradient>
<linearGradient id="paint2_linear_8548_2908" x1="129.29" y1="79.6832" x2="89.0145" y2="122.798" gradientUnits="userSpaceOnUse">
<stop stop-opacity="0"/>
<stop offset="0.99"/>
</linearGradient>
<linearGradient id="paint3_linear_8548_2908" x1="123.562" y1="113.151" x2="117.658" y2="85.3049" gradientUnits="userSpaceOnUse">
<stop stop-opacity="0"/>
<stop offset="0.99"/>
</linearGradient>
<linearGradient id="paint4_linear_8548_2908" x1="105.804" y1="89.9681" x2="106.959" y2="89.5671" gradientUnits="userSpaceOnUse">
<stop stop-opacity="0"/>
<stop offset="0.99"/>
</linearGradient>
<linearGradient id="paint5_linear_8548_2908" x1="106.108" y1="94.418" x2="112.934" y2="100.013" gradientUnits="userSpaceOnUse">
<stop stop-opacity="0"/>
<stop offset="0.99"/>
</linearGradient>
</defs>
</svg>
