<svg width="122" height="121" viewBox="0 0 122 121" fill="none" xmlns="http://www.w3.org/2000/svg">
<path d="M94.56 0H26.58C11.9003 0 0 11.9003 0 26.58V74.2C0 88.8797 11.9003 100.78 26.58 100.78H94.56C109.24 100.78 121.14 88.8797 121.14 74.2V26.58C121.14 11.9003 109.24 0 94.56 0Z" fill="#D3D3D3"/>
<path d="M67.2416 93.4199C67.2416 93.4199 64.5216 115.41 86.7916 120.71C86.7916 120.71 77.7915 109.17 82.0215 93.4199H67.2416Z" fill="#D3D3D3"/>
<path d="M59.1897 60.1801C57.6397 60.1801 56.4597 59.6801 55.6497 58.6701C54.8397 57.6601 54.4397 56.3301 54.4397 54.6601C54.4397 53.1701 54.6297 51.7401 54.9997 50.3901C55.3697 49.0401 55.9597 47.6901 56.7697 46.3301C57.5797 44.9801 58.6697 43.6101 60.0497 42.2301C60.9697 41.2501 61.6897 40.3901 62.2097 39.6401C62.7297 38.8901 63.1197 38.2001 63.3797 37.5701C63.6397 36.9401 63.7697 36.2501 63.7697 35.5001C63.7697 34.1801 63.2797 33.1601 62.2997 32.4401C61.3197 31.7201 59.9097 31.3601 58.0697 31.3601C56.2297 31.3601 54.4997 31.5801 52.8897 32.0101C51.2797 32.4401 49.7297 33.0601 48.2297 33.8601C46.4997 34.7801 44.9797 35.0801 43.6597 34.7701C42.3397 34.4501 41.2997 33.7801 40.5497 32.7401C39.7997 31.7001 39.3797 30.5001 39.2997 29.1201C39.2197 27.7401 39.5897 26.3901 40.4197 25.0601C41.2497 23.7401 42.5597 22.6401 44.3497 21.7801C46.7097 20.6301 49.2197 19.7701 51.8997 19.1901C54.5697 18.6201 56.9997 18.3301 59.1897 18.3301C63.2197 18.3301 66.7397 18.9801 69.7597 20.2701C72.7797 21.5601 75.1197 23.3501 76.7897 25.6201C78.4597 27.8901 79.2897 30.5501 79.2897 33.6001C79.2897 35.3801 79.0297 37.0401 78.5097 38.5601C77.9897 40.0801 77.1597 41.5701 76.0097 43.0001C74.8597 44.4401 73.2497 45.9301 71.1797 47.4901C69.3997 48.8101 68.0197 49.9901 67.0397 51.0301C66.0597 52.0601 65.3597 53.0301 64.9297 53.9201C64.4997 54.8101 64.1697 55.7801 63.9397 56.8101C63.7097 57.8501 63.2097 58.6701 62.4297 59.2701C61.6497 59.8701 60.5697 60.1801 59.1897 60.1801ZM58.9297 80.7101C56.3397 80.7101 54.2797 79.9201 52.7597 78.3401C51.2397 76.7601 50.4697 74.7301 50.4697 72.2601C50.4697 69.7901 51.2297 67.8701 52.7597 66.3501C54.2797 64.8301 56.3397 64.0601 58.9297 64.0601C61.5197 64.0601 63.6997 64.8201 65.1397 66.3501C66.5797 67.8701 67.2997 69.8401 67.2997 72.2601C67.2997 74.6801 66.5797 76.7601 65.1397 78.3401C63.6997 79.9201 61.6297 80.7101 58.9297 80.7101Z" fill="white"/>
</svg>
