<svg width="151" height="82" viewBox="0 0 151 82" fill="none" xmlns="http://www.w3.org/2000/svg">
<path d="M11.5631 22.5329C17.7852 22.5329 22.8293 17.4887 22.8293 11.2664C22.8293 5.04416 17.7852 0 11.5631 0C5.34093 0 0.296875 5.04416 0.296875 11.2664C0.296875 17.4887 5.34093 22.5329 11.5631 22.5329Z" fill="#4EA9B0"/>
<path d="M11.564 11.6673C13.5907 11.6673 15.2336 10.0244 15.2336 7.99772C15.2336 5.97106 13.5907 4.32812 11.564 4.32812C9.53743 4.32812 7.89453 5.97106 7.89453 7.99772C7.89453 10.0244 9.53743 11.6673 11.564 11.6673Z" fill="white"/>
<path d="M14.7425 12.1133H8.3808C7.21046 12.1133 6.26172 13.062 6.26172 14.2324V14.9699C6.26172 16.1402 7.21046 17.089 8.3808 17.089H14.7425C15.9128 17.089 16.8616 16.1402 16.8616 14.9699V14.2324C16.8616 13.062 15.9128 12.1133 14.7425 12.1133Z" fill="white"/>
<path d="M103.337 7.96094H36.0775C33.7392 7.96094 31.8438 9.85647 31.8438 12.1947V32.2131C31.8438 34.5514 33.7392 36.4469 36.0775 36.4469H103.337C105.675 36.4469 107.571 34.5514 107.571 32.2131V12.1947C107.571 9.85647 105.675 7.96094 103.337 7.96094Z" fill="#E6E6E6"/>
<path d="M43.7412 7.96094H23.7188L36.4865 15.6466L43.7412 7.96094Z" fill="#E6E6E6"/>
<path d="M96.9584 15.4844H43.4972C42.6164 15.4844 41.9023 16.1984 41.9023 17.0793V17.2436C41.9023 18.1245 42.6164 18.8385 43.4972 18.8385H96.9584C97.8392 18.8385 98.5533 18.1245 98.5533 17.2436V17.0793C98.5533 16.1984 97.8392 15.4844 96.9584 15.4844Z" fill="white"/>
<path d="M96.9584 23.9961H43.4972C42.6164 23.9961 41.9023 24.7102 41.9023 25.591V25.7554C41.9023 26.6362 42.6164 27.3503 43.4972 27.3503H96.9584C97.8392 27.3503 98.5533 26.6362 98.5533 25.7554V25.591C98.5533 24.7102 97.8392 23.9961 96.9584 23.9961Z" fill="white"/>
<path d="M112.53 35.3161C112.53 32.1903 109.997 29.6562 106.871 29.6562C103.745 29.6562 101.211 32.1903 101.211 35.3161C101.211 38.442 103.745 40.976 106.871 40.976C109.997 40.976 112.53 38.442 112.53 35.3161Z" fill="#4EA9B0"/>
<path d="M106.678 38.0649C106.464 38.0649 106.256 37.9805 106.105 37.8294L103.994 35.7192C103.679 35.4038 103.679 34.8884 103.994 34.573C104.31 34.2576 104.825 34.2576 105.141 34.573L106.575 36.008L108.495 33.3557C108.757 32.9914 109.263 32.9115 109.627 33.1736C109.992 33.4357 110.072 33.9422 109.81 34.3064L107.331 37.7272C107.193 37.9183 106.975 38.0427 106.74 38.0604C106.718 38.0604 106.695 38.0604 106.673 38.0604L106.678 38.0649Z" fill="white"/>
<path d="M139.028 62.9587C145.25 62.9587 150.294 57.9145 150.294 51.6922C150.294 45.4699 145.25 40.4258 139.028 40.4258C132.806 40.4258 127.762 45.4699 127.762 51.6922C127.762 57.9145 132.806 62.9587 139.028 62.9587Z" fill="#4EA9B0"/>
<path d="M139.029 52.0931C141.056 52.0931 142.698 50.4502 142.698 48.4235C142.698 46.3968 141.056 44.7539 139.029 44.7539C137.002 44.7539 135.359 46.3968 135.359 48.4235C135.359 50.4502 137.002 52.0931 139.029 52.0931Z" fill="white"/>
<path d="M142.207 52.5391H135.846C134.675 52.5391 133.727 53.4878 133.727 54.6582V55.3957C133.727 56.566 134.675 57.5148 135.846 57.5148H142.207C143.378 57.5148 144.326 56.566 144.326 55.3957V54.6582C144.326 53.4878 143.378 52.5391 142.207 52.5391Z" fill="white"/>
<path d="M47.2567 48.8242H114.516C116.855 48.8242 118.75 50.7198 118.75 53.058V73.0764C118.75 75.4146 116.855 77.3102 114.516 77.3102H47.2567C44.9185 77.3102 43.023 75.4146 43.023 73.0764V53.058C43.023 50.7198 44.9185 48.8242 47.2567 48.8242Z" fill="#E6E6E6"/>
<path d="M106.853 48.8242H126.875L114.107 56.5099L106.853 48.8242Z" fill="#E6E6E6"/>
<path d="M53.6354 56.3477H107.097C107.977 56.3477 108.691 57.0617 108.691 57.9425V58.1069C108.691 58.9878 107.977 59.7018 107.097 59.7018H53.6354C52.7546 59.7018 52.0405 58.9878 52.0405 58.1069V57.9425C52.0405 57.0617 52.7546 56.3477 53.6354 56.3477Z" fill="white"/>
<path d="M53.6354 64.8594H107.097C107.977 64.8594 108.691 65.5734 108.691 66.4543V66.6186C108.691 67.4995 107.977 68.2135 107.097 68.2135H53.6354C52.7546 68.2135 52.0405 67.4995 52.0405 66.6186V66.4543C52.0405 65.5734 52.7546 64.8594 53.6354 64.8594Z" fill="white"/>
<path d="M38.0633 75.9372C38.0633 72.8114 40.5972 70.2773 43.723 70.2773C46.8488 70.2773 49.3828 72.8114 49.3828 75.9372C49.3828 79.0631 46.8488 81.5971 43.723 81.5971C40.5972 81.5971 38.0633 79.0631 38.0633 75.9372Z" fill="#4EA9B0"/>
<path d="M43.5488 78.6821C43.3355 78.6821 43.1267 78.5977 42.9757 78.4466L40.8655 76.3364C40.5501 76.0209 40.5501 75.5056 40.8655 75.1902C41.1809 74.8748 41.6962 74.8748 42.0116 75.1902L43.4466 76.6251L45.3657 73.9729C45.6278 73.6086 46.1343 73.5287 46.4986 73.7908C46.8629 74.0529 46.9428 74.5593 46.6807 74.9236L44.2018 78.3444C44.0641 78.5355 43.8464 78.6599 43.611 78.6776C43.5887 78.6776 43.5665 78.6776 43.5443 78.6776L43.5488 78.6821Z" fill="white"/>
</svg>
