<svg width="168" height="201" viewBox="0 0 168 201" fill="none" xmlns="http://www.w3.org/2000/svg">
<path fill-rule="evenodd" clip-rule="evenodd" d="M2.1536 125.992C1.09015 111.266 13.5199 100.568 20.7406 87.7193C32.5599 66.6879 33.1056 30.1651 57.0388 28.3284C80.6192 26.5188 82.2357 66.0557 100.133 81.6265C120.222 99.1044 158.349 96.5721 165.171 122.405C172.134 148.774 152.415 178.031 129.384 192.4C109.064 205.079 83.3581 194.896 60.5454 187.684C45.8708 183.044 36.5502 170.906 25.9382 159.694C16.1218 149.323 3.18534 140.279 2.1536 125.992Z" fill="#038189" fill-opacity="0.1"/>
<path d="M75.1515 99.6457L61.7533 64.0092C55.4619 47.2711 63.9572 28.5329 80.6953 22.2367C97.4335 15.9453 116.172 24.4406 122.468 41.1787L126.002 50.5721L117.366 53.8197L113.832 44.4264C109.327 32.4504 95.9189 26.3678 83.9381 30.8727C78.137 33.0524 73.5302 37.3631 70.967 43.0089C68.4087 48.6546 68.2 54.9605 70.3796 60.7616L83.7779 96.3981L75.1418 99.6457H75.1515Z" fill="#FFD200"/>
<g opacity="0.7">
<path d="M75.1525 99.6452L61.7543 64.0087C55.4629 47.2706 63.9582 28.5324 80.6963 22.2362C97.4345 15.9448 116.173 24.4401 122.469 41.1783L126.003 50.5716L117.367 53.8192L113.833 44.4259C109.328 32.45 95.9199 26.3673 83.9391 30.8723C78.138 33.0519 73.5311 37.3626 70.968 43.0084C68.4097 48.6541 68.201 54.96 70.3806 60.7611L83.7789 96.3976L75.1428 99.6452H75.1525Z" fill="white"/>
</g>
<path d="M120.33 79.0748L62.0815 70.1824C52.1374 68.6643 42.8455 75.4948 41.3274 85.4389L33.8738 134.262C32.3557 144.206 39.1863 153.498 49.1303 155.016L107.379 163.909C117.323 165.427 126.615 158.596 128.133 148.652L135.586 99.8289C137.105 89.8848 130.274 80.5929 120.33 79.0748Z" fill="#FFD200"/>
<path d="M102.615 11.7705C102.319 11.6298 102.061 11.3967 101.891 11.0861L97.6681 3.20244C97.2555 2.43058 97.5467 1.47425 98.3137 1.06162C99.0856 0.648993 100.047 0.935406 100.455 1.70726L104.678 9.59089C105.091 10.3627 104.799 11.3191 104.032 11.7317C103.576 11.9793 103.047 11.9744 102.61 11.7705H102.615Z" fill="#A5A5A5"/>
<path d="M113.716 11.5279C113.003 11.193 112.634 10.3726 112.886 9.60556L115.648 1.09571C115.92 0.265598 116.813 -0.190719 117.643 0.0762755C118.478 0.34327 118.93 1.24134 118.663 2.07146L115.901 10.5813C115.629 11.4114 114.736 11.8677 113.905 11.6007C113.842 11.5813 113.779 11.5571 113.721 11.5279H113.716Z" fill="#A5A5A5"/>
<path d="M121.411 19.9073C120.891 19.6646 120.522 19.1403 120.498 18.5286C120.469 17.6548 121.153 16.9218 122.027 16.8927L130.969 16.5868C131.843 16.5577 132.576 17.2422 132.605 18.116C132.634 18.9898 131.95 19.7228 131.076 19.7519L122.134 20.0578C121.877 20.0675 121.629 20.0141 121.411 19.9121V19.9073Z" fill="#A5A5A5"/>
<path d="M85.7788 115.788C92.9345 115.788 98.7353 109.987 98.7353 102.831C98.7353 95.6753 92.9345 89.8745 85.7788 89.8745C78.6231 89.8745 72.8223 95.6753 72.8223 102.831C72.8223 109.987 78.6231 115.788 85.7788 115.788Z" fill="#24285B"/>
<path d="M79.4671 108.477L70.8262 124.258H84.6808L75.3117 143.531C75.3117 143.531 99.7198 119.205 98.7295 119.656C97.7392 120.108 85.773 119.656 85.773 119.656L93.2537 109.53L79.4671 108.481V108.477Z" fill="#24285B"/>
<g opacity="0.37">
<path d="M117.862 108.19C123.477 108.19 128.028 103.639 128.028 98.0251C128.028 92.411 123.477 87.8599 117.862 87.8599C112.248 87.8599 107.697 92.411 107.697 98.0251C107.697 103.639 112.248 108.19 117.862 108.19Z" fill="white"/>
</g>
</svg>
