<svg width="121" height="118" viewBox="0 0 121 118" fill="none" xmlns="http://www.w3.org/2000/svg">
<path d="M104.503 20.3778H74.0711C73.2038 20.3778 72.5 19.674 72.5 18.8067V6.10275C72.5 2.838 75.1583 0.179688 78.423 0.179688H100.151C103.416 0.179688 106.074 2.838 106.074 6.10275V18.8067C106.074 19.674 105.37 20.3778 104.503 20.3778ZM75.639 17.2356H102.929V6.10275C102.929 4.56935 101.681 3.3219 100.148 3.3219H78.4198C76.8865 3.3219 75.639 4.56935 75.639 6.10275V17.2356Z" fill="#00A1A8"/>
<path d="M104.512 20.5124H74.0798C73.1277 20.5124 72.3516 19.7362 72.3516 18.7841V6.08018C72.3516 2.72744 75.079 0 78.4316 0H100.16C103.512 0 106.24 2.72744 106.24 6.08018V18.7841C106.24 19.7362 105.464 20.5124 104.512 20.5124ZM78.4285 0.311078C75.2486 0.311078 72.6626 2.89712 72.6626 6.07704V18.781C72.6626 19.5603 73.2974 20.195 74.0766 20.195H104.508C105.288 20.195 105.922 19.5603 105.922 18.781V6.07704C105.922 2.89712 103.336 0.311078 100.157 0.311078H78.4285ZM102.941 17.3701H75.6508C75.5629 17.3701 75.4937 17.301 75.4937 17.213V6.08018C75.4937 4.4588 76.8134 3.14221 78.4316 3.14221H100.16C101.781 3.14221 103.098 4.4588 103.098 6.08018V17.213C103.098 17.301 103.028 17.3701 102.941 17.3701ZM75.8048 17.0559H102.78V6.08018C102.78 4.63476 101.602 3.45643 100.157 3.45643H78.4285C76.98 3.45643 75.8048 4.63476 75.8048 6.08018V17.0559Z" fill="#E9E9E9"/>
<path d="M116.885 15.7305H61.6994C59.9033 15.7305 58.4473 17.1865 58.4473 18.9827V101.233C58.4473 103.029 59.9033 104.485 61.6994 104.485H116.885C118.681 104.485 120.137 103.029 120.137 101.233V18.9827C120.137 17.1865 118.681 15.7305 116.885 15.7305Z" fill="#E9E9E9"/>
<path d="M115.597 22.3238V97.8846C115.597 99.1823 114.548 100.232 113.25 100.232H65.3511C64.0534 100.232 63.0039 99.1823 63.0039 97.8846V22.3238C63.0039 21.0261 64.0534 19.9766 65.3511 19.9766H74.3628C75.1264 19.9766 75.8585 20.2719 76.4084 20.803L77.3259 21.6922C78.2874 22.6223 79.5725 23.1408 80.9111 23.1408H97.6902C99.0288 23.1408 100.314 22.6223 101.275 21.6922L102.193 20.803C102.743 20.2719 103.475 19.9766 104.239 19.9766H113.25C114.548 19.9766 115.597 21.0261 115.597 22.3238Z" fill="white"/>
<path d="M92.4797 50.8598L94.6006 60.5598C94.7483 61.2416 94.2299 61.8858 93.5354 61.8858H85.0547C84.3572 61.8858 83.8387 61.2416 83.9895 60.5598L86.1105 50.8598C82.9683 49.5495 80.8065 46.3507 81.0453 42.6743C81.3124 38.5769 84.6463 35.2461 88.7436 34.9791C93.5606 34.6648 97.5668 38.4795 97.5668 43.2274C97.5668 46.6681 95.4679 49.6155 92.4828 50.8598H92.4797Z" fill="#00A1A8"/>
<path d="M93.5454 62.0398H85.0647C84.6845 62.0398 84.3295 61.8701 84.0907 61.5748C83.8519 61.2794 83.7639 60.896 83.8424 60.5253L85.9351 50.9509C82.683 49.5369 80.6626 46.2219 80.8951 42.6618C81.1685 38.4638 84.54 35.0922 88.7411 34.8188C91.1008 34.668 93.3475 35.4661 95.0663 37.0781C96.7599 38.6649 97.7308 40.9053 97.7308 43.2242C97.7308 46.5927 95.7481 49.6124 92.6719 50.9509L94.7646 60.5253C94.8463 60.896 94.7552 61.2794 94.5164 61.5748C94.2776 61.8701 93.9225 62.0398 93.5423 62.0398H93.5454ZM89.3098 35.1142C89.1276 35.1142 88.9453 35.1205 88.7599 35.133C84.716 35.397 81.4701 38.6429 81.2093 42.6838C80.9831 46.1528 82.9815 49.3798 86.1802 50.7121C86.2493 50.7404 86.2902 50.8158 86.2745 50.8912L84.1535 60.5944C84.0938 60.8709 84.1598 61.1568 84.3389 61.3799C84.518 61.603 84.7819 61.7287 85.0679 61.7287H93.5486C93.8345 61.7287 94.0985 61.603 94.2776 61.3799C94.4567 61.16 94.5227 60.8709 94.463 60.5944L92.342 50.8912C92.3263 50.8158 92.364 50.7436 92.4363 50.7121C95.4653 49.449 97.4229 46.511 97.4229 43.2242C97.4229 40.9901 96.4865 38.8346 94.8557 37.3075C93.3349 35.8809 91.3836 35.1142 89.3161 35.1142H89.3098Z" fill="#00A1A8"/>
<path d="M51.6446 90.4218L52.8669 117.3H30.3219L29.0022 103.861L24.468 117.3H0.144531L7.4752 88.5898L51.6446 90.4218Z" fill="white"/>
<path d="M52.878 117.465H30.333C30.2513 117.465 30.1853 117.402 30.1759 117.324L28.9285 104.61L24.63 117.358C24.608 117.421 24.5483 117.465 24.4823 117.465H0.155696C0.108563 117.465 0.0614309 117.443 0.0331515 117.406C0.00487202 117.368 -0.00769668 117.318 0.00487197 117.27L7.33554 88.5569C7.35439 88.4846 7.42352 88.4438 7.49264 88.4375L51.662 90.2694C51.7437 90.2725 51.8097 90.3385 51.8128 90.4202L53.0351 117.299C53.0351 117.343 53.0226 117.384 52.9912 117.415C52.9629 117.446 52.922 117.462 52.878 117.462V117.465ZM30.4744 117.151H52.7115L51.5049 90.5805L7.60576 88.758L0.356794 117.151H24.3661L28.8625 103.819C28.8876 103.749 28.9536 103.705 29.029 103.712C29.1013 103.721 29.161 103.778 29.1673 103.853L30.4744 117.151Z" fill="#707070"/>
<path d="M43.8925 28.9342L20.7033 25.6914C20.7033 25.6914 16.9233 26.1533 15.9681 28.576C15.0129 30.9986 15.1606 31.5296 14.6484 31.7402C14.1362 31.9507 10.6139 32.5383 9.73092 35.9884C8.85111 39.4386 9.36328 40.2461 9.29101 40.9783C9.21874 41.7104 5.76865 44.4284 5.9886 48.9783C6.20855 53.5283 9.14333 55.1434 9.14333 55.1434L43.5343 46.2792C50.0197 46.4646 52.0307 42.232 52.0684 38.4174C52.1061 34.5996 48.1344 33.7449 47.7071 33.1604C47.2798 32.576 46.8901 29.5375 43.8894 28.9405" fill="white"/>
<path d="M9.12468 55.327C9.09955 55.327 9.07127 55.3208 9.04927 55.3082C9.01785 55.2925 6.03594 53.5988 5.81284 49.0143C5.64945 45.6208 7.50647 43.2107 8.50253 41.9192C8.82303 41.5045 9.09955 41.1431 9.11526 40.9923C9.13097 40.8195 9.11526 40.6341 9.09012 40.3984C9.01471 39.6694 8.90159 38.5665 9.56144 35.9805C10.3564 32.8634 13.2032 32.0338 14.2778 31.7196C14.4098 31.6819 14.5135 31.6505 14.5732 31.6285C14.7994 31.5342 14.856 31.3708 15.0665 30.6921C15.2048 30.2365 15.4153 29.5484 15.8081 28.5523C16.7853 26.0731 20.5119 25.5892 20.669 25.5703C20.6816 25.5703 20.6941 25.5703 20.7098 25.5703L43.899 28.8131C43.899 28.8131 43.9053 28.8131 43.9084 28.8131C46.3467 29.3001 47.126 31.3583 47.5439 32.4643C47.6507 32.744 47.7419 32.9859 47.8204 33.0959C47.899 33.2027 48.2195 33.3693 48.5588 33.5421C49.8471 34.202 52.2414 35.4337 52.2132 38.4471C52.188 40.8886 51.3773 43.0033 49.9288 44.3953C48.4237 45.8439 46.2745 46.532 43.5376 46.4629L9.16867 55.3239C9.16867 55.3239 9.14354 55.3302 9.13097 55.3302L9.12468 55.327ZM20.6816 25.8782C20.3893 25.9191 16.9675 26.4438 16.094 28.6622C15.7075 29.6458 15.497 30.3276 15.3619 30.777C15.1482 31.4714 15.0602 31.7605 14.6895 31.9144C14.6235 31.9396 14.5135 31.9741 14.3627 32.0181C13.3383 32.3166 10.6172 33.1116 9.86309 36.0559C9.21581 38.5885 9.32578 39.6568 9.40119 40.3638C9.42633 40.6152 9.44833 40.8163 9.42633 41.0206C9.40119 41.2594 9.1561 41.5799 8.75077 42.1078C7.7767 43.3678 5.96681 45.7182 6.12706 48.9955C6.32502 53.0678 8.76334 54.7552 9.14982 55.0003L43.4779 46.1518C43.4779 46.1518 43.5062 46.1455 43.5219 46.1455C46.1739 46.2241 48.2603 45.5548 49.7057 44.1659C51.0946 42.8305 51.8707 40.7975 51.8927 38.4408C51.9209 35.6191 49.7246 34.491 48.4111 33.8186C47.9744 33.5955 47.6853 33.4478 47.5628 33.2782C47.4591 33.1336 47.3648 32.8885 47.2454 32.5743C46.8212 31.4525 46.1111 29.5766 43.8456 29.121L20.6847 25.8814L20.6816 25.8782Z" fill="#707070"/>
<path d="M63.5079 55.0816C65.3964 55.6629 66.339 57.8499 66.1222 61.2592C65.9054 64.6685 63.8724 75.6474 60.0955 77.7464C56.3187 79.8454 52.8686 78.6199 52.8686 78.6199V91.792H5.28995V83.151C5.28995 83.151 0.463594 78.7739 1.47537 68.4517C2.48715 58.1295 7.42348 48.3667 14.7164 43.5403C22.0094 38.7138 34.8231 37.9283 42.3863 39.1632C49.9495 40.398 54.8607 47.5749 56.9 52.0085C58.9392 56.4422 63.5079 55.0816 63.5079 55.0816Z" fill="#00A1A8"/>
<path d="M52.8808 78.7557C52.7928 78.7557 52.7236 78.6835 52.7236 78.5986C52.7739 72 50.3073 49.6651 50.2822 49.4389C50.2728 49.3541 50.3356 49.2755 50.4204 49.2661C50.5053 49.2598 50.5838 49.3195 50.5933 49.4043C50.6184 49.6306 53.0881 71.9843 53.0379 78.5986C53.0379 78.6835 52.9656 78.7557 52.8808 78.7557Z" fill="white"/>
<path d="M70.273 42.4336L44.3031 70.0537L34.0659 77.7207L30.9395 73.6672L35.8601 70.4433L58.006 46.9081L55.0493 43.9513C54.6722 43.5743 54.6722 42.9615 55.0493 42.5845L55.6494 41.9843C56.0265 41.6072 56.6392 41.6072 57.0163 41.9843L59.9133 44.8814L61.4122 43.2852L58.4679 40.3409C58.0909 39.9639 58.0909 39.3543 58.4679 38.9772L59.0712 38.3739C59.4483 37.9968 60.0579 37.9968 60.4349 38.3739L63.3194 41.2585L65.9934 38.4179C66.515 37.8649 67.3885 37.8366 67.9447 38.3582L70.2102 40.4792C70.7695 41.0008 70.7978 41.8775 70.273 42.4336Z" fill="white"/>
<path d="M34.0745 77.8794C34.0273 77.8794 33.9802 77.8574 33.9488 77.8197L30.8223 73.7663C30.7941 73.7317 30.7846 73.6877 30.7909 73.6437C30.7972 73.5997 30.8223 73.562 30.8601 73.54L35.765 70.3256L57.7947 46.9161L54.9447 44.0661C54.7342 43.8556 54.6148 43.5728 54.6148 43.2711C54.6148 42.9695 54.7311 42.6898 54.9447 42.4762L55.5449 41.876C55.9691 41.4518 56.7106 41.4518 57.1348 41.876L59.9156 44.6568L61.2008 43.29L58.3634 40.4526C57.9266 40.0158 57.9266 39.3025 58.3634 38.8657L58.9667 38.2624C59.4034 37.8257 60.1167 37.8257 60.5535 38.2624L63.3249 41.0339L65.8889 38.3096C66.4702 37.6937 67.4442 37.6654 68.0632 38.2436L70.3287 40.3646C70.6304 40.6442 70.8032 41.0276 70.8158 41.4392C70.8284 41.8509 70.6807 42.2436 70.3979 42.5421L44.4279 70.1622L34.1719 77.848C34.1436 77.87 34.109 77.8794 34.0776 77.8794H34.0745ZM31.1774 73.7097L34.1059 77.5055L44.2205 69.9328L70.1716 42.3316C70.3947 42.0928 70.5141 41.7817 70.5047 41.4549C70.4953 41.1281 70.357 40.8233 70.1151 40.6003L67.8496 38.4793C67.3563 38.0174 66.5833 38.0425 66.1214 38.5327L63.4474 41.3732C63.4191 41.4047 63.3783 41.4235 63.3343 41.4235C63.2903 41.4172 63.2495 41.4078 63.2212 41.3764L60.3367 38.4918C60.0225 38.1776 59.5103 38.1776 59.1961 38.4918L58.5928 39.0951C58.2786 39.4094 58.2786 39.9215 58.5928 40.2358L61.537 43.18C61.5967 43.2397 61.5998 43.3371 61.5401 43.4L60.0413 44.9962C60.013 45.0276 59.9722 45.0465 59.9282 45.0465C59.8779 45.0465 59.8434 45.0308 59.8151 44.9993L56.918 42.1022C56.6132 41.7974 56.079 41.7974 55.7743 42.1022L55.1741 42.7024C55.0201 42.8564 54.9384 43.0575 54.9384 43.2743C54.9384 43.4911 55.0233 43.6922 55.1741 43.8462L58.1309 46.803C58.1906 46.8627 58.1937 46.9601 58.134 47.0229L35.9881 70.5581C35.9881 70.5581 35.9692 70.5738 35.9598 70.5832L31.1805 73.7129L31.1774 73.7097Z" fill="#707070"/>
<path d="M35.6446 80.3441C35.6446 80.3441 43.0413 90.8014 38.0672 100.234C33.0932 109.667 18.9409 108.14 12.5654 103.678C8.13186 100.574 1.5993 88.5045 10.2717 80.3441C18.944 72.1838 29.7814 74.9898 35.6446 80.3441Z" fill="white"/>
<path d="M24.8265 107.342C20.0285 107.342 15.3246 105.783 12.4873 103.797C9.55564 101.745 6.29093 96.4318 5.90444 91.0995C5.59965 86.8983 7.07647 83.1371 10.1746 80.2211C18.448 72.4347 29.3073 74.3264 35.7613 80.2211C35.7707 80.2274 35.777 80.2368 35.7833 80.2463C35.8587 80.3531 43.1768 90.8889 38.2153 100.303C36.4808 103.596 33.4518 105.849 29.4612 106.814C27.9467 107.181 26.3819 107.345 24.8234 107.345L24.8265 107.342ZM22.7182 75.3821C18.5202 75.3821 14.1778 76.8841 10.3883 80.4474C7.36241 83.2942 5.92015 86.9706 6.21552 91.0743C6.63342 96.8497 10.2375 101.84 12.6664 103.539C16.3647 106.129 23.2963 107.979 29.389 106.506C33.2884 105.563 36.2452 103.364 37.9388 100.152C42.7274 91.0649 35.8335 80.8716 35.535 80.438C32.1446 77.3492 27.5257 75.3821 22.7182 75.3821Z" fill="#00A1A8"/>
<path d="M32.8686 73.5016C37.6447 73.0586 39.5897 72.8354 41.255 72.1693C42.9204 71.5031 44.3092 70.0577 44.3092 70.0577C44.3092 70.0577 45.6415 70.7239 44.3092 72.5024C44.3092 72.5024 45.5315 73.112 44.4192 75.2801C44.4192 75.2801 45.365 76.1693 43.6431 77.7247C43.6431 77.7247 44.4757 78.7805 42.7538 80.1128C41.0319 81.4451 35.6997 82.6674 29.8678 82.0013C29.8678 82.0013 28.7021 80.779 28.479 77.9478C28.2559 75.1167 28.8121 73.4482 29.7013 72.7255C30.5905 72.0028 33.7547 70.6705 34.7005 70.0577C35.6463 69.445 35.8662 70.4474 35.8662 70.4474L32.8654 73.5016H32.8686Z" fill="white"/>
<path d="M33.1648 82.3449C32.087 82.3449 30.9747 82.2884 29.8592 82.1596C29.8215 82.1564 29.7901 82.1376 29.7649 82.1124C29.7147 82.0621 28.5583 80.8178 28.3321 77.9616C28.0682 74.6088 28.882 73.198 29.611 72.6072C30.142 72.1767 31.3957 71.564 32.6086 70.9733C33.4444 70.5648 34.2331 70.1814 34.6227 69.9301C34.9621 69.7101 35.2637 69.6536 35.5214 69.7572C35.911 69.9175 36.0241 70.3951 36.0273 70.4171C36.0398 70.4705 36.0241 70.5239 35.9864 70.5617L33.2873 73.3111C37.834 72.8837 39.6188 72.6638 41.2024 72.0291C42.8175 71.3818 44.1875 69.9678 44.2032 69.9552C44.2503 69.9049 44.3257 69.8924 44.3854 69.9238C44.4074 69.9332 44.8913 70.1814 45.0296 70.769C45.1458 71.2655 44.9824 71.8374 44.5362 72.4721C44.6682 72.5821 44.8567 72.7832 44.9636 73.1131C45.1521 73.6882 45.0327 74.4109 44.6117 75.2655C44.7028 75.3912 44.8442 75.6395 44.841 75.9977C44.8347 76.5507 44.5017 77.1446 43.8481 77.7573C43.9298 77.9113 44.0398 78.2035 43.9926 78.5837C43.9235 79.1525 43.5402 79.7086 42.852 80.2428C41.3721 81.3897 37.5418 82.3481 33.1585 82.3481L33.1648 82.3449ZM29.9566 81.8548C35.5182 82.4769 40.8819 81.3771 42.6698 79.9914C44.2346 78.7785 43.559 77.861 43.5307 77.8233C43.4805 77.7573 43.4899 77.6662 43.5496 77.6096C44.1843 77.0377 44.5237 76.4784 44.5331 76.0008C44.5394 75.6112 44.332 75.4038 44.3226 75.3975C44.2723 75.3504 44.2597 75.275 44.2911 75.2121C45.3092 73.2262 44.2911 72.6701 44.2472 72.6449C44.2063 72.6229 44.1749 72.5852 44.1655 72.5412C44.156 72.4973 44.1655 72.4501 44.1906 72.4124C44.6462 71.8028 44.8253 71.2749 44.7248 70.8382C44.6525 70.5334 44.4577 70.348 44.3383 70.2631C43.9989 70.5962 42.7735 71.7368 41.3187 72.3181C39.647 72.9874 37.7837 73.2074 32.8882 73.663C32.8223 73.6693 32.7594 73.6347 32.7311 73.575C32.7029 73.5153 32.7154 73.4431 32.7594 73.3959L35.6942 70.4077C35.6565 70.3008 35.5654 70.1155 35.3988 70.0495C35.2417 69.9866 35.0375 70.0338 34.7893 70.194C34.3839 70.4548 33.5858 70.8444 32.7437 71.2561C31.6 71.8123 30.3054 72.4438 29.8058 72.8492C28.8568 73.619 28.4452 75.4258 28.64 77.9364C28.8317 80.3936 29.7555 81.6222 29.9503 81.8548H29.9566Z" fill="#707070"/>
<path d="M40.1234 75.0018C40.048 75.0018 39.9851 74.9484 39.9694 74.873C39.9537 74.7882 40.0103 74.7065 40.0951 74.6908C42.0904 74.3105 43.7777 73.1134 44.1799 72.4284C44.2239 72.353 44.3213 72.331 44.3967 72.3718C44.4721 72.4158 44.4973 72.5132 44.4533 72.5886C44.0071 73.3396 42.2663 74.5965 40.1548 74.9987C40.1454 74.9987 40.136 74.9987 40.1265 74.9987L40.1234 75.0018Z" fill="#707070"/>
<path d="M40.3744 77.2959C40.3021 77.2959 40.2361 77.2456 40.2204 77.1702C40.2016 77.0854 40.2581 77.0005 40.343 76.9848C42.4514 76.5449 43.8653 75.6023 44.3178 75.1655C44.3807 75.1058 44.4812 75.1058 44.5409 75.1686C44.6006 75.2315 44.6006 75.332 44.5378 75.3917C44.0633 75.8505 42.5896 76.8371 40.409 77.2928C40.3964 77.2928 40.387 77.2959 40.3775 77.2959H40.3744Z" fill="#707070"/>
<path d="M40.375 79.6459C40.3058 79.6459 40.243 79.6019 40.2241 79.5328C40.2021 79.4479 40.2493 79.3631 40.3341 79.338C40.353 79.3317 42.1189 78.8258 43.5485 77.6192C43.6145 77.5626 43.7151 77.572 43.7685 77.638C43.8251 77.704 43.8156 77.8046 43.7496 77.858C42.2665 79.1117 40.4912 79.6176 40.4189 79.6396C40.4064 79.6428 40.3907 79.6459 40.3781 79.6459H40.375Z" fill="#707070"/>
<path d="M53.5674 60.5187C55.2674 61.5933 58.5792 61.3702 60.8196 60.5187C63.0599 59.6672 64.3105 56.2201 64.1754 54.4762C64.0403 52.7323 63.1165 50.052 63.1165 50.052L61.8345 51.7582C61.6302 52.0316 61.2123 52.0033 61.0458 51.7048C60.6844 51.0449 60.0434 49.9986 59.2045 49.1062C57.8628 47.6733 56.0717 47.6733 55.3993 48.3458C54.7269 49.0182 55.7135 49.8226 55.7135 49.8226C55.7135 49.8226 54.1016 49.6435 53.5643 50.4039C53.027 51.1643 53.5643 51.8808 53.5643 51.8808C53.5643 51.8808 52.4017 51.9687 51.8644 52.7323C51.3271 53.4958 51.8644 54.2091 51.8644 54.2091C51.8644 54.2091 50.5195 54.1934 50.4316 55.3718C50.3279 56.7606 51.2831 57.2068 52.3106 57.7881C53.3381 58.3694 54.1456 59.5792 54.1456 59.5792L53.5643 60.5187H53.5674Z" fill="white"/>
<path d="M56.7771 61.3884C55.5108 61.3884 54.3199 61.1653 53.4935 60.6437C53.4213 60.5966 53.3993 60.5023 53.4432 60.4269L53.9711 59.5754C53.7732 59.2988 53.0788 58.3876 52.2461 57.9163L52.0733 57.8189C51.0992 57.2753 50.1817 56.7599 50.2854 55.3491C50.3514 54.4598 51.0803 54.133 51.6145 54.0576C51.4574 53.712 51.3726 53.159 51.7465 52.6279C52.1707 52.0278 52.9342 51.8172 53.3238 51.745C53.1636 51.3993 53.0662 50.84 53.4495 50.2995C53.8612 49.7151 54.8101 49.6177 55.3411 49.6334C55.1934 49.4449 55.0363 49.1841 55.0238 48.8981C55.0112 48.6467 55.1054 48.4174 55.3034 48.2194C55.6176 47.9052 56.1266 47.7292 56.7299 47.7386C57.6569 47.7544 58.609 48.2068 59.3348 48.983C60.1706 49.8722 60.8085 50.906 61.1981 51.613C61.2515 51.7073 61.3426 51.767 61.4495 51.7732C61.5563 51.7827 61.6569 51.7355 61.7228 51.6476L63.0048 49.9413C63.0394 49.8942 63.096 49.8722 63.1557 49.8816C63.2122 49.8911 63.2594 49.9319 63.2782 49.9853C63.3159 50.0953 64.2083 52.7033 64.3434 54.4473C64.4722 56.1221 63.2562 59.7482 60.887 60.65C59.6961 61.1025 58.1911 61.3821 56.7802 61.3821L56.7771 61.3884ZM53.7952 60.4552C55.4951 61.4135 58.6404 61.1716 60.7739 60.3609C63.008 59.5125 64.1517 56.0686 64.0292 54.4787C63.9224 53.1024 63.3096 51.1102 63.074 50.3781L61.9711 51.8455C61.8422 52.0183 61.6349 52.1063 61.4243 52.0969C61.2107 52.0812 61.0221 51.9618 60.9216 51.7732C60.5414 51.0788 59.9161 50.0702 59.1023 49.2061C58.433 48.4928 57.5658 48.0749 56.7205 48.0591C56.2146 48.0466 55.7779 48.1911 55.5234 48.4488C55.3882 48.5839 55.3285 48.7253 55.3348 48.8887C55.3537 49.3035 55.8187 49.69 55.825 49.6962C55.8784 49.7402 55.8973 49.8156 55.869 49.8785C55.8439 49.9413 55.7747 49.979 55.7087 49.9728C55.693 49.9728 54.1848 49.8125 53.7072 50.4881C53.2453 51.1417 53.6852 51.7544 53.7072 51.7795C53.7417 51.8267 53.748 51.8864 53.7229 51.9398C53.6978 51.9932 53.6506 52.0278 53.5909 52.0309C53.5784 52.0309 52.4943 52.1252 52.0073 52.8165C51.5454 53.47 51.9853 54.0828 52.0073 54.1079C52.0418 54.155 52.0481 54.221 52.0198 54.2744C51.9947 54.3279 51.9382 54.3593 51.8784 54.3593C51.8784 54.3593 51.8784 54.3593 51.8753 54.3593C51.7936 54.3593 50.6781 54.3781 50.6059 55.3774C50.5148 56.5871 51.272 57.0113 52.2335 57.5486L52.4063 57.646C53.4558 58.2399 54.2602 59.4371 54.2948 59.4874C54.3293 59.5376 54.3293 59.6036 54.2948 59.657L53.7983 60.4615L53.7952 60.4552Z" fill="#707070"/>
<path d="M59.5632 54.3121C59.5003 54.3121 59.4406 54.2744 59.4155 54.2115C58.344 51.4213 56.0848 50.1769 55.6417 49.9538C55.5632 49.9161 55.5318 49.8219 55.5726 49.7433C55.6103 49.6648 55.7046 49.6333 55.7831 49.6742C56.245 49.9036 58.5985 51.2013 59.7077 54.1016C59.7391 54.1833 59.6983 54.2744 59.6166 54.3058C59.5977 54.3121 59.5789 54.3152 59.56 54.3152L59.5632 54.3121Z" fill="#707070"/>
<path d="M57.8827 55.8073C57.8325 55.8073 57.7853 55.7822 57.7539 55.7382C57.7382 55.7162 56.2614 53.5983 53.5088 52.0272C53.4334 51.9832 53.4083 51.8889 53.4491 51.8135C53.4931 51.7381 53.5905 51.713 53.6628 51.7538C56.4813 53.3658 57.9959 55.5402 58.0116 55.5622C58.0618 55.6345 58.043 55.7319 57.9707 55.7822C57.9424 55.801 57.911 55.8104 57.8827 55.8104V55.8073Z" fill="#707070"/>
<path d="M56.1774 57.5927C56.1334 57.5927 56.0894 57.5739 56.058 57.5393C56.0423 57.5205 54.4775 55.7545 51.8067 54.3531C51.7312 54.3123 51.6998 54.218 51.7407 54.1426C51.7815 54.0672 51.8758 54.0358 51.9512 54.0766C54.6754 55.5063 56.278 57.3162 56.2937 57.3351C56.3502 57.4011 56.3439 57.4985 56.278 57.5582C56.2497 57.5833 56.212 57.5959 56.1743 57.5959L56.1774 57.5927Z" fill="#707070"/>
<path d="M30.4823 96.8776C32.0239 95.221 29.8874 90.7269 25.7103 86.8398C21.5332 82.9527 16.8973 81.1445 15.3557 82.8012C13.8141 84.4578 15.9507 88.9519 20.1278 92.839C24.3049 96.7261 28.9408 98.5342 30.4823 96.8776Z" fill="#00A1A8"/>
<path d="M28.7532 97.6639C26.5568 97.6639 23.1884 95.9231 20.0054 92.9632C15.7007 88.9569 13.6017 84.4509 15.2262 82.7038C16.018 81.8523 17.5671 81.8177 19.5875 82.6064C21.5608 83.3763 23.7666 84.8437 25.8027 86.7353C27.8388 88.6269 29.4571 90.7259 30.3683 92.6364C31.2984 94.594 31.3738 96.1399 30.582 96.9915C30.1578 97.4471 29.5293 97.6639 28.7564 97.6639H28.7532ZM17.0329 82.3488C16.3448 82.3488 15.8075 82.5373 15.4524 82.9175C13.9725 84.5075 16.1092 88.9097 20.216 92.7338C24.3228 96.5547 28.8663 98.3709 30.3463 96.781C31.0439 96.03 30.9496 94.6066 30.0792 92.7746C29.1868 90.8956 27.5906 88.8343 25.5828 86.9678C23.5781 85.1014 21.4068 83.6559 19.4681 82.9018C18.5318 82.5373 17.7085 82.3519 17.0298 82.3519L17.0329 82.3488Z" fill="#00A1A8"/>
<path d="M6.68359 83.5099C8.95538 84.9553 15.8587 85.169 20.5217 85.0213C25.1846 84.8736 29.6968 84.5028 29.8822 82.0016L29.7156 72.7258C29.7156 72.7258 29.3292 71.5569 25.5554 71.7046C21.7817 71.8523 13.6435 71.2773 9.57438 69.8633" fill="#00A1A8"/>
<path d="M17.9168 85.2217C13.2664 85.2217 8.41487 84.8132 6.57985 83.6443C6.50758 83.5971 6.48559 83.4997 6.53272 83.4275C6.57985 83.3552 6.67726 83.3332 6.74953 83.3803C8.87049 84.7315 15.2428 85.0331 20.4965 84.8666C24.8578 84.7283 29.5271 84.3795 29.703 81.9915L29.5365 72.7597C29.4674 72.634 28.8578 71.7259 25.5365 71.861C21.5177 72.0149 13.4706 71.3896 9.49578 70.0102C9.41408 69.9819 9.37009 69.8908 9.39837 69.8091C9.42665 69.7274 9.51777 69.6834 9.59947 69.7117C13.5397 71.0817 21.5303 71.7039 25.524 71.5436C29.3103 71.3959 29.7973 72.5428 29.8413 72.6717C29.8476 72.6874 29.8476 72.7031 29.8507 72.7188L30.0172 81.9946C29.8224 84.6592 25.2129 85.0268 20.5059 85.1745C19.6638 85.1997 18.7934 85.2154 17.9168 85.2154V85.2217Z" fill="white"/>
<path d="M54.0331 69.3404C53.9514 69.3404 53.8791 69.2744 53.876 69.1927L53.4298 60.5202C53.4267 60.4323 53.4926 60.36 53.5775 60.3568C53.6717 60.3443 53.7377 60.4197 53.7409 60.5045L54.1871 69.177C54.1902 69.265 54.1242 69.3373 54.0394 69.3404C54.0394 69.3404 54.0331 69.3404 54.0299 69.3404H54.0331Z" fill="#00A1A8"/>
<path d="M20.221 23.7384C20.221 23.7384 15.5235 24.5522 13.1763 20.6213C10.8291 16.6935 12.9249 7.95818 21.7827 5.75863C30.6405 3.55594 31.8156 12.065 29.393 14.7831C26.9704 17.5011 20.221 23.7384 20.221 23.7384Z" fill="#00A1A8"/>
<path d="M20.4687 28.1761C18.7782 25.7158 19.0987 20.0158 24.4561 15.6167C29.8135 11.2145 38.2345 13.8476 38.2345 13.8476C40.4843 12.3645 44.3083 13.2255 45.4583 18.1996C46.6052 23.1737 44.214 27.0198 44.214 27.0198L20.4718 28.1793L20.4687 28.1761Z" fill="white"/>
<path d="M20.4492 28.334C20.399 28.334 20.3487 28.3089 20.3204 28.2649C18.6425 25.8234 18.7588 20.0763 24.3361 15.495C29.4358 11.3064 37.3509 13.4337 38.1867 13.6756C39.3211 12.956 40.7602 12.8335 42.0516 13.3488C43.7767 14.037 45.0304 15.7495 45.5897 18.1627C46.7397 23.1431 44.3517 27.0614 44.3265 27.0991C44.2983 27.1431 44.2511 27.1714 44.2008 27.1714L20.4587 28.3309H20.4524L20.4492 28.334ZM32.5811 13.2326C29.9763 13.2326 26.9315 13.7667 24.5372 15.7369C21.2254 18.4581 18.0141 24.2177 20.5309 28.0167L44.1003 26.8666C44.4082 26.3262 46.3187 22.7252 45.2849 18.235C44.7507 15.9223 43.563 14.2915 41.9353 13.641C40.7162 13.154 39.3588 13.2797 38.2999 13.9773C38.259 14.0024 38.2119 14.0087 38.1679 13.9961C38.1239 13.9835 35.6604 13.2326 32.5811 13.2326Z" fill="#707070"/>
<path d="M25.3652 34.0422C25.6417 38.0642 25.5978 42.7807 25.5978 42.7807C25.5978 42.7807 27.0306 46.4382 31.0086 46.2968C34.9834 46.1554 34.7069 42.7807 34.6158 42.0863C34.5246 41.3918 33.692 39.2206 33.5066 38.479C33.3212 37.7406 25.3684 34.0391 25.3684 34.0391L25.3652 34.0422Z" fill="white"/>
<path d="M30.7905 46.4656C26.9193 46.4656 25.4708 42.8803 25.4551 42.8457C25.4488 42.8269 25.4425 42.808 25.4457 42.786C25.4457 42.7389 25.4897 38.0287 25.2132 34.0601C25.21 34.0035 25.2351 33.9501 25.2823 33.9187C25.3294 33.8873 25.386 33.881 25.4362 33.9061C27.3184 34.7828 33.4708 37.6956 33.6593 38.4498C33.7316 38.742 33.9138 39.2762 34.1055 39.8449C34.404 40.731 34.7151 41.6454 34.7716 42.0727C34.8502 42.6603 34.9319 44.1403 34.0081 45.2338C33.3608 46.0005 32.3553 46.4121 31.0136 46.4593C30.9382 46.4593 30.8628 46.4624 30.7874 46.4624L30.7905 46.4656ZM25.763 42.7577C25.9044 43.0845 27.3781 46.2802 31.0104 46.1482C32.2579 46.1042 33.188 45.7303 33.7755 45.0327C34.6176 44.0366 34.5391 42.6603 34.4668 42.1136C34.4134 41.7145 34.096 40.775 33.8133 39.9423C33.6184 39.3704 33.4362 38.83 33.3608 38.522C33.2131 38.0916 29.3168 36.0617 25.5494 34.2989C25.7945 38.0476 25.7662 42.3367 25.763 42.7515V42.7577Z" fill="#707070"/>
<path d="M43.4598 22.4395C43.4598 22.4395 46.2657 33.1262 41.7316 37.0665C37.1974 41.0068 26.6178 39.442 24.0286 32.2621C24.0286 32.2621 21.7066 34.5276 20.0884 31.8316C18.4701 29.1324 21.0059 26.5432 23.8118 28.0546C23.8118 28.0546 25.1064 25.3021 30.5046 23.8975C35.9029 22.4929 38.8691 19.3633 38.8691 19.3633C38.8691 19.3633 39.6797 21.2517 43.4566 22.4395H43.4598Z" fill="white"/>
<path d="M35.196 39.3189C34.0334 39.3189 32.83 39.1681 31.6422 38.8601C27.9282 37.8955 25.1348 35.586 23.9377 32.5129C23.5763 32.8082 22.7154 33.399 21.7507 33.2764C21.0374 33.1853 20.4247 32.7203 19.9314 31.8939C19.1647 30.6181 19.2433 29.1916 20.1294 28.2615C21.0092 27.3408 22.4074 27.1743 23.724 27.8247C24.0728 27.2277 25.6753 24.9653 30.4419 23.7273C35.7302 22.3541 38.7027 19.2685 38.7341 19.237C38.7687 19.1993 38.8221 19.1805 38.8755 19.1899C38.9289 19.1993 38.9698 19.2339 38.9918 19.281C39.0012 19.2999 39.8339 21.1224 43.4819 22.2693C43.5322 22.285 43.573 22.3258 43.5856 22.3792C43.5919 22.4075 44.2926 25.1035 44.4277 28.2489C44.6068 32.4375 43.7019 35.5231 41.8103 37.1665C40.1983 38.5679 37.7946 39.3189 35.1929 39.3189H35.196ZM24.0068 32.0855C24.0068 32.0855 24.0319 32.0855 24.0413 32.0887C24.0948 32.1012 24.1356 32.139 24.1545 32.1892C25.2668 35.2717 28.0256 37.5907 31.7239 38.5522C35.4694 39.5263 39.35 38.8884 41.6092 36.9277C45.8071 33.2796 43.5542 23.5481 43.3091 22.5426C40.2392 21.5591 39.13 20.1231 38.8127 19.6015C38.1339 20.2488 35.2274 22.8066 30.5268 24.0289C25.2762 25.3926 23.9502 28.0729 23.9377 28.1012C23.9188 28.1389 23.8842 28.1703 23.8434 28.1829C23.8025 28.1955 23.7586 28.1923 23.7208 28.1735C22.4891 27.5105 21.1726 27.6299 20.3619 28.4783C19.7366 29.135 19.3658 30.3322 20.2048 31.7305C20.6478 32.4689 21.182 32.8837 21.7947 32.9622C22.8882 33.1005 23.8905 32.139 23.8999 32.1295C23.9282 32.1012 23.9691 32.0855 24.0099 32.0855H24.0068Z" fill="#707070"/>
<path d="M33.6522 26.6256C32.4613 26.3459 31.2296 26.3553 30.0198 26.5156C29.8439 26.5407 29.7779 26.2768 29.9413 26.2139C30.8462 25.8117 31.8894 25.7583 32.8478 25.9846C33.1714 26.0631 33.4762 26.17 33.7779 26.3396C33.8533 26.3836 33.8815 26.4779 33.8376 26.5533C33.7998 26.6193 33.7213 26.6476 33.6522 26.6256Z" fill="#797979"/>
<path d="M42.8365 25.6968C41.4602 25.6529 40.018 25.8697 38.6512 26.0645C38.5632 26.0771 38.4846 26.0174 38.4721 25.9294C38.4626 25.8571 38.5035 25.788 38.5695 25.7597C39.5875 25.3512 40.6998 25.1815 41.7933 25.2255C42.1609 25.2444 42.5223 25.2852 42.8931 25.3858C42.9779 25.4078 43.025 25.4957 43.003 25.5806C42.9811 25.656 42.9088 25.7031 42.8334 25.6968H42.8365Z" fill="#797979"/>
<path d="M38.9886 32.2065C38.932 32.2065 38.8786 32.2034 38.822 32.1971C38.1119 32.1123 37.3641 31.4932 37.3955 30.6417C37.3986 30.5537 37.474 30.4846 37.5589 30.4909C37.6469 30.494 37.7128 30.5663 37.7097 30.6543C37.6846 31.3267 38.2847 31.8169 38.8566 31.886C39.1017 31.9143 39.6798 31.9017 39.8338 31.1445C39.8872 30.8868 39.8432 30.6763 39.705 30.5003C39.3122 29.9976 38.2941 29.9473 38.2847 29.9473C38.203 29.9441 38.137 29.8782 38.1339 29.7933C38.1339 29.7776 38.0868 28.04 38.467 25.897C38.4827 25.8121 38.5644 25.7524 38.6492 25.7681C38.7341 25.7839 38.7906 25.8655 38.778 25.9504C38.467 27.7132 38.4481 29.1932 38.4481 29.6425C38.778 29.6771 39.5699 29.8122 39.9532 30.3023C40.148 30.5537 40.214 30.8554 40.1449 31.2042C39.9972 31.9457 39.4756 32.2034 38.9886 32.2034V32.2065Z" fill="#707070"/>
<path d="M31.4805 29.0293C31.5371 29.6703 31.9424 30.1574 32.3855 30.1197C32.8285 30.082 33.1427 29.5321 33.0862 28.8911C33.0705 28.6994 33.017 28.5172 32.9448 28.3632L32.2189 28.8408L32.4986 27.8699C32.398 27.8164 32.2943 27.7976 32.1844 27.807C31.7413 27.8447 31.4271 28.3946 31.4805 29.0293Z" fill="#797979"/>
<path d="M40.2735 28.2442C40.3301 28.8852 40.7354 29.3722 41.1784 29.3345C41.6246 29.2968 41.9357 28.7469 41.8791 28.1059C41.8634 27.9142 41.81 27.732 41.7377 27.578L41.0119 28.0556L41.2916 27.0847C41.191 27.0313 41.0873 27.0124 40.9773 27.0219C40.5343 27.0596 40.2201 27.6095 40.2735 28.2442Z" fill="#797979"/>
<path d="M35.8917 35.2589C35.744 35.2589 35.5995 35.24 35.4581 35.1991C34.8737 35.0358 34.4118 34.5424 34.1887 33.8417C34.1635 33.76 34.2075 33.672 34.2924 33.6438C34.3741 33.6186 34.462 33.6626 34.4903 33.7474C34.6789 34.3445 35.0622 34.7655 35.5429 34.8975C36.096 35.0515 36.7495 34.8252 37.3874 34.2628C37.4534 34.2062 37.5508 34.2094 37.6105 34.2753C37.6671 34.3413 37.6608 34.4387 37.5979 34.4984C37.0323 34.998 36.4416 35.2589 35.8949 35.2589H35.8917Z" fill="#797979"/>
<path d="M20.7054 30.265C20.6866 30.265 20.6709 30.265 20.652 30.2555C20.5703 30.2273 20.5295 30.1361 20.5578 30.0544C20.7432 29.5391 21.0511 29.1872 21.4753 29.0112C22.2734 28.6781 23.1846 29.0961 23.2223 29.1149C23.3009 29.1526 23.3354 29.2437 23.2977 29.3223C23.26 29.4009 23.1689 29.4354 23.0903 29.3977C23.0809 29.3946 22.264 29.0206 21.5947 29.3003C21.2553 29.4417 21.0071 29.7308 20.8531 30.1581C20.8311 30.221 20.7683 30.2618 20.7054 30.2618V30.265Z" fill="#797979"/>
<path d="M22.2384 31.9024C22.2384 31.9024 22.207 31.9024 22.1913 31.8961C21.8111 31.7798 21.5189 31.5033 21.3461 31.098C21.0476 30.4004 21.1512 29.4766 21.3366 29.1027C21.3743 29.0241 21.4686 28.9927 21.5472 29.0336C21.6257 29.0713 21.6571 29.1655 21.6163 29.2441C21.4812 29.5175 21.3649 30.3533 21.632 30.9754C21.7703 31.2991 21.9902 31.5065 22.2824 31.5976C22.3641 31.6227 22.4113 31.7107 22.3861 31.7924C22.3641 31.8584 22.3044 31.9024 22.2353 31.9024H22.2384Z" fill="#797979"/>
<path d="M57.5424 78.8731C57.467 78.8731 57.401 78.8197 57.3885 78.7412C57.3759 78.6563 57.4325 78.5746 57.5173 78.5589C57.5361 78.5589 59.4246 78.229 60.9925 76.8307C62.5636 75.4293 63.4528 72.4913 63.4623 72.4599C63.4874 72.3782 63.5754 72.3311 63.6571 72.3531C63.7388 72.3782 63.7891 72.4662 63.7639 72.5479C63.7262 72.6704 62.8401 75.6021 61.203 77.0632C59.5628 78.5244 57.6524 78.8543 57.5707 78.8668C57.5613 78.8668 57.555 78.8668 57.5456 78.8668L57.5424 78.8731Z" fill="#00A1A8"/>
</svg>
