<svg width="150" height="150" viewBox="0 0 150 150" fill="none" xmlns="http://www.w3.org/2000/svg">
<path d="M87.5948 126.36L16.3906 112.79L29.6583 43.0664L115.188 59.3564L104.61 114.936L87.5948 126.36Z" fill="#4EA9B0"/>
<path d="M87.5916 126.994H87.4405L16.2969 113.454C15.9342 113.394 15.7226 113.061 15.7529 112.699L29.0205 42.945C29.1112 42.6125 29.4134 42.3708 29.7761 42.401L115.306 58.6909C115.668 58.7514 115.88 59.0838 115.85 59.4465L105.272 115.086C105.242 115.268 105.121 115.419 104.97 115.509L87.9543 126.933C87.8637 126.964 87.7428 126.994 87.5916 126.994ZM17.1733 112.306L87.4405 125.664L103.972 114.572L114.369 59.8696L30.1992 43.8517L17.1733 112.306Z" fill="#D8D8D8"/>
<path d="M110.773 121.794L38.4505 126.358L34.0078 55.5161L120.897 50.0156L124.433 106.562L110.773 121.794Z" fill="white"/>
<path d="M38.4504 126.995C38.118 126.995 37.8157 126.723 37.8157 126.39L33.373 55.5185C33.3428 55.3372 33.4335 55.1558 33.5544 55.0349C33.6753 54.8838 33.8264 54.8234 34.0077 54.8234L120.897 49.3229C121.23 49.2926 121.532 49.5344 121.592 49.8669C121.592 49.8971 121.592 49.8971 121.592 49.9273L125.159 106.444C125.189 106.625 125.098 106.806 124.977 106.897L111.347 122.159C111.256 122.28 111.075 122.371 110.924 122.371L38.4504 126.995ZM34.7028 56.1229L39.0851 125.635L110.471 121.162L123.738 106.323L120.232 50.7735L34.7028 56.1229Z" fill="#D8D8D8"/>
<path d="M110.772 121.795L110.168 107.439L124.433 106.562L110.772 121.795Z" fill="#4EA9B0"/>
<path d="M47.5469 69.2703C47.1842 69.2703 46.882 68.9379 46.9122 68.5752C46.9122 68.2427 47.1842 67.9707 47.5167 67.9405L107.176 64.1627C107.508 64.1325 107.811 64.3743 107.841 64.7369V64.7672C107.871 65.1298 107.599 65.432 107.236 65.4623L47.5469 69.2401V69.2703Z" fill="#DFEAEF"/>
<path d="M48.244 80.6646C47.8814 80.6344 47.6094 80.3321 47.6094 79.9695C47.6094 79.637 47.8814 79.365 48.2138 79.3348L107.873 75.557C108.236 75.5268 108.538 75.7988 108.568 76.1614C108.598 76.5241 108.326 76.8263 107.964 76.8566L48.3045 80.6344H48.2743V80.6646H48.244Z" fill="#DFEAEF"/>
<path d="M48.9688 92.054C48.6061 92.054 48.3039 91.7517 48.3341 91.3891C48.3341 91.0566 48.6061 90.7846 48.9386 90.7544L108.598 86.9766C108.96 86.9766 109.263 87.2486 109.263 87.6112C109.263 87.9437 109.021 88.2157 108.688 88.2761L49.0292 92.054H48.999H48.9688Z" fill="#DFEAEF"/>
<path d="M49.6954 103.421C49.3327 103.421 49.0305 103.088 49.0607 102.726C49.0607 102.393 49.3327 102.121 49.6651 102.091L109.324 98.3736C109.657 98.3434 109.959 98.5852 110.019 98.9177C110.019 98.9479 110.019 98.9479 110.019 98.9781C110.05 99.3408 109.778 99.643 109.415 99.6732L49.7256 103.391H49.6954V103.421Z" fill="#DFEAEF"/>
<path d="M50.3878 114.848C50.0251 114.879 49.6927 114.607 49.6625 114.244C49.6322 113.881 49.9042 113.549 50.2669 113.519C50.2971 113.519 50.3273 113.519 50.3576 113.519L92.125 110.889C92.4575 110.859 92.7597 111.101 92.8201 111.433C92.8201 111.464 92.8201 111.463 92.8201 111.494C92.8504 111.856 92.5784 112.159 92.2157 112.189L50.4482 114.818H50.418L50.3878 114.848Z" fill="#DFEAEF"/>
<path d="M109.07 38.3598C111.214 37.5929 112.33 35.2331 111.563 33.089C110.796 30.945 108.436 29.8287 106.292 30.5957C104.148 31.3626 103.032 33.7224 103.799 35.8665C104.566 38.0105 106.926 39.1268 109.07 38.3598Z" fill="#FFBC0E"/>
<path d="M108.025 35.319C113.342 33.4168 119.189 36.1826 121.091 41.5001L124.534 51.1237L105.319 57.9973L101.876 48.3736C99.9416 43.0678 102.707 37.2212 108.025 35.319Z" fill="#FFBC0E"/>
<path d="M117.429 61.7231C119.573 60.9562 120.689 58.5963 119.922 56.4523C119.155 54.3083 116.796 53.192 114.652 53.9589C112.508 54.7259 111.391 57.0857 112.158 59.2298C112.925 61.3738 115.285 62.4901 117.429 61.7231Z" fill="#FFBC0E"/>
<path d="M103.835 55.0983L123.702 47.9914C125.366 47.3962 127.214 48.2436 127.821 49.94C128.416 51.6037 127.569 53.4523 125.872 54.0592L106.005 61.1661C104.342 61.7613 102.493 60.9139 101.886 59.2175C101.312 57.5095 102.171 55.6935 103.835 55.0983Z" fill="#FFBC0E"/>
<path d="M96.53 38.989C96.3016 39.0706 96.0709 39.0428 95.8494 38.938L91.3151 36.5492C90.9048 36.328 90.7624 35.8269 90.951 35.4283C91.1722 35.018 91.6732 34.8756 92.0718 35.0642L96.6061 37.453C97.0164 37.6742 97.1588 38.1753 96.9702 38.5739C96.8864 38.7511 96.7257 38.9189 96.53 38.989Z" fill="#4EA9B0"/>
<path d="M95.9702 45.4422C95.8724 45.4772 95.8071 45.5006 95.7302 45.4913L90.9991 45.6382C90.5284 45.6595 90.1483 45.317 90.1271 44.8463C90.1059 44.3755 90.4483 43.9954 90.919 43.9742L90.9517 43.9625L95.6827 43.8156C96.1535 43.7944 96.5452 44.1694 96.5548 44.6076C96.5527 45.0131 96.2965 45.3255 95.9702 45.4422Z" fill="#4EA9B0"/>
<path d="M118.548 31.1069C118.124 31.2587 117.637 31.0282 117.485 30.6041C117.415 30.4083 117.41 30.1893 117.494 30.0121L119.485 25.2892C119.661 24.858 120.151 24.6829 120.582 24.8599C121.013 25.0368 121.188 25.5261 121.011 25.9573L119.021 30.6802C118.97 30.8457 118.777 31.0253 118.548 31.1069Z" fill="#4EA9B0"/>
<path d="M123.081 35.7459C122.657 35.8976 122.169 35.6671 122.018 35.243C121.889 34.8842 122.013 34.5089 122.304 34.2943L126.055 31.4071C126.432 31.1249 126.938 31.2016 127.253 31.5673C127.568 31.933 127.458 32.4505 127.093 32.7653L123.342 35.6525C123.276 35.6759 123.179 35.7109 123.081 35.7459Z" fill="#4EA9B0"/>
</svg>
