<svg width="150" height="150" viewBox="0 0 150 150" fill="none" xmlns="http://www.w3.org/2000/svg">
<path d="M31.9697 40.1836H86.4699C88.3178 40.1857 90.0893 40.9206 91.396 42.2273C92.7026 43.5339 93.4375 45.3054 93.4396 47.1533V76.969C93.4375 78.8168 92.7026 80.5884 91.396 81.895C90.0893 83.2016 88.3178 83.9366 86.4699 83.9386H31.9697C30.1219 83.9366 28.3503 83.2016 27.0437 81.895C25.737 80.5884 25.0021 78.8168 25 76.969V47.1533C25.0021 45.3054 25.737 43.5339 27.0437 42.2273C28.3503 40.9206 30.1219 40.1857 31.9697 40.1836Z" fill="#DCDCDC"/>
<path d="M31.9671 42.1875H86.4674C87.7833 42.189 89.0449 42.7124 89.9754 43.6428C90.9058 44.5733 91.4292 45.8349 91.4307 47.1507V76.9665C91.4292 78.2824 90.9058 79.5439 89.9754 80.4744C89.0449 81.4049 87.7833 81.9282 86.4674 81.9297H31.9671C30.6512 81.9282 29.3897 81.4048 28.4592 80.4744C27.5288 79.5439 27.0054 78.2823 27.0039 76.9665V47.1507C27.0054 45.8349 27.5288 44.5733 28.4592 43.6429C29.3897 42.7124 30.6512 42.189 31.9671 42.1875Z" fill="white"/>
<path d="M32.5006 94.6168C32.3361 94.6164 32.1734 94.5834 32.0217 94.52C31.7952 94.429 31.6016 94.2717 31.466 94.0688C31.3304 93.8659 31.2592 93.6267 31.2618 93.3827V83.0756L45.0031 82.6133L33.3632 94.2531C33.2507 94.3678 33.1165 94.4591 32.9684 94.5215C32.8203 94.5839 32.6613 94.6163 32.5006 94.6168Z" fill="#DCDCDC"/>
<path d="M79.6476 49.6055H38.6662C37.0254 49.6055 35.6953 50.9356 35.6953 52.5763V52.5764C35.6953 54.2171 37.0254 55.5472 38.6662 55.5472H79.6476C81.2884 55.5472 82.6185 54.2171 82.6185 52.5763C82.6185 50.9356 81.2884 49.6055 79.6476 49.6055Z" fill="#DCDCDC"/>
<path d="M79.7101 59.0938H38.7287C37.0879 59.0938 35.7578 60.4239 35.7578 62.0646V62.0646C35.7578 63.7054 37.0879 65.0355 38.7287 65.0355H79.7101C81.3509 65.0355 82.681 63.7054 82.681 62.0646C82.681 60.4239 81.3509 59.0938 79.7101 59.0938Z" fill="#DCDCDC"/>
<path d="M79.7805 68.5742H38.799C37.1582 68.5742 35.8281 69.9043 35.8281 71.5451V71.5451C35.8281 73.1859 37.1582 74.516 38.799 74.516H79.7805C81.4212 74.516 82.7514 73.1859 82.7514 71.5451C82.7514 69.9043 81.4212 68.5742 79.7805 68.5742Z" fill="#DCDCDC"/>
<path d="M118.029 55.3867H63.5283C61.6804 55.3888 59.9089 56.1238 58.6023 57.4304C57.2956 58.737 56.5607 60.5086 56.5586 62.3564V92.1721C56.5607 94.0199 57.2956 95.7915 58.6023 97.0981C59.9089 98.4047 61.6804 99.1397 63.5283 99.1418H118.029C119.876 99.1397 121.648 98.4047 122.955 97.0981C124.261 95.7915 124.996 94.0199 124.998 92.1721V62.3564C124.996 60.5086 124.261 58.737 122.955 57.4304C121.648 56.1238 119.876 55.3888 118.029 55.3867Z" fill="#DEDEDE"/>
<path d="M118.03 57.3984H63.5297C62.2138 57.3999 60.9522 57.9233 60.0218 58.8538C59.0913 59.7842 58.5679 61.0458 58.5664 62.3617V92.1774C58.5679 93.4933 59.0913 94.7549 60.0218 95.6853C60.9522 96.6158 62.2138 97.1392 63.5297 97.1407H118.03C119.346 97.1392 120.607 96.6158 121.538 95.6853C122.468 94.7548 122.992 93.4933 122.993 92.1774V62.3617C122.992 61.0458 122.468 59.7843 121.538 58.8538C120.607 57.9233 119.346 57.3999 118.03 57.3984Z" fill="white"/>
<path d="M113.882 109.456L102.242 97.8164L115.984 98.2787V108.586C115.986 108.83 115.915 109.069 115.779 109.272C115.644 109.475 115.45 109.632 115.224 109.723C115.072 109.787 114.909 109.819 114.745 109.82C114.584 109.819 114.425 109.787 114.277 109.725C114.129 109.662 113.995 109.571 113.882 109.456Z" fill="#DEDEDE"/>
<path d="M78.7576 81.0308C80.8372 81.0308 82.5231 79.345 82.5231 77.2654C82.5231 75.1858 80.8372 73.5 78.7576 73.5C76.678 73.5 74.9922 75.1858 74.9922 77.2654C74.9922 79.345 76.678 81.0308 78.7576 81.0308Z" fill="#3DBEC7" fill-opacity="0.41"/>
<path d="M90.7772 81.0308C92.8568 81.0308 94.5426 79.345 94.5426 77.2654C94.5426 75.1858 92.8568 73.5 90.7772 73.5C88.6976 73.5 87.0117 75.1858 87.0117 77.2654C87.0117 79.345 88.6976 81.0308 90.7772 81.0308Z" fill="#3DBEC7" fill-opacity="0.41"/>
<path d="M102.805 81.0308C104.884 81.0308 106.57 79.345 106.57 77.2654C106.57 75.1858 104.884 73.5 102.805 73.5C100.725 73.5 99.0391 75.1858 99.0391 77.2654C99.0391 79.345 100.725 81.0308 102.805 81.0308Z" fill="#3DBEC7" fill-opacity="0.41"/>
</svg>
