<svg width="150" height="150" viewBox="0 0 150 150" fill="none" xmlns="http://www.w3.org/2000/svg">
<path d="M23.3635 33H88.7632C90.9805 33.0025 93.1064 33.8845 94.6743 35.4524C96.2423 37.0204 97.1242 39.1463 97.1267 41.3637V77.1428C97.1242 79.3602 96.2423 81.4861 94.6743 83.0541C93.1064 84.622 90.9805 85.504 88.7632 85.5065H23.3635C21.1462 85.504 19.0203 84.622 17.4524 83.0541C15.8844 81.4861 15.0025 79.3602 15 77.1428V41.3637C15.0025 39.1463 15.8844 37.0204 17.4524 35.4524C19.0203 33.8845 21.1462 33.0025 23.3635 33Z" fill="#F2F2F2"/>
<path d="M23.3621 35.4062H88.7617C90.3408 35.408 91.8547 36.0361 92.9712 37.1527C94.0878 38.2692 94.7158 39.7831 94.7176 41.3622V77.1414C94.7158 78.7204 94.0878 80.2343 92.9712 81.3509C91.8547 82.4675 90.3408 83.0955 88.7617 83.0973H23.3621C21.783 83.0955 20.2692 82.4674 19.1526 81.3509C18.0361 80.2343 17.408 78.7204 17.4062 77.1414V41.3622C17.408 39.7831 18.0361 38.2693 19.1526 37.1527C20.2692 36.0361 21.783 35.408 23.3621 35.4062Z" fill="white"/>
<path d="M24.0023 98.3184C23.8049 98.3179 23.6096 98.2784 23.4276 98.2022C23.1559 98.093 22.9234 97.9043 22.7607 97.6608C22.598 97.4173 22.5126 97.1303 22.5157 96.8375V84.4689L39.0051 83.9141L25.0374 97.882C24.9023 98.0196 24.7413 98.1291 24.5636 98.204C24.3859 98.2789 24.1951 98.3178 24.0023 98.3184Z" fill="#F2F2F2"/>
<path d="M80.5743 44.3086H31.3971C29.4282 44.3086 27.832 45.9047 27.832 47.8737V47.8737C27.832 49.8426 29.4282 51.4388 31.3971 51.4388H80.5743C82.5432 51.4388 84.1393 49.8426 84.1393 47.8737C84.1393 45.9047 82.5432 44.3086 80.5743 44.3086Z" fill="#F2F2F2"/>
<path d="M80.6524 55.6914H31.4752C29.5063 55.6914 27.9102 57.2875 27.9102 59.2565V59.2565C27.9102 61.2254 29.5063 62.8216 31.4752 62.8216H80.6524C82.6213 62.8216 84.2175 61.2254 84.2175 59.2565C84.2175 57.2875 82.6213 55.6914 80.6524 55.6914Z" fill="#F2F2F2"/>
<path d="M80.7344 67.0703H31.5572C29.5883 67.0703 27.9922 68.6665 27.9922 70.6354V70.6354C27.9922 72.6043 29.5883 74.2005 31.5572 74.2005H80.7344C82.7034 74.2005 84.2995 72.6043 84.2995 70.6354C84.2995 68.6665 82.7034 67.0703 80.7344 67.0703Z" fill="#F2F2F2"/>
<path d="M126.634 51.2461H61.2346C59.0173 51.2486 56.8914 52.1306 55.3235 53.6985C53.7555 55.2665 52.8736 57.3923 52.8711 59.6098V95.3889C52.8736 97.6063 53.7555 99.7322 55.3235 101.3C56.8914 102.868 59.0173 103.75 61.2346 103.753H126.634C128.852 103.75 130.977 102.868 132.545 101.3C134.113 99.7322 134.995 97.6063 134.998 95.3889V59.6098C134.995 57.3923 134.113 55.2665 132.545 53.6985C130.977 52.1306 128.852 51.2486 126.634 51.2461Z" fill="#E6E6E6"/>
<path d="M126.633 53.6562H61.2332C59.6542 53.658 58.1403 54.2861 57.0237 55.4027C55.9072 56.5192 55.2791 58.0331 55.2773 59.6122V95.3914C55.2791 96.9704 55.9072 98.4843 57.0237 99.6009C58.1403 100.717 59.6542 101.346 61.2332 101.347H126.633C128.212 101.346 129.726 100.717 130.842 99.6009C131.959 98.4843 132.587 96.9704 132.589 95.3914V59.6122C132.587 58.0331 131.959 56.5193 130.842 55.4027C129.726 54.2861 128.212 53.658 126.633 53.6562Z" fill="white"/>
<path d="M121.655 116.128L107.688 102.16L124.177 102.715V115.084C124.18 115.376 124.095 115.663 123.932 115.907C123.769 116.15 123.537 116.339 123.265 116.448C123.083 116.524 122.888 116.564 122.69 116.565C122.498 116.564 122.307 116.525 122.129 116.45C121.951 116.375 121.79 116.266 121.655 116.128Z" fill="#E6E6E6"/>
<path d="M79.5107 82.0175C82.0062 82.0175 84.0292 79.9945 84.0292 77.499C84.0292 75.0035 82.0062 72.9805 79.5107 72.9805C77.0152 72.9805 74.9922 75.0035 74.9922 77.499C74.9922 79.9945 77.0152 82.0175 79.5107 82.0175Z" fill="#4EA9B0"/>
<path d="M93.9325 82.0175C96.428 82.0175 98.451 79.9945 98.451 77.499C98.451 75.0035 96.428 72.9805 93.9325 72.9805C91.4371 72.9805 89.4141 75.0035 89.4141 77.499C89.4141 79.9945 91.4371 82.0175 93.9325 82.0175Z" fill="#4EA9B0"/>
<path d="M108.362 82.0175C110.858 82.0175 112.881 79.9945 112.881 77.499C112.881 75.0035 110.858 72.9805 108.362 72.9805C105.867 72.9805 103.844 75.0035 103.844 77.499C103.844 79.9945 105.867 82.0175 108.362 82.0175Z" fill="#4EA9B0"/>
</svg>
