<svg width="150" height="150" viewBox="0 0 150 150" fill="none" xmlns="http://www.w3.org/2000/svg">
<path d="M84.8724 117.696L25.5352 106.387L36.5916 48.2812L107.867 61.8568L99.0519 108.175L84.8724 117.696Z" fill="#4EA9B0"/>
<path d="M84.8685 118.222H84.7426L25.4557 106.939C25.1535 106.888 24.9772 106.611 25.0024 106.309L36.0589 48.1781C36.1344 47.9011 36.3863 47.6996 36.6885 47.7248L107.964 61.3004C108.266 61.3508 108.442 61.6278 108.417 61.93L99.6021 108.299C99.5769 108.45 99.4762 108.576 99.3503 108.651L85.1708 118.172C85.0952 118.197 84.9945 118.222 84.8685 118.222ZM26.1861 105.981L84.7426 117.114L98.5191 107.87L107.183 62.2827L37.0411 48.9337L26.1861 105.981Z" fill="#D8D8D8"/>
<path d="M104.186 113.889L43.9171 117.692L40.2148 58.6543L112.623 54.0703L115.57 101.195L104.186 113.889Z" fill="white"/>
<path d="M43.9157 118.224C43.6387 118.224 43.3869 117.997 43.3869 117.72L39.6846 58.6576C39.6594 58.5065 39.7349 58.3553 39.8357 58.2546C39.9364 58.1287 40.0624 58.0783 40.2135 58.0783L112.622 53.4943C112.899 53.4691 113.151 53.6706 113.201 53.9477C113.201 53.9729 113.201 53.9729 113.201 53.998L116.173 101.097C116.198 101.248 116.123 101.399 116.022 101.475L104.663 114.194C104.588 114.295 104.437 114.37 104.311 114.37L43.9157 118.224ZM40.7927 59.1613L44.4446 117.091L103.933 113.363L114.989 100.996L112.068 54.7033L40.7927 59.1613Z" fill="#D8D8D8"/>
<path d="M104.187 113.889L103.684 101.926L115.571 101.195L104.187 113.889Z" fill="#4EA9B0"/>
<path d="M51.4994 70.118C51.1972 70.118 50.9453 69.841 50.9705 69.5387C50.9705 69.2617 51.1972 69.035 51.4742 69.0098L101.191 65.8615C101.468 65.8363 101.719 66.0378 101.745 66.34V66.3652C101.77 66.6675 101.543 66.9193 101.241 66.9445L51.4994 70.0929V70.118Z" fill="#DFEAEF"/>
<path d="M52.0797 79.6139C51.7774 79.5887 51.5508 79.3369 51.5508 79.0346C51.5508 78.7576 51.7775 78.5309 52.0545 78.5057L101.771 75.3574C102.073 75.3322 102.325 75.5589 102.35 75.8611C102.375 76.1634 102.149 76.4152 101.846 76.4404L52.13 79.5887H52.1049V79.6139H52.0797Z" fill="#DFEAEF"/>
<path d="M52.683 89.1064C52.3808 89.1064 52.1289 88.8545 52.1541 88.5523C52.1541 88.2752 52.3808 88.0485 52.6578 88.0233L102.374 84.875C102.676 84.875 102.928 85.1017 102.928 85.4039C102.928 85.681 102.727 85.9077 102.45 85.958L52.7334 89.1064H52.7082H52.683Z" fill="#DFEAEF"/>
<path d="M53.2885 98.5794C52.9862 98.5794 52.7344 98.3023 52.7596 98.0001C52.7596 97.723 52.9862 97.4964 53.2633 97.4712L102.98 94.3732C103.257 94.348 103.509 94.5495 103.559 94.8266C103.559 94.8518 103.559 94.8518 103.559 94.877C103.584 95.1792 103.357 95.4311 103.055 95.4562L53.3136 98.5542H53.2885V98.5794Z" fill="#DFEAEF"/>
<path d="M53.8642 108.102C53.562 108.128 53.2849 107.901 53.2597 107.599C53.2345 107.296 53.4612 107.019 53.7634 106.994C53.7886 106.994 53.8138 106.994 53.839 106.994L88.6455 104.803C88.9225 104.778 89.1744 104.979 89.2248 105.256C89.2248 105.281 89.2248 105.281 89.2248 105.307C89.2499 105.609 89.0233 105.861 88.721 105.886L53.9146 108.077H53.8894L53.8642 108.102Z" fill="#DFEAEF"/>
<path d="M102.768 44.36C104.555 43.7208 105.485 41.7542 104.846 39.9675C104.207 38.1807 102.241 37.2504 100.454 37.8896C98.6671 38.5287 97.7369 40.4953 98.376 42.2821C99.0152 44.0689 100.982 44.9992 102.768 44.36Z" fill="#FFBC0E"/>
<path d="M101.895 41.8282C106.326 40.243 111.199 42.5479 112.784 46.9793L115.653 54.9994L99.6402 60.7277L96.7713 52.7075C95.159 48.2858 97.4638 43.4134 101.895 41.8282Z" fill="#FFBC0E"/>
<path d="M109.733 63.8327C111.52 63.1935 112.45 61.2269 111.811 59.4401C111.172 57.6534 109.205 56.7231 107.419 57.3622C105.632 58.0014 104.702 59.968 105.341 61.7548C105.98 63.5415 107.947 64.4718 109.733 63.8327Z" fill="#FFBC0E"/>
<path d="M98.4033 58.3104L114.959 52.3877C116.346 51.8917 117.886 52.5979 118.392 54.0116C118.888 55.3981 118.182 56.9387 116.768 57.4444L100.212 63.3671C98.8256 63.8631 97.2851 63.1569 96.7794 61.7432C96.3009 60.3198 97.0168 58.8064 98.4033 58.3104Z" fill="#FFBC0E"/>
<path d="M92.318 44.8835C92.1277 44.9516 91.9354 44.9284 91.7508 44.8411L87.9723 42.8503C87.6303 42.6659 87.5117 42.2484 87.6688 41.9162C87.8531 41.5742 88.2706 41.4556 88.6028 41.6127L92.3814 43.6035C92.7233 43.7879 92.842 44.2054 92.6849 44.5376C92.615 44.6853 92.4811 44.8252 92.318 44.8835Z" fill="#4EA9B0"/>
<path d="M91.8515 50.2638C91.77 50.2929 91.7156 50.3124 91.6515 50.3046L87.7089 50.4271C87.3166 50.4448 86.9999 50.1594 86.9822 49.7671C86.9645 49.3748 87.2499 49.058 87.6422 49.0403L87.6694 49.0306L91.6119 48.9082C92.0043 48.8905 92.3307 49.203 92.3387 49.5682C92.3369 49.9061 92.1234 50.1665 91.8515 50.2638Z" fill="#4EA9B0"/>
<path d="M110.668 38.3178C110.314 38.4443 109.908 38.2522 109.782 37.8987C109.724 37.7356 109.72 37.5531 109.79 37.4054L111.448 33.4695C111.595 33.1101 112.003 32.9642 112.363 33.1117C112.722 33.2591 112.868 33.6669 112.72 34.0263L111.062 37.9622C111.019 38.1001 110.858 38.2497 110.668 38.3178Z" fill="#4EA9B0"/>
<path d="M114.443 42.1816C114.09 42.308 113.684 42.1159 113.557 41.7625C113.45 41.4635 113.553 41.1507 113.796 40.9719L116.921 38.5658C117.236 38.3306 117.657 38.3945 117.92 38.6993C118.182 39.0041 118.091 39.4353 117.786 39.6977L114.66 42.1038C114.606 42.1232 114.525 42.1524 114.443 42.1816Z" fill="#4EA9B0"/>
</svg>
