<svg width="70" height="70" viewBox="0 0 70 70" fill="none" xmlns="http://www.w3.org/2000/svg">
<path d="M13.9252 19.7443L35.0534 8.53794L40.6574 19.1038C43.7504 24.9352 41.5271 32.1808 35.6957 35.2737C29.8643 38.3667 22.6188 36.1434 19.5259 30.3119L13.9219 19.7461L13.9252 19.7443Z" fill="#E6E6E6"/>
<path d="M33.491 5.59863L12.171 16.9067C10.3981 17.8471 9.72283 20.0458 10.6627 21.8178C11.6025 23.5898 13.8016 24.264 15.5745 23.3236L36.8945 12.0155C38.6674 11.0752 39.3427 8.87643 38.4029 7.10445C37.463 5.33247 35.2639 4.65829 33.491 5.59863Z" fill="#4EA9B0"/>
<path d="M56.813 50.0408L35.6849 61.2472L30.0808 50.6814C26.9879 44.85 29.2112 37.6044 35.0426 34.5114C40.8739 31.4185 48.1194 33.6418 51.2124 39.4732L56.8164 50.0391L56.813 50.0408Z" fill="#E6E6E6"/>
<path d="M37.2316 64.1787L58.5516 52.8706C60.3245 51.9303 60.9998 49.7315 60.06 47.9595C59.1201 46.1875 56.921 45.5134 55.1481 46.4537L33.8282 57.7618C32.0553 58.7022 31.38 60.9009 32.3198 62.6729C33.2596 64.4449 35.4587 65.1191 37.2316 64.1787Z" fill="#4EA9B0"/>
<path d="M36.0897 55.0404L52.2366 46.2599C52.2366 46.2599 47.4874 40.5167 41.3623 44.5972L35.1932 32.5085C43.5273 27.1795 38.5134 20.2386 38.5134 20.2386L22.4704 28.7478C22.4704 28.7478 25.6653 37.0795 33.456 33.4689L40.435 45.2753C34.5259 49.9191 36.0897 55.0404 36.0897 55.0404Z" fill="#D2D2D2"/>
<path d="M30.8138 16.4704C30.8138 16.4704 39.906 21.9001 40.5172 21.5377C41.1284 21.1753 45.9834 12.8717 45.8044 12.3392C45.6253 11.8067 36.8413 6.61543 36.2062 6.77427C35.5712 6.9331 30.8138 16.4704 30.8138 16.4704Z" fill="#FF7878"/>
<path d="M35.8658 10.668C36.2776 12.397 36.8096 14.0928 37.4576 15.7404C37.5828 16.0776 37.9878 16.2569 38.3389 16.241C38.5658 16.2431 39.1257 16.105 38.9771 15.7419C38.3291 14.0942 37.7971 12.3984 37.3853 10.6695C37.3051 10.3198 36.8209 10.1462 36.4998 10.1539C36.2471 10.1751 35.7773 10.2884 35.8658 10.668Z" fill="white"/>
<path d="M38.2791 17.7933L38.4074 18.2589C38.4198 18.304 38.4364 18.3641 38.4638 18.405C38.5379 18.4977 38.6378 18.5672 38.7403 18.5874C38.847 18.6226 38.9563 18.6087 39.0614 18.5797C39.1065 18.5673 39.1625 18.5357 39.2075 18.5233C39.2484 18.4958 39.3044 18.4643 39.3412 18.4218C39.4189 18.3519 39.4774 18.2711 39.5018 18.1836C39.5546 18.0236 39.505 17.8433 39.3885 17.7138C39.361 17.6729 39.3186 17.6361 39.2611 17.6035C39.2186 17.5667 39.1612 17.534 39.1078 17.5164C38.982 17.4703 38.8603 17.4392 38.7318 17.4423C38.6826 17.4397 38.6225 17.4562 38.5775 17.4686C38.4423 17.5059 38.347 17.6291 38.335 17.7617C38.3448 17.856 38.3806 17.9269 38.4463 17.9896L38.523 18.0332C38.5804 18.0658 38.6488 18.0793 38.713 18.0777L38.728 18.0736L38.6296 18.0684C38.6788 18.071 38.713 18.0777 38.7664 18.0954L38.6747 18.056C38.7089 18.0627 38.7472 18.0845 38.7664 18.0954L38.6897 18.0518C38.7089 18.0627 38.7322 18.0886 38.7513 18.0995L38.6856 18.0368C38.7089 18.0627 38.713 18.0777 38.7363 18.1036L38.6965 18.0177C38.7006 18.0327 38.7089 18.0627 38.713 18.0777L38.6882 17.9876C38.6965 18.0177 38.6856 18.0368 38.6897 18.0518L38.6991 17.9685C38.7032 17.9835 38.6923 18.0026 38.6773 18.0068L38.7208 17.9301C38.7099 17.9493 38.6991 17.9685 38.6882 17.9876L38.7509 17.9219C38.725 17.9452 38.7141 17.9643 38.684 17.9726L38.7659 17.9177C38.755 17.9369 38.725 17.9452 38.6949 17.9534L38.7851 17.9286C38.77 17.9327 38.755 17.9369 38.725 17.9452L38.8342 17.9312L38.8001 17.9245L38.8985 17.9297L38.8643 17.9229L38.956 17.9623L38.9368 17.9514L39.0134 17.995L38.9943 17.9841L39.06 18.0468C39.06 18.0468 39.0559 18.0317 39.0409 18.0359L39.0807 18.1219C39.0683 18.0768 39.06 18.0468 39.0476 18.0017L39.0104 17.8665L38.9359 17.5961C38.896 17.5102 38.8453 17.4433 38.7536 17.4039C38.6619 17.3646 38.5594 17.3443 38.4542 17.3733C38.3641 17.3981 38.2823 17.453 38.2237 17.5338L38.1802 17.6104C38.1626 17.6638 38.1641 17.728 38.1807 17.7881L38.2791 17.7933Z" fill="white"/>
<path d="M31.2124 9.26576C30.4875 8.512 29.7258 7.8007 28.9574 7.12357L28.9402 7.35456C29.5696 7.11648 30.2512 7.00945 30.9208 7.035C31.2311 7.04648 31.5345 7.09213 31.8422 7.15281C32.1198 7.22176 32.5382 7.33271 32.7273 7.022C32.7885 6.89202 32.8346 6.76618 32.8465 6.63359C32.8911 6.44353 32.9357 6.25346 32.9694 6.08256C33.041 5.75577 33.0975 5.43312 33.1499 5.09545C33.2464 4.39006 33.3088 3.67794 33.326 2.97823L32.6522 2.93766C32.9893 3.28113 33.3264 3.6246 33.6743 3.94891C33.8483 4.11106 34.0223 4.27322 34.2113 4.43123C34.3703 4.59752 34.551 4.7255 34.7467 4.84933C34.9575 4.96903 35.2226 4.99292 35.448 4.93083C35.6349 4.84697 35.7945 4.72219 35.9157 4.57565C36.2183 4.26601 36.4742 3.90457 36.6727 3.51049C36.7774 3.30386 36.0523 3.01882 35.9259 3.26376C35.771 3.58121 35.5736 3.86187 35.3379 4.12077C35.2275 4.24815 35.1172 4.37553 34.9685 4.48115C34.9426 4.50445 34.9017 4.53188 34.8566 4.5443C35.0741 4.62982 35.1383 4.62828 35.0234 4.56299C34.9768 4.51119 34.9193 4.47854 34.8727 4.42674C34.3015 3.93768 33.7522 3.41029 33.2287 2.85961C33.1163 2.74512 32.5555 2.52796 32.5549 2.81903C32.5335 3.50372 32.4738 4.16664 32.384 4.83784C32.3316 5.17551 32.2751 5.49816 32.2035 5.82495C32.1698 5.99586 32.1319 6.15174 32.0941 6.30763C32.0713 6.45937 32.0293 6.60023 31.9832 6.72608C31.9505 6.78356 31.9614 6.7644 31.9313 6.77268C31.9013 6.78095 31.7263 6.73223 31.6729 6.7146C31.517 6.67675 31.3653 6.65393 31.1985 6.63524C30.88 6.59372 30.5356 6.57551 30.2145 6.58319C29.5723 6.59856 28.929 6.72736 28.3256 6.94214C28.2095 6.99028 28.2427 7.11044 28.3084 7.17313C29.096 7.86113 29.8426 8.57657 30.5634 9.31531C30.699 9.4557 30.8933 9.51531 31.0818 9.49568C31.2744 9.49107 31.3055 9.36937 31.2124 9.26576Z" fill="#FF7878"/>
</svg>
