<svg width="18" height="18" viewBox="0 0 18 18" fill="none" xmlns="http://www.w3.org/2000/svg">
<path d="M0 15.1687C0 15.7292 0.454365 16.1836 1.01485 16.1836C1.57534 16.1836 2.0297 15.7292 2.0297 15.1687V11.1993C2.0297 10.6388 1.57534 10.1844 1.01485 10.1844C0.454365 10.1844 0 10.6388 0 11.1993V15.1687ZM9.44862 17.1834L6.51905 16.5435L3.58948 15.9036C3.42526 15.866 3.27819 15.7748 3.17141 15.6445C3.06463 15.5142 3.00418 15.3521 2.99956 15.1837V11.1843C2.99646 11.0121 3.05698 10.8447 3.16954 10.7143C3.27711 10.5771 3.42914 10.4817 3.59948 10.4444L8.37878 9.85447L12.6036 9.26353C12.9263 9.21839 13.2323 9.4201 13.3181 9.73449L13.3211 9.74558C13.4186 10.1032 13.513 10.4999 13.3171 10.8146C13.121 11.1299 12.7265 11.2297 12.3663 11.3197L10.9084 11.6842L10.6019 11.7608C10.07 11.8938 10.0197 12.6299 10.5285 12.834C11.5788 13.2555 12.7389 13.3181 13.8286 13.0123L14.4279 12.844L16.6476 12.1841C16.7438 12.1552 16.8451 12.1465 16.9448 12.1586C17.0446 12.1706 17.1409 12.2032 17.2275 12.2541C17.3162 12.3039 17.3939 12.3713 17.4558 12.4521C17.5177 12.5329 17.5625 12.6254 17.5874 12.7241L17.7774 13.4839L17.9774 14.2538C18.0013 14.3484 18.0063 14.4467 17.9921 14.5432C17.9779 14.6397 17.9447 14.7324 17.8946 14.8161C17.8444 14.8997 17.7782 14.9726 17.6997 15.0305C17.6213 15.0885 17.5321 15.1303 17.4375 15.1537L13.808 16.1536L10.1785 17.1534C10.061 17.1846 9.94014 17.2014 9.81857 17.2034C9.6949 17.2111 9.57075 17.2044 9.44862 17.1834Z" fill="white"/>
<path d="M13.0076 4.53878L13.0035 4.54687C13.0197 4.41336 13.0359 4.27579 13.0359 4.13823C13.0359 4.00067 13.0238 3.8712 13.0076 3.73768L13.0116 3.74577L13.9988 2.96895L13.0157 1.26156L11.8545 1.73089L11.8585 1.73494C11.6481 1.5731 11.4175 1.43554 11.1667 1.33034H11.1707L10.9846 0.0922852H9.01423L8.83621 1.33439H8.84025C8.58941 1.43959 8.35879 1.57715 8.1484 1.73899L8.15244 1.73494L6.98721 1.26156L6 2.96895L6.98721 3.74577L6.99126 3.73768C6.97507 3.8712 6.96294 4.00067 6.96294 4.13823C6.96294 4.27579 6.97507 4.41336 6.9953 4.54687L6.99126 4.53878L6.14161 5.20636L6.00809 5.31156L6.99126 7.01085L8.15649 6.54557L8.1484 6.52939C8.36283 6.69527 8.59345 6.83283 8.84835 6.93803H8.83621L9.01828 8.18418H10.9806C10.9806 8.18418 10.9927 8.11135 11.0048 8.01425L11.1586 6.94207H11.1545C11.4054 6.83688 11.64 6.69932 11.8545 6.53343L11.8464 6.54962L13.0116 7.0149L13.9948 5.3156C13.9948 5.3156 13.9381 5.26705 13.8613 5.21041L13.0076 4.53878ZM9.99739 5.55431C9.21653 5.55431 8.58131 4.9191 8.58131 4.13823C8.58131 3.35736 9.21653 2.72215 9.99739 2.72215C10.7783 2.72215 11.4135 3.35736 11.4135 4.13823C11.4135 4.9191 10.7783 5.55431 9.99739 5.55431Z" fill="white"/>
</svg>
