<svg width="19" height="14" viewBox="0 0 19 14" fill="none" xmlns="http://www.w3.org/2000/svg">
<path d="M1.96218 10.9996C2.32019 10.9996 2.66353 11.1418 2.91668 11.3949C3.16983 11.6481 3.31205 11.9914 3.31205 12.3493C3.31205 12.7073 3.16983 13.0506 2.91668 13.3037C2.66353 13.5568 2.32019 13.699 1.96218 13.699C1.60417 13.699 1.26082 13.5568 1.00767 13.3037C0.754523 13.0506 0.612305 12.7073 0.612305 12.3493C0.612305 11.9914 0.754523 11.6481 1.00767 11.3949C1.26082 11.1418 1.60417 10.9996 1.96218 10.9996ZM5.56184 11.4495H17.7134C17.9428 11.4498 18.1634 11.5376 18.3302 11.695C18.4969 11.8525 18.5973 12.0676 18.6108 12.2966C18.6242 12.5255 18.5497 12.751 18.4025 12.9268C18.2553 13.1027 18.0464 13.2157 17.8187 13.2428L17.7134 13.2491H5.56184C5.33254 13.2486 5.11208 13.1606 4.94546 13.0031C4.77885 12.8456 4.67865 12.6305 4.66533 12.4016C4.65201 12.1727 4.72656 11.9474 4.87378 11.7716C5.02099 11.5959 5.22976 11.4829 5.45745 11.4558L5.56184 11.4495ZM1.96218 5.60094C2.32019 5.60094 2.66353 5.74313 2.91668 5.99625C3.16983 6.24936 3.31205 6.59265 3.31205 6.95061C3.31205 7.30857 3.16983 7.65186 2.91668 7.90497C2.66353 8.15809 2.32019 8.30029 1.96218 8.30029C1.60417 8.30029 1.26082 8.15809 1.00767 7.90497C0.754523 7.65186 0.612305 7.30857 0.612305 6.95061C0.612305 6.59265 0.754523 6.24936 1.00767 5.99625C1.26082 5.74313 1.60417 5.60094 1.96218 5.60094ZM5.56184 6.05083H17.7134C17.9428 6.05108 18.1634 6.1389 18.3302 6.29633C18.4969 6.45377 18.5973 6.66894 18.6108 6.89788C18.6242 7.12682 18.5497 7.35226 18.4025 7.52812C18.2553 7.70399 18.0464 7.81701 17.8187 7.8441L17.7134 7.85039H5.56184C5.33254 7.84991 5.11208 7.76194 4.94546 7.60443C4.77885 7.44693 4.67865 7.23177 4.66533 7.00289C4.65201 6.77402 4.72656 6.54869 4.87378 6.37292C5.02099 6.19716 5.22976 6.0842 5.45745 6.05713L5.56184 6.05083ZM1.96218 0.209434C2.14232 0.204783 2.32157 0.236241 2.48936 0.301955C2.65714 0.367668 2.81007 0.466307 2.93913 0.592054C3.06818 0.717801 3.17075 0.868112 3.24079 1.03412C3.31082 1.20013 3.3469 1.37848 3.3469 1.55866C3.3469 1.73883 3.31082 1.91718 3.24079 2.0832C3.17075 2.24921 3.06818 2.39952 2.93913 2.52526C2.81007 2.65101 2.65714 2.74965 2.48936 2.81536C2.32157 2.88108 2.14232 2.91254 1.96218 2.90788C1.60417 2.90788 1.26082 2.76569 1.00767 2.51257C0.754523 2.25946 0.612305 1.91617 0.612305 1.55821C0.612305 1.20025 0.754523 0.856958 1.00767 0.603845C1.26082 0.350732 1.60417 0.209434 1.96218 0.209434ZM5.56184 0.652128H17.7134C17.9428 0.652382 18.1634 0.740198 18.3302 0.897632C18.4969 1.05507 18.5973 1.27024 18.6108 1.49918C18.6242 1.72812 18.5497 1.95356 18.4025 2.12942C18.2553 2.30529 18.0464 2.41831 17.8187 2.4454L17.7134 2.45169H5.56184C5.33254 2.45121 5.11208 2.36324 4.94546 2.20573C4.77885 2.04823 4.67865 1.83307 4.66533 1.6042C4.65201 1.37532 4.72656 1.14999 4.87378 0.974225C5.02099 0.798455 5.22976 0.685501 5.45745 0.658426L5.56184 0.652128Z" fill="white"/>
</svg>
