<svg width="18" height="19" viewBox="0 0 18 19" fill="none" xmlns="http://www.w3.org/2000/svg">
<path d="M7.72301 7.74679C9.86222 7.74679 11.5964 6.01261 11.5964 3.87339C11.5964 1.73418 9.86222 0 7.72301 0C5.58379 0 3.84961 1.73418 3.84961 3.87339C3.84961 6.01261 5.58379 7.74679 7.72301 7.74679Z" fill="white"/>
<path d="M10.2041 14.8281H14.4013V15.6676H10.2041V14.8281Z" fill="white"/>
<path d="M6.60766 16.0273V17.8261C6.60766 17.9851 6.67083 18.1377 6.78328 18.2501C6.89572 18.3626 7.04823 18.4257 7.20726 18.4257H17.4004C17.5594 18.4257 17.7119 18.3626 17.8244 18.2501C17.9368 18.1377 18 17.9851 18 17.8261V11.8302C18 11.6711 17.9368 11.5186 17.8244 11.4062C17.7119 11.2937 17.5594 11.2306 17.4004 11.2306H13.2032V10.3492C13.2032 10.1901 13.1401 10.0376 13.0276 9.92517C12.9152 9.81273 12.7627 9.74956 12.6036 9.74956C12.4446 9.74956 12.2921 9.81273 12.1796 9.92517C12.0672 10.0376 12.004 10.1901 12.004 10.3492V11.2306H10.8048V9.084C9.78598 8.91728 8.75532 8.83306 7.72291 8.83217C5.44612 8.82249 3.19484 9.31163 1.12735 10.2652C0.787065 10.4258 0.499992 10.6806 0.300188 10.9995C0.100384 11.3183 -0.00376301 11.6878 0.000103898 12.064V16.0273H6.60766ZM16.8008 17.2265H7.80685V12.4298H12.004V12.6816C12.004 12.8406 12.0672 12.9931 12.1796 13.1056C12.2921 13.218 12.4446 13.2812 12.6036 13.2812C12.7627 13.2812 12.9152 13.218 13.0276 13.1056C13.1401 12.9931 13.2032 12.8406 13.2032 12.6816V12.4298H16.8008V17.2265Z" fill="white"/>
</svg>
