<svg width="160" height="54" viewBox="0 0 160 54" fill="none" xmlns="http://www.w3.org/2000/svg">
<path d="M122.039 46.3439C122.039 46.3439 119.313 46.5101 118.582 43.1191L123.668 44.0832L122.039 46.3439Z" fill="#000111"/>
<path d="M116.254 45.8433C116.254 45.8433 114.725 45.3778 114.691 41.8539L117.85 41.5215C117.85 41.5215 117.218 45.7768 116.254 45.8433Z" fill="#000111"/>
<path d="M118.779 16.29L101.525 19.415C101.525 19.415 91.8513 14.2289 84.3048 14.0959C76.7583 13.9629 71.0403 20.0467 71.0403 20.0467H79.3846C79.3846 20.0467 78.7197 30.3857 69.8435 34.7739C60.9672 39.1622 55.9141 37.4335 55.9141 37.4335C55.9141 37.4335 57.7758 45.2459 63.3276 44.847C63.3276 44.847 67.8488 50.9307 75.9272 47.5066C75.9272 47.5066 78.4538 49.9002 84.6705 49.3682C90.8872 48.8363 98.201 46.5757 98.201 46.5757L122.137 40.8577C122.137 40.8577 125.096 37.101 123.6 27.5266C122.336 19.2488 118.779 16.29 118.779 16.29Z" fill="#FFCABE"/>
<path d="M117.784 15.6582L112.531 17.3869C112.531 17.3869 118.681 29.1222 116.255 45.8109L125.829 44.3481C125.829 44.3481 127.392 22.2738 117.784 15.6582Z" fill="#E9E9E9"/>
<path d="M117.781 15.6581C117.781 15.6581 126.458 27.9586 122.037 46.3427C122.037 46.3427 148.632 44.1486 159.57 33.2112L146.737 0C146.737 0 133.306 10.5052 117.781 15.6581Z" fill="#038991"/>
<path d="M129.088 45.4444H128.988C128.789 45.4111 128.656 45.2117 128.722 44.979C133.111 26.5948 123.004 14.0284 122.905 13.8954C122.772 13.7292 122.772 13.4965 122.938 13.3635C123.104 13.2305 123.337 13.2305 123.47 13.3967C123.47 13.3967 123.47 13.3968 123.503 13.43C123.603 13.563 133.942 26.3953 129.454 45.1452C129.42 45.3114 129.254 45.4444 129.088 45.4444Z" fill="#FFCABE"/>
<path d="M46.6106 41.9883C46.6106 41.9883 45.4138 45.7781 48.705 47.6066C51.9962 49.435 56.3512 47.6066 56.3512 47.6066C56.3512 47.6066 59.2103 51.0973 62.1025 51.33C64.9948 51.5627 68.7514 50.4324 68.7514 50.4324C68.7514 50.4324 72.6078 55.1863 77.5279 53.2249C82.4481 51.2635 82.5146 45.0135 82.5146 45.0135L46.6106 41.9883Z" fill="#FFCABE"/>
<path d="M126.396 43.0516C127.02 43.0516 127.526 42.5456 127.526 41.9213C127.526 41.2971 127.02 40.791 126.396 40.791C125.772 40.791 125.266 41.2971 125.266 41.9213C125.266 42.5456 125.772 43.0516 126.396 43.0516Z" fill="#FFCABE"/>
<path d="M107.846 21.0448C105.253 20.9451 101.529 19.981 101.363 19.9478C101.064 19.8813 100.864 19.5821 100.931 19.2829C100.997 18.9837 101.296 18.7842 101.596 18.8507C101.629 18.8507 101.629 18.8507 101.662 18.8507C101.695 18.8507 105.452 19.8148 107.879 19.9145C108.178 19.9145 108.444 20.1805 108.411 20.4797C108.411 20.8121 108.178 21.0448 107.846 21.0448Z" fill="#FFF7F5"/>
<path d="M150.164 36.2697C151.064 36.2697 151.793 35.5404 151.793 34.6407C151.793 33.741 151.064 33.0117 150.164 33.0117C149.264 33.0117 148.535 33.741 148.535 34.6407C148.535 35.5404 149.264 36.2697 150.164 36.2697Z" fill="#FFCABE"/>
<path d="M37.5313 46.3439C37.5313 46.3439 40.2574 46.5101 40.9887 43.1191L35.9023 44.0832L37.5313 46.3439Z" fill="#000111"/>
<path d="M43.3184 45.8433C43.3184 45.8433 44.8476 45.3778 44.8809 41.8539L41.7227 41.5215C41.7227 41.5215 42.3543 45.7768 43.3184 45.8433Z" fill="#000111"/>
<path d="M40.7886 16.29L58.0425 19.415C58.0425 19.415 67.7166 14.2289 75.2631 14.0959C82.8096 13.9629 88.5276 20.0467 88.5276 20.0467H80.1833C80.1833 20.0467 80.8481 30.3857 89.7244 34.7739C98.6007 39.1622 103.654 37.4335 103.654 37.4335C103.654 37.4335 101.792 45.2459 96.2403 44.847C96.2403 44.847 91.7191 50.9307 83.6407 47.5066C83.6407 47.5066 81.1141 49.9002 74.8974 49.3682C68.6807 48.8363 61.3669 46.5757 61.3669 46.5757L37.4309 40.8577C37.4309 40.8577 34.5054 37.101 35.9682 27.5266C37.2315 19.2488 40.7886 16.29 40.7886 16.29Z" fill="#FFCABE"/>
<path d="M41.7877 15.6582L47.0403 17.3869C47.0403 17.3869 40.8901 29.1222 43.317 45.8109L33.7426 44.3481C33.7426 44.3481 32.1801 22.2738 41.7877 15.6582Z" fill="#E9E9E9"/>
<path d="M41.7882 15.6581C41.7882 15.6581 33.1115 27.9586 37.533 46.3427C37.533 46.3427 10.9374 44.1486 0 33.2112L12.8323 0C12.8323 0 26.2963 10.5052 41.7882 15.6581Z" fill="#03868E"/>
<path d="M30.4865 45.4442C30.3203 45.4442 30.1541 45.3112 30.1208 45.145C25.6328 26.3951 35.9718 13.5628 36.0716 13.4298C36.2045 13.2636 36.4373 13.2303 36.6035 13.3633C36.7697 13.4963 36.8029 13.729 36.67 13.8952C36.67 13.8952 36.67 13.8952 36.6367 13.9285C36.537 14.0614 26.4307 26.6278 30.8189 45.012C30.8522 45.2115 30.7525 45.4109 30.553 45.4774L30.4865 45.4442Z" fill="#FFCABE"/>
<path d="M32.9428 42.8856C33.5671 42.8856 34.0731 42.3796 34.0731 41.7553C34.0731 41.1311 33.5671 40.625 32.9428 40.625C32.3186 40.625 31.8125 41.1311 31.8125 41.7553C31.8125 42.3796 32.3186 42.8856 32.9428 42.8856Z" fill="#FFCABE"/>
<path d="M105.318 44.2156H105.252C92.2865 42.9191 84.2081 31.35 83.0113 29.5548L71.3425 28.2583H71.3092C67.0872 27.4272 65.9901 25.499 65.8239 24.0362C65.6244 22.241 66.7548 20.5788 67.6856 20.1799L79.7201 14.3621C79.986 14.1959 80.3185 14.2624 80.4847 14.5283C80.6509 14.7943 80.5844 15.1267 80.3185 15.293C80.2852 15.3262 80.252 15.3262 80.1855 15.3594L68.151 21.1772C67.6524 21.4099 66.788 22.64 66.9542 23.9033C67.1204 25.4658 68.7162 26.5961 71.5087 27.128L83.4435 28.4577C83.6097 28.491 83.7759 28.5907 83.8424 28.7237C83.9089 28.8567 91.954 41.7555 105.385 43.1185C105.684 43.1518 105.917 43.4177 105.883 43.7502C105.85 44.0161 105.617 44.2156 105.318 44.2156Z" fill="#FFF7F5"/>
<path d="M68.4486 49.7681C68.3822 49.7681 68.3157 49.7681 68.2492 49.7348C67.95 49.6351 67.817 49.3027 67.95 49.0035C71.1747 40.8586 75.9951 39.0634 77.8901 38.6977C79.785 38.332 81.6799 38.6977 82.777 39.7947C85.4698 42.4875 82.4446 48.671 82.3116 48.937C82.1454 49.2029 81.8129 49.3027 81.547 49.1364C81.3142 49.0035 81.2145 48.7043 81.3142 48.4383C82.1121 46.8426 83.7743 42.3878 81.9791 40.5926C81.148 39.7615 79.7185 39.4623 78.1228 39.7947C76.3941 40.1604 72.0058 41.8227 68.9806 49.4356C68.8476 49.6351 68.6481 49.7681 68.4486 49.7681Z" fill="#FFF7F5"/>
<path d="M57.9753 45.979C57.6761 45.979 57.4102 45.7131 57.4102 45.4139C57.4102 45.3474 57.4102 45.2809 57.4434 45.2144C60.6681 37.0695 65.4886 35.2743 67.3835 34.9086C69.2784 34.5429 71.1734 34.9086 72.2704 36.0057C74.9965 38.7317 71.5058 44.6492 71.3396 44.8819C71.1734 45.1479 70.8409 45.2144 70.575 45.0482C70.309 44.8819 70.2425 44.5495 70.3755 44.2835C71.2731 42.7875 73.2013 38.5323 71.4726 36.7703C70.6414 35.9392 69.2119 35.64 67.6162 35.9724C65.8875 36.3381 61.4992 38.0003 58.474 45.6133C58.4075 45.846 58.208 45.979 57.9753 45.979Z" fill="#FFF7F5"/>
<path d="M59.5409 42.8519C59.4411 42.8519 59.3747 42.8186 59.2749 42.7854C59.009 42.6524 58.9092 42.3199 59.0422 42.054C59.0755 42.0207 61.4358 37.3665 59.3082 35.2389C58.1779 34.0753 56.5489 33.5767 54.9864 33.8759C53.1579 34.2415 50.4652 35.9703 48.0716 41.921C47.9718 42.2202 47.6394 42.3532 47.3734 42.2534C47.1075 42.1537 46.9412 41.8213 47.041 41.5553V41.5221C49.6008 35.0727 52.6593 33.211 54.7537 32.7788C56.6819 32.4131 58.6765 33.0115 60.0728 34.441C62.7988 37.1671 60.1393 42.3532 60.0063 42.5527C59.9398 42.7521 59.7403 42.8519 59.5409 42.8519Z" fill="#FFF7F5"/>
<path d="M92.7843 48.5047H92.7511C86.3017 48.139 82.9772 43.1856 82.8443 42.9529C82.678 42.6869 82.7778 42.3545 83.0105 42.1883C83.2764 42.0221 83.6089 42.0885 83.7751 42.3545C83.8083 42.3877 86.9333 47.0752 92.7843 47.4076C93.0835 47.4076 93.3495 47.6736 93.3163 47.9728C93.3495 48.272 93.0835 48.5047 92.7843 48.5047Z" fill="#FFF7F5"/>
<path d="M15.5605 25.4999C16.4051 25.4999 17.0897 24.8152 17.0897 23.9707C17.0897 23.1261 16.4051 22.4414 15.5605 22.4414C14.7159 22.4414 14.0312 23.1261 14.0312 23.9707C14.0312 24.8152 14.7159 25.4999 15.5605 25.4999Z" fill="#FFCABE"/>
<path d="M53.3933 21.4426C53.0941 21.4426 52.8281 21.1766 52.8281 20.8774C52.8281 20.6115 53.0608 20.3455 53.3268 20.3455C55.3547 20.1461 57.7483 18.9493 57.7815 18.9493C58.0475 18.8163 58.3799 18.916 58.5462 19.182C58.6791 19.4479 58.5794 19.7804 58.3135 19.9466C58.2137 20.0131 55.7204 21.2431 53.4598 21.4758H53.3933V21.4426Z" fill="#FFF7F5"/>
</svg>
