<svg width="205" height="138" viewBox="0 0 205 138" fill="none" xmlns="http://www.w3.org/2000/svg">
<path d="M27.5226 17.0778L27.4688 17.0312L27.6384 17.0859L27.5265 17.0739L27.5226 17.0778Z" fill="white"/>
<path d="M28.1152 23.3849C27.7939 23.6154 27.5571 23.9388 27.4283 24.3129C27.3967 24.5058 27.396 24.7028 27.4262 24.8959C27.4409 25.0736 27.475 25.2513 27.5323 25.4214C27.6281 25.6226 27.7549 25.8045 27.9048 25.9673L28.2509 26.3701C28.2893 26.4243 28.3393 26.4708 28.3971 26.5058C28.5282 26.5526 28.679 26.5068 28.7643 26.399C28.8458 26.2912 28.9042 26.1679 28.9278 26.0328C29.135 25.3424 29.7029 24.2325 29.5859 23.5061C29.454 22.6292 28.5491 22.9965 28.1113 23.3887L28.1152 23.3849Z" fill="#FFB4A3"/>
<path d="M28.7168 10.2595L6.49609 46.5742L13.8605 51.0804L36.0812 14.7657L28.7168 10.2595Z" fill="#4EA9B0"/>
<path d="M26.9978 17.8114L12.5783 41.3768C12.1208 42.1244 12.3561 43.1013 13.1037 43.5588L13.545 43.8288C14.2926 44.2863 15.2695 44.051 15.7269 43.3034L30.1464 19.7381C30.6039 18.9905 30.3687 18.0136 29.6211 17.5561L29.1797 17.2861C28.4321 16.8286 27.4552 17.0638 26.9978 17.8114Z" fill="url(#paint0_linear_5095_4890)"/>
<path d="M39.5793 14.4331C36.0064 16.8641 31.137 15.9386 28.7022 12.3657C26.2712 8.79279 27.1967 3.92334 30.7696 1.48855C32.3877 0.386363 34.3586 -0.0696875 36.2959 0.211634L34.4273 3.27826L32.3256 6.73401L37.8115 10.0866L39.9327 6.60386L41.7197 3.67594C44.0541 7.24464 43.102 12.0291 39.5755 14.4331L39.5793 14.4331Z" fill="#4EA9B0"/>
<path d="M11.5259 58.6013C9.85839 59.4948 7.91911 59.7463 6.07893 59.307L10.952 53.0003L5.85815 49.0662L0.969553 55.396L0.938849 55.3457C-1.08574 51.5271 0.368192 46.787 4.19059 44.7625C8.00913 42.7379 12.7492 44.1918 14.7738 48.0142C16.7984 51.8327 15.3444 56.5728 11.522 58.5974L11.5259 58.6013Z" fill="#4EA9B0"/>
<g opacity="0.19">
<path d="M182.981 59.2505C182.354 59.2055 181.766 58.9218 181.344 58.4581C181.026 58.1121 180.718 57.7488 180.389 57.4132C179.829 56.7143 178.884 56.4479 178.043 56.7558C177.182 57.0707 177.773 56.6832 177.749 57.6416V59.119C177.766 60.2711 176.846 61.2157 175.694 61.233C175.607 61.233 175.521 61.233 175.438 61.2192C174.552 61.1569 173.656 61.0877 172.75 61.0046C171.428 60.887 170.411 59.7798 170.414 58.4512V56.9738C170.407 56.0742 169.878 55.2577 169.058 54.8909C168.328 54.4653 167.404 54.5692 166.791 55.1539C166.463 55.4411 166.162 55.7559 165.837 56.0396C164.864 56.9254 163.463 56.7904 162.512 55.7524C161.851 55.0328 161.183 54.3096 160.543 53.5796C159.581 52.4966 159.584 51.1092 160.543 50.1785C160.847 49.8844 161.169 49.611 161.467 49.2927C162.093 48.708 162.28 47.7876 161.934 47.0057C161.657 46.1545 160.91 45.5456 160.017 45.4487C159.539 45.3864 159.059 45.3761 158.581 45.3207C157.201 45.21 156.159 44.0163 156.239 42.6323V40.0131C156.166 38.8644 157.038 37.8749 158.187 37.7988C158.245 37.7953 158.304 37.7953 158.363 37.7953C158.854 37.7953 159.353 37.8472 159.844 37.8887C160.737 38.0237 161.602 37.5151 161.92 36.6708C162.287 35.8266 162.083 34.9651 161.363 34.1555C161.069 33.8268 160.768 33.5084 160.477 33.1763C159.598 32.2663 159.598 30.827 160.477 29.917C161.176 29.2285 161.892 28.5607 162.629 27.9206C163.598 27.1352 165.017 27.2701 165.823 28.2216C166.155 28.578 166.47 28.9517 166.812 29.3046C167.366 29.9654 168.272 30.2077 169.082 29.917C169.899 29.6644 170.445 28.8929 170.411 28.0383V26.6577C170.445 25.1803 171.417 24.2842 172.857 24.3915L175.358 24.5921C176.722 24.6821 177.777 25.8204 177.766 27.1871V28.5157C177.728 29.4499 178.251 30.3149 179.095 30.7093C179.867 31.1591 180.846 31.0277 181.472 30.391C181.77 30.1108 182.057 29.8271 182.358 29.5537C183.313 28.7129 184.766 28.8064 185.607 29.7613C185.624 29.7786 185.638 29.7959 185.652 29.8167C186.34 30.5536 187.018 31.301 187.686 32.0553C188.606 32.9756 188.606 34.4668 187.686 35.3837C187.361 35.6986 187.015 35.9927 186.697 36.311C186.112 36.868 185.925 37.7227 186.226 38.47C186.451 39.3073 187.143 39.9405 188.001 40.0858C188.506 40.1827 189.022 40.1931 189.53 40.2415C190.817 40.3003 191.817 41.3798 191.776 42.6669C191.807 43.6703 191.807 44.6702 191.776 45.6702C191.731 47.0922 190.589 48.881 189.195 48.7737C188.752 48.7426 186.316 48.3309 185.987 49.1716C185.659 50.0124 186.088 50.5314 186.707 51.2441C187.025 51.6109 187.371 51.9638 187.693 52.3306C188.61 53.2544 188.61 54.7421 187.693 55.6659C187.029 56.3164 186.364 56.953 185.662 57.5897C185.195 58.0741 184.115 59.2401 182.981 59.2574V59.2505ZM164.449 42.0372C164.449 47.542 168.733 52.3167 174.075 52.7458C178.42 52.7803 182.195 49.7806 182.188 44.3208C182.212 38.9786 178.099 34.5326 172.77 34.1451C167.418 33.6987 164.456 36.5428 164.446 42.0372H164.449Z" fill="#7E7E7E"/>
</g>
<path d="M182.781 58.9539C182.154 58.9124 181.566 58.6287 181.144 58.1651C180.826 57.8191 180.518 57.4558 180.189 57.1133C179.629 56.4143 178.684 56.1549 177.843 56.4628C177.013 56.7361 176.47 57.5319 176.515 58.4038V59.8812C176.532 61.0334 175.612 61.9779 174.46 61.9952C174.373 61.9952 174.287 61.9952 174.204 61.9814C173.318 61.9191 172.422 61.8499 171.515 61.7669C170.193 61.6492 169.176 60.5421 169.18 59.2134V57.736C169.173 56.8365 168.643 56.0199 167.823 55.6532C167.093 55.2241 166.17 55.3314 165.557 55.9161C165.228 56.2033 164.927 56.5181 164.602 56.8019C163.63 57.6876 162.229 57.5527 161.277 56.5147C160.616 55.7916 159.949 55.0719 159.308 54.3418C158.347 53.2589 158.35 51.8714 159.308 50.9407C159.613 50.6466 159.935 50.3733 160.232 50.055C160.862 49.4702 161.049 48.5499 160.699 47.7679C160.423 46.9168 159.675 46.3078 158.783 46.211C158.305 46.1487 157.824 46.1383 157.35 46.0829C155.966 45.9757 154.925 44.782 155.004 43.3946V40.7754C154.932 39.6267 155.804 38.6371 156.952 38.561C157.011 38.5575 157.07 38.5576 157.129 38.5576C157.62 38.5576 158.118 38.6094 158.61 38.651C159.502 38.7859 160.367 38.2773 160.686 37.4331C161.052 36.5888 160.848 35.7273 160.128 34.9177C159.834 34.589 159.533 34.2707 159.243 33.9385C158.367 33.0286 158.367 31.5858 159.243 30.6758C159.942 29.9942 160.658 29.3229 161.395 28.6794C162.367 27.8974 163.782 28.0358 164.588 28.9839C164.92 29.3402 165.235 29.7139 165.578 30.0668C166.131 30.7277 167.038 30.9699 167.848 30.6792C168.664 30.4267 169.211 29.6551 169.176 28.8005V27.42C169.211 25.9426 170.183 25.043 171.622 25.1537C172.456 25.2194 173.29 25.2817 174.124 25.3544C175.487 25.4443 176.542 26.5827 176.532 27.9493V29.278C176.494 30.2122 177.016 31.0771 177.861 31.4716C178.632 31.9214 179.611 31.7899 180.238 31.1533C180.535 30.873 180.822 30.5893 181.123 30.316C182.078 29.4752 183.532 29.5686 184.372 30.5236C184.39 30.5409 184.403 30.5581 184.417 30.5789C185.106 31.3159 185.784 32.0632 186.452 32.7967C187.372 33.7171 187.372 35.2083 186.452 36.1252C186.127 36.4401 185.787 36.7342 185.462 37.0525C184.877 37.6095 184.691 38.4641 184.992 39.2115C185.217 40.0488 185.909 40.682 186.767 40.8273C187.272 40.9242 187.787 40.9276 188.296 40.983C189.583 41.0418 190.583 42.1213 190.541 43.4084C190.573 44.4118 190.573 45.4117 190.541 46.4116C190.496 47.8337 189.618 48.6295 188.227 48.5187C187.784 48.4876 187.341 48.4357 186.898 48.4219C186.064 48.3665 185.3 48.8855 185.04 49.6813C184.708 50.4736 184.884 51.387 185.483 51.9994C185.801 52.3662 186.147 52.7191 186.469 53.0824C187.386 54.0062 187.386 55.4975 186.469 56.4213C185.805 57.0717 185.14 57.7084 184.438 58.345C184.006 58.7844 183.4 59.0128 182.784 58.9609L182.781 58.9539ZM163.215 42.7925C163.215 48.2904 167.502 53.072 172.84 53.5011C178.179 53.9301 182.507 49.8128 182.507 44.3391C182.507 38.8655 178.182 34.0908 172.889 33.6617C167.595 33.2327 163.239 37.2981 163.211 42.7925H163.215Z" fill="#4EA9B0"/>
<g opacity="0.19">
<path d="M200.522 39.7904C200.204 39.7696 199.903 39.6243 199.689 39.3856C199.526 39.2091 199.37 39.0223 199.204 38.8493C198.917 38.4964 198.436 38.3614 198.007 38.5171C197.564 38.6763 197.869 38.4825 197.855 38.96V39.7143C197.862 40.3059 197.388 40.7869 196.796 40.7938C196.755 40.7938 196.717 40.7938 196.675 40.7868L195.305 40.6761C194.634 40.6069 194.122 40.0464 194.111 39.3717V38.6175C194.108 38.1608 193.838 37.7456 193.419 37.5587C193.046 37.3407 192.575 37.3926 192.26 37.6902C192.097 37.8355 191.942 37.9947 191.776 38.1331C191.288 38.5621 190.541 38.5171 190.111 38.0258C190.101 38.012 190.087 37.9981 190.077 37.9843C189.741 37.6175 189.402 37.2473 189.07 36.8771C188.593 36.4135 188.579 35.6488 189.042 35.1714C189.053 35.161 189.06 35.1506 189.07 35.1437L189.541 34.7008C189.859 34.3998 189.952 33.9327 189.776 33.5348C189.637 33.0988 189.253 32.784 188.8 32.7356C188.558 32.7044 188.312 32.701 188.07 32.6733C187.371 32.6041 186.845 32.002 186.873 31.2997V29.971C186.838 29.3829 187.285 28.8812 187.873 28.8466C187.901 28.8466 187.932 28.8466 187.959 28.8466C188.209 28.8466 188.461 28.8742 188.714 28.895C189.17 28.9642 189.61 28.7047 189.772 28.2757C189.956 27.8293 189.842 27.3173 189.485 26.9955C189.34 26.826 189.184 26.6633 189.042 26.4938C188.596 26.0302 188.596 25.2932 189.042 24.8296C189.399 24.4801 189.765 24.1376 190.139 23.8089C190.634 23.4144 191.354 23.4802 191.765 23.9646C191.938 24.148 192.097 24.3383 192.27 24.5147C192.551 24.8538 193.014 24.9783 193.43 24.8296C193.848 24.7016 194.128 24.3106 194.111 23.8712V23.1653C194.07 22.5633 194.526 22.0443 195.125 22.0028C195.201 21.9959 195.281 22.0028 195.357 22.0132L196.633 22.1101C197.329 22.162 197.865 22.7432 197.862 23.4387V24.1168C197.844 24.5908 198.111 25.0302 198.54 25.2378C198.934 25.4662 199.436 25.4005 199.754 25.0752C199.907 24.9334 200.052 24.788 200.197 24.6323C200.682 24.2033 201.422 24.2483 201.851 24.7327C201.861 24.7431 201.868 24.7535 201.879 24.7673C202.228 25.1444 202.578 25.5216 202.92 25.9056C203.387 26.3762 203.387 27.1339 202.92 27.6044C202.758 27.7671 202.585 27.9158 202.419 28.0785C202.118 28.3587 202.024 28.7981 202.18 29.1787C202.291 29.6008 202.636 29.9226 203.066 30.0022C203.322 30.0506 203.585 30.0541 203.841 30.0818C204.498 30.1094 205.01 30.663 204.986 31.3204C205.003 31.829 205.003 32.3377 204.986 32.8497C204.965 33.5763 204.384 34.4863 203.657 34.4413C203.425 34.4413 202.183 34.2199 202.017 34.642C201.851 35.0641 202.069 35.3374 202.384 35.7007C202.547 35.8876 202.726 36.064 202.889 36.2509C203.353 36.7249 203.353 37.4826 202.889 37.9532C202.547 38.2853 202.197 38.6105 201.851 38.9323C201.647 39.1849 201.097 39.78 200.516 39.7869L200.522 39.7904ZM191.073 31.0125C191.07 33.822 193.187 36.1817 195.983 36.4758C198.201 36.4758 200.125 34.9638 200.125 32.1716C200.135 29.4486 198.035 27.1823 195.319 26.9817C192.592 26.7602 191.08 28.2099 191.073 31.0125Z" fill="#7E7E7E"/>
</g>
<path d="M200.426 39.6373C200.104 39.6165 199.806 39.4746 199.592 39.2325C199.429 39.056 199.273 38.8726 199.104 38.6996C198.817 38.3432 198.336 38.2083 197.907 38.364C197.485 38.5059 197.204 38.9107 197.229 39.357V40.1078C197.239 40.6925 196.775 41.1769 196.191 41.1873C196.142 41.1873 196.097 41.1873 196.052 41.1804L194.682 41.0731C194.007 41.0143 193.492 40.4469 193.495 39.7687V39.0145C193.488 38.5543 193.218 38.1426 192.803 37.9488C192.43 37.7343 191.963 37.7896 191.651 38.0872C191.482 38.2325 191.326 38.3917 191.163 38.5301C190.672 38.9591 189.928 38.9107 189.499 38.4194C189.489 38.4055 189.475 38.3917 189.464 38.3778C189.129 38.0145 188.79 37.6478 188.461 37.2707C187.984 36.807 187.97 36.0424 188.433 35.5649C188.444 35.5545 188.451 35.5441 188.461 35.5372C188.617 35.3919 188.776 35.25 188.932 35.0943C189.25 34.7933 189.347 34.3228 189.167 33.9249C189.028 33.4889 188.644 33.1775 188.191 33.1326C187.949 33.1014 187.703 33.098 187.461 33.0703C186.762 33.0011 186.236 32.399 186.264 31.6967V30.3681C186.226 29.7833 186.672 29.2816 187.254 29.2436C187.285 29.2436 187.316 29.2436 187.343 29.2436C187.593 29.2436 187.845 29.2713 188.098 29.2886C188.551 29.3578 188.994 29.1017 189.156 28.6727C189.34 28.2263 189.226 27.7143 188.873 27.3856C188.721 27.223 188.568 27.0569 188.43 26.8839C187.984 26.4203 187.984 25.6833 188.43 25.2197C188.79 24.8702 189.153 24.5311 189.53 24.2059C190.025 23.808 190.748 23.8772 191.156 24.3616C191.326 24.545 191.485 24.7353 191.658 24.9117C191.938 25.2473 192.402 25.3719 192.817 25.2231C193.239 25.0986 193.519 24.7041 193.506 24.2647V23.5658C193.468 22.9603 193.928 22.4379 194.533 22.3998C194.606 22.3963 194.682 22.3998 194.755 22.4067L196.028 22.5071C196.723 22.559 197.26 23.1402 197.256 23.8357V24.5173C197.235 24.9913 197.502 25.4307 197.931 25.6348C198.325 25.8667 198.824 25.8009 199.145 25.4757C199.298 25.3338 199.443 25.1885 199.588 25.0328C200.073 24.6072 200.813 24.6522 201.242 25.1366C201.249 25.147 201.259 25.1539 201.266 25.1643C201.623 25.5414 201.965 25.922 202.308 26.3095C202.775 26.7801 202.775 27.5378 202.308 28.0084C202.138 28.1675 201.965 28.3198 201.803 28.4789C201.505 28.7626 201.412 29.2021 201.564 29.5827C201.675 30.0048 202.021 30.3265 202.45 30.4061C202.709 30.4442 202.969 30.4684 203.232 30.4822C203.889 30.5134 204.398 31.067 204.377 31.7244V33.2537C204.415 33.8142 203.989 34.302 203.425 34.3366C203.346 34.3401 203.27 34.3366 203.194 34.3262C202.969 34.3262 202.751 34.2813 202.512 34.2778C202.086 34.2501 201.695 34.5131 201.564 34.9213C201.398 35.3227 201.484 35.7898 201.789 36.1012C201.951 36.2915 202.131 36.4679 202.294 36.6548C202.761 37.1253 202.761 37.8865 202.294 38.3571C201.951 38.6892 201.602 39.0145 201.256 39.3362C201.038 39.5508 200.74 39.658 200.436 39.6373H200.426ZM190.444 31.3922C190.433 34.2086 192.554 36.5752 195.353 36.8728C197.862 37.0804 200.066 35.212 200.27 32.7035C200.284 32.534 200.287 32.3679 200.284 32.1984C200.27 29.4027 198.159 27.0604 195.381 26.7524C192.886 26.531 190.682 28.3751 190.461 30.8698C190.447 31.0427 190.44 31.2157 190.444 31.3887V31.3922Z" fill="#4EA9B0"/>
<path d="M28 109.832L51.2652 27.7539L142.556 47.9226L117.887 137.958L28 109.832Z" fill="#4EA9B0"/>
<path d="M154.998 119.23L142.554 47.9258L123.273 118.286L154.998 119.23Z" fill="#4EA9B0"/>
<path d="M154.998 119.23L142.554 47.9258L123.273 118.286L154.998 119.23Z" fill="url(#paint1_linear_5095_4890)"/>
<path d="M59.0378 62.4842L48.168 59.7308L51.6054 46.5898L62.5437 49.1378L59.0378 62.4842Z" fill="#FBFBFB"/>
<path d="M71.6321 65.6751L60.3711 62.8239L63.8917 49.4531L75.2309 52.094L71.6321 65.6751Z" fill="#FBFBFB"/>
<path d="M84.6883 68.9813L73.0117 66.0274L76.6154 52.4219L88.3703 55.1557L84.6883 68.9813Z" fill="#FBFBFB"/>
<path d="M98.2368 72.4135L86.125 69.3423L89.8216 55.4922L102.017 58.3336L98.2368 72.4135Z" fill="#FBFBFB"/>
<path d="M112.307 75.9727L99.7305 72.789L103.515 58.6797L116.179 61.6287L112.307 75.9727Z" fill="#FBFBFB"/>
<path d="M126.913 79.6716L113.848 76.3656L117.735 61.9922L130.893 65.0586L126.913 79.6716Z" fill="#FBFBFB"/>
<path d="M55.0211 77.7628L44.2344 74.7795L47.6572 61.6875L58.5172 64.4702L55.0211 77.7628Z" fill="#FBFBFB"/>
<path d="M67.5206 81.2243L56.3477 78.1334L59.8487 64.8164L71.0999 67.697L67.5206 81.2243Z" fill="#FBFBFB"/>
<path d="M80.4704 84.8068L68.8867 81.5986L72.4807 68.0469L84.1426 71.035L80.4704 84.8068Z" fill="#FBFBFB"/>
<path d="M93.9134 88.5242L81.8945 85.1986L85.5765 71.4023L97.6785 74.503L93.9134 88.5242Z" fill="#FBFBFB"/>
<path d="M107.864 92.3901L95.3906 88.9373L99.1655 74.8867L111.727 78.1096L107.864 92.3901Z" fill="#FBFBFB"/>
<path d="M122.361 96.3995L109.398 92.8098L113.271 78.5L126.322 81.8451L122.361 96.3995Z" fill="#FBFBFB"/>
<path d="M51.0151 92.9779L40.3164 89.7648L43.7245 76.7266L54.5014 79.7392L51.0151 92.9779Z" fill="#FBFBFB"/>
<path d="M63.4219 96.7041L52.332 93.3736L55.8233 80.1055L66.9865 83.2305L63.4219 96.7041Z" fill="#FBFBFB"/>
<path d="M76.2721 100.564L64.7812 97.1112L68.3556 83.6133L79.9296 86.8508L76.2721 100.564Z" fill="#FBFBFB"/>
<path d="M89.6047 104.571L77.6836 100.992L81.346 87.2539L93.3551 90.6088L89.6047 104.571Z" fill="#FBFBFB"/>
<path d="M103.446 108.727L91.0703 105.01L94.8256 91.0234L107.289 94.5104L103.446 108.727Z" fill="#FBFBFB"/>
<path d="M117.824 113.047L104.969 109.189L108.822 94.9375L121.77 98.5614L117.824 113.047Z" fill="#FBFBFB"/>
<path d="M47.0306 108.14L36.4102 104.697L39.8085 91.7031L50.5023 94.9505L47.0306 108.14Z" fill="#FBFBFB"/>
<path d="M59.3378 112.127L48.3359 108.562L51.8125 95.3477L62.8877 98.7075L59.3378 112.127Z" fill="#FBFBFB"/>
<path d="M72.0903 116.263L60.6875 112.565L64.2472 99.1211L75.7282 102.603L72.0903 116.263Z" fill="#FBFBFB"/>
<path d="M85.3165 120.553L73.4883 116.719L77.1409 103.035L89.0522 106.649L85.3165 120.553Z" fill="#FBFBFB"/>
<path d="M99.0476 125.004L86.7695 121.023L90.5102 107.09L102.871 110.841L99.0476 125.004Z" fill="#FBFBFB"/>
<path d="M113.315 129.625L100.562 125.492L104.401 111.305L117.246 115.202L113.315 129.625Z" fill="#FBFBFB"/>
<path d="M123.275 55.1359C117.647 55.1359 113.07 50.5583 113.07 44.9293C113.07 39.3002 117.647 34.7227 123.275 34.7227C128.903 34.7227 133.48 39.3002 133.48 44.9293C133.48 45.4672 133.04 45.9074 132.502 45.9074C131.964 45.9074 131.524 45.4672 131.524 44.9293C131.524 40.381 127.823 36.6789 123.275 36.6789C118.728 36.6789 115.026 40.381 115.026 44.9293C115.026 49.4775 118.728 53.1797 123.275 53.1797C123.813 53.1797 124.253 53.6198 124.253 54.1578C124.253 54.6957 123.813 55.1359 123.275 55.1359Z" fill="white"/>
<path d="M93.3572 48.2765C87.7291 48.2765 83.1523 43.6989 83.1523 38.0699C83.1523 32.4409 87.7291 27.8633 93.3572 27.8633C98.9852 27.8633 103.562 32.4409 103.562 38.0699C103.562 38.6079 103.122 39.048 102.584 39.048C102.046 39.048 101.606 38.6079 101.606 38.0699C101.606 33.5217 97.9046 29.8195 93.3572 29.8195C88.8097 29.8195 85.1082 33.5217 85.1082 38.0699C85.1082 42.6181 88.8097 46.3203 93.3572 46.3203C93.895 46.3203 94.3351 46.7604 94.3351 47.2984C94.3351 47.8364 93.895 48.2765 93.3572 48.2765Z" fill="white"/>
<path d="M63.7165 41.4132C58.0885 41.4132 53.5117 36.8357 53.5117 31.2066C53.5117 25.5776 58.0885 21 63.7165 21C69.3446 21 73.9213 25.5776 73.9213 31.2066C73.9213 31.7446 73.4813 32.1847 72.9434 32.1847C72.4055 32.1847 71.9655 31.7446 71.9655 31.2066C71.9655 26.6584 68.264 22.9562 63.7165 22.9562C59.1691 22.9562 55.4676 26.6584 55.4676 31.2066C55.4676 35.7548 59.1691 39.457 63.7165 39.457C64.2544 39.457 64.6945 39.8972 64.6945 40.4351C64.6945 40.9731 64.2544 41.4132 63.7165 41.4132Z" fill="white"/>
<defs>
<linearGradient id="paint0_linear_5095_4890" x1="-3.73764" y1="9.28471" x2="48.19" y2="54.1532" gradientUnits="userSpaceOnUse">
<stop stop-color="#231F20"/>
<stop offset="0.13" stop-color="#231F20" stop-opacity="0.69"/>
<stop offset="0.25" stop-color="#231F20" stop-opacity="0.32"/>
<stop offset="1" stop-color="#231F20" stop-opacity="0"/>
</linearGradient>
<linearGradient id="paint1_linear_5095_4890" x1="106.658" y1="84.5952" x2="157.418" y2="83.3681" gradientUnits="userSpaceOnUse">
<stop/>
<stop offset="0.08" stop-opacity="0.69"/>
<stop offset="0.21" stop-opacity="0.32"/>
<stop offset="1" stop-opacity="0"/>
</linearGradient>
</defs>
</svg>
