<svg width="200" height="201" viewBox="0 0 200 201" fill="none" xmlns="http://www.w3.org/2000/svg">
<path d="M60.2097 30.3828H133.843C137.378 30.3828 140.244 32.9026 140.244 36.0131V141.01C140.244 144.12 137.378 146.64 133.843 146.64H60.2097C56.6746 146.64 53.8086 144.12 53.8086 141.01V36.0178C53.8086 32.9072 56.6746 30.3874 60.2097 30.3874V30.3828Z" fill="#4EA9B0"/>
<path d="M62.6667 30.3828H136.3C139.835 30.3828 142.701 32.9026 142.701 36.0131V141.01C142.701 144.12 139.835 146.64 136.3 146.64H62.6667C59.1316 146.64 56.2656 144.12 56.2656 141.01V36.0178C56.2656 32.9072 59.1316 30.3874 62.6667 30.3874V30.3828Z" fill="#4EA9B0"/>
<path d="M62.6667 30.3828H136.3C139.835 30.3828 142.701 32.9026 142.701 36.0131V141.01C142.701 144.12 139.835 146.64 136.3 146.64H62.6667C59.1316 146.64 56.2656 144.12 56.2656 141.01V36.0178C56.2656 32.9072 59.1316 30.3874 62.6667 30.3874V30.3828Z" fill="url(#paint0_linear_5989_3786)"/>
<path d="M62.8711 97.2595L65.1325 36.0273L130.556 37.2411C130.556 37.2411 121.999 100.799 128.041 117.206C134.082 133.612 135.088 139.764 135.088 139.764L64.3802 141.527L62.8711 97.2595Z" fill="url(#paint1_linear_5989_3786)"/>
<path d="M146.848 134.35L75.324 135.015C75.324 135.015 67.9722 97.4164 66.6938 84.8128C65.4385 72.6707 65.1523 36.0273 65.1523 36.0273H133.451C133.451 36.0273 133.622 71.54 134.831 83.3037C136.169 96.2857 146.848 134.35 146.848 134.35Z" fill="white"/>
<path d="M72.9361 48.4336H106.649C107.277 48.4336 107.785 48.8813 107.785 49.4304C107.785 49.9796 107.277 50.4273 106.649 50.4273H72.9361C72.3084 50.4273 71.8008 49.9796 71.8008 49.4304C71.8008 48.8813 72.3084 48.4336 72.9361 48.4336Z" fill="#4EA9B0"/>
<path d="M84.5058 58.7344H106.857C107.369 58.7344 107.784 59.099 107.784 59.5512V59.9066C107.784 60.3589 107.369 60.7235 106.857 60.7235H84.5058C83.9935 60.7235 83.5781 60.3589 83.5781 59.9066V59.5512C83.5781 59.099 83.9935 58.7344 84.5058 58.7344Z" fill="#4EA9B0"/>
<path d="M73.315 70.1953H107.028C107.656 70.1953 108.163 70.643 108.163 71.1922C108.163 71.7413 107.656 72.189 107.028 72.189H73.315C72.6873 72.189 72.1797 71.7413 72.1797 71.1922C72.1797 70.643 72.6873 70.1953 73.315 70.1953Z" fill="#4EA9B0"/>
<path d="M84.8847 80.4844H107.235C107.748 80.4844 108.163 80.849 108.163 81.3012V81.6566C108.163 82.1089 107.748 82.4735 107.235 82.4735H84.8847C84.3724 82.4735 83.957 82.1089 83.957 81.6566V81.3012C83.957 80.849 84.3724 80.4844 84.8847 80.4844Z" fill="#4EA9B0"/>
<path d="M109.593 92.9429H75.8757C75.2296 92.9244 74.6943 92.5045 74.5927 91.9461C74.5004 91.4846 74.8558 91.0461 75.3773 90.9631C75.4419 90.9538 75.5065 90.9492 75.5711 90.9492H109.284C109.93 90.9631 110.47 91.383 110.572 91.9414C110.664 92.4076 110.309 92.846 109.783 92.9291C109.718 92.9383 109.658 92.9429 109.593 92.9429Z" fill="#4EA9B0"/>
<path d="M111.359 103.218H89.0083C88.4822 103.204 88.0391 102.863 87.9561 102.406L87.9007 102.055C87.8315 101.672 88.1268 101.308 88.5652 101.248C88.6114 101.243 88.6575 101.238 88.7037 101.238H111.055C111.585 101.252 112.028 101.594 112.107 102.055L112.158 102.406C112.227 102.789 111.927 103.154 111.488 103.214C111.442 103.218 111.401 103.223 111.354 103.223L111.359 103.218Z" fill="#4EA9B0"/>
<path d="M113.691 114.744H79.9735C79.3135 114.721 78.7597 114.305 78.6259 113.738C78.5013 113.304 78.8012 112.861 79.295 112.755C79.3781 112.736 79.4612 112.727 79.5443 112.732H113.262C113.922 112.755 114.476 113.17 114.61 113.738C114.734 114.172 114.439 114.61 113.95 114.721C113.867 114.739 113.779 114.748 113.691 114.744Z" fill="#4EA9B0"/>
<path d="M116.136 125.159H93.7847C93.2447 125.136 92.7925 124.795 92.6771 124.333L92.6032 123.982C92.4971 123.632 92.7371 123.272 93.1386 123.179C93.2078 123.161 93.2817 123.156 93.3555 123.156H115.706C116.242 123.184 116.694 123.521 116.814 123.982L116.892 124.333C116.999 124.688 116.754 125.048 116.352 125.141C116.283 125.155 116.209 125.164 116.14 125.164L116.136 125.159Z" fill="#4EA9B0"/>
<path d="M123.696 63.0333H116.977C114.296 63.0333 112.122 61.1181 112.117 58.7598V52.3634C112.117 50.0051 114.296 48.0898 116.977 48.0898H123.696C126.378 48.0898 128.551 50.0051 128.556 52.3634V58.7736C128.547 61.1273 126.373 63.0333 123.696 63.0333ZM116.977 49.2482C115.034 49.2482 113.46 50.6373 113.456 52.3449V58.7552C113.456 60.4673 115.034 61.8519 116.977 61.8519H123.696C125.639 61.8519 127.213 60.4627 127.213 58.7552V52.3587C127.213 50.6512 125.639 49.2621 123.696 49.2621L116.977 49.2482Z" fill="#4EA9B0"/>
<path d="M125.465 85.0422H118.764C116.166 85.0422 114.025 83.247 113.909 80.9625L113.591 74.6815C113.471 72.3232 115.543 70.3249 118.224 70.2188C118.298 70.2188 118.372 70.2188 118.446 70.2188H125.156C127.745 70.228 129.873 72.0278 129.984 74.3031L130.307 80.5795C130.427 82.9378 128.355 84.9361 125.673 85.0422C125.599 85.0422 125.525 85.0422 125.452 85.0422H125.465ZM118.432 71.391C116.489 71.391 114.915 72.7755 114.911 74.483C114.911 74.5292 114.911 74.58 114.911 74.6261L115.234 80.9072C115.317 82.5593 116.863 83.8654 118.746 83.8608H125.461C127.404 83.8608 128.978 82.4763 128.982 80.7687C128.982 80.7225 128.982 80.6718 128.982 80.6256L128.659 74.3492C128.576 72.6924 127.025 71.391 125.142 71.391H118.432Z" fill="#4EA9B0"/>
<path d="M120.881 105.393C118.348 105.393 116.243 103.681 116.045 101.461L115.473 95.1988C115.26 92.8451 117.254 90.7822 119.931 90.593C120 90.5884 120.074 90.5837 120.148 90.5837L126.858 90.3807C129.442 90.3161 131.639 92.0329 131.875 94.2988L132.447 100.561C132.659 102.92 130.661 104.983 127.979 105.167C127.91 105.172 127.841 105.176 127.772 105.176L121.061 105.38L120.886 105.393H120.881ZM127.029 91.5483H126.899L120.189 91.7513C118.246 91.8159 116.723 93.2512 116.797 94.9634C116.797 95.0095 116.802 95.0511 116.806 95.0972L117.379 101.36C117.535 103.007 119.128 104.258 121.006 104.207L127.716 104C129.659 103.94 131.178 102.509 131.108 100.801C131.108 100.755 131.104 100.704 131.099 100.658L130.527 94.3957C130.384 92.7897 128.861 91.5483 127.029 91.5483Z" fill="#4EA9B0"/>
<path d="M126.153 126.158C123.767 126.158 121.732 124.64 121.349 122.568L120.227 116.462C119.798 114.131 121.594 111.935 124.243 111.556C124.446 111.528 124.649 111.51 124.852 111.505L131.502 111.302C133.943 111.247 136.057 112.779 136.468 114.893L137.589 120.998C138.019 123.334 136.219 125.53 133.565 125.904C133.367 125.932 133.164 125.95 132.965 125.955L126.315 126.158H126.158H126.153ZM131.682 112.474H131.557L124.907 112.678C122.964 112.742 121.45 114.182 121.524 115.894C121.529 116.019 121.543 116.148 121.566 116.273L122.692 122.378C122.992 123.91 124.529 125.018 126.296 124.981L132.947 124.778C134.885 124.723 136.403 123.292 136.339 121.585C136.334 121.451 136.32 121.321 136.293 121.188L135.171 115.077C134.89 113.573 133.413 112.47 131.677 112.474H131.682Z" fill="#4EA9B0"/>
<path d="M84.3072 33.707H116.908C118.223 33.707 119.289 34.6439 119.289 35.8023V39.0789C119.289 40.2373 118.223 41.1741 116.908 41.1741H84.3072C82.9919 41.1741 81.9258 40.2373 81.9258 39.0789V35.8023C81.9258 34.6439 82.9919 33.707 84.3072 33.707Z" fill="#4EA9B0"/>
<path d="M84.3072 33.707H116.908C118.223 33.707 119.289 34.6439 119.289 35.8023V39.0789C119.289 40.2373 118.223 41.1741 116.908 41.1741H84.3072C82.9919 41.1741 81.9258 40.2373 81.9258 39.0789V35.8023C81.9258 34.6439 82.9919 33.707 84.3072 33.707Z" fill="url(#paint2_linear_5989_3786)"/>
<path d="M117.841 54.9167L119.836 58.0197C120.021 58.3065 120.406 58.3901 120.693 58.2049C120.74 58.1721 120.785 58.1332 120.824 58.0884L126.321 51.751C126.545 51.4941 126.518 51.1029 126.261 50.8789C126.148 50.7803 126.004 50.7266 125.855 50.7266H125.81C125.628 50.7266 125.452 50.8072 125.336 50.9476L121.036 56.0964C120.818 56.3562 120.43 56.3951 120.17 56.177C120.122 56.1382 120.08 56.0904 120.048 56.0397L118.877 54.2567C118.742 54.0566 118.506 53.9491 118.268 53.9849C117.933 54.0416 117.706 54.3612 117.763 54.6957C117.775 54.7704 117.802 54.842 117.841 54.9078L117.841 54.9167Z" fill="#47989E"/>
<path d="M120.743 97.7879L122.738 100.891C122.923 101.178 123.308 101.261 123.595 101.076C123.643 101.043 123.688 101.004 123.727 100.96L129.224 94.6221C129.448 94.3652 129.421 93.974 129.164 93.75C129.05 93.6514 128.907 93.5977 128.758 93.5977H128.713C128.531 93.5977 128.355 93.6783 128.238 93.8187L123.938 98.9676C123.72 99.2274 123.332 99.2663 123.072 99.0483C123.025 99.0094 122.983 98.9616 122.95 98.9109L121.779 97.1278C121.645 96.9277 121.409 96.8202 121.17 96.8561C120.835 96.9128 120.609 97.2324 120.665 97.5669C120.677 97.6415 120.704 97.7132 120.743 97.7789L120.743 97.7879Z" fill="#47989E"/>
<path d="M123.331 77.2455L125.572 79.4495C125.79 79.6651 125.793 80.0192 125.577 80.2374C125.473 80.3439 125.33 80.4025 125.181 80.4025H125.085C124.936 80.4025 124.795 80.3439 124.688 80.2401L122.508 78.0574C122.29 77.8391 121.939 77.8391 121.721 78.0574L119.541 80.2401C119.437 80.3439 119.296 80.4025 119.147 80.4025H119.051C118.742 80.4025 118.492 80.1523 118.492 79.8461C118.492 79.6971 118.551 79.5533 118.657 79.4495L120.898 77.2455C121.114 77.0299 121.114 76.6785 120.898 76.4629L118.635 74.2003C118.417 73.982 118.42 73.628 118.635 73.4124C118.739 73.3086 118.88 73.25 119.027 73.25C119.173 73.25 119.311 73.3059 119.418 73.4097L121.712 75.6723C121.931 75.8853 122.277 75.8853 122.495 75.6723L124.789 73.4097C124.893 73.3086 125.034 73.25 125.18 73.25C125.489 73.25 125.739 73.5002 125.739 73.8063C125.739 73.9527 125.681 74.0965 125.577 74.2003L123.315 76.4629C123.102 76.6812 123.107 77.0325 123.325 77.2455H123.333H123.331Z" fill="#47989E"/>
<path d="M130.385 118.237L132.913 120.106C133.159 120.289 133.211 120.639 133.028 120.885C132.94 121.005 132.806 121.083 132.659 121.104L132.564 121.117C132.416 121.138 132.268 121.1 132.149 121.012L129.684 119.156C129.438 118.971 129.09 119.02 128.904 119.266L127.052 121.733C126.964 121.85 126.832 121.928 126.684 121.949L126.59 121.962C126.284 122.005 126.001 121.793 125.958 121.489C125.937 121.342 125.975 121.191 126.066 121.074L127.976 118.578C128.16 118.334 128.11 117.986 127.867 117.803L125.31 115.879C125.063 115.694 125.016 115.343 125.199 115.099C125.288 114.982 125.419 114.904 125.564 114.883C125.709 114.863 125.854 114.899 125.974 114.987L128.562 116.906C128.808 117.086 129.151 117.038 129.337 116.796L131.292 114.235C131.381 114.12 131.512 114.043 131.657 114.022C131.963 113.979 132.245 114.192 132.288 114.495C132.309 114.64 132.271 114.79 132.183 114.908L130.26 117.464C130.079 117.71 130.134 118.058 130.38 118.238L130.388 118.237L130.385 118.237Z" fill="#47989E"/>
<path d="M40.6094 161.543C40.6094 156.865 44.4003 153.074 49.0786 153.074H150.909C155.588 153.074 159.378 156.865 159.378 161.543" fill="white"/>
<path d="M160 161.535C160 166.551 155.933 170.618 150.917 170.618H49.0866C44.0711 170.618 40.0039 166.551 40.0039 161.535" fill="#4EA9B0"/>
<path d="M40 161.536C40 156.52 44.0672 152.453 49.0827 152.453H150.913C155.929 152.453 159.996 156.52 159.996 161.536" fill="#4EA9B0"/>
<path d="M158.775 161.537C158.77 157.201 155.255 153.686 150.916 153.681H49.0858C44.7473 153.6 41.1641 157.052 41.0834 161.39C41.0028 165.728 44.454 169.312 48.7925 169.392C48.8902 169.392 48.988 169.392 49.0858 169.392H150.916C155.255 169.387 158.77 165.873 158.775 161.534" fill="white"/>
<path d="M48.8981 154.996H126.961C130.547 154.996 133.453 157.902 133.453 161.488C133.453 165.073 130.547 167.98 126.961 167.98H48.8981C45.3124 167.98 42.4062 165.073 42.4062 161.488C42.4062 157.902 45.3124 154.996 48.8981 154.996Z" fill="#4EA9B0"/>
<path d="M81.3047 163.566C81.3291 163.353 81.3414 163.14 81.3389 162.928V160.586C81.3389 160.374 81.3291 160.163 81.3047 159.953H82.8861C83.744 159.953 84.2157 160.364 84.2157 161.117C84.2157 161.869 83.722 162.346 82.8836 162.346H82.1993V162.896C82.1993 163.113 82.209 163.331 82.2359 163.549L81.3047 163.566ZM82.8445 161.623C83.0792 161.652 83.2943 161.483 83.3212 161.249C83.3261 161.217 83.3261 161.187 83.3212 161.156C83.3432 160.926 83.1745 160.721 82.9448 160.699C82.9105 160.696 82.8763 160.699 82.8421 160.701H82.1944V161.623H82.8421H82.8445Z" fill="white"/>
<path d="M86.7906 163.566C86.7368 163.336 86.6659 163.111 86.5779 162.891C86.4386 162.515 86.3849 162.414 86.2773 162.319C86.1844 162.238 86.0622 162.197 85.94 162.204H85.5V162.915C85.4952 163.133 85.5074 163.351 85.5367 163.568H84.6055C84.6324 163.353 84.6421 163.135 84.6397 162.918V160.589C84.6421 160.376 84.6324 160.163 84.6055 159.953H86.3751C87.0766 159.953 87.475 160.317 87.475 160.938C87.5287 161.373 87.2379 161.776 86.8101 161.864C87.0301 161.933 87.1328 162.033 87.2697 162.341C87.3332 162.478 87.3943 162.617 87.5898 163.096C87.6387 163.219 87.6901 163.324 87.8001 163.553L86.793 163.568L86.7906 163.566ZM86.1747 161.464C86.3824 161.483 86.5682 161.329 86.5877 161.119C86.5877 161.099 86.5877 161.08 86.5877 161.063C86.5877 160.821 86.4508 160.694 86.1795 160.694H85.5V161.464H86.1747Z" fill="white"/>
<path d="M91.5475 161.751C91.5475 162.892 90.8509 163.65 89.7974 163.65C88.744 163.65 88.0547 162.909 88.0547 161.765C88.0547 160.621 88.7366 159.891 89.8023 159.891C90.868 159.891 91.5475 160.617 91.5475 161.751ZM90.648 161.751C90.648 161.049 90.3254 160.624 89.8023 160.624C89.2792 160.624 88.9493 161.054 88.9493 161.751C88.9493 162.447 89.2743 162.892 89.8023 162.892C90.3302 162.892 90.648 162.469 90.648 161.758V161.751Z" fill="white"/>
<path d="M94.292 161.223C94.2602 160.873 93.9571 160.614 93.6076 160.634C93.0796 160.634 92.7814 161.049 92.7814 161.766C92.7814 162.482 93.1016 162.897 93.6369 162.897C93.8593 162.902 94.072 162.799 94.204 162.621C94.2822 162.511 94.3262 162.384 94.3335 162.249L95.233 162.384C95.1866 162.675 95.0643 162.948 94.8761 163.176C94.5584 163.501 94.116 163.674 93.6614 163.648C93.1872 163.667 92.7277 163.496 92.3806 163.171C92.036 162.785 91.8551 162.279 91.8771 161.761C91.8526 161.235 92.0433 160.719 92.4026 160.336C92.7423 160.03 93.1872 159.869 93.6443 159.886C94.138 159.854 94.6146 160.067 94.9201 160.453C95.0595 160.624 95.1523 160.827 95.1963 161.044L94.292 161.22V161.223Z" fill="white"/>
<path d="M98.3459 163.597C98.1088 163.573 97.8717 163.56 97.6322 163.568H96.2707C95.9408 163.568 95.8186 163.568 95.6328 163.582C95.6621 163.372 95.6744 163.162 95.6695 162.949V160.588C95.6719 160.376 95.6621 160.165 95.6328 159.955H97.6468C97.8619 159.958 98.0795 159.948 98.2946 159.926V160.735C98.0795 160.71 97.8644 160.701 97.6468 160.705H96.5201V161.353H97.4562C97.6737 161.356 97.8888 161.346 98.1064 161.324V162.126C97.8913 162.101 97.6737 162.091 97.4562 162.096H96.5201V162.822H97.6371C97.8717 162.827 98.1088 162.817 98.341 162.793V163.604L98.3459 163.597Z" fill="white"/>
<path d="M99.5777 162.395C99.5826 162.51 99.6217 162.623 99.6901 162.716C99.8197 162.857 100.005 162.933 100.196 162.918C100.528 162.918 100.729 162.772 100.729 162.53C100.734 162.403 100.663 162.283 100.548 162.227C100.338 162.146 100.12 162.087 99.8979 162.048C99.651 162.019 99.4115 161.933 99.2013 161.799C98.93 161.613 98.7711 161.303 98.7809 160.973C98.7809 160.308 99.3186 159.873 100.172 159.873C100.629 159.831 101.078 160.017 101.374 160.369C101.484 160.523 101.56 160.699 101.592 160.887L100.673 160.99C100.621 160.714 100.467 160.592 100.135 160.592C99.8588 160.592 99.6779 160.736 99.6779 160.934C99.6804 161.058 99.7635 161.168 99.8808 161.21C100.074 161.281 100.274 161.33 100.477 161.354C100.724 161.393 100.959 161.476 101.176 161.599C101.484 161.782 101.665 162.124 101.643 162.481C101.655 162.777 101.545 163.063 101.34 163.275C101.022 163.544 100.614 163.676 100.201 163.644C99.8686 163.654 99.5361 163.581 99.238 163.432C99.0204 163.312 98.8542 163.116 98.7711 162.882C98.7222 162.752 98.688 162.618 98.6758 162.481L99.5752 162.4L99.5777 162.395Z" fill="white"/>
<path d="M102.886 162.395C102.889 162.51 102.928 162.623 102.999 162.716C103.126 162.857 103.314 162.933 103.505 162.918C103.837 162.918 104.035 162.772 104.035 162.53C104.04 162.403 103.969 162.283 103.854 162.227C103.644 162.146 103.426 162.085 103.204 162.048C102.957 162.019 102.718 161.933 102.507 161.799C102.236 161.613 102.077 161.303 102.087 160.973C102.087 160.308 102.625 159.873 103.478 159.873C103.935 159.831 104.385 160.017 104.68 160.369C104.793 160.523 104.866 160.699 104.898 160.887L103.981 160.99C103.93 160.714 103.771 160.592 103.444 160.592C103.167 160.592 102.984 160.736 102.984 160.934C102.987 161.058 103.07 161.168 103.187 161.21C103.38 161.281 103.58 161.33 103.783 161.354C104.03 161.393 104.267 161.476 104.485 161.599C104.793 161.784 104.971 162.124 104.949 162.481C104.961 162.777 104.854 163.065 104.646 163.275C104.331 163.544 103.923 163.676 103.51 163.644C103.175 163.654 102.842 163.581 102.544 163.432C102.327 163.312 102.16 163.116 102.077 162.882C102.028 162.752 101.997 162.618 101.984 162.481L102.884 162.4L102.886 162.395Z" fill="white"/>
<path d="M109.662 160.667C109.42 160.924 109.22 161.217 109.07 161.537C108.733 162.166 108.525 162.855 108.459 163.566H107.46C107.55 162.989 107.726 162.427 107.978 161.899C108.176 161.489 108.413 161.1 108.689 160.738H107.457C107.24 160.733 107.022 160.746 106.805 160.768V159.941C107.037 159.966 107.272 159.976 107.504 159.971H108.97C109.369 159.971 109.491 159.971 109.667 159.954V160.667H109.662Z" fill="white"/>
<path d="M111.104 161.181C111.104 161.203 111.104 161.245 111.089 161.318C111.294 161.174 111.541 161.1 111.79 161.113C112.135 161.098 112.472 161.228 112.722 161.467C112.944 161.699 113.061 162.012 113.047 162.332C113.047 163.158 112.497 163.657 111.583 163.657C111.111 163.691 110.654 163.493 110.358 163.127C110.256 162.98 110.182 162.816 110.141 162.643L111.011 162.508C111.06 162.775 111.307 162.96 111.578 162.929C111.881 162.96 112.152 162.743 112.184 162.44C112.186 162.411 112.189 162.381 112.184 162.349C112.16 162.012 111.866 161.76 111.531 161.785C111.324 161.799 111.14 161.919 111.04 162.1L110.236 162.022C110.253 161.892 110.265 161.787 110.28 161.668L110.395 160.316C110.395 160.225 110.409 160.12 110.412 159.959H112.14C112.377 159.966 112.617 159.954 112.854 159.93V160.687C112.619 160.665 112.384 160.656 112.15 160.658H111.145L111.104 161.186V161.181Z" fill="white"/>
<path d="M115.105 161.67C114.922 161.462 114.829 161.189 114.846 160.91C114.829 160.629 114.922 160.353 115.107 160.142C115.291 159.976 115.533 159.888 115.779 159.898C116.026 159.886 116.268 159.974 116.452 160.142C116.801 160.595 116.801 161.223 116.452 161.675C116.068 162.01 115.496 162.01 115.112 161.675L115.107 161.67H115.105ZM118.131 159.852L118.358 160.025L115.537 163.686L115.313 163.513L118.131 159.852ZM115.435 160.905C115.435 161.269 115.547 161.455 115.767 161.455C115.987 161.455 116.097 161.272 116.097 160.905C116.097 160.538 115.985 160.355 115.767 160.355C115.55 160.355 115.445 160.551 115.445 160.905H115.432H115.435ZM117.234 163.381C117.048 163.171 116.955 162.892 116.975 162.613C116.96 162.332 117.06 162.059 117.251 161.853C117.434 161.685 117.676 161.597 117.925 161.606C118.515 161.606 118.857 161.978 118.857 162.613C118.874 162.897 118.774 163.176 118.581 163.383C118.4 163.552 118.16 163.642 117.911 163.63C117.666 163.638 117.427 163.552 117.246 163.388L117.234 163.381ZM117.578 162.604C117.578 162.978 117.688 163.168 117.911 163.168C118.133 163.168 118.243 162.98 118.243 162.604C118.243 162.227 118.131 162.073 117.913 162.073C117.696 162.073 117.588 162.264 117.588 162.613L117.576 162.606L117.578 162.604Z" fill="white"/>
<defs>
<linearGradient id="paint0_linear_5989_3786" x1="93.3616" y1="-9.19566" x2="105.379" y2="182.586" gradientUnits="userSpaceOnUse">
<stop stop-color="white" stop-opacity="0"/>
<stop offset="0.14" stop-color="white" stop-opacity="0.22"/>
<stop offset="0.3" stop-color="white" stop-opacity="0.45"/>
<stop offset="0.45" stop-color="white" stop-opacity="0.65"/>
<stop offset="0.6" stop-color="white" stop-opacity="0.8"/>
<stop offset="0.73" stop-color="white" stop-opacity="0.91"/>
<stop offset="0.85" stop-color="white" stop-opacity="0.98"/>
<stop offset="0.94" stop-color="white"/>
</linearGradient>
<linearGradient id="paint1_linear_5989_3786" x1="51.1949" y1="141.822" x2="223.045" y2="-47.6311" gradientUnits="userSpaceOnUse">
<stop stop-color="#010101" stop-opacity="0"/>
<stop offset="0.95" stop-color="#010101"/>
</linearGradient>
<linearGradient id="paint2_linear_5989_3786" x1="100.709" y1="42.3187" x2="100.488" y2="31.3626" gradientUnits="userSpaceOnUse">
<stop stop-color="white" stop-opacity="0"/>
<stop offset="0.14" stop-color="white" stop-opacity="0.22"/>
<stop offset="0.3" stop-color="white" stop-opacity="0.45"/>
<stop offset="0.45" stop-color="white" stop-opacity="0.65"/>
<stop offset="0.6" stop-color="white" stop-opacity="0.8"/>
<stop offset="0.73" stop-color="white" stop-opacity="0.91"/>
<stop offset="0.85" stop-color="white" stop-opacity="0.98"/>
<stop offset="0.94" stop-color="white"/>
</linearGradient>
</defs>
</svg>
