<svg width="200" height="200" viewBox="0 0 200 200" fill="none" xmlns="http://www.w3.org/2000/svg">
<path d="M56.1157 69.6251L56.084 69.5977L56.1839 69.6299L56.118 69.6228L56.1157 69.6251Z" fill="white"/>
<path d="M56.4596 73.3146C56.2715 73.4495 56.1329 73.6388 56.0575 73.8578C56.039 73.9707 56.0386 74.086 56.0562 74.1991C56.0649 74.3031 56.0849 74.4071 56.1184 74.5067C56.1745 74.6244 56.2487 74.7309 56.3364 74.8262L56.539 75.062C56.5615 75.0937 56.5908 75.1209 56.6246 75.1414C56.7013 75.1688 56.7896 75.142 56.8395 75.0789C56.8872 75.0158 56.9214 74.9436 56.9353 74.8645C57.0565 74.4604 57.3889 73.8107 57.3205 73.3855C57.2432 72.8722 56.7136 73.0872 56.4573 73.3168L56.4596 73.3146Z" fill="#FFB4A3"/>
<path d="M56.8144 65.6341L43.8066 86.8906L48.1175 89.5282L61.1253 68.2717L56.8144 65.6341Z" fill="#4EA9B0"/>
<path d="M55.8048 70.0545L47.3638 83.8483C47.096 84.2859 47.2337 84.8577 47.6713 85.1254L47.9296 85.2835C48.3673 85.5513 48.9391 85.4136 49.2069 84.976L57.6479 71.1822C57.9157 70.7446 57.778 70.1728 57.3404 69.905L57.082 69.747C56.6444 69.4792 56.0725 69.6169 55.8048 70.0545Z" fill="url(#paint0_linear_5989_3739)"/>
<path d="M63.1693 68.0726C61.0779 69.4955 58.2275 68.9539 56.8023 66.8624C55.3793 64.771 55.921 61.9207 58.0125 60.4955C58.9596 59.8503 60.1133 59.5834 61.2473 59.748L60.1535 61.5431L58.9233 63.5659L62.1345 65.5283L63.3761 63.4897L64.4222 61.7759C65.7887 63.8648 65.2313 66.6654 63.1671 68.0726L63.1693 68.0726Z" fill="#4EA9B0"/>
<path d="M46.7499 93.9294C45.7738 94.4524 44.6387 94.5996 43.5615 94.3425L46.414 90.6509L43.4323 88.348L40.5707 92.0532L40.5527 92.0237C39.3676 89.7885 40.2187 87.0139 42.4561 85.8288C44.6914 84.6437 47.466 85.4948 48.6511 87.7322C49.8362 89.9674 48.9852 92.742 46.7477 93.9271L46.7499 93.9294Z" fill="#4EA9B0"/>
<g opacity="0.19">
<path d="M147.108 94.3043C146.742 94.2779 146.397 94.1119 146.15 93.8405C145.964 93.6379 145.784 93.4253 145.591 93.2288C145.263 92.8197 144.71 92.6638 144.218 92.844C143.714 93.0283 144.06 92.8015 144.046 93.3625V94.2273C144.056 94.9017 143.517 95.4546 142.843 95.4647C142.792 95.4647 142.741 95.4647 142.693 95.4566C142.174 95.4202 141.65 95.3797 141.119 95.3311C140.345 95.2622 139.75 94.6141 139.752 93.8364V92.9716C139.748 92.4451 139.438 91.9671 138.958 91.7524C138.531 91.5033 137.99 91.5641 137.631 91.9063C137.439 92.0744 137.263 92.2587 137.072 92.4248C136.503 92.9433 135.683 92.8643 135.126 92.2567C134.739 91.8354 134.348 91.4122 133.973 90.9848C133.41 90.3509 133.412 89.5388 133.973 88.994C134.152 88.8218 134.34 88.6618 134.514 88.4755C134.881 88.1332 134.99 87.5945 134.788 87.1368C134.626 86.6386 134.188 86.2821 133.665 86.2254C133.386 86.189 133.104 86.1829 132.825 86.1505C132.017 86.0857 131.407 85.387 131.454 84.5769V83.0437C131.411 82.3713 131.922 81.7921 132.594 81.7476C132.628 81.7455 132.663 81.7455 132.697 81.7455C132.985 81.7455 133.277 81.7759 133.564 81.8002C134.087 81.8792 134.593 81.5815 134.779 81.0873C134.994 80.5931 134.875 80.0888 134.453 79.6149C134.281 79.4225 134.105 79.2362 133.935 79.0418C133.42 78.5091 133.42 77.6666 133.935 77.134C134.344 76.7309 134.763 76.3401 135.195 75.9654C135.762 75.5056 136.592 75.5846 137.064 76.1416C137.259 76.3502 137.443 76.5689 137.643 76.7755C137.967 77.1623 138.498 77.3041 138.972 77.134C139.45 76.9861 139.77 76.5345 139.75 76.0342V75.2262C139.77 74.3614 140.339 73.8368 141.182 73.8996L142.646 74.0171C143.444 74.0697 144.062 74.736 144.056 75.536V76.3137C144.034 76.8606 144.34 77.3669 144.834 77.5978C145.285 77.861 145.859 77.7841 146.225 77.4114C146.399 77.2474 146.567 77.0813 146.744 76.9213C147.303 76.4292 148.153 76.4839 148.646 77.0428C148.656 77.053 148.664 77.0631 148.672 77.0752C149.075 77.5066 149.472 77.9441 149.863 78.3856C150.402 78.9243 150.402 79.7972 149.863 80.3339C149.672 80.5182 149.47 80.6904 149.284 80.8767C148.941 81.2027 148.832 81.703 149.008 82.1405C149.14 82.6306 149.545 83.0012 150.047 83.0863C150.343 83.143 150.645 83.149 150.942 83.1774C151.696 83.2118 152.281 83.8437 152.257 84.5971C152.275 85.1844 152.275 85.7698 152.257 86.3551C152.231 87.1874 151.562 88.2345 150.746 88.1717C150.487 88.1535 149.061 87.9125 148.868 88.4046C148.676 88.8968 148.927 89.2006 149.29 89.6178C149.476 89.8325 149.679 90.039 149.867 90.2537C150.404 90.7945 150.404 91.6653 149.867 92.2061C149.478 92.5868 149.089 92.9595 148.678 93.3321C148.405 93.6157 147.773 94.2982 147.108 94.3083V94.3043ZM136.26 84.2285C136.26 87.4507 138.768 90.2456 141.895 90.4967C144.439 90.517 146.649 88.7611 146.644 85.5652C146.659 82.4382 144.25 79.8357 141.131 79.6089C137.998 79.3476 136.264 81.0124 136.258 84.2285H136.26Z" fill="#7E7E7E"/>
</g>
<path d="M146.989 94.134C146.623 94.1097 146.278 93.9437 146.031 93.6723C145.845 93.4698 145.665 93.2571 145.472 93.0566C145.144 92.6475 144.591 92.4956 144.099 92.6759C143.613 92.8358 143.295 93.3017 143.321 93.812V94.6768C143.331 95.3512 142.793 95.9041 142.118 95.9143C142.067 95.9143 142.017 95.9143 141.968 95.9062C141.45 95.8697 140.925 95.8292 140.394 95.7806C139.621 95.7117 139.025 95.0636 139.027 94.2859V93.4212C139.023 92.8946 138.713 92.4166 138.233 92.2019C137.806 91.9508 137.265 92.0136 136.907 92.3559C136.714 92.524 136.538 92.7083 136.348 92.8743C135.778 93.3928 134.958 93.3138 134.401 92.7062C134.014 92.2829 133.623 91.8617 133.249 91.4344C132.686 90.8004 132.688 89.9883 133.249 89.4435C133.427 89.2714 133.615 89.1114 133.789 88.925C134.158 88.5828 134.268 88.044 134.063 87.5863C133.901 87.0881 133.463 86.7317 132.941 86.675C132.661 86.6385 132.38 86.6324 132.102 86.6C131.292 86.5372 130.682 85.8385 130.729 85.0264V83.4932C130.687 82.8209 131.197 82.2416 131.869 82.1971C131.904 82.195 131.938 82.195 131.973 82.195C132.26 82.195 132.552 82.2254 132.84 82.2497C133.362 82.3287 133.868 82.031 134.055 81.5368C134.27 81.0427 134.15 80.5384 133.729 80.0644C133.557 79.872 133.38 79.6857 133.21 79.4913C132.698 78.9587 132.698 78.1141 133.21 77.5815C133.619 77.1825 134.039 76.7896 134.47 76.4129C135.039 75.9552 135.868 76.0362 136.34 76.5911C136.534 76.7997 136.718 77.0184 136.919 77.225C137.243 77.6118 137.774 77.7536 138.247 77.5835C138.725 77.4356 139.046 76.984 139.025 76.4838V75.6757C139.046 74.8109 139.615 74.2843 140.457 74.3491C140.945 74.3876 141.433 74.4241 141.922 74.4666C142.72 74.5192 143.337 75.1856 143.331 75.9855V76.7633C143.309 77.3101 143.615 77.8164 144.109 78.0473C144.561 78.3106 145.134 78.2336 145.501 77.8609C145.675 77.6969 145.843 77.5308 146.019 77.3708C146.578 76.8787 147.429 76.9334 147.921 77.4924C147.931 77.5025 147.939 77.5126 147.947 77.5248C148.35 77.9561 148.747 78.3936 149.138 78.823C149.677 79.3617 149.677 80.2346 149.138 80.7713C148.948 80.9556 148.749 81.1277 148.559 81.314C148.217 81.6401 148.107 82.1404 148.284 82.5778C148.415 83.0679 148.82 83.4386 149.323 83.5236C149.618 83.5803 149.92 83.5824 150.218 83.6148C150.971 83.6492 151.557 84.2811 151.532 85.0345C151.551 85.6218 151.551 86.2071 151.532 86.7924C151.506 87.6248 150.992 88.0906 150.177 88.0258C149.918 88.0076 149.659 87.9772 149.4 87.9691C148.911 87.9367 148.464 88.2405 148.312 88.7063C148.117 89.1701 148.221 89.7048 148.571 90.0632C148.757 90.2779 148.96 90.4845 149.148 90.6972C149.685 91.2379 149.685 92.1108 149.148 92.6515C148.759 93.0323 148.371 93.4049 147.959 93.7776C147.706 94.0348 147.352 94.1685 146.991 94.1381L146.989 94.134ZM135.535 84.674C135.535 87.8921 138.045 90.6911 141.17 90.9422C144.295 91.1933 146.829 88.7833 146.829 85.5793C146.829 82.3753 144.297 79.5804 141.199 79.3293C138.1 79.0781 135.55 81.4578 135.533 84.674H135.535Z" fill="#4EA9B0"/>
<g opacity="0.19">
<path d="M157.38 82.9136C157.193 82.9015 157.017 82.8164 156.892 82.6767C156.796 82.5734 156.705 82.464 156.608 82.3627C156.44 82.1562 156.158 82.0772 155.907 82.1683C155.648 82.2615 155.826 82.1481 155.818 82.4276V82.8691C155.822 83.2154 155.545 83.4969 155.198 83.501C155.174 83.501 155.152 83.501 155.127 83.4969L154.325 83.4321C153.933 83.3916 153.633 83.0635 153.627 82.6686V82.2271C153.625 81.9597 153.467 81.7167 153.222 81.6073C153.003 81.4797 152.727 81.5101 152.543 81.6843C152.448 81.7693 152.357 81.8625 152.26 81.9435C151.974 82.1947 151.537 82.1683 151.285 81.8807C151.279 81.8726 151.271 81.8645 151.265 81.8564C151.069 81.6417 150.87 81.425 150.676 81.2083C150.396 80.9369 150.388 80.4894 150.66 80.2099C150.666 80.2038 150.67 80.1977 150.676 80.1937L150.951 79.9344C151.138 79.7582 151.192 79.4848 151.089 79.2519C151.008 78.9967 150.783 78.8124 150.518 78.7841C150.376 78.7658 150.232 78.7638 150.091 78.7476C149.681 78.7071 149.374 78.3547 149.39 77.9436V77.1659C149.37 76.8216 149.631 76.5279 149.975 76.5076C149.991 76.5076 150.01 76.5076 150.026 76.5076C150.172 76.5076 150.319 76.5239 150.467 76.536C150.735 76.5765 150.992 76.4246 151.087 76.1735C151.194 75.9122 151.127 75.6125 150.919 75.4241C150.834 75.3249 150.743 75.2297 150.66 75.1305C150.398 74.8591 150.398 74.4277 150.66 74.1563C150.868 73.9517 151.083 73.7512 151.302 73.5588C151.591 73.3279 152.013 73.3664 152.254 73.65C152.355 73.7573 152.448 73.8687 152.549 73.972C152.713 74.1705 152.985 74.2434 153.228 74.1563C153.473 74.0814 153.637 73.8525 153.627 73.5953V73.1821C153.602 72.8297 153.87 72.5259 154.22 72.5016C154.265 72.4976 154.311 72.5016 154.356 72.5077L155.103 72.5644C155.51 72.5948 155.824 72.935 155.822 73.3421V73.7391C155.812 74.0165 155.968 74.2738 156.219 74.3953C156.45 74.5289 156.744 74.4905 156.93 74.3001C157.019 74.217 157.104 74.132 157.189 74.0408C157.473 73.7897 157.906 73.816 158.157 74.0996C158.163 74.1057 158.167 74.1117 158.174 74.1198C158.378 74.3406 158.583 74.5613 158.783 74.7862C159.057 75.0616 159.057 75.5051 158.783 75.7806C158.688 75.8758 158.587 75.9628 158.49 76.058C158.313 76.2221 158.259 76.4793 158.35 76.7021C158.415 76.9492 158.617 77.1375 158.868 77.1841C159.018 77.2125 159.172 77.2145 159.322 77.2307C159.707 77.2469 160.006 77.5709 159.992 77.9557C160.002 78.2534 160.002 78.5512 159.992 78.8509C159.98 79.2762 159.64 79.8089 159.215 79.7825C159.079 79.7825 158.352 79.6529 158.255 79.9C158.157 80.1471 158.285 80.3071 158.469 80.5197C158.564 80.6291 158.67 80.7324 158.765 80.8418C159.036 81.1192 159.036 81.5628 158.765 81.8382C158.564 82.0326 158.36 82.223 158.157 82.4114C158.038 82.5592 157.716 82.9076 157.376 82.9116L157.38 82.9136ZM151.849 77.7755C151.846 79.42 153.086 80.8013 154.722 80.9734C156.021 80.9734 157.147 80.0884 157.147 78.4539C157.153 76.86 155.923 75.5335 154.334 75.416C152.738 75.2864 151.853 76.135 151.849 77.7755Z" fill="#7E7E7E"/>
</g>
<path d="M157.322 82.8251C157.134 82.813 156.96 82.73 156.834 82.5882C156.739 82.4849 156.648 82.3776 156.549 82.2763C156.38 82.0677 156.099 81.9887 155.848 82.0798C155.601 82.1629 155.437 82.3998 155.451 82.6611V83.1006C155.457 83.4429 155.185 83.7264 154.843 83.7325C154.815 83.7325 154.789 83.7325 154.762 83.7284L153.96 83.6656C153.565 83.6312 153.263 83.2991 153.265 82.9021V82.4606C153.261 82.1912 153.103 81.9502 152.86 81.8368C152.642 81.7112 152.368 81.7436 152.186 81.9178C152.087 82.0029 151.996 82.096 151.9 82.177C151.613 82.4282 151.177 82.3998 150.926 82.1122C150.92 82.1041 150.912 82.096 150.906 82.0879C150.71 81.8753 150.511 81.6606 150.319 81.4398C150.039 81.1685 150.031 80.7209 150.302 80.4414C150.309 80.4353 150.313 80.4292 150.319 80.4252C150.41 80.3401 150.503 80.2571 150.594 80.1659C150.78 79.9897 150.837 79.7143 150.732 79.4814C150.651 79.2262 150.426 79.0439 150.161 79.0176C150.019 78.9994 149.875 78.9974 149.733 78.9811C149.324 78.9406 149.016 78.5882 149.033 78.1771V77.3994C149.01 77.0571 149.272 76.7635 149.612 76.7412C149.63 76.7412 149.648 76.7412 149.664 76.7412C149.81 76.7412 149.958 76.7574 150.106 76.7675C150.371 76.808 150.631 76.6581 150.726 76.407C150.833 76.1458 150.766 75.846 150.56 75.6536C150.471 75.5584 150.381 75.4612 150.3 75.3599C150.039 75.0886 150.039 74.6572 150.3 74.3858C150.511 74.1812 150.724 73.9827 150.944 73.7924C151.234 73.5595 151.657 73.6 151.896 73.8835C151.996 73.9908 152.089 74.1022 152.19 74.2055C152.354 74.402 152.625 74.4749 152.869 74.3878C153.116 74.3149 153.28 74.084 153.272 73.8268V73.4177C153.249 73.0633 153.519 72.7574 153.873 72.7352C153.916 72.7331 153.96 72.7352 154.003 72.7392L154.748 72.798C155.155 72.8283 155.469 73.1686 155.467 73.5757V73.9746C155.455 74.2521 155.611 74.5093 155.862 74.6288C156.093 74.7645 156.384 74.726 156.573 74.5357C156.662 74.4526 156.747 74.3676 156.832 74.2764C157.116 74.0273 157.549 74.0536 157.8 74.3372C157.804 74.3432 157.81 74.3473 157.814 74.3534C158.023 74.5741 158.223 74.7969 158.424 75.0237C158.697 75.2992 158.697 75.7427 158.424 76.0182C158.325 76.1113 158.223 76.2004 158.128 76.2936C157.954 76.4597 157.899 76.7169 157.989 76.9397C158.053 77.1867 158.256 77.3751 158.507 77.4217C158.659 77.444 158.811 77.4581 158.965 77.4662C159.35 77.4845 159.647 77.8085 159.635 78.1933V79.0885C159.657 79.4166 159.408 79.7022 159.078 79.7224C159.032 79.7244 158.987 79.7224 158.942 79.7163C158.811 79.7163 158.683 79.69 158.543 79.688C158.294 79.6718 158.065 79.8257 157.989 80.0647C157.891 80.2996 157.942 80.573 158.12 80.7553C158.215 80.8667 158.321 80.97 158.416 81.0793C158.689 81.3548 158.689 81.8003 158.416 82.0758C158.215 82.2702 158.011 82.4606 157.808 82.6489C157.681 82.7745 157.506 82.8373 157.328 82.8251H157.322ZM151.479 77.9989C151.473 79.6475 152.715 81.0328 154.353 81.2069C155.821 81.3285 157.112 80.2348 157.231 78.7665C157.239 78.6672 157.241 78.57 157.239 78.4708C157.231 76.8343 155.996 75.4632 154.369 75.283C152.909 75.1534 151.619 76.2328 151.489 77.6931C151.481 77.7943 151.477 77.8956 151.479 77.9969V77.9989Z" fill="#4EA9B0"/>
<path d="M56.3867 123.915L70.0074 75.875L123.454 87.6796L109.012 140.376L56.3867 123.915Z" fill="#4EA9B0"/>
<path d="M130.735 129.417L123.45 87.6836L112.162 128.865L130.735 129.417Z" fill="#4EA9B0"/>
<path d="M130.735 129.417L123.45 87.6836L112.162 128.865L130.735 129.417Z" fill="url(#paint1_linear_5989_3739)"/>
<path d="M74.5567 96.2052L68.1934 94.5937L70.2057 86.9023L76.6092 88.3937L74.5567 96.2052Z" fill="#FBFBFB"/>
<path d="M81.9283 98.0689L75.3359 96.4001L77.3969 88.5742L84.0351 90.1199L81.9283 98.0689Z" fill="#FBFBFB"/>
<path d="M89.572 100.009L82.7363 98.2797L84.846 90.3164L91.7275 91.9165L89.572 100.009Z" fill="#FBFBFB"/>
<path d="M97.5065 102.017L90.416 100.22L92.5801 92.1133L99.7192 93.7763L97.5065 102.017Z" fill="#FBFBFB"/>
<path d="M105.743 104.102L98.3809 102.239L100.596 93.9805L108.01 95.7065L105.743 104.102Z" fill="#FBFBFB"/>
<path d="M114.293 106.262L106.645 104.327L108.92 95.9141L116.623 97.7088L114.293 106.262Z" fill="#FBFBFB"/>
<path d="M72.2053 105.147L65.8906 103.401L67.8944 95.7383L74.252 97.367L72.2053 105.147Z" fill="#FBFBFB"/>
<path d="M79.5213 107.17L72.9805 105.361L75.03 97.5664L81.6167 99.2524L79.5213 107.17Z" fill="#FBFBFB"/>
<path d="M87.1016 109.267L80.3203 107.389L82.4243 99.457L89.2514 101.206L87.1016 109.267Z" fill="#FBFBFB"/>
<path d="M94.9736 111.443L87.9375 109.497L90.093 101.422L97.1777 103.237L94.9736 111.443Z" fill="#FBFBFB"/>
<path d="M103.146 113.706L95.8438 111.685L98.0536 103.461L105.407 105.347L103.146 113.706Z" fill="#FBFBFB"/>
<path d="M111.632 116.055L104.043 113.954L106.31 105.578L113.95 107.536L111.632 116.055Z" fill="#FBFBFB"/>
<path d="M69.8589 114.051L63.5957 112.17L65.5909 104.539L71.8999 106.302L69.8589 114.051Z" fill="#FBFBFB"/>
<path d="M77.123 116.235L70.6309 114.285L72.6747 106.52L79.2098 108.349L77.123 116.235Z" fill="#FBFBFB"/>
<path d="M84.6468 118.491L77.9199 116.471L80.0124 108.57L86.788 110.465L84.6468 118.491Z" fill="#FBFBFB"/>
<path d="M92.4515 120.839L85.4727 118.744L87.6167 110.703L94.647 112.667L92.4515 120.839Z" fill="#FBFBFB"/>
<path d="M100.558 123.268L93.3125 121.093L95.5109 112.906L102.807 114.947L100.558 123.268Z" fill="#FBFBFB"/>
<path d="M108.973 125.799L101.447 123.54L103.703 115.199L111.283 117.32L108.973 125.799Z" fill="#FBFBFB"/>
<path d="M67.526 122.925L61.3086 120.91L63.298 113.305L69.5584 115.205L67.526 122.925Z" fill="#FBFBFB"/>
<path d="M74.7297 125.258L68.2891 123.172L70.3243 115.438L76.8079 117.404L74.7297 125.258Z" fill="#FBFBFB"/>
<path d="M82.1988 127.681L75.5234 125.517L77.6073 117.648L84.3285 119.686L82.1988 127.681Z" fill="#FBFBFB"/>
<path d="M89.942 130.191L83.0176 127.947L85.1559 119.938L92.129 122.053L89.942 130.191Z" fill="#FBFBFB"/>
<path d="M97.9788 132.798L90.791 130.468L92.9808 122.312L100.217 124.508L97.9788 132.798Z" fill="#FBFBFB"/>
<path d="M106.333 135.5L98.8672 133.081L101.114 124.777L108.634 127.059L106.333 135.5Z" fill="#FBFBFB"/>
<path d="M112.165 91.9009C108.871 91.9009 106.191 89.2216 106.191 85.927C106.191 82.6324 108.871 79.9531 112.165 79.9531C115.46 79.9531 118.14 82.6324 118.14 85.927C118.14 86.2419 117.882 86.4995 117.567 86.4995C117.252 86.4995 116.995 86.2419 116.995 85.927C116.995 83.2649 114.828 81.0981 112.165 81.0981C109.503 81.0981 107.336 83.2649 107.336 85.927C107.336 88.589 109.503 90.7559 112.165 90.7559C112.48 90.7559 112.738 91.0135 112.738 91.3284C112.738 91.6432 112.48 91.9009 112.165 91.9009Z" fill="white"/>
<path d="M94.6499 87.8891C91.3551 87.8891 88.6758 85.2099 88.6758 81.9153C88.6758 78.6206 91.3551 75.9414 94.6499 75.9414C97.9446 75.9414 100.624 78.6206 100.624 81.9153C100.624 82.2301 100.366 82.4878 100.051 82.4878C99.7365 82.4878 99.4789 82.2301 99.4789 81.9153C99.4789 79.2532 97.312 77.0864 94.6499 77.0864C91.9877 77.0864 89.8208 79.2532 89.8208 81.9153C89.8208 84.5773 91.9877 86.7442 94.6499 86.7442C94.9647 86.7442 95.2224 87.0018 95.2224 87.3167C95.2224 87.6315 94.9647 87.8891 94.6499 87.8891Z" fill="white"/>
<path d="M77.2963 83.8735C74.0016 83.8735 71.3223 81.1943 71.3223 77.8997C71.3223 74.605 74.0016 71.9258 77.2963 71.9258C80.5911 71.9258 83.2704 74.605 83.2704 77.8997C83.2704 78.2145 83.0128 78.4721 82.6979 78.4721C82.383 78.4721 82.1254 78.2145 82.1254 77.8997C82.1254 75.2376 79.9585 73.0707 77.2963 73.0707C74.6342 73.0707 72.4673 75.2376 72.4673 77.8997C72.4673 80.5617 74.6342 82.7286 77.2963 82.7286C77.6112 82.7286 77.8688 82.9862 77.8688 83.301C77.8688 83.6159 77.6112 83.8735 77.2963 83.8735Z" fill="white"/>
<path d="M96.0342 117.793L96.6398 119.878C96.6963 120.071 96.8996 120.183 97.0924 120.126C97.1249 120.116 97.1567 120.101 97.1861 120.083L101.35 117.428C101.519 117.32 101.57 117.095 101.462 116.926C101.415 116.851 101.343 116.797 101.259 116.772L101.234 116.764C101.131 116.734 101.018 116.75 100.929 116.809L97.6395 118.994C97.4729 119.104 97.2474 119.061 97.1373 118.894C97.1168 118.865 97.1013 118.831 97.0912 118.796L96.7294 117.594C96.6871 117.459 96.572 117.359 96.4312 117.339C96.233 117.315 96.0514 117.457 96.0274 117.655C96.0216 117.699 96.0248 117.744 96.0357 117.788L96.0342 117.793Z" fill="#47989E"/>
<path d="M92.6865 96.6054L93.2922 98.6907C93.3486 98.8835 93.552 98.9952 93.7448 98.9388C93.7772 98.9283 93.809 98.9139 93.8384 98.8951L98.0024 96.2402C98.1718 96.1328 98.2222 95.9076 98.1148 95.7381C98.0673 95.6635 97.9954 95.6092 97.9111 95.5841L97.8859 95.5766C97.7831 95.5461 97.6702 95.5621 97.5809 95.6218L94.2918 97.8065C94.1253 97.9166 93.8997 97.8735 93.7896 97.7069C93.7692 97.677 93.7536 97.643 93.7436 97.6089L93.3818 96.4066C93.3395 96.2712 93.2244 96.171 93.0836 96.1512C92.8854 96.1272 92.7038 96.2695 92.6797 96.4677C92.674 96.5118 92.6771 96.5568 92.688 96.6004L92.6865 96.6054Z" fill="#47989E"/>
<path d="M80.5636 123.051L81.382 124.531C81.4616 124.676 81.4087 124.859 81.2641 124.939C81.1942 124.978 81.1111 124.986 81.0343 124.963L80.9848 124.948C80.9079 124.926 80.8442 124.874 80.8051 124.804L80.0151 123.344C79.9359 123.198 79.7547 123.144 79.6087 123.223L78.15 124.015C78.0805 124.053 77.9988 124.062 77.9219 124.039L77.8725 124.024C77.7133 123.977 77.6225 123.809 77.6694 123.651C77.6922 123.575 77.7445 123.509 77.8153 123.472L79.3088 122.679C79.4531 122.6 79.5069 122.419 79.4287 122.275L78.6083 120.761C78.5291 120.615 78.5847 120.433 78.729 120.355C78.7984 120.317 78.8801 120.309 78.9557 120.331C79.0312 120.353 79.094 120.403 79.133 120.473L79.9699 121.992C80.0498 122.135 80.2283 122.188 80.3735 122.112L81.9035 121.296C81.9725 121.26 82.0542 121.251 82.1297 121.274C82.289 121.321 82.3797 121.488 82.3328 121.646C82.3104 121.722 82.2582 121.787 82.1888 121.825L80.6753 122.645C80.532 122.725 80.4809 122.907 80.5609 123.05L80.565 123.052L80.5636 123.051Z" fill="#47989E"/>
<defs>
<linearGradient id="paint0_linear_5989_3739" x1="37.8131" y1="65.0637" x2="68.2081" y2="91.3286" gradientUnits="userSpaceOnUse">
<stop stop-color="#231F20"/>
<stop offset="0.13" stop-color="#231F20" stop-opacity="0.69"/>
<stop offset="0.25" stop-color="#231F20" stop-opacity="0.32"/>
<stop offset="1" stop-color="#231F20" stop-opacity="0"/>
</linearGradient>
<linearGradient id="paint1_linear_5989_3739" x1="102.435" y1="109.146" x2="132.152" y2="108.427" gradientUnits="userSpaceOnUse">
<stop/>
<stop offset="0.08" stop-opacity="0.69"/>
<stop offset="0.21" stop-opacity="0.32"/>
<stop offset="1" stop-opacity="0"/>
</linearGradient>
</defs>
</svg>
