<svg width="200" height="200" viewBox="0 0 200 200" fill="none" xmlns="http://www.w3.org/2000/svg">
<path d="M70.8199 71.9905H51.7644C51.7644 71.9905 47.8621 53.2363 56.5879 52.9346C65.3137 52.6329 72.3721 60.1083 70.8199 71.9905Z" fill="#4EA9B0"/>
<path d="M66.578 142.511C60.0356 141.363 66.8519 68.8953 66.578 61.6302C66.3041 54.3651 56.5938 52.9042 56.5938 52.9042C56.5938 52.9042 123.383 50.2999 127.031 52.265C130.68 54.2301 132.883 57.1918 132.565 71.0907C132.248 84.9896 132.597 143.233 132.597 143.233C132.597 143.233 71.2625 143.333 66.578 142.511Z" fill="#F2F2F2"/>
<path d="M78.1891 129.367H138.635C138.635 129.367 139.583 143.222 131.584 143.473C123.585 143.723 67.3672 142.778 67.3672 142.778C67.3672 142.778 80.2098 139.693 78.1891 129.367Z" fill="#4EA9B0"/>
<path opacity="0.51" d="M122.117 62.9844H77.7812C77.2462 62.9844 76.8125 63.4181 76.8125 63.9531V64.3064C76.8125 64.8414 77.2462 65.2751 77.7812 65.2751H122.117C122.652 65.2751 123.085 64.8414 123.085 64.3064V63.9531C123.085 63.4181 122.652 62.9844 122.117 62.9844Z" fill="#4EA9B0"/>
<path opacity="0.51" d="M122.117 70.4141H77.7812C77.2462 70.4141 76.8125 70.8477 76.8125 71.3827V71.7361C76.8125 72.271 77.2462 72.7047 77.7812 72.7047H122.117C122.652 72.7047 123.085 72.271 123.085 71.7361V71.3827C123.085 70.8477 122.652 70.4141 122.117 70.4141Z" fill="#4EA9B0"/>
<path opacity="0.51" d="M122.117 77.8398H77.7812C77.2462 77.8398 76.8125 78.2735 76.8125 78.8085V79.1618C76.8125 79.6968 77.2462 80.1305 77.7812 80.1305H122.117C122.652 80.1305 123.085 79.6968 123.085 79.1618V78.8085C123.085 78.2735 122.652 77.8398 122.117 77.8398Z" fill="#4EA9B0"/>
<path opacity="0.51" d="M122.117 85.2734H77.7812C77.2462 85.2734 76.8125 85.7071 76.8125 86.2421V86.5954C76.8125 87.1304 77.2462 87.5641 77.7812 87.5641H122.117C122.652 87.5641 123.085 87.1304 123.085 86.5954V86.2421C123.085 85.7071 122.652 85.2734 122.117 85.2734Z" fill="#4EA9B0"/>
<path opacity="0.51" d="M122.117 92.6992H77.7812C77.2462 92.6992 76.8125 93.1329 76.8125 93.6679V94.0212C76.8125 94.5562 77.2462 94.9899 77.7812 94.9899H122.117C122.652 94.9899 123.085 94.5562 123.085 94.0212V93.6679C123.085 93.1329 122.652 92.6992 122.117 92.6992Z" fill="#4EA9B0"/>
<path opacity="0.51" d="M113.859 100.852H77.535C77.136 100.852 76.8125 101.175 76.8125 101.574V101.693C76.8125 102.092 77.136 102.416 77.535 102.416H113.859C114.258 102.416 114.582 102.092 114.582 101.693V101.574C114.582 101.175 114.258 100.852 113.859 100.852Z" fill="#4EA9B0"/>
<path d="M49.0742 107.263L50.3486 105.969C50.4716 105.822 50.6344 105.707 50.817 105.644C50.9718 105.616 51.1346 105.628 51.2854 105.675C52.7543 106.092 54.1517 106.735 55.43 107.577C56.4781 108.212 58.0342 108.832 58.8759 109.661C57.6849 110.098 55.8389 109.352 54.6916 109.05C54.0683 108.883 49.2767 107.057 49.0742 107.263Z" fill="#4EA9B0"/>
<path d="M52.1327 121.872L51.6404 120.125C51.5729 119.942 51.557 119.748 51.5928 119.557C51.6483 119.406 51.7357 119.271 51.8508 119.16C52.9425 118.088 54.1891 117.191 55.5547 116.5C56.6266 115.901 57.9366 114.857 59.0681 114.535C58.8616 115.778 57.2975 117.02 56.4678 117.87C56.0152 118.334 52.0533 121.582 52.1327 121.872Z" fill="#4EA9B0"/>
<path d="M54.8281 98.1623L56.6265 97.9043C56.8131 97.8606 57.0116 97.8646 57.1942 97.9241C57.3371 97.9956 57.4602 98.1028 57.5515 98.2338C58.4725 99.4566 59.195 100.81 59.6992 102.255C60.1517 103.395 61.0172 104.828 61.1839 105.999C59.9929 105.63 58.9528 103.915 58.2224 102.982C57.8254 102.458 55.114 98.1028 54.8281 98.1623Z" fill="#4EA9B0"/>
<path opacity="0.51" d="M88.9833 105.707C83.9058 105.707 79.7891 109.824 79.7891 114.902C79.7891 119.979 83.9058 124.096 88.9833 124.096C94.0608 124.096 98.1776 119.979 98.1776 114.902C98.1776 109.824 94.0608 105.707 88.9833 105.707ZM88.9833 122.83C84.5966 122.83 81.0435 119.276 81.0435 114.89C81.0435 110.503 84.5966 106.95 88.9833 106.95C93.37 106.95 96.9231 110.503 96.9231 114.89C96.9151 119.269 93.3621 122.818 88.9833 122.818V122.83Z" fill="#4EA9B0"/>
<path d="M83.6133 114.637L87.5792 118.48L94.7567 111.799L93.6611 110.703L87.5196 115.9L85.0305 113.411L83.6133 114.637Z" fill="#4EA9B0"/>
<path d="M123.59 78.0936C123.062 74.7736 124.201 70.9402 127.142 69.3013C128.886 68.3236 130.975 68.2533 132.972 68.204L146.519 67.8594C146.02 72.15 147.173 76.4688 149.748 79.9435C152.111 83.0946 155.536 85.4017 157.717 88.6513C161.276 94.3276 160.622 101.678 156.106 106.63C149.727 105.744 143.227 106.137 137.003 107.776C138.367 104.069 135.948 100.067 133.261 97.1482C128.668 92.1401 124.659 84.9727 123.583 78.0865L123.59 78.0936Z" fill="#4EA9B0"/>
<path d="M125.715 79.5587C125.032 76.4568 125.827 72.7921 128.282 71.0829C129.745 70.07 131.553 69.8872 133.283 69.7184L145.022 68.6562C144.818 72.6937 146.056 76.6678 148.511 79.8752C150.747 82.7239 153.863 84.6511 155.945 87.6476C159.356 92.5642 159.237 100.013 155.608 104.705C150.016 104.212 144.389 104.937 139.1 106.822C140.091 103.256 137.735 99.6191 135.224 97.0166C130.955 92.522 127.051 85.9805 125.715 79.5587Z" fill="url(#paint0_linear_5989_3787)"/>
<path d="M135.539 89.3084L137.03 88.8441C136.58 86.7973 137.389 85.3061 138.922 84.659L139.372 86.108C138.493 86.5511 138.008 87.5218 138.184 88.4924L142.158 87.2545C142.158 84.863 142.699 83.7587 144.204 83.2804C145.864 82.7669 147.363 83.7094 148.024 85.4327L149.135 85.0881L149.43 86.0306L148.298 86.3753C148.762 88.6261 147.567 89.7867 146.582 90.1876L146.146 88.7738C146.884 88.3799 147.292 87.5569 147.173 86.727L143.593 87.8313C143.649 90.5604 142.819 91.6225 141.356 92.0727C139.534 92.6424 138.085 91.7491 137.319 89.7796L135.82 90.2439L135.553 89.3013L135.539 89.3084ZM143.6 86.8465L146.934 85.8196C146.715 84.9615 145.843 84.441 144.985 84.652C144.936 84.666 144.887 84.6801 144.838 84.6942C144.036 84.9122 143.642 85.482 143.593 86.8465H143.6ZM142.179 88.3096L138.465 89.4631C138.929 90.5604 139.696 90.9894 140.765 90.6659C141.63 90.3564 142.123 89.7937 142.179 88.2744V88.3096Z" fill="white"/>
<path d="M42.519 95.8827L61.2211 94.8541C61.9996 94.8117 62.8771 94.722 63.3631 94.1181C63.8491 93.5142 63.7594 92.6602 63.6603 91.8959C63.0942 87.4608 63.0281 82.9786 63.4622 78.5294C63.6179 76.9158 63.8679 75.2362 64.8068 73.9151C65.7457 72.594 67.5527 71.7684 69.0341 72.4572C69.2795 72.6082 69.5484 72.7167 69.8315 72.7828C70.7468 72.8818 71.1572 71.4711 70.5722 70.7587C69.9872 70.0462 68.9634 69.9188 68.0434 69.8434C63.1036 69.4706 58.1403 69.6735 53.21 69.2913C50.3744 69.0696 47.4823 68.159 44.8449 69.6263C36.7771 74.118 40.8441 89.0131 42.5142 95.8827H42.519Z" fill="#4EA9B0"/>
<path d="M43.7749 70.292C43.7749 70.292 39.958 72.7077 44.6902 90.1648C44.6902 90.1648 46.5207 90.1034 46.4783 92.2124L58.7545 91.2971C58.7545 91.2971 58.0563 89.6033 60.3351 89.1362C60.3351 89.1362 57.0041 76.6285 57.7024 74.2883C58.0987 72.8021 57.9336 71.2215 57.2448 69.8485C57.2448 69.8485 51.2435 69.1455 50.2338 69.0653C49.2242 68.9851 46.6576 67.9518 43.7749 70.292Z" fill="url(#paint1_linear_5989_3787)"/>
<path d="M55.8186 74.9048H54.5211C54.3843 76.6175 53.37 77.613 52.0017 77.7592V76.5042C52.8038 76.3627 53.4218 75.7116 53.5256 74.9001H50.0768C49.5106 76.8015 48.7982 77.5422 47.4725 77.5469C46.0287 77.5469 45.0757 76.4382 44.9719 74.9142H44V74.098H44.9861C45.1701 72.2013 46.392 71.5832 47.2743 71.4983V72.725C46.5902 72.8571 46.0618 73.4091 45.9674 74.098H49.0766C49.6993 71.9135 50.6099 71.2812 51.8838 71.2812C53.4643 71.2812 54.3938 72.3287 54.5259 74.0838H55.828V74.9001L55.8186 74.9048ZM48.8312 74.9048H45.9344C46.024 75.9333 46.6374 76.2778 47.3073 76.2778C47.9773 76.2778 48.4585 75.9899 48.8312 74.9236V74.9048ZM50.3127 74.0838H53.5162C53.4171 73.0977 52.917 72.574 51.9876 72.574C51.2516 72.5929 50.7232 72.9184 50.3127 74.1027V74.0838Z" fill="white"/>
<path d="M109.575 112.934C117.168 117.905 122.203 125.943 129.179 131.749L123.02 148.469L118.983 144.069C115.526 140.34 112.025 136.566 107.824 133.682C103.624 130.797 98.6075 128.882 93.5273 129.218C93.5273 129.218 96.0947 113.705 97.3738 112.172C101.111 107.672 104.785 109.795 109.575 112.925V112.934Z" fill="#4EA9B0"/>
<path d="M99.6515 113.57L98.3633 123.068C100.141 123.467 101.457 124.964 101.62 126.779C101.62 126.779 114.384 130.997 119.101 140.042C119.101 140.042 122.304 139.162 123.501 140.605L126.023 134.445C126.023 134.445 124.345 132.313 124.789 130.571C124.789 130.571 112.588 114.305 104.949 112.926C103.28 113.642 101.439 113.86 99.6424 113.57H99.6515Z" fill="white"/>
<path d="M112.655 131.125L112.891 129.964C111.584 129.719 110.686 128.512 110.822 127.188L111.938 127.414C111.911 128.158 112.373 128.83 113.072 129.065L113.716 125.99C112.129 125.11 111.602 124.366 111.847 123.187C112.119 121.935 113.353 121.146 114.596 121.418C114.614 121.418 114.632 121.418 114.651 121.427L114.823 120.547L115.558 120.692L115.376 121.572C116.556 121.808 117.372 122.897 117.263 124.094L116.175 123.867C116.175 123.232 115.794 122.67 115.195 122.452L114.623 125.219C116.447 126.19 116.837 127.115 116.601 128.249C116.311 129.655 115.195 130.281 113.607 130.073L113.371 131.234L112.646 131.116L112.655 131.125ZM113.952 124.901L114.487 122.325C113.843 122.153 113.181 122.534 113.009 123.178C112.999 123.214 112.99 123.259 112.981 123.296C112.845 123.922 113.063 124.375 113.952 124.911V124.901ZM114.396 126.371L113.798 129.238C114.496 129.419 115.213 129.002 115.394 128.303C115.403 128.258 115.413 128.213 115.422 128.158C115.567 127.487 115.367 126.952 114.387 126.371H114.396Z" fill="#4EA9B0"/>
<defs>
<linearGradient id="paint0_linear_5989_3787" x1="165.764" y1="74.7475" x2="57.9372" y2="134.174" gradientUnits="userSpaceOnUse">
<stop stop-color="#231F20" stop-opacity="0"/>
<stop offset="1" stop-color="#231F20"/>
</linearGradient>
<linearGradient id="paint1_linear_5989_3787" x1="57.5986" y1="62.71" x2="37.0224" y2="123.654" gradientUnits="userSpaceOnUse">
<stop stop-color="white" stop-opacity="0"/>
<stop offset="0.95" stop-color="white"/>
</linearGradient>
</defs>
</svg>
