<svg width="200" height="200" viewBox="0 0 200 200" fill="none" xmlns="http://www.w3.org/2000/svg">
<path opacity="0.18" d="M50.4772 123.823C50.87 120.187 51.6682 116.595 52.8529 113.133C54.2878 117.384 58.2948 120.649 62.7484 121.194C65.2667 121.502 68.0193 120.906 69.7741 119.075C69.185 123.494 68.9854 127.967 69.185 132.423C66.3785 132.705 63.5435 132.674 60.7465 132.328C59.0994 132.126 57.4332 131.806 55.9698 131.023C54.7883 130.39 53.7842 129.481 52.7927 128.581C51.7506 127.637 50.6483 126.582 50.4297 125.195" fill="#4EA9B0"/>
<path opacity="0.18" d="M150.251 127.688C152.291 126.712 153.894 124.751 154.192 122.512C155.408 126.262 156.634 130.076 156.723 134.016C154.271 134.78 151.778 135.499 149.216 135.682C146.653 135.866 143.986 135.48 141.781 134.162C142.469 133.313 143.001 132.334 143.349 131.299C143.536 130.738 143.549 128.647 143.942 128.331C144.35 128.001 146.4 128.527 147.02 128.492C148.135 128.429 149.244 128.172 150.255 127.691L150.251 127.688Z" fill="#4EA9B0"/>
<path opacity="0.18" d="M146.779 68.8366C147.147 68.7321 147.517 68.6117 147.815 68.371C148.246 68.0257 148.461 67.4873 148.642 66.9678C149.532 64.4179 149.956 61.377 148.373 59.1914C149.732 60.1037 151.198 60.8449 152.573 61.7318C155.617 63.6989 158.186 66.3945 160.001 69.5335C158.598 74.855 153.602 79.0267 148.116 79.4575C145.389 76.0397 142.364 72.7137 139.887 69.1154C140.945 69.3625 141.813 69.7236 142.915 69.6032C144.207 69.4638 145.531 69.1946 146.779 68.8366Z" fill="#4EA9B0"/>
<path d="M146.779 68.0398C147.147 67.9352 147.517 67.8149 147.815 67.5741C148.246 67.2289 148.461 66.6904 148.642 66.1709C149.532 63.621 149.956 60.5802 148.373 58.3945C149.732 59.3068 151.198 60.048 152.573 60.9349C155.617 62.902 158.186 65.5976 160.001 68.7366C158.598 74.0581 153.602 78.2298 148.116 78.6606C145.389 75.2428 142.364 71.9169 139.887 68.3185C140.945 68.5656 141.813 68.9267 142.915 68.8063C144.207 68.6669 145.531 68.3977 146.779 68.0398Z" fill="url(#paint0_linear_5989_3738)"/>
<path d="M50.4772 123.007C50.87 119.371 51.6682 115.779 52.8529 112.316C54.2878 116.567 58.2948 119.833 62.7484 120.378C65.2667 120.685 68.0193 120.09 69.7741 118.259C69.185 122.678 68.9854 127.15 69.185 131.607C66.3785 131.889 63.5435 131.857 60.7465 131.512C59.0994 131.309 57.4332 130.989 55.9698 130.207C54.7883 129.573 53.7842 128.664 52.7927 127.765C51.7506 126.821 50.6483 125.766 50.4297 124.378" fill="url(#paint1_linear_5989_3738)"/>
<path d="M150.251 126.867C152.291 125.892 153.894 123.931 154.192 121.691C155.408 125.442 156.634 129.256 156.723 133.196C154.271 133.959 151.778 134.678 149.216 134.862C146.653 135.046 143.986 134.659 141.781 133.342C142.469 132.493 143.001 131.514 143.349 130.478C143.536 129.918 143.549 127.827 143.942 127.51C144.35 127.181 146.4 127.707 147.02 127.672C148.135 127.608 149.244 127.352 150.255 126.87L150.251 126.867Z" fill="url(#paint2_linear_5989_3738)"/>
<path opacity="0.18" d="M83.2643 142.344L90.2995 139.832L94.0721 147.257C94.0721 147.257 85.035 148.435 83.4828 153.031L81.3257 146.265C80.8094 144.65 81.6678 142.914 83.2674 142.344H83.2643Z" fill="#4EA9B0"/>
<path d="M83.0182 141.848L90.0534 139.336L93.826 146.761C93.826 146.761 84.7889 147.939 83.2367 152.535L81.0796 145.769C80.5633 144.154 81.4217 142.418 83.0213 141.848H83.0182Z" fill="url(#paint3_linear_5989_3738)"/>
<path d="M74.1624 82.021L67.6942 46.9688L44.8876 51.7898C44.5518 52.3156 40.133 59.3824 40 59.4014L46.3922 87.6973L74.7421 81.6156" fill="url(#paint4_linear_5989_3738)"/>
<path d="M65.8055 75.1212L51.2758 78.1969L51.1016 77.5634L65.6186 74.418L65.8055 75.1212Z" fill="#4EA9B0"/>
<path d="M65.1414 71.7806L50.6117 74.8531L50.4375 74.2196L64.9545 71.0742L65.1414 71.7806Z" fill="#4EA9B0"/>
<path d="M64.5438 68.7884L50.0141 71.8609L49.8398 71.2274L64.3569 68.082L64.5438 68.7884Z" fill="#4EA9B0"/>
<path d="M63.8328 65.3282L49.3031 68.4039L49.1289 67.7704L63.6459 64.625L63.8328 65.3282Z" fill="#4EA9B0"/>
<path d="M45.6383 58.6079L40 59.4093L44.8876 51.8008L45.6383 58.6079Z" fill="#4EA9B0"/>
<path d="M45.6383 58.6079L40 59.4093L44.8876 51.8008L45.6383 58.6079Z" fill="url(#paint5_linear_5989_3738)"/>
<path d="M109.348 68.5454L113.673 54.4442L104.379 51.8555C104.155 51.9829 101.183 53.7341 101.13 53.7154L98.0703 65.3227L109.639 68.5081" fill="url(#paint6_linear_5989_3738)"/>
<path opacity="0.34" d="M108.616 64.2878L102.695 62.6407L102.753 62.375L108.682 63.9941L108.616 64.2878Z" fill="#4EA9B0"/>
<path opacity="0.34" d="M109.514 61.3987L103.594 59.7501L103.651 59.4844L109.581 61.105L109.514 61.3987Z" fill="#4EA9B0"/>
<path opacity="0.34" d="M110.672 58.2815L104.75 56.6329L104.807 56.3672L110.737 57.9863L110.672 58.2815Z" fill="#4EA9B0"/>
<path d="M103.355 54.497L101.133 53.7154L104.382 51.8555L103.355 54.497Z" fill="#4EA9B0"/>
<path d="M103.355 54.497L101.133 53.7154L104.382 51.8555L103.355 54.497Z" fill="url(#paint7_linear_5989_3738)"/>
<path opacity="0.34" d="M100.651 61.3767L100.38 62.2901C100.343 62.4168 100.415 62.5499 100.542 62.5875L101.612 62.9041C101.738 62.9416 101.872 62.8693 101.909 62.7426L102.179 61.8293C102.217 61.7025 102.145 61.5694 102.018 61.5319L100.948 61.2152C100.821 61.1777 100.688 61.25 100.651 61.3767Z" fill="#4EA9B0"/>
<path opacity="0.34" d="M101.565 58.451L101.294 59.3643C101.257 59.491 101.329 59.6242 101.456 59.6617L102.526 59.9784C102.653 60.0159 102.786 59.9435 102.823 59.8168L103.094 58.9035C103.131 58.7768 103.059 58.6436 102.932 58.6061L101.862 58.2894C101.736 58.2519 101.602 58.3242 101.565 58.451Z" fill="#4EA9B0"/>
<path opacity="0.34" d="M102.6 55.5369L102.33 56.4502C102.292 56.577 102.364 56.7101 102.491 56.7476L103.561 57.0643C103.688 57.1018 103.821 57.0295 103.858 56.9028L104.129 55.9894C104.166 55.8627 104.094 55.7296 103.967 55.6921L102.897 55.3754C102.771 55.3379 102.638 55.4102 102.6 55.5369Z" fill="#4EA9B0"/>
<path d="M103.088 56.583L102.699 55.8169L102.977 55.6771L103.224 56.1666L104.561 55.4922L104.701 55.7703L103.088 56.583Z" fill="#4EA9B0"/>
<path d="M102.138 59.3213L101.75 58.5552L102.028 58.4154L102.275 58.9048L103.612 58.2305L103.751 58.5071L102.138 59.3213Z" fill="#4EA9B0"/>
<path d="M101.188 62.3369L100.801 61.5693L101.077 61.4294L101.326 61.9189L102.662 61.2461L102.802 61.5227L101.188 62.3369Z" fill="#4EA9B0"/>
<path d="M83.2148 109.112L120.255 94.4961L125.241 112.097L100.636 122.44L83.2148 109.112Z" fill="#231F20"/>
<path d="M97.0171 99.7734L85.5898 102.1L98.2616 119.197L108.611 116.514L97.0171 99.7734Z" fill="url(#paint8_linear_5989_3738)"/>
<path d="M92.5039 96.0019L120.417 86.6298V83.8013L126.158 81.7812L133.619 111.113L100.897 122.448L92.5039 96.0019Z" fill="#4EA9B0"/>
<path d="M100.16 97.749L107.335 95.5664L107.566 96.6587L100.388 98.7816L100.16 97.749Z" fill="#231F20"/>
<defs>
<linearGradient id="paint0_linear_5989_3738" x1="149.944" y1="58.3945" x2="149.944" y2="78.6606" gradientUnits="userSpaceOnUse">
<stop stop-color="#E9E9E9"/>
<stop offset="1" stop-color="white"/>
</linearGradient>
<linearGradient id="paint1_linear_5989_3738" x1="60.1019" y1="112.316" x2="60.1019" y2="131.797" gradientUnits="userSpaceOnUse">
<stop stop-color="#E9E9E9"/>
<stop offset="1" stop-color="white"/>
</linearGradient>
<linearGradient id="paint2_linear_5989_3738" x1="149.252" y1="121.691" x2="149.252" y2="134.905" gradientUnits="userSpaceOnUse">
<stop stop-color="#E9E9E9"/>
<stop offset="1" stop-color="white"/>
</linearGradient>
<linearGradient id="paint3_linear_5989_3738" x1="87.3778" y1="139.336" x2="87.3778" y2="152.535" gradientUnits="userSpaceOnUse">
<stop stop-color="#E9E9E9"/>
<stop offset="1" stop-color="white"/>
</linearGradient>
<linearGradient id="paint4_linear_5989_3738" x1="74.371" y1="56.476" x2="40.9474" y2="79.9492" gradientUnits="userSpaceOnUse">
<stop stop-color="white"/>
<stop offset="1" stop-color="#F3F1F3"/>
</linearGradient>
<linearGradient id="paint5_linear_5989_3738" x1="41.1523" y1="49.7262" x2="43.8341" y2="61.9553" gradientUnits="userSpaceOnUse">
<stop stop-color="#231F20"/>
<stop offset="0.08" stop-color="#231F20" stop-opacity="0.69"/>
<stop offset="0.21" stop-color="#231F20" stop-opacity="0.32"/>
<stop offset="1" stop-color="#231F20" stop-opacity="0"/>
</linearGradient>
<linearGradient id="paint6_linear_5989_3738" x1="114.306" y1="59.2103" x2="97.5527" y2="61.4398" gradientUnits="userSpaceOnUse">
<stop stop-color="white"/>
<stop offset="1" stop-color="#F3F1F3"/>
</linearGradient>
<linearGradient id="paint7_linear_5989_3738" x1="103.405" y1="50.3845" x2="102.053" y2="55.3862" gradientUnits="userSpaceOnUse">
<stop stop-color="#231F20"/>
<stop offset="0.08" stop-color="#231F20" stop-opacity="0.69"/>
<stop offset="0.21" stop-color="#231F20" stop-opacity="0.32"/>
<stop offset="1" stop-color="#231F20" stop-opacity="0"/>
</linearGradient>
<linearGradient id="paint8_linear_5989_3738" x1="85.5898" y1="109.485" x2="108.611" y2="109.485" gradientUnits="userSpaceOnUse">
<stop stop-color="#E3E3E3"/>
<stop offset="1" stop-color="white"/>
</linearGradient>
</defs>
</svg>
