<svg width="200" height="200" viewBox="0 0 200 200" fill="none" xmlns="http://www.w3.org/2000/svg">
<rect x="46.8516" y="43.457" width="113.148" height="21.6126" rx="1.14706" fill="#4EA9B0"/>
<rect x="52.7891" y="49.3906" width="101.282" height="9.74685" rx="1.14706" fill="white"/>
<path d="M127.49 146.574L120.126 150.618L120.126 150.618C114.759 153.564 112.075 155.038 109.141 155.79C106.208 156.543 103.146 156.543 97.0234 156.543H53.3819C49.9111 156.543 48.1757 156.543 47.9494 155.69C47.7231 154.837 49.2303 153.977 52.2447 152.256L60.1455 147.747C63.5233 145.988 64.5789 143.056 64.3678 141.492C64.2271 116.603 64.0301 65.5338 64.3678 60.3735C64.699 55.3148 70.7376 52.9736 73.8923 52.3923C73.977 52.3767 74.0193 52.3689 74.0714 52.3641C74.1235 52.3594 74.1726 52.3594 74.2707 52.3594H139.312C135.954 52.5691 132.96 55.354 131.556 57.5025C131.322 57.8612 131.205 58.0406 131.038 58.6102C130.872 59.1799 130.876 59.544 130.883 60.2723C131.163 87.1854 131.531 138.882 130.868 141.492C130.192 144.15 128.545 145.792 127.49 146.574Z" fill="#F2F2F2"/>
<path d="M108.629 65.9141C109.303 65.9141 109.85 66.4724 109.85 67.161C109.85 67.8497 109.303 68.408 108.629 68.408H72.8298C72.1558 68.408 71.6094 67.8497 71.6094 67.161C71.6094 66.4724 72.1558 65.9141 72.8298 65.9141H108.629Z" fill="#A7D1D4"/>
<path d="M95.3421 77.5547L95.4041 77.5563C96.0418 77.5897 96.5488 78.1345 96.5488 78.8017C96.5488 79.4688 96.0418 80.0136 95.4041 80.047L95.3421 80.0486H72.8161C72.1497 80.0486 71.6094 79.4903 71.6094 78.8017C71.6094 78.113 72.1497 77.5547 72.8161 77.5547H95.3421Z" fill="#A7D1D4"/>
<path d="M95.3421 89.1914L95.4041 89.193C96.0418 89.2264 96.5488 89.7712 96.5488 90.4384C96.5488 91.1056 96.0418 91.6503 95.4041 91.6837L95.3421 91.6853H72.8161C72.1497 91.6853 71.6094 91.1271 71.6094 90.4384C71.6094 89.7497 72.1497 89.1914 72.8161 89.1914H95.3421Z" fill="#A7D1D4"/>
<path d="M95.3421 100.832L95.4041 100.834C96.0418 100.867 96.5488 101.412 96.5488 102.079C96.5488 102.746 96.0418 103.291 95.4041 103.324L95.3421 103.326H72.8161C72.1497 103.326 71.6094 102.768 71.6094 102.079C71.6094 101.39 72.1497 100.832 72.8161 100.832H95.3421Z" fill="#A7D1D4"/>
<path d="M123.595 111.637L123.658 111.638C124.302 111.672 124.814 112.217 124.814 112.884C124.814 113.551 124.302 114.096 123.658 114.129L123.595 114.131H72.8278C72.1549 114.131 71.6094 113.572 71.6094 112.884C71.6094 112.195 72.1549 111.637 72.8278 111.637H123.595Z" fill="#A7D1D4"/>
<path d="M123.595 123.277L123.658 123.279C124.302 123.312 124.814 123.857 124.814 124.524C124.814 125.191 124.302 125.736 123.658 125.77L123.595 125.771H72.8278C72.1549 125.771 71.6094 125.213 71.6094 124.524C71.6094 123.836 72.1549 123.277 72.8278 123.277H123.595Z" fill="#A7D1D4"/>
<rect x="100.672" y="74.8164" width="24.1552" height="29.2405" rx="5.16178" fill="#4EA9B0" fill-opacity="0.46"/>
<path opacity="0.51" d="M49.9124 74.3085C44.4383 75.6158 41.06 81.1142 42.3673 86.5885C43.6747 92.0627 49.173 95.4412 54.6471 94.1339C60.1211 92.8266 63.4995 87.3282 62.1922 81.854C60.8848 76.3797 55.3865 73.0012 49.9124 74.3085ZM54.321 92.7685C49.5916 93.898 44.8462 90.9821 43.7167 86.2526C42.5872 81.5231 45.503 76.7777 50.2324 75.6482C54.9617 74.5187 59.7071 77.4346 60.8366 82.1641C61.9555 86.8871 59.0387 91.6283 54.3179 92.7557L54.321 92.7685Z" fill="#4EA9B0"/>
<path d="M46.4192 85.3158L51.6843 88.4378L57.7023 79.3864L56.2389 78.4872L50.9557 85.6711L47.6313 83.6283L46.4192 85.3158Z" fill="#4EA9B0"/>
<path d="M128.561 124.602C127.909 122.243 128.421 119.376 130.415 117.951C131.597 117.101 133.103 116.88 134.544 116.682L144.318 115.329C144.306 118.474 145.493 121.505 147.639 123.809C149.606 125.897 152.272 127.287 154.115 129.461C157.152 133.278 157.278 138.65 154.414 142.601C149.726 142.479 145.055 143.294 140.685 144.987C141.37 142.193 139.293 139.495 137.111 137.601C133.38 134.352 129.895 129.492 128.555 124.598L128.561 124.602Z" fill="#4EA9B0"/>
<path d="M138.12 131.744L139.161 131.287C138.668 129.842 139.132 128.697 140.189 128.104L140.633 129.116C140.033 129.508 139.761 130.25 139.967 130.938L142.741 129.719C142.547 127.988 142.848 127.145 143.899 126.676C145.058 126.17 146.219 126.729 146.838 127.922L147.614 127.583L147.904 128.24L147.113 128.582C147.632 130.173 146.861 131.11 146.182 131.48L145.751 130.493C146.253 130.148 146.481 129.519 146.327 128.928L143.827 130.019C144.09 131.989 143.576 132.825 142.554 133.27C141.282 133.831 140.161 133.303 139.446 131.94L138.4 132.398L138.129 131.738L138.12 131.744ZM143.752 129.306L146.08 128.291C145.853 127.688 145.179 127.383 144.575 127.605C144.541 127.619 144.506 127.634 144.472 127.648C143.909 127.871 143.671 128.315 143.746 129.307L143.752 129.306ZM142.843 130.48L140.25 131.618C140.675 132.374 141.265 132.622 142.012 132.301C142.613 132.006 142.923 131.559 142.84 130.455L142.843 130.48Z" fill="white"/>
</svg>
