<svg width="200" height="200" viewBox="0 0 200 200" fill="none" xmlns="http://www.w3.org/2000/svg">
<path d="M41.5032 59.3334L41.4609 59.2969L41.5941 59.3398L41.5063 59.3304L41.5032 59.3334Z" fill="white"/>
<path d="M41.9604 64.2527C41.7096 64.4326 41.5249 64.6851 41.4243 64.977C41.3997 65.1276 41.3991 65.2813 41.4226 65.4321C41.4342 65.5707 41.4608 65.7095 41.5055 65.8422C41.5803 65.9992 41.6792 66.1412 41.7963 66.2682L42.0663 66.5826C42.0963 66.6249 42.1353 66.6612 42.1804 66.6885C42.2828 66.7251 42.4004 66.6893 42.467 66.6052C42.5306 66.521 42.5762 66.4248 42.5947 66.3194C42.7564 65.7806 43.1996 64.9143 43.1083 64.3474C43.0053 63.6629 42.2991 63.9496 41.9574 64.2557L41.9604 64.2527Z" fill="#FFB4A3"/>
<path d="M42.4335 54.0096L25.0898 82.3516L30.8377 85.8683L48.1813 57.5264L42.4335 54.0096Z" fill="#4EA9B0"/>
<path d="M41.0886 59.9034L29.834 78.2951C29.4769 78.8786 29.6605 79.641 30.244 79.998L30.5885 80.2087C31.172 80.5657 31.9344 80.3822 32.2915 79.7987L43.5461 61.407C43.9032 60.8236 43.7196 60.0612 43.1361 59.7042L42.7916 59.4934C42.2081 59.1364 41.4457 59.32 41.0886 59.9034Z" fill="url(#paint0_linear_5989_3739)"/>
<path d="M50.908 57.2634C48.1195 59.1607 44.3189 58.4384 42.4186 55.6499C40.5214 52.8613 41.2436 49.0609 44.0322 47.1606C45.2951 46.3004 46.8334 45.9445 48.3454 46.164L46.887 48.5574L45.2466 51.2545L49.5283 53.8711L51.1838 51.153L52.5785 48.8678C54.4005 51.6531 53.6574 55.3871 50.905 57.2634L50.908 57.2634Z" fill="#4EA9B0"/>
<path d="M29.0155 91.7392C27.7141 92.4365 26.2005 92.6328 24.7643 92.29L28.5676 87.3678L24.592 84.2974L20.7765 89.2375L20.7526 89.1983C19.1724 86.218 20.3072 82.5186 23.2905 80.9384C26.2708 79.3583 29.9703 80.4931 31.5504 83.4763C33.1306 86.4566 31.9958 90.156 29.0125 91.7361L29.0155 91.7392Z" fill="#4EA9B0"/>
<g opacity="0.19">
<path d="M162.825 92.2403C162.337 92.2052 161.877 91.9837 161.548 91.6219C161.3 91.3518 161.059 91.0683 160.803 90.8064C160.365 90.2609 159.628 90.053 158.972 90.2933C158.299 90.539 158.761 90.2366 158.742 90.9846V92.1376C158.756 93.0369 158.037 93.7741 157.138 93.7876C157.07 93.7876 157.003 93.7876 156.938 93.7768C156.247 93.7282 155.547 93.6741 154.84 93.6093C153.808 93.5175 153.014 92.6534 153.017 91.6165V90.4634C153.011 89.7613 152.598 89.124 151.958 88.8378C151.388 88.5057 150.667 88.5867 150.189 89.043C149.933 89.2672 149.698 89.5129 149.444 89.7343C148.685 90.4256 147.591 90.3203 146.849 89.5102C146.333 88.9485 145.812 88.3841 145.312 87.8144C144.561 86.9691 144.564 85.8863 145.312 85.1599C145.55 84.9304 145.801 84.717 146.033 84.4686C146.522 84.0123 146.668 83.294 146.398 82.6837C146.182 82.0194 145.598 81.5441 144.902 81.4685C144.529 81.4199 144.154 81.4118 143.781 81.3686C142.703 81.2822 141.89 80.3506 141.953 79.2704V77.2262C141.896 76.3297 142.576 75.5574 143.473 75.498C143.519 75.4953 143.565 75.4953 143.611 75.4953C143.994 75.4953 144.383 75.5358 144.767 75.5682C145.463 75.6735 146.138 75.2766 146.387 74.6177C146.673 73.9588 146.514 73.2864 145.952 72.6545C145.723 72.398 145.488 72.1496 145.261 71.8903C144.575 71.1801 144.575 70.0568 145.261 69.3466C145.806 68.8092 146.365 68.288 146.941 67.7885C147.697 67.1755 148.804 67.2808 149.433 68.0234C149.692 68.3015 149.938 68.5932 150.206 68.8686C150.638 69.3844 151.345 69.5734 151.977 69.3466C152.614 69.1495 153.041 68.5473 153.014 67.8803V66.8028C153.041 65.6498 153.8 64.9504 154.923 65.0341L156.876 65.1907C157.94 65.2609 158.764 66.1494 158.756 67.216V68.2529C158.726 68.982 159.134 69.6571 159.793 69.965C160.395 70.316 161.159 70.2134 161.648 69.7165C161.88 69.4978 162.104 69.2764 162.339 69.063C163.085 68.4069 164.219 68.4798 164.875 69.2251C164.889 69.2386 164.899 69.2521 164.91 69.2683C165.448 69.8434 165.977 70.4267 166.498 71.0154C167.216 71.7337 167.216 72.8976 166.498 73.6132C166.244 73.8589 165.974 74.0884 165.726 74.3368C165.269 74.7716 165.124 75.4386 165.358 76.0219C165.534 76.6754 166.074 77.1695 166.744 77.2829C167.138 77.3586 167.541 77.3667 167.938 77.4045C168.942 77.4504 169.723 78.2929 169.69 79.2974C169.715 80.0805 169.715 80.8609 169.69 81.6413C169.655 82.7512 168.764 84.1473 167.676 84.0636C167.33 84.0393 165.429 83.7179 165.172 84.3741C164.916 85.0303 165.25 85.4353 165.734 85.9916C165.982 86.2779 166.252 86.5533 166.504 86.8395C167.219 87.5605 167.219 88.7217 166.504 89.4427C165.985 89.9503 165.467 90.4472 164.918 90.9441C164.554 91.3221 163.711 92.2322 162.825 92.2457V92.2403ZM148.361 78.806C148.361 83.1022 151.704 86.8287 155.874 87.1636C159.266 87.1906 162.212 84.8494 162.207 80.5882C162.226 76.4188 159.015 72.9489 154.856 72.6464C150.678 72.2981 148.366 74.5178 148.358 78.806H148.361Z" fill="#7E7E7E"/>
</g>
<path d="M162.668 92.012C162.179 91.9796 161.72 91.7582 161.391 91.3963C161.142 91.1263 160.902 90.8427 160.645 90.5754C160.208 90.0299 159.47 89.8274 158.814 90.0677C158.166 90.2811 157.742 90.9022 157.777 91.5826V92.7357C157.791 93.6349 157.072 94.3721 156.173 94.3856C156.106 94.3856 156.038 94.3856 155.973 94.3748C155.282 94.3262 154.582 94.2722 153.875 94.2074C152.843 94.1156 152.049 93.2515 152.052 92.2145V91.0615C152.047 90.3594 151.633 89.7221 150.993 89.4359C150.424 89.101 149.702 89.1847 149.224 89.6411C148.968 89.8652 148.733 90.1109 148.479 90.3324C147.72 91.0237 146.627 90.9184 145.884 90.1082C145.368 89.5439 144.847 88.9822 144.347 88.4124C143.596 87.5672 143.599 86.4844 144.347 85.758C144.585 85.5284 144.836 85.3151 145.068 85.0667C145.56 84.6103 145.706 83.892 145.433 83.2817C145.217 82.6174 144.633 82.1422 143.937 82.0666C143.564 82.018 143.189 82.0099 142.819 81.9667C141.738 81.8829 140.926 80.9513 140.988 79.8685V77.8243C140.931 76.9278 141.612 76.1555 142.508 76.0961C142.554 76.0934 142.6 76.0934 142.646 76.0934C143.029 76.0934 143.418 76.1339 143.802 76.1663C144.498 76.2716 145.174 75.8746 145.422 75.2158C145.708 74.5569 145.549 73.8845 144.987 73.2526C144.758 72.996 144.523 72.7476 144.296 72.4884C143.613 71.7782 143.613 70.6521 144.296 69.9419C144.841 69.41 145.4 68.8861 145.976 68.3838C146.735 67.7735 147.839 67.8816 148.468 68.6215C148.728 68.8996 148.973 69.1912 149.241 69.4667C149.673 69.9824 150.38 70.1715 151.012 69.9446C151.65 69.7475 152.076 69.1453 152.049 68.4783V67.4009C152.076 66.2478 152.835 65.5457 153.959 65.6322C154.609 65.6835 155.26 65.7321 155.911 65.7888C156.975 65.859 157.799 66.7474 157.791 67.8141V68.851C157.761 69.5801 158.169 70.2552 158.828 70.563C159.43 70.9141 160.194 70.8115 160.683 70.3146C160.915 70.0959 161.139 69.8744 161.374 69.6611C162.12 69.0049 163.254 69.0778 163.91 69.8231C163.924 69.8366 163.935 69.8501 163.945 69.8663C164.483 70.4415 165.012 71.0248 165.533 71.5973C166.252 72.3156 166.252 73.4794 165.533 74.195C165.279 74.4407 165.015 74.6703 164.761 74.9187C164.305 75.3535 164.159 76.0205 164.394 76.6037C164.569 77.2572 165.109 77.7514 165.779 77.8648C166.173 77.9404 166.576 77.9431 166.973 77.9863C167.977 78.0322 168.758 78.8747 168.725 79.8793C168.75 80.6624 168.75 81.4428 168.725 82.2232C168.69 83.333 168.004 83.9541 166.919 83.8677C166.573 83.8434 166.227 83.8029 165.882 83.7921C165.231 83.7489 164.634 84.1539 164.431 84.775C164.172 85.3934 164.31 86.1063 164.777 86.5843C165.026 86.8705 165.296 87.1459 165.547 87.4295C166.262 88.1505 166.262 89.3143 165.547 90.0353C165.028 90.543 164.51 91.0399 163.962 91.5367C163.624 91.8797 163.151 92.0579 162.671 92.0174L162.668 92.012ZM147.396 79.3986C147.396 83.6895 150.742 87.4214 154.909 87.7562C159.076 88.0911 162.455 84.8776 162.455 80.6057C162.455 76.3337 159.079 72.6072 154.947 72.2723C150.815 71.9375 147.415 75.1104 147.393 79.3986H147.396Z" fill="#4EA9B0"/>
<g opacity="0.19">
<path d="M176.522 77.0528C176.273 77.0366 176.038 76.9232 175.871 76.7368C175.744 76.5991 175.623 76.4533 175.493 76.3183C175.269 76.0428 174.893 75.9375 174.559 76.059C174.213 76.1832 174.451 76.032 174.44 76.4047V76.9934C174.445 77.4551 174.075 77.8305 173.613 77.8359C173.581 77.8359 173.551 77.8359 173.519 77.8305L172.45 77.7441C171.926 77.6901 171.526 77.2526 171.518 76.726V76.1373C171.515 75.7809 171.305 75.4569 170.978 75.311C170.686 75.1409 170.319 75.1814 170.073 75.4136C169.946 75.5271 169.825 75.6513 169.695 75.7593C169.314 76.0941 168.731 76.059 168.396 75.6756C168.388 75.6648 168.377 75.654 168.369 75.6432C168.107 75.3569 167.843 75.068 167.583 74.7791C167.211 74.4172 167.2 73.8204 167.562 73.4478C167.57 73.4397 167.575 73.4316 167.583 73.4262L167.951 73.0805C168.199 72.8456 168.272 72.481 168.134 72.1705C168.026 71.8302 167.727 71.5845 167.373 71.5467C167.184 71.5224 166.992 71.5197 166.803 71.4981C166.258 71.4441 165.847 70.9742 165.869 70.4261V69.3891C165.842 68.93 166.19 68.5385 166.649 68.5115C166.671 68.5115 166.695 68.5115 166.717 68.5115C166.911 68.5115 167.108 68.5331 167.305 68.5493C167.662 68.6033 168.005 68.4008 168.132 68.0659C168.275 67.7176 168.186 67.3179 167.907 67.0668C167.794 66.9345 167.673 66.8076 167.562 66.6752C167.213 66.3134 167.213 65.7382 167.562 65.3764C167.84 65.1036 168.126 64.8363 168.418 64.5797C168.804 64.2719 169.366 64.3232 169.687 64.7013C169.822 64.8444 169.946 64.9929 170.081 65.1306C170.3 65.3953 170.662 65.4925 170.986 65.3764C171.313 65.2764 171.531 64.9713 171.518 64.6284V64.0775C171.486 63.6076 171.842 63.2025 172.309 63.1701C172.369 63.1647 172.431 63.1701 172.49 63.1782L173.487 63.2539C174.029 63.2944 174.448 63.748 174.445 64.2908V64.8201C174.432 65.19 174.64 65.533 174.974 65.695C175.282 65.8732 175.674 65.8219 175.922 65.5681C176.041 65.4574 176.155 65.3439 176.268 65.2224C176.646 64.8876 177.224 64.9227 177.559 65.3007C177.567 65.3088 177.572 65.3169 177.58 65.3277C177.853 65.6221 178.126 65.9164 178.393 66.2162C178.758 66.5834 178.758 67.1748 178.393 67.542C178.266 67.669 178.131 67.7851 178.002 67.912C177.767 68.1307 177.694 68.4737 177.815 68.7707C177.902 69.1002 178.172 69.3513 178.507 69.4134C178.706 69.4512 178.912 69.4539 179.112 69.4755C179.625 69.4971 180.024 69.9292 180.005 70.4423C180.019 70.8392 180.019 71.2362 180.005 71.6358C179.989 72.2029 179.535 72.9131 178.968 72.878C178.787 72.878 177.818 72.7052 177.688 73.0346C177.559 73.3641 177.729 73.5774 177.975 73.8609C178.102 74.0068 178.242 74.1445 178.369 74.2903C178.731 74.6602 178.731 75.2516 178.369 75.6189C178.102 75.8781 177.829 76.1319 177.559 76.3831C177.399 76.5802 176.97 77.0447 176.516 77.0501L176.522 77.0528ZM169.147 70.2019C169.144 72.3946 170.797 74.2363 172.979 74.4658C174.71 74.4658 176.211 73.2857 176.211 71.1065C176.219 68.9814 174.58 67.2126 172.46 67.056C170.332 66.8832 169.152 68.0146 169.147 70.2019Z" fill="#7E7E7E"/>
</g>
<path d="M176.445 76.9309C176.194 76.9147 175.962 76.804 175.794 76.6149C175.667 76.4772 175.546 76.3341 175.414 76.1991C175.19 75.9209 174.814 75.8156 174.479 75.9372C174.15 76.0479 173.931 76.3638 173.95 76.7122V77.2981C173.958 77.7545 173.596 78.1326 173.14 78.1407C173.102 78.1407 173.067 78.1407 173.032 78.1353L171.963 78.0515C171.436 78.0056 171.034 77.5628 171.036 77.0335V76.4448C171.031 76.0857 170.82 75.7643 170.496 75.6131C170.205 75.4457 169.84 75.4889 169.597 75.7211C169.465 75.8345 169.343 75.9587 169.216 76.0668C168.833 76.4016 168.252 76.3638 167.917 75.9804C167.909 75.9696 167.898 75.9588 167.89 75.948C167.628 75.6644 167.364 75.3782 167.107 75.0838C166.735 74.722 166.724 74.1252 167.086 73.7526C167.094 73.7444 167.099 73.7363 167.107 73.7309C167.229 73.6175 167.353 73.5068 167.474 73.3853C167.723 73.1504 167.798 72.7831 167.658 72.4726C167.55 72.1323 167.25 71.8893 166.897 71.8542C166.707 71.8299 166.516 71.8272 166.327 71.8056C165.781 71.7516 165.371 71.2817 165.392 70.7335V69.6966C165.363 69.2402 165.711 68.8487 166.165 68.819C166.189 68.819 166.213 68.819 166.235 68.819C166.429 68.819 166.626 68.8406 166.824 68.8541C167.177 68.9081 167.523 68.7082 167.65 68.3734C167.793 68.0251 167.704 67.6254 167.429 67.3689C167.31 67.2419 167.191 67.1123 167.083 66.9773C166.735 66.6155 166.735 66.0403 167.083 65.6784C167.364 65.4057 167.647 65.1411 167.942 64.8872C168.328 64.5767 168.892 64.6307 169.211 65.0087C169.343 65.1519 169.467 65.3004 169.602 65.4381C169.821 65.7 170.183 65.7972 170.507 65.6811C170.836 65.5839 171.055 65.2761 171.044 64.9331V64.3876C171.015 63.9151 171.374 63.5073 171.846 63.4776C171.903 63.4749 171.963 63.4776 172.019 63.483L173.013 63.5613C173.556 63.6018 173.974 64.0555 173.972 64.5983V65.1302C173.955 65.5002 174.163 65.8432 174.498 66.0025C174.806 66.1834 175.195 66.1321 175.446 65.8783C175.565 65.7675 175.678 65.6541 175.792 65.5326C176.17 65.2005 176.748 65.2356 177.083 65.6136C177.088 65.6217 177.096 65.6271 177.101 65.6352C177.38 65.9296 177.647 66.2266 177.914 66.529C178.279 66.8963 178.279 67.4877 177.914 67.8549C177.782 67.9792 177.647 68.098 177.52 68.2222C177.288 68.4436 177.215 68.7866 177.334 69.0836C177.42 69.413 177.69 69.6642 178.025 69.7263C178.227 69.756 178.43 69.7749 178.635 69.7857C179.148 69.81 179.545 70.2421 179.529 70.7551V71.9487C179.559 72.3862 179.227 72.7669 178.786 72.7939C178.724 72.7966 178.665 72.7939 178.606 72.7858C178.43 72.7858 178.26 72.7507 178.074 72.748C177.741 72.7264 177.436 72.9316 177.334 73.2503C177.204 73.5635 177.272 73.9281 177.509 74.1711C177.636 74.3196 177.777 74.4573 177.903 74.6032C178.268 74.9704 178.268 75.5645 177.903 75.9317C177.636 76.191 177.363 76.4448 177.093 76.696C176.923 76.8634 176.691 76.9471 176.453 76.9309H176.445ZM168.654 70.4959C168.646 72.694 170.302 74.5411 172.486 74.7733C174.444 74.9353 176.164 73.4771 176.324 71.5193C176.334 71.387 176.337 71.2574 176.334 71.1251C176.324 68.9432 174.676 67.115 172.508 66.8747C170.561 66.7019 168.841 68.1412 168.668 70.0881C168.657 70.2232 168.652 70.3582 168.654 70.4932V70.4959Z" fill="#4EA9B0"/>
<path d="M41.8633 131.721L60.0242 67.668L131.286 83.4073L112.03 153.67L41.8633 131.721Z" fill="#4EA9B0"/>
<path d="M140.995 139.055L131.281 83.4102L116.23 138.319L140.995 139.055Z" fill="#4EA9B0"/>
<path d="M140.995 139.055L131.281 83.4102L116.23 138.319L140.995 139.055Z" fill="url(#paint1_linear_5989_3739)"/>
<path d="M66.09 94.7749L57.6055 92.6262L60.2886 82.3711L68.8265 84.3595L66.09 94.7749Z" fill="#FBFBFB"/>
<path d="M75.9187 97.2572L67.1289 95.0321L69.8769 84.5977L78.7278 86.6586L75.9187 97.2572Z" fill="#FBFBFB"/>
<path d="M86.1142 99.8447L77 97.5395L79.8129 86.9219L88.9882 89.0553L86.1142 99.8447Z" fill="#FBFBFB"/>
<path d="M96.6922 102.522L87.2383 100.125L90.1237 89.3164L99.6425 91.5338L96.6922 102.522Z" fill="#FBFBFB"/>
<path d="M107.672 105.3L97.8555 102.815L100.81 91.8047L110.695 94.1061L107.672 105.3Z" fill="#FBFBFB"/>
<path d="M119.073 108.184L108.875 105.604L111.909 94.3867L122.18 96.7797L119.073 108.184Z" fill="#FBFBFB"/>
<path d="M62.9548 106.693L54.5352 104.365L57.2068 94.1484L65.6837 96.3201L62.9548 106.693Z" fill="#FBFBFB"/>
<path d="M72.7094 109.394L63.9883 106.982L66.721 96.5898L75.5032 98.8378L72.7094 109.394Z" fill="#FBFBFB"/>
<path d="M82.8152 112.189L73.7734 109.685L76.5787 99.1094L85.6815 101.441L82.8152 112.189Z" fill="#FBFBFB"/>
<path d="M93.315 115.092L83.9336 112.497L86.8076 101.73L96.2539 104.15L93.315 115.092Z" fill="#FBFBFB"/>
<path d="M104.209 118.109L94.4727 115.414L97.4191 104.449L107.224 106.964L104.209 118.109Z" fill="#FBFBFB"/>
<path d="M115.524 121.238L105.406 118.437L108.429 107.27L118.616 109.88L115.524 121.238Z" fill="#FBFBFB"/>
<path d="M59.8275 118.569L51.4766 116.062L54.1368 105.887L62.5488 108.238L59.8275 118.569Z" fill="#FBFBFB"/>
<path d="M69.5117 121.477L60.8555 118.878L63.5806 108.523L72.2941 110.962L69.5117 121.477Z" fill="#FBFBFB"/>
<path d="M79.5434 124.486L70.5742 121.791L73.3642 111.258L82.3983 113.784L79.5434 124.486Z" fill="#FBFBFB"/>
<path d="M89.9535 127.616L80.6484 124.822L83.5071 114.102L92.8809 116.72L89.9535 127.616Z" fill="#FBFBFB"/>
<path d="M100.758 130.859L91.0977 127.958L94.0289 117.043L103.758 119.764L100.758 130.859Z" fill="#FBFBFB"/>
<path d="M111.979 134.23L101.945 131.219L104.953 120.098L115.059 122.926L111.979 134.23Z" fill="#FBFBFB"/>
<path d="M56.7156 130.398L48.4258 127.711L51.0784 117.57L59.4255 120.105L56.7156 130.398Z" fill="#FBFBFB"/>
<path d="M66.3219 133.513L57.7344 130.73L60.448 120.418L69.0928 123.04L66.3219 133.513Z" fill="#FBFBFB"/>
<path d="M76.2794 136.74L67.3789 133.855L70.1575 123.363L79.119 126.081L76.2794 136.74Z" fill="#FBFBFB"/>
<path d="M86.6076 140.089L77.375 137.097L80.2261 126.418L89.5235 129.238L86.6076 140.089Z" fill="#FBFBFB"/>
<path d="M97.322 143.562L87.7383 140.455L90.658 129.582L100.307 132.509L97.322 143.562Z" fill="#FBFBFB"/>
<path d="M108.458 147.168L98.5039 143.943L101.5 132.871L111.526 135.913L108.458 147.168Z" fill="#FBFBFB"/>
<path d="M116.235 89.0357C111.842 89.0357 108.27 85.4635 108.27 81.0706C108.27 76.6778 111.842 73.1055 116.235 73.1055C120.628 73.1055 124.2 76.6778 124.2 81.0706C124.2 81.4904 123.857 81.8339 123.437 81.8339C123.017 81.8339 122.674 81.4904 122.674 81.0706C122.674 77.5212 119.784 74.6321 116.235 74.6321C112.685 74.6321 109.796 77.5212 109.796 81.0706C109.796 84.62 112.685 87.5091 116.235 87.5091C116.655 87.5091 116.998 87.8526 116.998 88.2724C116.998 88.6923 116.655 89.0357 116.235 89.0357Z" fill="white"/>
<path d="M92.8834 83.6842C88.4904 83.6842 84.918 80.1119 84.918 75.719C84.918 71.3262 88.4904 67.7539 92.8834 67.7539C97.2764 67.7539 100.849 71.3262 100.849 75.719C100.849 76.1389 100.505 76.4824 100.085 76.4824C99.6656 76.4824 99.3221 76.1389 99.3221 75.719C99.3221 72.1697 96.4329 69.2805 92.8834 69.2805C89.3339 69.2805 86.4446 72.1697 86.4446 75.719C86.4446 79.2684 89.3339 82.1576 92.8834 82.1576C93.3032 82.1576 93.6467 82.5011 93.6467 82.9209C93.6467 83.3407 93.3032 83.6842 92.8834 83.6842Z" fill="white"/>
<path d="M69.7428 78.3287C65.3498 78.3287 61.7773 74.7564 61.7773 70.3636C61.7773 65.9707 65.3498 62.3984 69.7428 62.3984C74.1358 62.3984 77.7082 65.9707 77.7082 70.3636C77.7082 70.7834 77.3647 71.1269 76.9449 71.1269C76.525 71.1269 76.1815 70.7834 76.1815 70.3636C76.1815 66.8142 73.2923 63.9251 69.7428 63.9251C66.1933 63.9251 63.304 66.8142 63.304 70.3636C63.304 73.913 66.1933 76.8021 69.7428 76.8021C70.1626 76.8021 70.5061 77.1456 70.5061 77.5654C70.5061 77.9852 70.1626 78.3287 69.7428 78.3287Z" fill="white"/>
<path d="M94.7304 123.559L95.538 126.339C95.6133 126.596 95.8844 126.745 96.1414 126.67C96.1847 126.656 96.2271 126.636 96.2663 126.611L101.818 123.072C102.044 122.928 102.111 122.628 101.968 122.402C101.905 122.303 101.809 122.23 101.697 122.197L101.663 122.187C101.526 122.146 101.375 122.167 101.256 122.247L96.8709 125.16C96.6488 125.307 96.3481 125.249 96.2013 125.027C96.174 124.987 96.1532 124.942 96.1399 124.896L95.6575 123.293C95.6011 123.113 95.4476 122.979 95.2599 122.953C94.9956 122.921 94.7534 123.111 94.7214 123.375C94.7137 123.434 94.7179 123.494 94.7324 123.552L94.7304 123.559Z" fill="#47989E"/>
<path d="M90.2656 95.3046L91.0732 98.085C91.1484 98.342 91.4196 98.491 91.6766 98.4158C91.7199 98.4017 91.7623 98.3825 91.8015 98.3575L97.3534 94.8177C97.5793 94.6745 97.6465 94.3741 97.5033 94.1482C97.4399 94.0487 97.3441 93.9763 97.2318 93.9429L97.1981 93.9329C97.061 93.8922 96.9105 93.9135 96.7915 93.9931L92.406 96.9061C92.184 97.0529 91.8832 96.9954 91.7365 96.7733C91.7092 96.7334 91.6884 96.6881 91.675 96.6426L91.1926 95.0396C91.1363 94.859 90.9828 94.7254 90.795 94.699C90.5307 94.667 90.2886 94.8567 90.2566 95.121C90.2489 95.1799 90.2531 95.2398 90.2676 95.2979L90.2656 95.3046Z" fill="#47989E"/>
<path d="M74.0992 130.568L75.1904 132.542C75.2964 132.735 75.2259 132.979 75.0331 133.085C74.94 133.137 74.8292 133.148 74.7267 133.117L74.6608 133.098C74.5582 133.067 74.4732 132.998 74.4212 132.905L73.3677 130.959C73.2622 130.764 73.0206 130.692 72.8259 130.798L70.881 131.854C70.7884 131.904 70.6794 131.915 70.5769 131.885L70.511 131.865C70.2987 131.802 70.1777 131.579 70.2402 131.369C70.2707 131.266 70.3403 131.179 70.4347 131.13L72.4261 130.071C72.6184 129.967 72.6901 129.725 72.5859 129.533L71.492 127.515C71.3865 127.32 71.4606 127.077 71.6529 126.973C71.7455 126.923 71.8545 126.911 71.9552 126.941C72.0559 126.971 72.1396 127.038 72.1917 127.131L73.3075 129.156C73.4141 129.347 73.6521 129.417 73.8457 129.316L75.8856 128.228C75.9777 128.18 76.0866 128.168 76.1873 128.198C76.3997 128.261 76.5206 128.484 76.4581 128.695C76.4282 128.796 76.3586 128.882 76.266 128.933L74.248 130.027C74.057 130.133 73.9889 130.376 74.0955 130.567L74.101 130.569L74.0992 130.568Z" fill="#47989E"/>
<defs>
<linearGradient id="paint0_linear_5989_3739" x1="17.0997" y1="53.2491" x2="57.6263" y2="88.2689" gradientUnits="userSpaceOnUse">
<stop stop-color="#231F20"/>
<stop offset="0.13" stop-color="#231F20" stop-opacity="0.69"/>
<stop offset="0.25" stop-color="#231F20" stop-opacity="0.32"/>
<stop offset="1" stop-color="#231F20" stop-opacity="0"/>
</linearGradient>
<linearGradient id="paint1_linear_5989_3739" x1="103.261" y1="112.027" x2="142.884" y2="111.068" gradientUnits="userSpaceOnUse">
<stop/>
<stop offset="0.08" stop-opacity="0.69"/>
<stop offset="0.21" stop-opacity="0.32"/>
<stop offset="1" stop-opacity="0"/>
</linearGradient>
</defs>
</svg>
