<svg width="200" height="200" viewBox="0 0 200 200" fill="none" xmlns="http://www.w3.org/2000/svg">
<path d="M123.687 148.308C116.585 143.079 113.853 133.596 113.97 124.816C114.009 120.367 114.829 115.645 117.912 112.445C119.395 110.923 121.307 109.87 123.297 109.011C129.58 106.279 137.97 105.85 142.38 111.118C143.668 112.679 144.448 114.552 145.19 116.426C147.804 122.943 150.185 129.538 152.292 136.25C154.36 142.845 156.585 153.225 147.258 153.811C139.648 154.279 129.931 152.874 123.687 148.308Z" fill="white"/>
<path d="M143.284 154.554C135.834 154.554 126.681 153.094 120.508 148.873C113.527 144.139 109.653 135.381 109.78 124.848C109.866 119.049 111.313 114.907 114.208 112.145C116.081 110.37 118.507 109.305 120.168 108.595C127.192 105.754 136.472 105.36 141.325 110.804C142.688 112.342 143.539 114.197 144.476 116.248C147.328 122.797 149.925 129.543 152.224 136.288C154.735 143.666 154.863 148.676 152.692 151.595C151.415 153.331 149.286 154.278 146.434 154.435C145.412 154.554 144.348 154.554 143.284 154.554ZM120.849 148.4C127.83 153.134 138.601 154.357 146.349 153.883C148.988 153.725 150.947 152.857 152.096 151.279C154.139 148.518 153.969 143.705 151.5 136.486C149.244 129.74 146.647 123.033 143.795 116.485C142.901 114.473 142.092 112.697 140.772 111.198C136.132 105.991 127.149 106.385 120.338 109.147C118.72 109.778 116.336 110.883 114.591 112.54C111.824 115.183 110.419 119.207 110.376 124.848C110.249 135.184 114.08 143.745 120.849 148.4Z" fill="#B0B0B0"/>
<path d="M49.386 115.02L28.8594 106.552C36.1569 90.9812 44.3519 81.7326 50.0494 78.1033C57.3079 72.0936 75.2589 71.6644 91.688 71.04C91.688 71.04 99.4928 70.3766 107.337 72.5619C126.536 77.8692 144.409 105.693 144.409 105.693L121.151 108.854C121.151 108.854 124.156 136.991 126.81 171.254C126.81 171.254 96.6831 178.044 49.5811 175.39C49.5421 175.39 49.8153 119.898 49.386 115.02Z" fill="#E9E9E9"/>
<path d="M93.8342 68.27L96.4097 80.6406C96.4097 80.6406 93.6781 88.8356 85.366 87.9771C77.0538 87.1186 73.2295 80.4455 73.2295 80.4455L70.2637 57.7335C70.2637 57.7335 75.8051 53.7531 72.2929 41.0312C72.2929 41.0312 81.8148 44.2702 93.6 41.1483C93.6 41.1483 99.1414 54.6896 98.9853 61.0506C98.8292 67.4115 93.8342 68.27 93.8342 68.27Z" fill="white"/>
<path d="M86.5735 88.2886C86.1833 88.2886 85.754 88.2496 85.3638 88.2106C77.0126 87.3521 73.0712 80.6009 73.0322 80.5229C72.9932 80.4838 72.9932 80.4448 72.9932 80.4058L70.0273 57.6938C70.0273 57.5768 70.0664 57.4987 70.1444 57.4207C70.1834 57.3816 75.4517 53.3622 72.0956 41.0306C72.0566 40.9135 72.0956 40.7964 72.1737 40.7574C72.2517 40.6794 72.3688 40.6403 72.4859 40.6794C72.5639 40.7184 82.0858 43.8403 93.5978 40.7964C93.7539 40.7574 93.91 40.8355 93.949 40.9525C94.1832 41.4989 99.4905 54.65 99.3734 60.9718C99.2563 66.5913 95.3539 68.1132 94.2222 68.4254L96.7198 80.5229C96.7198 80.5619 96.7198 80.6399 96.7198 80.679C96.6807 80.796 94.0661 88.2886 86.5735 88.2886ZM73.5395 80.2887C73.8907 80.8741 77.7151 86.8448 85.4028 87.6252C93.0905 88.4057 95.8222 81.4204 96.0954 80.5619L93.5588 68.2693C93.5588 68.1913 93.5588 68.1132 93.5978 68.0352C93.6369 67.9571 93.7149 67.9181 93.793 67.9181C93.9881 67.8791 98.6319 66.9815 98.749 60.9718C98.8661 55.1963 94.1832 43.255 93.4808 41.4208C86.6906 43.1769 79.5882 43.1769 72.798 41.4208C75.7639 52.8158 71.5103 57.0694 70.6517 57.8109L73.5395 80.2887Z" fill="#B0B0B0"/>
<path d="M74.9876 56.6777C74.5584 55.624 73.8169 54.7265 72.8413 54.1021C71.9047 53.5948 70.8901 53.2436 69.8365 53.0485C69.2901 52.8924 68.6657 52.8533 68.1194 52.9704C67.7292 53.0875 67.3389 53.2826 67.0267 53.5558C66.2072 54.1021 65.6219 54.9216 65.3487 55.8582C65.2316 56.6387 65.3097 57.4192 65.5438 58.1606C65.7389 58.9801 66.0511 59.7996 66.4804 60.5411C68.3145 63.5849 72.256 64.5996 75.2998 62.7654C75.3388 62.7654 75.3388 62.7264 75.3779 62.7264" fill="white"/>
<path d="M71.9829 63.9359C69.6024 63.9359 67.4171 62.6871 66.2073 60.6579C65.778 59.8774 65.4268 59.0969 65.2317 58.2384C64.9585 57.4579 64.8805 56.5994 65.0366 55.7799C65.3098 54.7652 65.9341 53.9067 66.8317 53.3214C67.1829 53.0482 67.5731 52.814 68.0414 52.697C68.6658 52.5799 69.2902 52.6189 69.9146 52.775C71.0073 52.9311 72.0609 53.3214 73.0365 53.8677C74.0902 54.4921 74.8706 55.4677 75.3389 56.5994C75.3779 56.7555 75.3389 56.9116 75.1828 56.9896C75.0267 57.0286 74.8706 56.9896 74.7926 56.8335C74.4023 55.8189 73.6609 54.9604 72.7633 54.414C71.8658 53.9067 70.8512 53.5945 69.8365 53.3994C69.3292 53.2433 68.7829 53.2433 68.2366 53.3214C67.8853 53.4384 67.5341 53.5945 67.261 53.8287C66.5195 54.336 65.9732 55.0774 65.7 55.936C65.5829 56.6774 65.661 57.4189 65.8951 58.1213C66.0902 58.9408 66.4024 59.6823 66.8317 60.4237C68.5487 63.3505 72.3341 64.2871 75.2609 62.57C75.2999 62.57 75.2999 62.531 75.3389 62.531C75.456 62.453 75.6511 62.492 75.7292 62.6091C75.8072 62.7261 75.7682 62.9213 75.6511 62.9993C74.4414 63.6237 73.2316 63.9359 71.9829 63.9359Z" fill="#B0B0B0"/>
<path d="M92.236 75.0596C90.0116 75.0986 87.8653 74.3962 86.0702 73.1084C82.0117 70.1035 81.9727 67.9962 81.9727 67.8792C81.9727 67.8011 82.0117 67.6841 82.0897 67.645C82.1678 67.606 82.2848 67.567 82.3629 67.606C82.4409 67.645 88.4506 69.9084 93.4457 68.1914C93.5238 68.1523 93.6018 68.1914 93.6799 68.2304C93.7579 68.2694 93.7969 68.3475 93.836 68.4255L95.1237 74.3572C95.1628 74.5133 95.0847 74.6693 94.9286 74.7084C94.0311 74.9425 93.1335 75.0596 92.236 75.0596ZM82.6751 68.3475C82.9092 69.0889 83.6897 70.6109 86.4214 72.6401C89.6994 75.0596 93.4847 74.4742 94.4994 74.2401L93.3286 68.8938C89.036 70.2206 84.197 68.8548 82.6751 68.3475Z" fill="#B0B0B0"/>
<path d="M86.457 49.7734C86.457 49.7734 91.7253 55.3148 90.9058 56.5636C90.0863 57.8124 87.1985 57.5782 87.1985 57.5782" fill="white"/>
<path d="M87.7445 57.8921C87.3933 57.8921 87.1982 57.853 87.1591 57.853C87.003 57.853 86.886 57.6969 86.886 57.5408C86.886 57.3848 87.0421 57.2677 87.1982 57.2677C87.9396 57.3457 90.0469 57.3067 90.6323 56.4092C91.0615 55.7457 88.6811 52.5458 86.2226 49.9702C86.1055 49.8531 86.1055 49.658 86.2226 49.5409C86.3396 49.4239 86.5348 49.4239 86.6518 49.5409C87.9396 50.8677 91.9981 55.3555 91.1396 56.6823C90.4762 57.736 88.6811 57.8921 87.7445 57.8921Z" fill="#B0B0B0"/>
<path d="M79.8737 52.1979C80.4135 51.9807 80.6033 51.1887 80.2976 50.4289C79.9918 49.6691 79.3064 49.2293 78.7665 49.4465C78.2267 49.6637 78.0369 50.4558 78.3426 51.2155C78.6484 51.9753 79.3338 52.4151 79.8737 52.1979Z" fill="#B0B0B0"/>
<path d="M90.7604 50.4128C91.3002 50.1955 91.49 49.4035 91.1843 48.6437C90.8786 47.884 90.1931 47.4441 89.6532 47.6614C89.1134 47.8786 88.9236 48.6706 89.2294 49.4304C89.5351 50.1902 90.2205 50.63 90.7604 50.4128Z" fill="#B0B0B0"/>
<path d="M87.2017 65.1866C85.1724 65.1866 83.2993 63.9769 81.7383 61.7135C80.8408 60.3867 80.1384 58.9818 79.631 57.4599C79.592 57.3038 79.6701 57.1477 79.8262 57.1086C79.9823 57.0696 80.1384 57.1477 80.1774 57.3038C80.6457 58.7477 81.3481 60.1135 82.1676 61.3623C83.9237 63.8988 86.07 64.9915 88.2944 64.4452C93.6797 63.1574 93.6016 56.7574 93.6016 56.6794C93.6016 56.5233 93.7187 56.3672 93.8748 56.3672C94.0309 56.3672 94.148 56.4843 94.187 56.6404C94.187 56.7184 94.3041 63.5476 88.4505 64.9915C88.0602 65.1476 87.631 65.1866 87.2017 65.1866Z" fill="#B0B0B0"/>
<path d="M56.6802 110.024L46.7681 133.595L68.8556 114.512L82.9433 119.273C82.9433 119.273 79.7824 140.268 60.5826 157.946C41.3828 175.624 21.5195 172.268 20.3879 155.682C19.2562 139.097 30.9243 106.941 30.9243 106.941" fill="white"/>
<path d="M35.6093 170.08C33.3459 170.119 31.0825 169.69 28.9753 168.87C23.668 166.763 20.507 162.08 20.0778 155.719C18.9461 139.251 30.5362 107.174 30.6533 106.861C30.6923 106.705 30.8874 106.627 31.0435 106.666C31.1996 106.705 31.2777 106.9 31.2386 107.017C31.2386 107.017 31.2386 107.017 31.2386 107.056C31.1216 107.369 19.6095 139.329 20.7022 155.68C21.1314 161.807 24.1363 166.295 29.2094 168.324C37.6776 171.68 49.6189 167.622 60.3896 157.749C78.1845 141.319 82.204 121.847 82.6332 119.466L68.9748 114.822L47.0043 133.788C46.8873 133.905 46.6921 133.866 46.5751 133.749C46.497 133.671 46.497 133.554 46.5361 133.437L56.4481 109.905C56.5262 109.749 56.6823 109.671 56.8384 109.749C56.9945 109.827 57.0725 109.983 56.9945 110.139L47.5117 132.539L68.6627 114.276C68.7407 114.198 68.8578 114.198 68.9358 114.237L83.0235 118.998C83.1406 119.037 83.2576 119.193 83.2186 119.31C83.1796 119.505 79.8625 140.578 60.7798 158.178C52.4287 165.866 43.3361 170.08 35.6093 170.08Z" fill="#B0B0B0"/>
<path d="M74.5139 80.1719L99.6454 100.113L100.348 101.323L103.665 107.137L97.2649 105.186L95.9381 104.796L70.8066 84.8157L74.5139 80.1719Z" fill="#00A1A8"/>
<path d="M103.667 107.41H103.588L95.8617 105.069C95.8227 105.069 95.7837 105.03 95.7837 105.03L70.6522 85.0493C70.5742 85.0103 70.5742 84.9323 70.5352 84.8542C70.5352 84.7762 70.5352 84.6981 70.5742 84.6201L74.2815 79.9762C74.3985 79.8592 74.5546 79.8592 74.6717 79.9372L99.8031 99.9175C99.8422 99.9565 99.8422 99.9565 99.8812 99.9955L103.901 106.981C103.979 107.137 103.94 107.293 103.784 107.371C103.784 107.41 103.745 107.41 103.667 107.41ZM96.0959 104.522L103.042 106.63L99.4519 100.308L74.5937 80.5616L71.2376 84.7762L96.0959 104.522Z" fill="#00A1A8"/>
<path d="M100.35 101.324L103.668 107.139L97.2676 105.188L100.35 101.324Z" fill="#E9E9E9"/>
<path d="M103.667 107.412H103.589L97.1894 105.46C97.0333 105.421 96.9553 105.265 96.9943 105.109C96.9943 105.07 97.0333 105.031 97.0333 104.992L100.116 101.129C100.194 101.051 100.272 101.012 100.35 101.012C100.428 101.012 100.546 101.09 100.585 101.168L103.941 106.982C104.019 107.138 103.98 107.295 103.824 107.373C103.785 107.412 103.745 107.412 103.667 107.412ZM97.7748 105.031L103.082 106.631L100.311 101.831L97.7748 105.031Z" fill="#00A1A8"/>
<path d="M64.76 79.7038L68.1941 75.3722C68.5063 74.9819 69.0527 74.9039 69.4429 75.2161L81.8525 85.0501L77.2867 90.7866L64.8771 80.9526C64.5259 80.6794 64.4478 80.0941 64.76 79.7038Z" fill="#00A1A8"/>
<path d="M77.2859 91.1371C77.2078 91.1371 77.1688 91.0981 77.0908 91.0591L64.7202 81.225C64.2129 80.8348 64.0958 80.0934 64.525 79.586C64.525 79.586 64.525 79.586 64.5641 79.547L67.9982 75.2154C68.4274 74.708 69.1689 74.63 69.6762 75.0202L82.0858 84.8543C82.2029 84.9714 82.2419 85.1275 82.1249 85.2835L77.52 91.0201C77.481 91.0981 77.403 91.1371 77.2859 91.1371ZM68.8957 75.3324H68.8177C68.6616 75.3715 68.5055 75.4495 68.4274 75.5666L64.9933 79.8982C64.8763 80.0153 64.8372 80.1714 64.8763 80.3275C64.9153 80.4836 64.9933 80.6397 65.1104 80.7177L77.2859 90.3957L81.4615 85.1665L69.286 75.4885C69.1689 75.4105 69.0518 75.3715 68.8957 75.3324Z" fill="#00A1A8"/>
<path d="M72.4886 90.0067C72.4105 90.0067 72.3715 89.9677 72.2935 89.9286C72.2544 89.8896 66.0887 85.0506 65.2692 84.2702C64.2545 83.3336 64.6838 81.4214 64.7228 81.1873C64.7618 81.0312 64.9179 80.9531 65.074 80.9531C65.2301 80.9921 65.3082 81.1482 65.2692 81.3043C65.2692 81.3043 64.8399 83.0604 65.6204 83.8019C66.3618 84.4653 71.8252 88.7969 72.6057 89.4213C72.7227 89.5384 72.7618 89.6945 72.6447 89.8506C72.6837 89.9286 72.6057 89.9677 72.4886 90.0067Z" fill="#00A1A8"/>
<path d="M82.594 121.03C82.9062 119.703 83.4526 116.972 83.4526 116.972C83.4526 116.972 88.9549 117.401 90.1257 115.723C91.2964 114.045 94.7695 102.025 93.5988 99.9572C92.4281 97.8889 88.0184 95.0792 86.6525 94.5328C85.2867 93.9865 79.9014 95.0792 79.9014 95.0792L84.155 90.7865C84.155 90.7865 91.1013 94.8841 94.2232 94.6109C97.3451 94.3377 98.2427 93.206 96.6427 91.3329C95.0427 89.4597 83.3745 84.2305 81.4233 84.4646C79.4721 84.6988 70.8478 92.8158 70.6527 93.9865C70.4576 95.1572 63.8235 117.635 65.2284 120.133" fill="white"/>
<path d="M82.59 121.306H82.512C82.3559 121.267 82.2778 121.11 82.3169 120.954C82.6291 119.667 83.1754 116.935 83.1754 116.896C83.2144 116.74 83.3315 116.662 83.4876 116.662C84.9705 116.779 89.029 116.818 89.8875 115.53C90.4339 114.711 91.6046 111.276 92.4631 107.881C93.4777 103.862 93.8289 100.896 93.3607 100.077C92.229 98.0863 87.7802 95.2766 86.5705 94.7693C85.5559 94.34 81.4583 95.0034 79.9754 95.3156C79.8193 95.3546 79.6632 95.2375 79.6242 95.0814C79.6242 95.0034 79.6242 94.8863 79.7023 94.8083L83.9559 90.5156C84.0339 90.4376 84.19 90.3986 84.3071 90.4766C84.3851 90.5156 91.2143 94.5351 94.1802 94.2619C95.7801 94.1058 96.7948 93.7156 97.0289 93.1693C97.2631 92.6229 96.7948 91.9595 96.3655 91.4522C94.8436 89.6961 83.2534 84.4669 81.4193 84.7011C79.5852 84.9352 71.078 92.8571 70.8828 93.9888C70.8438 94.2229 70.6097 95.1595 70.1024 97.0326C68.5414 102.808 64.3658 118.067 65.4585 119.94C65.5365 120.096 65.4975 120.252 65.3414 120.33C65.1853 120.408 65.0292 120.369 64.9512 120.213C63.8975 118.379 66.6682 107.374 69.556 96.8375C69.9853 95.3156 70.2975 94.0668 70.3365 93.8717C70.5316 92.5059 79.312 84.3889 81.3413 84.1157C83.3705 83.8425 95.1167 89.1108 96.8338 91.062C97.5752 91.9595 97.8484 92.74 97.5752 93.3644C97.224 94.1839 96.1314 94.6522 94.2192 94.8473C91.3314 95.0814 85.3607 91.7644 84.19 91.101L80.7559 94.5351C82.3949 94.2619 85.6729 93.7546 86.7656 94.1839C88.0924 94.7302 92.6582 97.618 93.868 99.7253C94.6094 101.013 93.6729 105.423 93.0485 107.959C92.1899 111.472 91.0192 114.906 90.3948 115.803C89.3022 117.403 84.9315 117.286 83.7217 117.208C83.5656 117.91 83.1754 119.979 82.9022 121.032C82.8632 121.228 82.7461 121.306 82.59 121.306Z" fill="#B0B0B0"/>
<path d="M78.1445 100.389C78.1445 100.389 85.442 99.1407 87.042 99.609C88.642 100.077 93.2858 105.033 93.2858 105.033" fill="white"/>
<path d="M93.2501 105.301C93.1721 105.301 93.094 105.262 93.016 105.223C91.7672 103.857 88.177 100.228 86.9282 99.8766C85.6795 99.5254 80.1771 100.345 78.1478 100.696C77.9917 100.735 77.8356 100.618 77.7966 100.462C77.7576 100.306 77.8747 100.15 78.0308 100.111C78.343 100.072 85.4063 98.862 87.0453 99.3302C88.6843 99.7985 93.2111 104.638 93.4062 104.833C93.5233 104.95 93.5233 105.145 93.4062 105.262C93.4062 105.301 93.3282 105.34 93.2501 105.301Z" fill="#B0B0B0"/>
<path d="M83.457 116.975C83.457 116.975 84.5497 113.501 84.2765 111.043L83.457 116.975Z" fill="white"/>
<path d="M83.4569 117.247C83.4179 117.247 83.4179 117.247 83.3789 117.247C83.2228 117.208 83.1447 117.052 83.1838 116.896C83.1838 116.857 84.2374 113.462 84.0033 111.043C84.0033 110.887 84.0813 110.73 84.2764 110.73C84.4325 110.73 84.5886 110.809 84.5886 111.004C84.8618 113.54 83.8082 116.935 83.7691 117.091C83.6911 117.169 83.574 117.247 83.4569 117.247Z" fill="#00A1A8"/>
<path d="M79.4727 110.925C79.8239 110.847 85.9506 111.003 86.3409 110.925H79.4727Z" fill="white"/>
<path d="M85.4449 111.236C84.8985 111.236 84.04 111.236 82.9083 111.197C81.5034 111.197 79.7473 111.158 79.5522 111.197C79.3961 111.236 79.24 111.119 79.201 110.963C79.162 110.806 79.2791 110.65 79.3961 110.611C79.5913 110.572 80.6059 110.572 82.9083 110.611C84.3132 110.611 86.0692 110.65 86.2644 110.611C86.4204 110.572 86.5765 110.689 86.6156 110.845C86.6546 111.002 86.5765 111.158 86.4205 111.197C86.0692 111.236 85.757 111.236 85.4449 111.236Z" fill="#B0B0B0"/>
<path d="M76.9727 105.305C76.9727 105.305 82.2409 104.134 84.6994 104.68C87.1579 105.227 91.4896 110.339 91.9579 110.807" fill="white"/>
<path d="M91.9617 111.08C91.8836 111.08 91.8056 111.041 91.7666 111.002C91.6885 110.924 91.5714 110.807 91.4153 110.611C90.2446 109.324 86.7715 105.421 84.6642 104.992C82.2837 104.485 77.0935 105.616 77.0545 105.616C76.8984 105.655 76.7423 105.577 76.7033 105.421C76.6643 105.265 76.7423 105.109 76.8984 105.07H76.9375C77.1716 105.031 82.2837 103.899 84.8203 104.446C86.8495 104.875 89.8154 107.958 91.8836 110.26C92.0397 110.455 92.1568 110.572 92.2349 110.65C92.3519 110.767 92.3519 110.963 92.2349 111.08C92.1178 111.08 92.0397 111.08 91.9617 111.08Z" fill="#B0B0B0"/>
<path d="M35.9587 142.143C35.8026 142.143 35.6855 142.026 35.6855 141.831C35.6855 141.753 35.7246 141.675 35.8026 141.597L46.6123 133.324C46.7293 133.246 46.9245 133.246 47.0025 133.363C47.1196 133.48 47.0806 133.675 46.9635 133.753L36.1929 142.026C36.0758 142.143 36.0368 142.143 35.9587 142.143Z" fill="#B0B0B0"/>
<path d="M65.3869 51.8017C65.2698 51.8017 65.1527 51.7237 65.1137 51.5676C64.1381 47.431 63.1625 43.2555 62.304 39.197L62.2259 38.7677C61.8357 37.0116 61.4064 35.0214 61.5235 33.1873C61.6406 30.9629 63.3967 30.8068 64.4893 30.8458C64.7625 28.9337 65.7771 27.2166 67.3771 26.1239C71.4356 23.3142 75.7282 24.563 79.8648 25.7727C82.5574 26.5532 85.3281 27.3727 87.9037 26.9825C89.6208 26.7483 91.2208 25.9288 92.7817 25.1483H92.8208C93.3671 24.8752 93.9524 24.602 94.4988 24.3288C95.6305 23.8215 101.25 21.4801 102.772 24.563C103.24 25.4996 102.889 26.4752 102.46 27.2947C101.913 28.4264 101.289 29.519 100.587 30.5727C100.938 30.3776 101.328 30.2215 101.718 30.0654C103.24 29.402 104.957 29.3629 106.518 29.9483C107.182 30.2215 107.767 30.6507 108.157 31.2751C108.938 32.5239 108.625 34.1629 107.221 36.1141C106.44 37.2068 105.621 38.2994 104.723 39.3141C105.816 38.6506 107.025 38.0653 108.352 38.4165C108.977 38.5336 109.484 38.9628 109.796 39.5092C110.343 40.6409 109.445 41.8116 109.133 42.2018C106.791 45.2847 103.786 47.8213 100.391 49.6944C100.235 49.7725 100.079 49.7335 100.001 49.5774C99.9231 49.4213 99.9621 49.2652 100.118 49.1871C100.118 49.1871 100.118 49.1871 100.157 49.1871C103.474 47.392 106.401 44.8945 108.704 41.8506C108.938 41.5384 109.679 40.5628 109.289 39.7433C109.055 39.3531 108.704 39.0409 108.235 38.9628C106.908 38.6116 105.699 39.3921 104.528 40.1336C104.138 40.3677 103.786 40.6018 103.396 40.836C103.24 40.914 103.084 40.836 103.006 40.7189C102.967 40.6018 102.967 40.4848 103.045 40.4067C104.411 38.9628 105.66 37.4409 106.791 35.8019C108.001 34.0458 108.313 32.641 107.689 31.6263C107.377 31.119 106.869 30.7678 106.323 30.5337C105.074 30.0263 103.513 30.0654 101.952 30.6507C101.211 30.9629 100.469 31.3141 99.806 31.7824C99.689 31.8605 99.5329 31.8605 99.4158 31.7434C99.3378 31.6263 99.2987 31.4702 99.3768 31.3922C100.313 30.0263 101.172 28.5825 101.913 27.0995C102.265 26.3971 102.538 25.5776 102.226 24.8752C100.899 22.2215 95.3573 24.641 94.6939 24.9142C94.1476 25.1483 93.5622 25.4215 93.0549 25.6947H93.0159C91.4159 26.4752 89.7379 27.3337 87.9428 27.5678C85.2501 27.9581 82.4013 27.1386 79.6697 26.3581C75.6502 25.1874 71.4746 23.9776 67.6503 26.6313C66.1283 27.6849 65.1527 29.3629 64.9966 31.1971C64.9576 31.3532 64.8405 31.4702 64.6845 31.4702C63.3576 31.4312 62.1869 31.5483 62.0698 33.2653C61.9528 34.9824 62.4211 37.0116 62.8113 38.7287L62.8894 39.158C63.7869 43.2555 64.7235 47.392 65.6991 51.5286C65.7381 51.6847 65.6601 51.8408 65.504 51.8798C65.4259 51.8017 65.4259 51.8017 65.3869 51.8017Z" fill="#B0B0B0"/>
<path d="M67.5292 82.5928C67.3731 82.5928 67.217 82.4367 67.2561 82.2806C67.2561 82.2026 67.2951 82.1635 67.3341 82.0855L71.2755 77.3246C71.3926 77.2075 71.5877 77.1685 71.7048 77.2855C71.8219 77.4026 71.8609 77.5977 71.7438 77.7148L67.8024 82.4757C67.7244 82.5538 67.6463 82.5928 67.5292 82.5928Z" fill="white"/>
<path d="M104.329 107.879C104.251 107.879 104.212 107.84 104.133 107.801L103.314 107.177C103.197 107.099 103.158 106.904 103.236 106.787C103.314 106.67 103.509 106.631 103.626 106.709C103.626 106.709 103.665 106.709 103.665 106.748L104.485 107.372C104.602 107.489 104.641 107.645 104.524 107.801C104.524 107.84 104.446 107.879 104.329 107.879Z" fill="#00A1A8"/>
<path d="M109.56 48.6016H177.97C179.101 48.6016 179.999 49.4991 179.999 50.6308V140.347C179.999 141.479 179.101 142.376 177.97 142.376H109.56C108.429 142.376 107.531 141.479 107.531 140.347V50.6308C107.531 49.4991 108.468 48.6016 109.56 48.6016Z" fill="#00A1A8"/>
<path d="M175.547 54.3398H111.977V136.602H175.547V54.3398Z" fill="white"/>
<path d="M175.587 136.914H111.978C111.822 136.914 111.666 136.797 111.666 136.602V54.3395C111.666 54.1834 111.783 54.0664 111.939 54.0273H175.509C175.665 54.0273 175.782 54.1444 175.821 54.3005V136.602C175.86 136.797 175.743 136.914 175.587 136.914ZM112.29 136.329H175.275V54.6517H112.29V136.329Z" fill="#00A1A8"/>
<path d="M160.406 45.2855H151.275C150.455 41.1489 146.475 38.4563 142.338 39.2758C139.294 39.8611 136.914 42.2416 136.329 45.2855H127.158C125.948 45.2855 124.973 46.2611 124.973 47.4708V55.1195C124.973 56.3293 125.948 57.3049 127.158 57.3049H160.406C161.616 57.3049 162.592 56.3293 162.592 55.1195V47.4708C162.592 46.2611 161.616 45.2855 160.406 45.2855ZM143.782 46.3001C142.69 46.3001 141.831 45.4416 141.831 44.3489C141.831 43.2562 142.69 42.3977 143.782 42.3977C144.875 42.3977 145.733 43.2562 145.733 44.3489C145.733 45.4026 144.875 46.3001 143.782 46.3001Z" fill="#E9E9E9"/>
<path d="M136.486 81.0334H121.111C120.799 81.0334 120.525 80.7602 120.525 80.448V64.019C120.525 63.7068 120.799 63.4336 121.111 63.4336H136.486C136.798 63.4336 137.072 63.7068 137.072 64.019V80.448C137.072 80.7602 136.798 81.0334 136.486 81.0334ZM121.111 64.019V80.448H136.486V64.058L121.111 64.019Z" fill="#B0B0B0"/>
<path d="M140.079 68.0345C140.001 68.1906 139.923 68.3077 139.806 68.4248C136.489 71.7418 133.211 75.0198 129.894 78.3369C129.738 78.61 129.386 78.6881 129.113 78.532C129.035 78.493 128.996 78.4149 128.918 78.3369L123.338 72.5613C123.104 72.3662 123.065 72.015 123.221 71.7808C123.26 71.7418 123.299 71.7028 123.338 71.6638L124.743 70.415C124.938 70.1809 125.25 70.1418 125.484 70.3369C125.523 70.376 125.562 70.376 125.562 70.415L128.879 73.7711C129.23 74.1223 129.464 74.1223 129.816 73.7711L137.542 66.0833C137.699 65.8102 138.05 65.7711 138.323 65.9272C138.401 65.9663 138.44 66.0053 138.479 66.0833C138.908 66.5126 139.338 66.9419 139.767 67.4101C139.845 67.5272 139.962 67.6443 140.04 67.7614L140.079 68.0345Z" fill="#00A1A8"/>
<path d="M136.486 103.432H121.111C120.799 103.432 120.525 103.159 120.525 102.846V86.4174C120.525 86.1052 120.799 85.832 121.111 85.832H136.486C136.798 85.832 137.072 86.1052 137.072 86.4174V102.846C137.072 103.159 136.798 103.432 136.486 103.432ZM121.111 86.4174V102.846H136.486V86.4174H121.111Z" fill="#B0B0B0"/>
<path d="M140.079 90.4369C140.001 90.593 139.923 90.71 139.806 90.8271C136.489 94.1442 133.211 97.4222 129.894 100.739C129.738 101.012 129.386 101.09 129.113 100.934C129.035 100.895 128.996 100.817 128.918 100.739L123.338 94.9637C123.104 94.7685 123.065 94.4173 123.221 94.1832C123.26 94.1442 123.299 94.1051 123.338 94.0661L124.743 92.8173C124.938 92.5832 125.25 92.5442 125.484 92.7393C125.523 92.7783 125.562 92.7783 125.562 92.8173L128.879 96.1734C129.23 96.5246 129.464 96.5246 129.816 96.1734L137.542 88.4857C137.699 88.2125 138.05 88.1735 138.323 88.3296C138.401 88.3686 138.44 88.4076 138.479 88.4857C138.908 88.9149 139.338 89.3442 139.767 89.8125C139.845 89.9296 139.962 90.0466 140.04 90.1637L140.079 90.4369Z" fill="#00A1A8"/>
<path d="M136.486 125.83H121.111C120.799 125.83 120.525 125.557 120.525 125.245V108.855C120.525 108.543 120.799 108.27 121.111 108.27H136.486C136.798 108.27 137.072 108.543 137.072 108.855V125.245C137.072 125.596 136.798 125.83 136.486 125.83ZM121.111 108.855V125.284H136.486V108.894L121.111 108.855Z" fill="#B0B0B0"/>
<path d="M167.901 69.9486H145.267C145.111 69.9486 144.955 69.8315 144.955 69.6364C144.955 69.4413 145.072 69.3242 145.267 69.3242H167.901C168.057 69.3242 168.213 69.4413 168.213 69.6364C168.213 69.8315 168.057 69.9486 167.901 69.9486Z" fill="#B0B0B0"/>
<path d="M162.009 75.1009H145.228C145.072 75.1009 144.916 74.9839 144.916 74.7887C144.916 74.5936 145.033 74.4766 145.228 74.4766H162.009C162.165 74.4766 162.321 74.5936 162.321 74.7887C162.321 74.9839 162.165 75.1009 162.009 75.1009Z" fill="#B0B0B0"/>
<path d="M167.901 92.308H145.267C145.111 92.308 144.955 92.1909 144.955 91.9958C144.955 91.8007 145.072 91.6836 145.267 91.6836H167.901C168.057 91.6836 168.213 91.8007 168.213 91.9958C168.213 92.1909 168.057 92.308 167.901 92.308Z" fill="#B0B0B0"/>
<path d="M162.009 97.4603H145.228C145.072 97.4603 144.916 97.3433 144.916 97.1481C144.916 96.953 145.033 96.8359 145.228 96.8359H162.009C162.165 96.8359 162.321 96.953 162.321 97.1481C162.321 97.3433 162.165 97.4603 162.009 97.4603Z" fill="#B0B0B0"/>
<path d="M167.901 114.749H145.267C145.111 114.749 144.955 114.632 144.955 114.437C144.955 114.242 145.072 114.125 145.267 114.125H167.901C168.057 114.125 168.213 114.242 168.213 114.437C168.213 114.632 168.057 114.749 167.901 114.749Z" fill="#B0B0B0"/>
<path d="M162.009 119.898H145.228C145.072 119.898 144.916 119.781 144.916 119.586C144.916 119.391 145.033 119.273 145.228 119.273H162.009C162.165 119.273 162.321 119.391 162.321 119.586C162.321 119.781 162.165 119.898 162.009 119.898Z" fill="#B0B0B0"/>
<path d="M166.028 142.143C166.185 141.128 166.263 140.074 166.341 139.06C166.497 136.991 165.989 134.689 165.365 132.777C165.092 131.918 164.702 131.021 163.96 130.435C163.219 129.85 162.009 129.85 161.502 130.63C161.033 131.294 161.229 132.191 161.424 132.972C161.892 135.118 162.009 137.304 161.736 139.489C161.385 136.562 160.994 133.518 159.394 131.021C159.043 130.435 158.575 129.967 158.029 129.616C157.443 129.265 156.702 129.304 156.155 129.655C155.336 130.24 155.414 131.45 155.492 132.465C155.765 135.04 155.726 137.655 155.375 140.23C155.57 137.967 155.414 135.704 154.907 133.479C154.555 132.035 153.931 130.435 152.526 129.967C152.214 129.85 151.902 129.85 151.551 129.889C150.887 130.123 150.419 130.669 150.302 131.333C150.185 131.996 150.185 132.66 150.302 133.323C150.575 135.938 150.497 138.552 150.068 141.128C150.38 138.864 150.302 136.562 149.834 134.338C149.716 133.44 149.365 132.582 148.819 131.879C148.234 131.216 147.219 130.787 146.399 131.177C145.775 131.528 145.346 132.113 145.229 132.816C145.112 133.518 145.112 134.221 145.151 134.884C145.229 137.499 144.721 140.113 143.707 142.572C142.887 144.601 141.795 146.825 141.99 149.089C142.185 151.43 144.058 153.459 146.243 154.318C148.429 155.177 150.926 155.098 153.229 154.669C160.838 153.147 167.16 149.518 169.853 142.221" fill="white"/>
</svg>
