<svg width="200" height="200" viewBox="0 0 200 200" fill="none" xmlns="http://www.w3.org/2000/svg">
<g clip-path="url(#clip0_5989_3740)">
<path d="M130.946 162.844L143.886 257.264C143.975 257.919 143.675 258.567 143.108 258.915C140.366 260.586 131.908 265.143 122.89 263.772C122.201 263.669 121.642 263.158 121.492 262.475L105.728 191.786C105.728 191.786 96.6827 213.717 89.2271 225.313C82.8287 235.265 68.3812 257.394 64.418 263.465C63.8041 264.399 62.6377 264.802 61.5804 264.433C57.4876 263.021 47.5354 259.208 42.931 254.208C42.2148 253.43 42.1056 252.278 42.6309 251.364C45.9869 245.525 58.7291 223.062 65.3594 207.653C73.0333 189.808 76.9556 163.758 76.9556 163.758L130.96 162.844H130.946Z" fill="#E9E9E9"/>
<path d="M62.3651 264.903C62.0582 264.903 61.7512 264.855 61.4511 264.746C57.3515 263.327 47.3174 259.487 42.6652 254.426C41.8535 253.539 41.7103 252.236 42.3174 251.179C45.9872 244.787 58.4633 222.761 65.0254 207.502C72.5902 189.903 76.5602 163.955 76.6011 163.696C76.6284 163.532 76.7649 163.409 76.9354 163.402L130.94 162.488C131.11 162.516 131.26 162.611 131.281 162.782L144.221 257.202C144.33 257.993 143.961 258.778 143.279 259.187C140.121 261.117 131.806 265.449 122.829 264.091C121.99 263.962 121.328 263.355 121.144 262.529L105.612 192.884C103.75 197.297 95.9804 215.387 89.4934 225.476C83.17 235.312 68.8999 257.168 64.6775 263.627C64.1523 264.432 63.2724 264.883 62.3515 264.883L62.3651 264.903ZM77.2355 164.091C76.7785 166.984 72.829 191.104 65.6598 207.782C59.0841 223.075 46.5875 245.135 42.9176 251.527C42.4606 252.325 42.5629 253.307 43.1768 253.969C47.7266 258.914 57.638 262.707 61.683 264.105C62.597 264.419 63.5998 264.078 64.125 263.273C68.3474 256.806 82.6107 234.958 88.934 225.121C96.2874 213.682 105.319 191.868 105.407 191.649C105.462 191.513 105.605 191.431 105.755 191.438C105.905 191.451 106.028 191.561 106.055 191.704L121.819 262.393C121.942 262.932 122.379 263.341 122.938 263.423C131.942 264.794 140.517 260.087 142.931 258.614C143.382 258.341 143.62 257.823 143.552 257.304L130.653 163.184L77.2423 164.084L77.2355 164.091Z" fill="#E9E9E9"/>
<path d="M134.281 101.287C123.47 93.4083 114.704 90.7616 100.025 90.8912C92.3851 92.2146 81.2323 98.1627 75.8912 103.661C70.5433 109.159 65.6593 125.045 63.8244 138.326C61.9895 151.621 59.3496 174.704 59.3496 174.704C59.3496 174.704 60.5229 175.891 62.4669 176.519C64.411 177.146 70.9526 180.55 70.9526 180.55L76.13 177.774L78.7971 166.075C78.7971 166.075 112.467 168.183 131.157 162.863L129.507 152.235C129.507 152.235 151.321 131.901 152.426 123.647C153.524 115.4 145.093 109.172 134.281 101.294V101.287ZM128.531 133.367V116.689L135.195 122.371L128.531 133.367Z" fill="#E9E9E9"/>
<path d="M81.8075 140.679C81.8075 140.679 114.495 143.005 128.526 139.52L130.566 158.987L79.4609 160.843L81.8143 140.679H81.8075Z" fill="#E9E9E9"/>
<path d="M79.2366 161.163C79.1411 161.163 79.0524 161.122 78.9842 161.054C78.916 160.979 78.8819 160.883 78.8955 160.781L81.2489 140.61C81.2694 140.433 81.4262 140.29 81.6104 140.31C81.9378 140.337 114.407 142.595 128.22 139.164C128.316 139.144 128.418 139.164 128.5 139.219C128.582 139.273 128.636 139.362 128.643 139.464L130.683 158.932C130.69 159.028 130.662 159.123 130.601 159.191C130.54 159.26 130.451 159.307 130.355 159.307L79.2503 161.163H79.2366ZM81.8901 141.013L79.6254 160.46L129.967 158.632L128.009 139.914C114.653 143.059 85.3144 141.238 81.8901 141.013Z" fill="#AAAAAA"/>
<path d="M75.92 177.755L78.594 184.849L75.7086 184.658C75.1015 184.617 74.6035 185.149 74.6922 185.75C74.9105 187.325 75.2584 190.02 75.2038 190.695C75.122 191.671 72.3662 192.175 70.6813 191.084C70.6813 191.084 69.2488 191.984 67.9869 191.746C66.725 191.507 66.4385 190.872 66.4385 190.872C66.4385 190.872 64.6854 191.746 63.4712 191.282C62.257 190.818 61.9364 189.945 61.9364 189.945C61.9364 189.945 60.5449 190.245 59.5967 189.651C58.6485 189.058 59.4194 186.684 59.8491 184.801C60.2788 182.919 62.2638 176.5 62.2638 176.5C62.2638 176.5 68.8737 179.147 75.9269 177.755H75.92Z" fill="white"/>
<path d="M68.4302 192.118C68.2597 192.118 68.0892 192.105 67.9186 192.071C67.025 191.9 66.5544 191.545 66.3224 191.293C65.7563 191.532 64.3988 192.002 63.3415 191.6C62.407 191.238 61.9364 190.659 61.7385 190.317C61.2542 190.379 60.2106 190.433 59.4125 189.935C58.3961 189.301 58.86 187.412 59.3033 185.59C59.3784 185.297 59.4466 185.004 59.508 184.724C59.9309 182.848 61.8477 176.661 61.9295 176.395C61.9568 176.307 62.025 176.232 62.1069 176.191C62.1956 176.15 62.2911 176.143 62.3797 176.184C62.448 176.211 68.9827 178.776 75.8518 177.418C76.0155 177.384 76.1792 177.473 76.2338 177.63L78.9009 184.724C78.9418 184.833 78.9282 184.956 78.8531 185.045C78.7849 185.14 78.669 185.195 78.5598 185.181L75.6744 184.99C75.4834 184.99 75.3061 185.051 75.1765 185.188C75.0469 185.324 74.9923 185.508 75.0128 185.693C75.2788 187.609 75.5789 190.038 75.5244 190.713C75.5039 190.979 75.347 191.368 74.7331 191.668C73.7508 192.152 71.9568 192.2 70.6608 191.47C70.2788 191.682 69.3647 192.118 68.4166 192.118H68.4302ZM66.7385 190.734C66.7385 190.734 66.9978 191.211 68.0414 191.409C69.1601 191.62 70.4834 190.802 70.4903 190.795C70.6062 190.727 70.7495 190.727 70.8586 190.795C71.9295 191.484 73.5735 191.491 74.4398 191.061C74.6853 190.938 74.8422 190.788 74.8491 190.665C74.89 190.195 74.699 188.421 74.3375 185.795C74.2829 185.406 74.4057 185.017 74.6717 184.731C74.9377 184.444 75.3197 184.294 75.7154 184.315L78.0755 184.472L75.6949 178.141C69.6376 179.246 63.9145 177.453 62.4684 176.941C62.0523 178.298 60.5312 183.278 60.1628 184.874C60.1014 185.161 60.0264 185.454 59.9514 185.754C59.5967 187.193 59.1601 188.987 59.7604 189.362C60.5857 189.874 61.834 189.615 61.8477 189.615C62.0114 189.581 62.1819 189.669 62.2365 189.833C62.2501 189.86 62.5298 190.57 63.5735 190.972C64.6308 191.375 66.2542 190.583 66.2679 190.577C66.3497 190.536 66.4452 190.529 66.5339 190.563C66.6226 190.597 66.6908 190.659 66.7317 190.747L66.7385 190.734Z" fill="#E9E9E9"/>
<path d="M97.2791 79.1562C96.4947 86.8643 96.481 92.5669 96.5492 95.4318C96.5833 96.7415 97.511 97.8602 98.7934 98.1262C100.901 98.5628 104.23 98.8357 107.238 97.2668C108.241 96.7415 108.855 95.6842 108.78 94.5519L108.364 88.2081L97.2791 79.1562Z" fill="white"/>
<path d="M102.012 98.8109C100.798 98.8109 99.6725 98.654 98.7311 98.463C97.285 98.1629 96.255 96.9214 96.2141 95.4412C96.1459 92.6922 96.1527 86.9214 96.944 79.1179C96.9576 78.9951 97.0395 78.8859 97.1554 78.8382C97.2714 78.7904 97.401 78.8109 97.5033 78.8859L108.588 87.9378C108.663 87.9992 108.704 88.0878 108.711 88.1765L109.127 94.5203C109.209 95.7754 108.533 96.9692 107.401 97.5626C105.614 98.4971 103.724 98.8109 102.005 98.8109H102.012ZM97.5647 79.8205C96.8348 87.2625 96.8348 92.7672 96.903 95.4207C96.9303 96.5803 97.742 97.5558 98.8744 97.7877C101.037 98.2379 104.215 98.463 107.094 96.9555C107.988 96.4917 108.52 95.5503 108.451 94.5681L108.042 88.3743L97.5647 79.8205Z" fill="#E9E9E9"/>
<path d="M105.823 49.3004C95.8568 47.6429 88.8513 53.4273 86.7026 60.7806C84.5539 68.134 87.9645 75.5828 87.9645 75.5828L97.0096 82.0972L122.378 67.827C122.378 67.827 126.218 66.074 124.049 60.5692C121.88 55.0644 111.805 41.872 105.816 49.3072L105.823 49.3004Z" fill="#E9E9E9"/>
<path d="M97.0189 82.4393C96.9507 82.4393 96.8757 82.4188 96.8211 82.3779L87.7761 75.8636C87.7284 75.8295 87.6874 75.7817 87.667 75.7272C87.5237 75.4202 84.2222 68.0805 86.3846 60.6862C88.4514 53.6262 95.2181 47.2824 105.696 48.9332C107.149 47.2142 108.922 46.5048 110.962 46.8117C116.589 47.6712 122.694 56.1364 124.386 60.4338C126.651 66.1774 122.578 68.1078 122.537 68.1283L97.1963 82.3847C97.1417 82.412 97.0872 82.4257 97.0258 82.4257L97.0189 82.4393ZM88.2468 75.3656L97.0394 81.6958L122.217 67.528C122.387 67.4461 125.757 65.8158 123.738 60.693C122.142 56.6344 116.139 48.2988 110.846 47.4939C108.997 47.2142 107.401 47.8963 106.091 49.5198C106.016 49.6153 105.893 49.663 105.771 49.6426C95.5933 47.9577 89.0312 54.0696 87.0326 60.8841C85.0612 67.6303 87.8921 74.5471 88.24 75.3656H88.2468Z" fill="#00A1A8"/>
<path d="M86.4568 76.1081C86.8933 81.5242 92.555 80.4055 92.555 80.4055C92.555 80.4055 102.139 93.6798 114.322 90.3169C124.902 87.3974 125.372 76.763 121.634 65.31C117.603 62.4587 110.7 58.707 110.7 58.707C110.7 58.707 106.573 68.2364 101.273 70.426C95.9656 72.6156 93.7555 73.0317 93.6532 74.1709C93.5577 75.31 95.188 78.1682 95.188 78.1682L92.8892 78.5843L89.4649 71.9676C89.4649 71.9676 86.1566 72.3632 86.4568 76.1013V76.1081Z" fill="white"/>
<path d="M110.369 91.2057C100.792 91.2057 93.4586 82.147 92.415 80.7828C91.726 80.8783 89.55 81.0625 87.9266 79.8278C86.8624 79.0229 86.2553 77.7814 86.1257 76.1375C85.8051 72.1129 89.3931 71.6423 89.4341 71.6354C89.5773 71.615 89.7137 71.69 89.7751 71.8196L93.0835 78.2112L94.666 77.9247C94.1953 77.0515 93.2335 75.1279 93.3222 74.1525C93.4109 73.1157 94.5773 72.6723 97.4081 71.5945C98.4177 71.2125 99.666 70.735 101.153 70.1211C106.255 68.0133 110.355 58.675 110.396 58.5863C110.437 58.4976 110.505 58.4294 110.601 58.4021C110.689 58.368 110.792 58.3817 110.873 58.4226C110.942 58.4635 117.838 62.2152 121.842 65.0461C121.903 65.087 121.944 65.1484 121.972 65.2166C124.666 73.4567 124.816 80.1825 122.408 84.6641C120.819 87.6177 118.138 89.6368 114.427 90.6532C113.043 91.0352 111.692 91.2057 110.375 91.2057H110.369ZM92.5582 80.0665C92.6674 80.0665 92.7697 80.1211 92.8379 80.2098C92.9334 80.3394 102.429 93.2589 114.236 89.9915C117.756 89.0229 120.3 87.1198 121.794 84.3367C124.1 80.0393 123.95 73.5386 121.344 65.5304C117.858 63.0815 112.258 59.9574 110.86 59.1934C110.055 60.9533 106.255 68.7432 101.405 70.7487C99.9184 71.3626 98.6564 71.8469 97.6469 72.2289C95.3277 73.1157 94.0521 73.6 93.9975 74.2071C93.9225 75.0529 95.048 77.2357 95.4914 78.0065C95.5459 78.102 95.5528 78.218 95.505 78.3203C95.4573 78.4226 95.3686 78.4908 95.2594 78.5113L92.9607 78.9274C92.8106 78.9547 92.6674 78.8796 92.5991 78.75L89.2908 72.3585C88.595 72.5222 86.5828 73.2453 86.8079 76.0829C86.9238 77.5222 87.4422 78.6 88.3427 79.2821C90.0139 80.5509 92.4764 80.0802 92.5036 80.0734C92.5241 80.0734 92.5446 80.0734 92.5719 80.0734L92.5582 80.0665Z" fill="#E9E9E9"/>
<path d="M108.033 72.0323C105.884 71.4797 104.186 72.2301 102.931 73.9968C102.705 74.3106 102.194 74.065 102.323 73.6898C102.821 71.8549 104.697 70.477 106.614 70.7908C107.071 70.8658 108.783 71.2342 108.442 71.889C108.353 72.0254 108.183 72.0732 108.04 72.0254L108.033 72.0323Z" fill="#E9E9E9"/>
<path d="M118.521 66.5192C116.236 66.0007 114.217 67.8561 112.969 69.5956C112.757 69.9298 112.212 69.6501 112.362 69.2886C113.098 66.7715 116.461 64.3227 118.965 65.9939C119.265 66.3009 118.89 66.7238 118.528 66.5192H118.521Z" fill="#E9E9E9"/>
<path d="M116.142 78.801C115.146 78.801 114.088 78.2895 113.693 77.2253C113.625 77.048 113.713 76.8502 113.891 76.7888C114.068 76.7206 114.266 76.8092 114.327 76.9866C114.689 77.9552 115.835 78.2894 116.687 78.0439C117.042 77.9416 117.84 77.5869 117.615 76.4409C117.54 76.0521 117.356 75.786 117.063 75.6223C116.346 75.2199 115.105 75.5337 114.689 75.6905C114.518 75.7588 114.334 75.6769 114.259 75.5132C114.245 75.4859 113.099 72.9347 112.329 69.5173C112.288 69.3331 112.404 69.1489 112.588 69.108C112.772 69.0603 112.956 69.183 112.997 69.3672C113.604 72.0753 114.457 74.2171 114.764 74.9607C115.33 74.8038 116.537 74.5582 117.397 75.0357C117.867 75.3017 118.168 75.7315 118.284 76.3181C118.515 77.4641 117.963 78.3986 116.878 78.7124C116.646 78.7806 116.401 78.8147 116.148 78.8147L116.142 78.801Z" fill="#E9E9E9"/>
<path d="M106.18 76.3953C106.555 77.3435 107.387 77.9029 108.042 77.6436C108.697 77.3844 108.929 76.4158 108.561 75.4608C108.451 75.1812 108.288 74.922 108.11 74.7241L107.217 75.7746V74.1784C107.033 74.1443 106.869 74.158 106.705 74.2194C106.05 74.4786 105.818 75.4472 106.187 76.3953H106.18Z" fill="#E9E9E9"/>
<path d="M116.354 71.1015C116.647 72.077 117.432 72.7046 118.1 72.4999C118.783 72.2953 119.09 71.3471 118.796 70.3717C118.708 70.0784 118.571 69.8123 118.407 69.594L117.432 70.5695L117.555 68.9733C117.384 68.9256 117.214 68.9256 117.05 68.9733C116.375 69.1711 116.061 70.1261 116.354 71.0947V71.1015Z" fill="#E9E9E9"/>
<path d="M109.534 85.0862C109.207 85.0862 108.893 85.0452 108.607 84.9702C107.365 84.6428 106.553 83.6605 106.431 82.344C106.424 82.2485 106.451 82.153 106.519 82.078C106.588 82.0098 106.676 81.9484 106.772 81.9688L113.566 82.0507C113.695 82.0507 113.805 82.1257 113.866 82.2349C113.92 82.3508 113.914 82.4804 113.845 82.5828C112.611 84.3631 110.933 85.0793 109.541 85.0793L109.534 85.0862ZM107.174 82.6578C107.372 83.4968 107.938 84.0903 108.784 84.3085C109.896 84.6019 111.581 84.2062 112.877 82.726L107.174 82.6578Z" fill="#E9E9E9"/>
<path d="M102.355 64.1232C102.355 64.1232 128.529 63.4479 128.31 61.0059C128.085 58.5639 123.27 57.3087 123.27 57.3087L113.263 55.5625L103.774 58.7821L102.355 64.1164V64.1232Z" fill="#E9E9E9"/>
<path d="M102.353 64.4628C102.25 64.4628 102.148 64.415 102.087 64.3332C102.019 64.2513 101.998 64.1353 102.025 64.033L103.444 58.6988C103.471 58.5896 103.553 58.501 103.662 58.46L113.151 55.2404C113.205 55.2199 113.267 55.2199 113.321 55.2267L123.328 56.973C123.56 57.0344 128.41 58.3236 128.649 60.9703C128.662 61.1135 128.635 61.325 128.437 61.5432C126.452 63.7738 104.822 64.3945 102.36 64.4559H102.353V64.4628ZM104.058 59.0467L102.803 63.767C114.87 63.4396 127.81 62.3072 127.967 61.0316C127.803 59.224 124.454 57.9689 123.178 57.6346L113.28 55.9089L104.051 59.0398L104.058 59.0467Z" fill="#E9E9E9"/>
<path d="M85.9965 70.3808C92.8723 68.7778 106.297 62.7069 108.186 61.2471C108.186 61.2471 117.197 56.3903 123.568 57.3112C123.568 57.3112 121.085 41.4722 107.368 43.0206C93.6431 44.5759 86.9855 50.0124 85.212 55.1216C83.4385 60.2307 85.9965 70.3808 85.9965 70.3808Z" fill="#00A1A8"/>
<path d="M85.9938 70.7279C85.8437 70.7279 85.7005 70.6256 85.6664 70.4687C85.5641 70.0526 83.1016 60.1549 84.8887 55.0117C87.1057 48.6338 95.4958 44.0226 107.331 42.6856C121.226 41.1236 123.886 57.099 123.907 57.2627C123.92 57.3719 123.886 57.481 123.811 57.556C123.736 57.6311 123.627 57.6652 123.518 57.6515C117.331 56.7579 108.429 61.4987 108.34 61.5465C106.362 63.0813 92.7128 69.159 86.062 70.7143C86.0347 70.7143 86.0074 70.7211 85.987 70.7211L85.9938 70.7279ZM109.241 43.2586C108.647 43.2586 108.033 43.2927 107.406 43.3678C95.8369 44.6774 87.6582 49.1181 85.53 55.2368C83.9815 59.6843 85.8301 68.1972 86.2462 69.9708C93.2721 68.2382 106.239 62.3241 107.979 60.9803C108.388 60.7552 116.785 56.2804 123.149 56.9216C122.911 55.7893 122.14 52.6925 120.319 49.7525C117.638 45.4414 113.92 43.2586 109.248 43.2586H109.241Z" fill="#E9E9E9"/>
<path d="M128.313 117.002C128.135 117.002 127.979 116.859 127.972 116.675C127.972 116.586 127.528 107.698 126.771 102.76C126.744 102.575 126.874 102.398 127.058 102.371C127.242 102.344 127.419 102.473 127.447 102.657C128.204 107.63 128.647 116.552 128.654 116.641C128.661 116.832 128.517 116.989 128.326 116.996H128.313V117.002Z" fill="#E9E9E9"/>
<path d="M91.4238 93.5068C91.4238 93.5068 98.0268 105.035 98.8658 119.359C99.7048 133.684 98.8658 162.75 98.8658 162.75L90.1004 162.013C90.1004 162.013 92.1264 143.302 91.2805 128.125C90.4347 112.947 84.582 96.9584 84.582 96.9584L91.4238 93.5V93.5068Z" fill="#00A1A8"/>
<path d="M98.8749 163.095C98.8749 163.095 98.8544 163.095 98.8476 163.095L90.0823 162.358C89.9936 162.352 89.9049 162.304 89.8503 162.236C89.7889 162.167 89.7617 162.072 89.7753 161.983C89.7958 161.799 91.7876 143.122 90.9554 128.15C90.1232 113.204 84.3387 97.2425 84.2773 97.0856C84.2159 96.9219 84.291 96.7445 84.4411 96.6626L91.2828 93.2043C91.4465 93.1224 91.6443 93.1838 91.733 93.3407C91.8012 93.4566 98.3838 105.101 99.2228 119.343C100.055 133.525 99.2296 162.474 99.2228 162.761C99.2228 162.856 99.1818 162.945 99.1068 163.006C99.0454 163.061 98.9636 163.095 98.8817 163.095H98.8749ZM90.4779 161.71L98.5406 162.386C98.6361 158.996 99.3115 132.679 98.5338 119.384C97.7767 106.533 92.2923 95.8168 91.2896 93.9614L85.0072 97.1333C85.7917 99.3639 90.8462 114.166 91.6239 128.109C92.3947 142.004 90.7439 159.071 90.4779 161.704V161.71Z" fill="#E9E9E9"/>
<path d="M112.666 91.7305C112.666 91.7305 114.262 110.598 115.333 123.074C116.404 135.55 118.744 159.664 118.744 159.664L124.726 158.313C124.726 158.313 123.375 129.991 122.42 118.354C121.465 106.724 120.599 93.8041 120.599 93.8041L112.666 91.7373V91.7305Z" fill="#00A1A8"/>
<path d="M118.741 159.999C118.673 159.999 118.598 159.978 118.543 159.937C118.461 159.883 118.413 159.794 118.407 159.692C118.386 159.453 116.053 135.435 114.996 123.103C113.925 110.626 112.329 91.7587 112.329 91.7587C112.322 91.6496 112.363 91.5404 112.452 91.4722C112.533 91.404 112.649 91.3699 112.759 91.404L120.685 93.4709C120.828 93.505 120.93 93.6346 120.937 93.7778C120.944 93.9074 121.817 106.827 122.759 118.321C123.7 129.828 125.051 158.007 125.064 158.294C125.071 158.457 124.962 158.607 124.798 158.641L118.816 159.992C118.816 159.992 118.768 159.999 118.741 159.999ZM113.045 92.1816C113.297 95.1966 114.696 111.738 115.671 123.041C116.66 134.515 118.741 156.09 119.048 159.242L124.368 158.041C124.225 155.033 122.97 129.248 122.076 118.382C121.203 107.755 120.398 95.9129 120.269 94.0711L113.045 92.1885V92.1816Z" fill="#E9E9E9"/>
<path d="M130.946 162.843C130.946 162.843 124.166 165.299 108.797 166.056C93.4291 166.813 78.5859 166.056 78.5859 166.056L79.4659 158.969C92.5423 162.243 129.766 155.258 129.766 155.258L130.946 162.843Z" fill="white"/>
<path d="M94.1772 166.729C85.2823 166.729 78.6725 166.402 78.5701 166.395C78.4746 166.395 78.386 166.347 78.3246 166.272C78.2632 166.197 78.2359 166.102 78.2495 166.013L79.1295 158.926C79.1431 158.83 79.1977 158.742 79.2727 158.687C79.3546 158.633 79.4569 158.612 79.5456 158.639C92.3969 161.859 129.327 154.99 129.696 154.922C129.784 154.901 129.88 154.922 129.955 154.976C130.03 155.031 130.078 155.113 130.098 155.202L131.278 162.787C131.306 162.951 131.21 163.107 131.06 163.162C130.992 163.189 124.054 165.638 108.809 166.395C103.713 166.648 98.652 166.729 94.1704 166.729H94.1772ZM78.9726 165.727C81.3532 165.836 94.9276 166.395 108.782 165.706C122.26 165.038 129.17 163.046 130.569 162.603L129.484 155.652C125.501 156.388 92.5197 162.302 79.757 159.383L78.9726 165.727Z" fill="#00A1A8"/>
<path d="M129.293 152.546C129.129 152.546 128.979 152.423 128.958 152.259C127.819 144.947 127.976 133.446 127.976 133.33C127.976 133.146 128.133 132.996 128.317 132.996C128.508 132.996 128.658 133.153 128.651 133.344C128.651 133.46 128.494 144.906 129.627 152.157C129.654 152.341 129.531 152.519 129.34 152.546C129.32 152.546 129.306 152.546 129.286 152.546H129.293Z" fill="#AAAAAA"/>
<path d="M108.083 156.871L98.7036 157.882C97.7185 157.988 97.006 158.873 97.1121 159.858L97.8875 167.054C97.9936 168.039 98.8782 168.751 99.8633 168.645L109.243 167.634C110.228 167.528 110.941 166.644 110.834 165.659L110.059 158.463C109.953 157.478 109.068 156.765 108.083 156.871Z" fill="#00A1A8"/>
<path d="M99.6667 168.988C99.1824 168.988 98.7118 168.825 98.3298 168.518C97.8864 168.163 97.6067 167.651 97.5453 167.085L96.7677 159.895C96.6449 158.722 97.4908 157.672 98.664 157.542L108.043 156.533C109.217 156.403 110.267 157.256 110.397 158.429L111.174 165.625C111.304 166.792 110.451 167.849 109.278 167.979L99.8987 168.988C99.8236 168.995 99.7418 169.002 99.6667 169.002V168.988ZM108.275 157.201C108.221 157.201 108.173 157.201 108.118 157.208L98.7391 158.217C97.941 158.306 97.3612 159.022 97.4498 159.82L98.2275 167.01C98.2684 167.399 98.4594 167.74 98.7595 167.985C99.0597 168.231 99.4416 168.347 99.8236 168.299L109.203 167.29C110.001 167.201 110.581 166.485 110.492 165.687L109.715 158.49C109.633 157.747 109.005 157.194 108.268 157.194L108.275 157.201Z" fill="#00A1A8"/>
<path d="M126.527 154.942L117.147 155.952C116.162 156.058 115.449 156.943 115.555 157.928L116.331 165.124C116.437 166.109 117.322 166.822 118.307 166.715L127.686 165.705C128.671 165.599 129.384 164.714 129.278 163.729L128.502 156.533C128.396 155.548 127.512 154.836 126.527 154.942Z" fill="#00A1A8"/>
<path d="M118.119 167.061C117.041 167.061 116.113 166.249 115.997 165.158L115.22 157.961C115.158 157.395 115.322 156.836 115.677 156.393C116.031 155.949 116.543 155.67 117.109 155.608L126.488 154.599C127.055 154.537 127.614 154.701 128.057 155.056C128.501 155.41 128.78 155.922 128.842 156.488L129.619 163.678C129.681 164.244 129.517 164.803 129.162 165.247C128.808 165.69 128.296 165.97 127.73 166.031L118.351 167.041C118.276 167.047 118.194 167.054 118.119 167.054V167.061ZM126.72 155.267C126.666 155.267 126.618 155.267 126.563 155.274L117.184 156.283C116.795 156.324 116.454 156.515 116.209 156.816C115.963 157.116 115.854 157.498 115.895 157.88L116.673 165.076C116.761 165.874 117.471 166.447 118.276 166.365L127.655 165.356C128.044 165.315 128.385 165.124 128.63 164.824C128.876 164.524 128.985 164.142 128.944 163.76L128.166 156.57C128.126 156.181 127.935 155.84 127.634 155.594C127.375 155.383 127.055 155.274 126.727 155.274L126.72 155.267Z" fill="#00A1A8"/>
<path d="M91.7857 157.629L82.3672 157.091C81.3781 157.034 80.5304 157.79 80.4738 158.779L80.061 166.005C80.0045 166.994 80.7606 167.842 81.7498 167.898L91.1682 168.436C92.1574 168.493 93.0051 167.737 93.0616 166.748L93.4745 159.522C93.531 158.533 92.7749 157.685 91.7857 157.629Z" fill="#00A1A8"/>
<path d="M91.2808 168.768C91.2399 168.768 91.199 168.768 91.1581 168.768L81.7447 168.229C81.1785 168.195 80.6533 167.943 80.2713 167.52C79.8893 167.097 79.6983 166.544 79.7324 165.978L80.1417 158.754C80.1758 158.188 80.4282 157.663 80.8511 157.281C81.274 156.899 81.8197 156.708 82.3927 156.742L91.8061 157.281C92.9793 157.349 93.8798 158.359 93.8184 159.532L93.4091 166.756C93.375 167.322 93.1226 167.847 92.6997 168.229C92.304 168.584 91.8061 168.768 91.2808 168.768ZM82.2699 157.417C81.9152 157.417 81.5742 157.547 81.3081 157.786C81.0216 158.045 80.8443 158.4 80.8238 158.789L80.4145 166.012C80.3668 166.81 80.9807 167.499 81.7856 167.547L91.199 168.086C91.5878 168.106 91.9561 167.977 92.2495 167.718C92.536 167.458 92.7133 167.104 92.7338 166.715L93.1431 159.491C93.1908 158.693 92.5769 158.004 91.772 157.956L82.3586 157.417C82.3586 157.417 82.304 157.417 82.2767 157.417H82.2699Z" fill="#00A1A8"/>
<path d="M79.4642 159.308C79.4642 159.308 79.4369 159.308 79.4233 159.308C79.2391 159.288 79.1027 159.117 79.1231 158.933L82.3428 131.129C82.3428 131.129 82.3564 131.061 82.3701 131.034C82.4042 130.959 85.5965 123.585 85.6511 116.661C85.6511 116.47 85.808 116.32 85.9922 116.32C86.1832 116.32 86.3332 116.477 86.3332 116.661C86.2787 123.428 83.2909 130.597 83.0113 131.252L79.7984 159.008C79.778 159.178 79.6279 159.308 79.4574 159.308H79.4642Z" fill="#E9E9E9"/>
</g>
<defs>
<clipPath id="clip0_5989_3740">
<rect width="160" height="160" fill="white" transform="translate(20 20)"/>
</clipPath>
</defs>
</svg>
