<svg width="200" height="200" viewBox="0 0 200 200" fill="none" xmlns="http://www.w3.org/2000/svg">
<path d="M142.367 119.342C142.367 119.342 139.634 119.508 138.9 116.117L144 117.081L142.367 119.342Z" fill="#000111"/>
<path d="M136.567 118.845C136.567 118.845 135.033 118.38 135 114.856L138.167 114.523C138.167 114.523 137.533 118.779 136.567 118.845Z" fill="#000111"/>
<path d="M139.099 89.29L121.799 92.415C121.799 92.415 112.099 87.2289 104.532 87.0959C96.9649 86.9629 91.2314 93.0466 91.2314 93.0466H99.5983C99.5983 93.0466 98.9316 103.386 90.0314 107.774C81.1312 112.162 76.0645 110.433 76.0645 110.433C76.0645 110.433 77.9312 118.246 83.4979 117.847C83.4979 117.847 88.0314 123.93 96.1315 120.506C96.1315 120.506 98.6649 122.9 104.898 122.368C111.132 121.836 118.465 119.575 118.465 119.575L142.466 113.857C142.466 113.857 145.432 110.101 143.932 100.527C142.666 92.2487 139.099 89.29 139.099 89.29Z" fill="#FFCABE"/>
<path d="M138.101 88.6562L132.834 90.3849C132.834 90.3849 139.001 102.12 136.567 118.809L146.168 117.346C146.168 117.346 147.734 95.2718 138.101 88.6562Z" fill="#E9E9E9"/>
<path d="M138.1 88.658C138.1 88.658 146.8 100.958 142.366 119.342C142.366 119.342 169.034 117.148 180 106.211L167.134 73C167.134 73 153.667 83.5052 138.1 88.658Z" fill="#038991"/>
<path d="M149.433 118.446H149.333C149.133 118.413 149 118.213 149.066 117.981C153.466 99.5966 143.333 87.0303 143.233 86.8974C143.1 86.7311 143.1 86.4984 143.266 86.3655C143.433 86.2325 143.666 86.2325 143.8 86.3987C143.8 86.3987 143.8 86.3987 143.833 86.4319C143.933 86.5649 154.3 99.3972 149.8 118.147C149.766 118.313 149.6 118.446 149.433 118.446Z" fill="#FFCABE"/>
<path d="M66.7342 114.988C66.7342 114.988 65.5342 118.778 68.8343 120.607C72.1343 122.435 76.5011 120.607 76.5011 120.607C76.5011 120.607 79.3678 124.097 82.2679 124.33C85.1679 124.563 88.9347 123.432 88.9347 123.432C88.9347 123.432 92.8014 128.186 97.7348 126.225C102.668 124.263 102.735 118.014 102.735 118.014L66.7342 114.988Z" fill="#FFCABE"/>
<path d="M146.735 116.054C147.361 116.054 147.868 115.548 147.868 114.923C147.868 114.299 147.361 113.793 146.735 113.793C146.109 113.793 145.602 114.299 145.602 114.923C145.602 115.548 146.109 116.054 146.735 116.054Z" fill="#FFCABE"/>
<path d="M128.134 94.0468C125.534 93.947 121.8 92.983 121.634 92.9497C121.334 92.8832 121.134 92.584 121.2 92.2848C121.267 91.9856 121.567 91.7862 121.867 91.8527C121.9 91.8527 121.9 91.8527 121.934 91.8527C121.967 91.8527 125.734 92.8167 128.167 92.9165C128.467 92.9165 128.734 93.1824 128.7 93.4816C128.7 93.8141 128.467 94.0468 128.134 94.0468Z" fill="#FFF7F5"/>
<path d="M170.575 109.27C171.477 109.27 172.208 108.54 172.208 107.641C172.208 106.741 171.477 106.012 170.575 106.012C169.673 106.012 168.941 106.741 168.941 107.641C168.941 108.54 169.673 109.27 170.575 109.27Z" fill="#FFCABE"/>
<path d="M57.6334 119.342C57.6334 119.342 60.3668 119.508 61.1001 116.117L56 117.081L57.6334 119.342Z" fill="#000111"/>
<path d="M63.4379 118.845C63.4379 118.845 64.9713 118.38 65.0046 114.856L61.8379 114.523C61.8379 114.523 62.4712 118.779 63.4379 118.845Z" fill="#000111"/>
<path d="M60.8964 89.29L78.1968 92.415C78.1968 92.415 87.897 87.2289 95.4638 87.0959C103.031 86.9629 108.764 93.0466 108.764 93.0466H100.397C100.397 93.0466 101.064 103.386 109.964 107.774C118.864 112.162 123.931 110.433 123.931 110.433C123.931 110.433 122.064 118.246 116.498 117.847C116.498 117.847 111.964 123.93 103.864 120.506C103.864 120.506 101.331 122.9 95.0971 122.368C88.8637 121.836 81.5302 119.575 81.5302 119.575L57.5297 113.857C57.5297 113.857 54.5963 110.101 56.063 100.527C57.3297 92.2487 60.8964 89.29 60.8964 89.29Z" fill="#FFCABE"/>
<path d="M61.9014 88.6562L67.1682 90.3849C67.1682 90.3849 61.0014 102.12 63.4348 118.809L53.8346 117.346C53.8346 117.346 52.2679 95.2718 61.9014 88.6562Z" fill="#E9E9E9"/>
<path d="M61.9008 88.658C61.9008 88.658 53.2007 100.958 57.6341 119.342C57.6341 119.342 30.9669 117.148 20 106.211L32.8669 73C32.8669 73 46.3672 83.5052 61.9008 88.658Z" fill="#03868E"/>
<path d="M50.5667 118.444C50.4 118.444 50.2334 118.311 50.2 118.145C45.6999 99.395 56.0668 86.5628 56.1668 86.4298C56.3001 86.2636 56.5335 86.2303 56.7002 86.3633C56.8668 86.4963 56.9002 86.729 56.7668 86.8952C56.7668 86.8952 56.7668 86.8952 56.7335 86.9285C56.6335 87.0614 46.4999 99.6277 50.9 118.012C50.9334 118.211 50.8334 118.411 50.6334 118.477L50.5667 118.444Z" fill="#FFCABE"/>
<path d="M53.0318 115.886C53.6577 115.886 54.1652 115.38 54.1652 114.755C54.1652 114.131 53.6577 113.625 53.0318 113.625C52.4059 113.625 51.8984 114.131 51.8984 114.755C51.8984 115.38 52.4059 115.886 53.0318 115.886Z" fill="#FFCABE"/>
<path d="M125.599 117.213H125.532C112.532 115.917 104.432 104.348 103.231 102.553L91.5312 101.256H91.4979C87.2645 100.425 86.1645 98.4969 85.9978 97.0342C85.7978 95.239 86.9312 93.5768 87.8645 93.1779L99.9314 87.3602C100.198 87.1939 100.531 87.2604 100.698 87.5264C100.865 87.7923 100.798 88.1248 100.531 88.291C100.498 88.3242 100.465 88.3242 100.398 88.3575L88.3312 94.1752C87.8312 94.4079 86.9645 95.638 87.1312 96.9012C87.2978 98.4637 88.8979 99.594 91.6979 100.126L103.665 101.456C103.831 101.489 103.998 101.589 104.065 101.722C104.132 101.855 112.198 114.753 125.665 116.116C125.965 116.15 126.199 116.416 126.165 116.748C126.132 117.014 125.899 117.213 125.599 117.213Z" fill="#FFF7F5"/>
<path d="M88.6357 122.77C88.569 122.77 88.5023 122.77 88.4357 122.737C88.1357 122.637 88.0023 122.305 88.1357 122.005C91.3691 113.861 96.2025 112.065 98.1025 111.7C100.003 111.334 101.903 111.7 103.003 112.797C105.703 115.489 102.669 121.673 102.536 121.939C102.369 122.205 102.036 122.305 101.769 122.138C101.536 122.005 101.436 121.706 101.536 121.44C102.336 119.844 104.003 115.39 102.203 113.595C101.369 112.763 99.9359 112.464 98.3359 112.797C96.6025 113.162 92.2024 114.825 89.169 122.437C89.0357 122.637 88.8357 122.77 88.6357 122.77Z" fill="#FFF7F5"/>
<path d="M78.135 118.981C77.835 118.981 77.5684 118.715 77.5684 118.416C77.5684 118.349 77.5684 118.283 77.6017 118.216C80.8351 110.071 85.6685 108.276 87.5686 107.911C89.4686 107.545 91.3686 107.911 92.4687 109.008C95.202 111.734 91.702 117.651 91.5353 117.884C91.3686 118.15 91.0353 118.216 90.7686 118.05C90.502 117.884 90.4353 117.551 90.5686 117.285C91.4686 115.789 93.402 111.534 91.6686 109.772C90.8353 108.941 89.4019 108.642 87.8019 108.974C86.0685 109.34 81.6684 111.002 78.635 118.615C78.5684 118.848 78.3684 118.981 78.135 118.981Z" fill="#FFF7F5"/>
<path d="M79.7016 115.854C79.6016 115.854 79.5349 115.82 79.4349 115.787C79.1682 115.654 79.0682 115.322 79.2016 115.056C79.2349 115.023 81.6016 110.368 79.4682 108.241C78.3349 107.077 76.7015 106.579 75.1348 106.878C73.3015 107.243 70.6014 108.972 68.2014 114.923C68.1014 115.222 67.768 115.355 67.5013 115.255C67.2347 115.156 67.068 114.823 67.168 114.557V114.524C69.7347 108.075 72.8014 106.213 74.9015 105.781C76.8349 105.415 78.8349 106.013 80.2349 107.443C82.9683 110.169 80.3016 115.355 80.1683 115.555C80.1016 115.754 79.9016 115.854 79.7016 115.854Z" fill="#FFF7F5"/>
<path d="M113.036 121.505H113.003C106.536 121.139 103.202 116.186 103.069 115.953C102.902 115.687 103.002 115.354 103.236 115.188C103.502 115.022 103.836 115.089 104.002 115.354C104.036 115.388 107.169 120.075 113.036 120.408C113.336 120.408 113.603 120.674 113.569 120.973C113.603 121.272 113.336 121.505 113.036 121.505Z" fill="#FFF7F5"/>
<path d="M35.6017 98.4999C36.4486 98.4999 37.1351 97.8152 37.1351 96.9706C37.1351 96.1261 36.4486 95.4414 35.6017 95.4414C34.7549 95.4414 34.0684 96.1261 34.0684 96.9706C34.0684 97.8152 34.7549 98.4999 35.6017 98.4999Z" fill="#FFCABE"/>
<path d="M73.5374 94.4426C73.2374 94.4426 72.9707 94.1766 72.9707 93.8774C72.9707 93.6115 73.204 93.3455 73.4707 93.3455C75.5041 93.1461 77.9041 91.9493 77.9375 91.9493C78.2041 91.8163 78.5375 91.916 78.7042 92.182C78.8375 92.4479 78.7375 92.7804 78.4708 92.9466C78.3708 93.0131 75.8708 94.2431 73.6041 94.4758H73.5374V94.4426Z" fill="#FFF7F5"/>
</svg>
