<svg width="200" height="200" viewBox="0 0 200 200" fill="none" xmlns="http://www.w3.org/2000/svg">
<path d="M107.918 91.1601C110.054 91.1601 111.785 89.4287 111.785 87.2929C111.785 85.1572 110.054 83.4258 107.918 83.4258C105.782 83.4258 104.051 85.1572 104.051 87.2929C104.051 89.4287 105.782 91.1601 107.918 91.1601Z" fill="#4EA9B0"/>
<path d="M107.536 88.7653C107.449 88.7655 107.364 88.7374 107.295 88.6852L107.29 88.6819L106.382 87.9861C106.339 87.9539 106.304 87.9137 106.277 87.8678C106.251 87.8219 106.233 87.7711 106.226 87.7185C106.219 87.6658 106.223 87.6123 106.236 87.561C106.25 87.5097 106.274 87.4616 106.306 87.4194C106.338 87.3773 106.379 87.3419 106.425 87.3154C106.47 87.2888 106.521 87.2716 106.574 87.2647C106.627 87.2578 106.68 87.2613 106.731 87.2751C106.783 87.2889 106.831 87.3127 106.873 87.3451L107.461 87.7965L108.853 85.9823C108.885 85.9402 108.925 85.9049 108.971 85.8784C109.017 85.8519 109.068 85.8346 109.12 85.8277C109.173 85.8208 109.226 85.8242 109.277 85.8379C109.329 85.8516 109.377 85.8753 109.419 85.9076C109.504 85.9728 109.559 86.0692 109.573 86.1753C109.587 86.2815 109.559 86.3888 109.494 86.4738L107.857 88.6078C107.82 88.6569 107.771 88.6967 107.715 88.7241C107.659 88.7514 107.598 88.7655 107.536 88.7653Z" fill="white"/>
<path d="M107.918 102.465C110.054 102.465 111.785 100.733 111.785 98.5976C111.785 96.4619 110.054 94.7305 107.918 94.7305C105.782 94.7305 104.051 96.4619 104.051 98.5976C104.051 100.733 105.782 102.465 107.918 102.465Z" fill="#4EA9B0"/>
<path d="M107.536 100.07C107.449 100.07 107.364 100.042 107.295 99.9899L107.29 99.9866L106.382 99.2908C106.339 99.2586 106.304 99.2184 106.277 99.1725C106.251 99.1266 106.233 99.0758 106.226 99.0232C106.219 98.9705 106.223 98.917 106.236 98.8657C106.25 98.8144 106.274 98.7663 106.306 98.7241C106.338 98.682 106.379 98.6466 106.425 98.62C106.47 98.5935 106.521 98.5763 106.574 98.5694C106.627 98.5625 106.68 98.566 106.731 98.5798C106.783 98.5936 106.831 98.6174 106.873 98.6498L107.461 99.1012L108.853 97.287C108.885 97.2449 108.925 97.2096 108.971 97.1831C109.017 97.1565 109.068 97.1393 109.12 97.1324C109.173 97.1254 109.226 97.1289 109.277 97.1426C109.329 97.1563 109.377 97.18 109.419 97.2123C109.504 97.2775 109.559 97.3739 109.573 97.48C109.587 97.5862 109.559 97.6935 109.494 97.7785L107.857 99.9124C107.82 99.9616 107.771 100.001 107.715 100.029C107.659 100.056 107.598 100.07 107.536 100.07Z" fill="white"/>
<path d="M110 115.559C112.136 115.559 113.867 113.827 113.867 111.691C113.867 109.556 112.136 107.824 110 107.824C107.864 107.824 106.133 109.556 106.133 111.691C106.133 113.827 107.864 115.559 110 115.559Z" fill="#4EA9B0"/>
<path d="M109.618 113.164C109.531 113.164 109.446 113.136 109.377 113.084L109.373 113.08L108.464 112.385C108.421 112.352 108.386 112.312 108.359 112.266C108.333 112.22 108.315 112.17 108.308 112.117C108.301 112.064 108.305 112.011 108.318 111.959C108.332 111.908 108.356 111.86 108.388 111.818C108.42 111.776 108.461 111.74 108.507 111.714C108.553 111.687 108.603 111.67 108.656 111.663C108.709 111.656 108.762 111.66 108.813 111.674C108.865 111.687 108.913 111.711 108.955 111.744L109.544 112.195L110.935 110.381C110.967 110.339 111.007 110.303 111.053 110.277C111.099 110.25 111.15 110.233 111.202 110.226C111.255 110.219 111.308 110.223 111.359 110.236C111.411 110.25 111.459 110.274 111.501 110.306C111.586 110.371 111.641 110.468 111.655 110.574C111.669 110.68 111.641 110.787 111.576 110.872L109.939 113.006C109.902 113.055 109.853 113.095 109.797 113.122C109.741 113.15 109.68 113.164 109.618 113.164Z" fill="white"/>
<path d="M147.29 143.975C147.25 143.975 147.225 143.974 147.216 143.974L142.415 143.974V143.266H147.234C147.345 143.27 149.621 143.335 151.719 140.79C154.844 136.997 157.41 127.609 151.889 104.42C144.465 73.2381 150.657 45.6911 153.664 35.2949C153.812 34.7805 153.838 34.2388 153.741 33.7124C153.644 33.1861 153.426 32.6895 153.103 32.2621C152.781 31.8346 152.364 31.4879 151.885 31.2493C151.406 31.0108 150.878 30.887 150.343 30.8876H78.6397C78.0945 30.8883 77.5572 31.0176 77.0714 31.2649C76.5856 31.5121 76.1649 31.8705 75.8435 32.3108C74.5698 34.0629 72.8218 37.4289 71.7279 43.5152L71.0312 43.3901C72.1488 37.1716 73.9536 33.7066 75.2709 31.8947C75.6581 31.3641 76.1649 30.9323 76.7502 30.6343C77.3355 30.3363 77.9829 30.1806 78.6397 30.1797H150.343C150.988 30.1791 151.624 30.3284 152.201 30.616C152.779 30.9036 153.281 31.3215 153.669 31.8367C154.057 32.3519 154.32 32.9503 154.437 33.5846C154.555 34.2189 154.522 34.8717 154.344 35.4915C151.352 45.8338 145.192 73.238 152.578 104.256C158.177 127.771 155.485 137.363 152.241 141.269C150.102 143.845 147.744 143.975 147.29 143.975Z" fill="#E6E6E6"/>
<path d="M134.376 156.897C134.336 156.897 134.311 156.896 134.302 156.896L129.501 156.896V156.188H134.32C134.432 156.192 136.707 156.257 138.805 153.712C141.93 149.919 144.496 140.531 138.975 117.341C131.551 86.16 137.743 58.613 140.75 48.2167C140.898 47.7024 140.924 47.1606 140.827 46.6343C140.73 46.1079 140.512 45.6114 140.189 45.1839C139.867 44.7565 139.45 44.4098 138.971 44.1712C138.492 43.9327 137.964 43.8088 137.429 43.8095H65.7257C65.1805 43.8102 64.6432 43.9395 64.1574 44.1867C63.6716 44.434 63.2509 44.7924 62.9295 45.2327C61.6558 46.9848 59.9078 50.3508 58.814 56.4371L58.1172 56.3119C59.2348 50.0935 61.0396 46.6284 62.3569 44.8165C62.7441 44.286 63.2509 43.8542 63.8362 43.5562C64.4215 43.2582 65.0689 43.1024 65.7257 43.1016H137.429C138.074 43.1009 138.71 43.2503 139.287 43.5379C139.865 43.8255 140.367 44.2434 140.755 44.7586C141.143 45.2738 141.406 45.8722 141.523 46.5065C141.64 47.1408 141.608 47.7936 141.43 48.4134C138.438 58.7557 132.278 86.1598 139.664 117.178C145.263 140.693 142.571 150.285 139.327 154.191C137.188 156.767 134.83 156.897 134.376 156.897Z" fill="#CCCCCC"/>
<path d="M126.738 130.097C119.352 99.0789 125.513 71.6726 128.505 61.3324C128.684 60.7126 128.715 60.0599 128.598 59.4257C128.481 58.7915 128.218 58.1933 127.83 57.6781C127.442 57.1629 126.94 56.7449 126.362 56.4571C125.785 56.1693 125.149 56.0195 124.504 56.0195H52.7998C52.1433 56.0202 51.4961 56.1757 50.911 56.4734C50.3259 56.7711 49.8192 57.2027 49.4322 57.733C46.5377 61.7132 40.5316 74.9121 47.2399 111.433C50.8274 130.971 50.7739 144.292 49.6019 153.068C48.9443 158.009 47.93 161.507 47.0107 163.866L46.9126 164.116C46.719 164.593 46.6181 165.103 46.6152 165.618C46.6084 166.2 46.725 166.776 46.9572 167.309C47.1895 167.843 47.5322 168.321 47.9627 168.712C48.2434 168.975 48.5611 169.195 48.9057 169.366C49.1918 169.512 49.4944 169.623 49.8071 169.696C50.1255 169.774 50.4521 169.813 50.7799 169.812H121.378C121.387 169.812 121.41 169.815 121.452 169.815C121.904 169.815 124.263 169.684 126.402 167.108C129.645 163.202 132.337 153.612 126.738 130.097ZM125.879 166.629C123.781 169.176 121.506 169.11 121.396 169.107H50.7799C50.2145 169.107 49.6578 168.969 49.1584 168.704C48.659 168.439 48.2321 168.055 47.915 167.587C47.6361 167.183 47.4488 166.722 47.3661 166.238C47.2834 165.753 47.3073 165.256 47.4361 164.782C47.4699 164.644 47.5136 164.509 47.567 164.378C48.617 161.679 49.3953 158.883 49.8903 156.03C51.5682 146.883 51.8805 132.768 47.936 111.305C41.2784 75.0549 47.1655 62.0553 50.0034 58.1494C50.3253 57.7098 50.7462 57.352 51.232 57.105C51.7177 56.8579 52.2548 56.7287 52.7998 56.7275H124.504C125.039 56.7271 125.567 56.8511 126.046 57.0897C126.525 57.3282 126.942 57.6747 127.263 58.102C127.585 58.5292 127.804 59.0254 127.901 59.5515C127.998 60.0775 127.972 60.619 127.824 61.1331C124.817 71.5298 118.626 99.0789 126.051 130.26C131.572 153.448 129.005 162.837 125.879 166.629Z" fill="#3F3D56"/>
<path d="M92.6769 89.796H55.734C54.983 89.796 54.2627 89.4977 53.7317 88.9667C53.2007 88.4356 52.9023 87.7154 52.9023 86.9644C52.9023 86.2134 53.2007 85.4932 53.7317 84.9622C54.2627 84.4311 54.983 84.1328 55.734 84.1328H92.6769C93.4279 84.1328 94.1481 84.4311 94.6791 84.9622C95.2102 85.4932 95.5085 86.2134 95.5085 86.9644C95.5085 87.7154 95.2102 88.4356 94.6791 88.9667C94.1481 89.4977 93.4279 89.796 92.6769 89.796Z" fill="#CCCCCC"/>
<path d="M92.6769 101.987H55.734C54.983 101.987 54.2627 101.689 53.7317 101.158C53.2007 100.627 52.9023 99.9068 52.9023 99.1558C52.9023 98.4048 53.2007 97.6846 53.7317 97.1536C54.2627 96.6225 54.983 96.3242 55.734 96.3242H92.6769C93.4279 96.3242 94.1481 96.6225 94.6791 97.1536C95.2102 97.6846 95.5085 98.4048 95.5085 99.1558C95.5085 99.9068 95.2102 100.627 94.6791 101.158C94.1481 101.689 93.4279 101.987 92.6769 101.987Z" fill="#CCCCCC"/>
<path d="M95.6534 114.48H58.7105C57.9595 114.48 57.2393 114.181 56.7083 113.65C56.1772 113.119 55.8789 112.399 55.8789 111.648C55.8789 110.897 56.1772 110.177 56.7083 109.646C57.2393 109.115 57.9595 108.816 58.7105 108.816H95.6534C96.4044 108.816 97.1247 109.115 97.6557 109.646C98.1867 110.177 98.4851 110.897 98.4851 111.648C98.4851 112.399 98.1867 113.119 97.6557 113.65C97.1247 114.181 96.4044 114.48 95.6534 114.48Z" fill="#CCCCCC"/>
<path d="M97.7354 127.573H60.7926C60.0416 127.573 59.3213 127.275 58.7903 126.744C58.2593 126.213 57.9609 125.493 57.9609 124.742C57.9609 123.991 58.2593 123.271 58.7903 122.74C59.3213 122.208 60.0416 121.91 60.7926 121.91H97.7354C98.4864 121.91 99.2067 122.208 99.7377 122.74C100.269 123.271 100.567 123.991 100.567 124.742C100.567 125.493 100.269 126.213 99.7377 126.744C99.2067 127.275 98.4864 127.573 97.7354 127.573Z" fill="#CCCCCC"/>
<path d="M97.7485 67.8116H71.2017C70.8296 67.812 70.4611 67.7391 70.1172 67.5969C69.7733 67.4548 69.4608 67.2463 69.1976 66.9833C68.9343 66.7203 68.7255 66.4081 68.583 66.0643C68.4405 65.7206 68.3672 65.3521 68.3672 64.98C68.3672 64.6079 68.4405 64.2395 68.583 63.8958C68.7255 63.552 68.9343 63.2397 69.1976 62.9768C69.4608 62.7138 69.7733 62.5053 70.1172 62.3631C70.4611 62.221 70.8296 62.1481 71.2017 62.1484H97.7485C98.4995 62.1484 99.2197 62.4468 99.7508 62.9778C100.282 63.5088 100.58 64.2291 100.58 64.98C100.58 65.731 100.282 66.4513 99.7508 66.9823C99.2197 67.5133 98.4995 67.8116 97.7485 67.8116Z" fill="#4EA9B0"/>
<path d="M112.379 128.609C114.515 128.609 116.246 126.878 116.246 124.742C116.246 122.606 114.515 120.875 112.379 120.875C110.243 120.875 108.512 122.606 108.512 124.742C108.512 126.878 110.243 128.609 112.379 128.609Z" fill="#CCCCCC"/>
<path d="M99.5167 140.359H62.5738C61.8228 140.359 61.1026 140.06 60.5716 139.529C60.0405 138.998 59.7422 138.278 59.7422 137.527C59.7422 136.776 60.0405 136.056 60.5716 135.525C61.1026 134.994 61.8228 134.695 62.5738 134.695H99.5167C100.268 134.695 100.988 134.994 101.519 135.525C102.05 136.056 102.348 136.776 102.348 137.527C102.348 138.278 102.05 138.998 101.519 139.529C100.988 140.06 100.268 140.359 99.5167 140.359Z" fill="#CCCCCC"/>
<path d="M114.164 141.394C116.3 141.394 118.031 139.663 118.031 137.527C118.031 135.392 116.3 133.66 114.164 133.66C112.028 133.66 110.297 135.392 110.297 137.527C110.297 139.663 112.028 141.394 114.164 141.394Z" fill="#CCCCCC"/>
</svg>
