<svg width="200" height="200" viewBox="0 0 200 200" fill="none" xmlns="http://www.w3.org/2000/svg">
<path d="M54.5366 125.055C53.6164 124.79 52.6692 124.649 51.7111 124.633C50.5203 124.703 49.3511 124.952 48.236 125.374C46.6393 125.91 45.0749 126.533 43.5485 127.236C42.7582 127.599 41.8651 128.146 41.8164 129.012C42.9693 129.715 44.4471 129.31 45.7515 128.952C47.0777 128.59 48.4201 128.297 49.7733 128.081C49.0101 129.548 48.4255 131.107 48.0304 132.714C47.7814 133.44 47.7922 134.224 48.0574 134.944C48.4309 135.697 49.2645 136.081 50.0385 136.406C51.5866 137.061 53.2375 137.721 54.9101 137.456C55.906 137.239 56.8641 136.85 57.7302 136.308L59.6626 135.258C59.8087 135.193 59.9332 135.096 60.036 134.971C60.1064 134.847 60.1551 134.712 60.1714 134.571L60.9021 130.874C61.0374 130.159 61.8223 128.043 61.4434 127.458C61.2377 127.155 60.1822 126.917 59.8195 126.809C59.2512 126.592 58.6828 126.376 58.1091 126.17C56.9182 125.753 55.7382 125.364 54.5366 125.055Z" fill="#FFCABE"/>
<path d="M132.49 110.64C131.207 116.41 127.943 121.536 124.555 126.386C120.376 132.264 114.887 137.081 108.516 140.459C104.505 142.592 100.365 144.757 95.8502 145.211C92.6025 145.542 89.3223 144.962 86.1071 144.378L69.9768 141.46C66.7561 140.881 63.3244 140.194 60.9915 137.899C59.5679 136.437 58.7451 134.499 58.6856 132.459C58.5449 130.185 59.3568 127.961 60.9211 126.304L84.3587 129.958C85.923 130.196 87.5469 130.44 89.0733 130.001C90.7567 129.514 92.1045 128.253 93.3278 126.992C98.4754 121.671 102.779 115.592 106.075 108.967C108.376 104.328 109.323 98.9641 112.446 94.7204C116.197 89.5998 124.062 89.8488 128.49 94.1304C131.358 96.9126 132.766 100.815 132.988 104.842C133.085 106.791 132.917 108.74 132.49 110.64Z" fill="#E9E9E9"/>
<path d="M132.49 110.635C131.207 116.405 127.943 121.531 124.554 126.381C120.376 132.259 114.887 137.077 108.516 140.454C104.505 142.587 100.364 144.752 95.8501 145.207C92.6024 145.537 89.3223 144.958 86.107 144.373L69.9767 141.456C66.7561 140.876 63.3244 140.189 60.9914 137.894C59.5678 136.433 58.7451 134.495 58.6855 132.454C62.7831 134.538 73.6737 137.499 75.1623 137.867C81.295 139.377 88.0665 140.914 94.3345 139.767C98.1885 139.063 102.075 137.553 103.78 133.867C105.739 129.618 107.509 125.158 109.074 120.724C110.638 116.291 112.37 111.674 115.439 108.037C118.508 104.399 123.255 101.812 127.948 102.57C129.789 102.878 131.521 103.652 132.982 104.816C133.085 106.77 132.917 108.724 132.49 110.635Z" fill="url(#paint0_linear_5989_3745)"/>
<path d="M112.968 132.33C112.232 127.529 111.588 122.717 111.111 117.889C110.494 111.561 109.125 103.918 110.862 97.7423C112.118 93.6285 115.258 91.4417 118.781 88.9085C121.71 86.6243 125.006 84.8543 128.524 83.6689C131.031 83.0085 133.623 82.7216 136.216 82.8136C144.184 82.9814 155.031 85.2548 161.326 90.4566C166.057 94.3701 167.627 100.838 168.769 106.868C170.339 115.199 171.573 123.578 172.466 132.006C172.601 133.223 172.731 134.447 172.834 135.676C173.668 144.948 174.512 154.577 173.375 163.855C173.029 166.772 172.623 169.706 170.312 171.622C164.866 176.153 155.296 175.774 148.622 175.952C139.751 176.18 130.646 176.386 122.262 173.479C120.546 173.057 119.041 172.028 118.023 170.578C117.033 168.813 117.509 166.637 117.769 164.623C118.927 155.649 115.404 146.999 113.937 138.279C113.596 136.282 113.276 134.301 112.968 132.33Z" fill="#E9E9E9"/>
<path d="M130.978 83.2828C130.978 83.2828 125.863 91.0448 131.979 92.6849C138.096 94.325 148.84 86.4818 147.217 84.4087C145.593 82.3356 132.228 82.5521 130.978 83.2828Z" fill="#4EA9B0"/>
<path d="M158.579 112.821C158.071 112.031 154.558 105.487 153.859 105.725C152.652 106.223 151.765 107.268 151.472 108.54C151.196 109.796 151.142 111.089 151.304 112.367C151.618 116.399 152.149 120.486 151.58 124.475C151.012 128.464 149.156 132.519 145.724 134.668C142.395 136.752 138.103 136.773 134.725 138.781C134.324 139.057 133.891 139.279 133.437 139.447C132.933 139.572 132.408 139.61 131.889 139.566C128.116 139.458 124.338 139.593 120.581 139.978C120.04 140.032 119.315 140.329 119.455 140.86C119.515 141.098 119.742 141.244 119.948 141.401C121.588 142.457 122.984 143.848 124.045 145.482C124.587 146.273 125.036 147.117 125.388 148.01C125.55 148.481 125.512 149.131 125.685 149.548C125.859 149.964 128.208 153.201 128.603 153.185L160.246 152.216L166.818 126.9L161.286 117.455C160.338 115.89 159.537 114.321 158.579 112.821Z" fill="url(#paint1_linear_5989_3745)"/>
<path d="M120.15 72.7257C119.798 70.4253 119.555 68.0707 119.425 65.7919C119.3 63.7621 119.279 61.7052 119.338 59.67C119.382 58.3546 119.338 57.3533 120.351 56.3952C123.1 53.9865 126.483 52.4222 130.094 51.8755C132.8 51.41 135.842 51.5778 137.986 53.299C139.48 54.6523 140.519 56.4385 140.963 58.4034C142.354 63.3399 141.888 68.5579 142.002 73.6838C142.083 77.6514 142.538 81.6028 143.355 85.4838C141.672 87.0536 139.626 88.1903 137.401 88.7857C136.346 88.9535 135.268 88.9535 134.213 88.7857C133.634 88.7694 133.082 88.5258 132.67 88.1145C132.448 87.7247 132.335 87.2809 132.34 86.8316C132.335 86.4148 132.302 85.9981 132.248 85.5867C132.032 83.27 131.604 80.9803 130.976 78.7394C130.949 78.5446 130.846 78.3713 130.689 78.2577C130.532 78.209 130.359 78.209 130.202 78.2577L129.563 78.3659C128.437 78.6474 127.29 78.8314 126.132 78.9072C124.746 78.9938 123.371 78.577 122.272 77.7272C120.87 76.5743 120.421 74.5553 120.15 72.7257Z" fill="#FFCABE"/>
<path d="M121.486 56.2963C120.522 57.1569 119.781 58.2341 119.321 59.4412C117.681 58.548 117.074 56.4912 117.973 54.8511C118.038 54.732 118.108 54.6183 118.184 54.5101C115.066 53.8172 114.222 49.8388 115.543 47.2839C116.019 46.4666 116.685 45.7791 117.486 45.2757C118.996 44.204 120.761 43.5382 122.606 43.3434C125.313 43.1214 127.954 44.1228 130.255 45.5085C130.736 45.8657 131.289 46.1201 131.879 46.2446C132.409 46.2717 132.939 46.2013 133.443 46.0389C136.75 45.2541 140.398 45.568 143.3 47.338C144.999 48.3773 146.407 49.8821 148.204 50.7535C149.714 51.4951 151.533 51.8361 152.583 53.1352C153.503 54.418 153.6 56.1177 152.832 57.4979C152.047 58.8457 150.813 59.8688 149.34 60.383C150.331 62.0556 149.779 64.2153 148.106 65.2058C148.079 65.2221 148.047 65.2383 148.02 65.2546C147.478 65.5252 146.802 65.6768 146.396 66.1368C146.076 66.4833 145.979 66.965 145.654 67.3331C144.902 68.1883 143.803 68.6322 143.635 69.915C143.614 70.4563 143.652 71.003 143.749 71.5389C143.819 72.3291 143.63 73.1194 143.208 73.796C142.926 74.2291 142.472 75.2683 141.984 75.4469C141.497 75.6256 140.934 75.1168 140.691 74.6134C139.727 72.6485 139.608 70.4238 139.738 68.2803C139.846 66.5807 142.098 66.5807 142.212 64.6267C142.287 63.2843 140.945 61.9744 139.635 62.2991C138.049 62.6943 137.47 64.8919 135.927 65.3736L136.404 59.728C136.442 59.4845 136.442 59.2409 136.404 58.9973C136.344 58.797 136.263 58.5968 136.166 58.4127C135.754 57.4763 135.738 56.41 136.122 55.4573C134.179 56.41 132.057 56.9404 129.892 57.0108C127.711 57.0649 125.6 56.2476 124.025 54.7374C123.088 55.0946 122.227 55.6197 121.486 56.2963Z" fill="#4EA9B0"/>
<path d="M129.6 78.3754C132.161 77.4335 134.618 76.2265 136.929 74.7812C138.51 82.8139 132.236 85.6069 132.236 85.6069C132.025 83.2848 131.603 80.9898 130.975 78.7435C130.948 78.5486 130.84 78.3754 130.683 78.2617C130.526 78.213 130.358 78.213 130.201 78.2617L129.562 78.37H129.6V78.3754Z" fill="#DE9F93"/>
<path d="M129.938 142.603C129.229 142.652 128.52 142.609 127.822 142.484C127.162 142.311 126.517 142.095 125.89 141.824C124.688 141.407 123.465 141.071 122.22 140.817C121.023 140.471 119.773 140.346 118.533 140.449C117.213 140.638 116.033 141.337 114.858 141.975C113.11 142.928 111.302 143.773 109.445 144.498C108.601 144.833 107.648 145.229 107.324 146.073C107.188 146.344 107.237 146.668 107.453 146.879C107.578 146.95 107.719 146.993 107.859 146.993C108.747 147.031 109.635 146.955 110.501 146.766L116.509 145.732C116.948 147.123 117.494 148.482 118.133 149.792C118.23 150.019 118.371 150.225 118.55 150.398C118.739 150.533 118.956 150.631 119.183 150.69C121.04 151.345 122.967 151.762 124.926 151.935C126.896 152.097 128.861 151.572 130.485 150.441C130.718 150.235 130.967 150.057 131.232 149.9C131.476 149.786 131.73 149.694 131.99 149.64C134.209 149.055 136.39 148.357 138.539 147.556C138.913 147.415 138.485 144.893 138.415 144.563C138.258 143.827 137.933 142.241 137.197 142.057C136.726 141.938 135.898 142.203 135.405 142.246C134.81 142.306 134.209 142.354 133.608 142.398C132.385 142.495 131.162 142.565 129.938 142.603Z" fill="#FFCABE"/>
<path d="M176.335 117.371C178.43 123.958 179.653 130.789 179.972 137.696C180.108 141.317 179.821 145.274 177.358 147.953C175.588 149.869 172.974 150.763 170.435 151.374C160.015 153.886 149.108 152.852 138.456 151.715C137.698 151.78 137.027 151.223 136.956 150.459C136.951 150.389 136.951 150.319 136.956 150.254L135.127 139.829L154.251 136.944C161.163 135.899 157.341 126.15 156.113 121.641C154.44 115.514 152.324 109.019 154.045 102.659C155.079 98.8696 157.395 93.2186 162.202 93.8356C166.819 94.4256 169.542 100.461 171.258 104.217C173.228 108.488 174.928 112.883 176.335 117.371Z" fill="#E9E9E9"/>
<path d="M117.143 147.32H78.6094V151.596H117.143V147.32Z" fill="#007D85"/>
<path d="M93.3956 151.692H35.3428L25.3398 112.254H83.3872L93.3956 151.692Z" fill="#007D85"/>
<path opacity="0.18" d="M117.147 151.597H93.3739L93.3956 151.69H35.3482L25.3398 112.246H83.3872L92.2913 147.321H117.147V151.597Z" fill="#007D85"/>
<path d="M117.147 151.597H93.3739L93.3956 151.69H35.3482L25.3398 112.246H83.3872L92.2913 147.321H117.147V151.597Z" fill="#4EA9B0"/>
<path d="M54.5747 137.204C58.1022 137.204 60.9618 134.344 60.9618 130.817C60.9618 127.289 58.1022 124.43 54.5747 124.43C51.0471 124.43 48.1875 127.289 48.1875 130.817C48.1875 134.344 51.0471 137.204 54.5747 137.204Z" fill="#E9E9E9"/>
<path opacity="0.3" d="M117.148 151.597H93.3747L93.3963 151.69H88.1026L78.0996 112.246H83.388L92.2921 147.321H117.148V151.597Z" fill="white"/>
<path d="M48.4742 42.6576L48.418 42.6094L48.5946 42.6656L48.4782 42.6535L48.4742 42.6576Z" fill="white"/>
<path d="M49.1219 49.2235C48.7884 49.4645 48.5434 49.802 48.4108 50.1916C48.3787 50.3925 48.3787 50.5974 48.4108 50.7982C48.4269 50.983 48.463 51.1678 48.5233 51.3446C48.6237 51.5535 48.7563 51.7423 48.913 51.911L49.2745 52.3288C49.3147 52.385 49.3669 52.4332 49.4272 52.4694C49.5638 52.5176 49.7204 52.4694 49.8088 52.3569C49.8932 52.2444 49.9534 52.1159 49.9775 51.9753C50.1904 51.2562 50.777 50.0992 50.6524 49.344C50.5118 48.4321 49.5718 48.8178 49.1178 49.2275L49.1219 49.2235Z" fill="#FFB4A3"/>
<path d="M49.6893 35.5626L26.7109 73.4297L34.3901 78.0895L57.3685 40.2224L49.6893 35.5626Z" fill="#E9E9E9"/>
<path d="M47.9317 43.422L33.0206 67.9947C32.5475 68.7743 32.796 69.7897 33.5756 70.2628L34.0358 70.542C34.8153 71.0151 35.8308 70.7666 36.3038 69.987L51.215 45.4143C51.688 44.6347 51.4395 43.6193 50.66 43.1462L50.1998 42.867C49.4202 42.3939 48.4048 42.6424 47.9317 43.422Z" fill="#C2C2C2"/>
<path d="M61.0084 39.8634C57.3005 42.4063 52.2308 41.4623 49.6839 37.7544C47.141 34.0465 48.085 28.9768 51.7929 26.4299C53.4721 25.277 55.5209 24.7949 57.5375 25.0801L55.6052 28.2778L53.4319 31.8813L59.1524 35.3481L61.3458 31.7166L63.1937 28.6635C65.6362 32.3673 64.664 37.3487 61.0043 39.8634H61.0084Z" fill="#E9E9E9"/>
<path d="M31.9915 85.9275C30.2601 86.8635 28.2434 87.1327 26.3272 86.6828L31.3728 80.1026L26.0581 76.0292L20.9964 82.6334L20.9643 82.5812C18.8432 78.6162 20.3376 73.6791 24.3066 71.558C28.2716 69.4369 33.2087 70.9313 35.3298 74.9003C37.4509 78.8653 35.9565 83.8024 31.9875 85.9235L31.9915 85.9275Z" fill="#E9E9E9"/>
<path d="M83.8761 88.1184C83.3305 88.0822 82.8181 87.8351 82.4503 87.4311C82.173 87.1297 81.9047 86.8132 81.6184 86.5148C81.1301 85.9059 80.3072 85.6799 79.5747 85.9481C78.8513 86.1863 78.378 86.8795 78.4172 87.6391V88.9262C78.4323 89.93 77.6305 90.7529 76.6268 90.7679C76.5514 90.7679 76.476 90.7679 76.4037 90.7559C75.632 90.7016 74.8514 90.6413 74.0616 90.569C72.9102 90.4665 72.024 89.5019 72.027 88.3445V87.0574C72.021 86.2737 71.5598 85.5623 70.8454 85.2428C70.2094 84.869 69.4046 84.9625 68.8711 85.4719C68.5847 85.7221 68.3225 85.9964 68.0391 86.2435C67.1921 87.0152 65.9713 86.8976 65.1424 85.9933C64.5667 85.3634 63.9849 84.7364 63.4273 84.1004C62.5893 83.1569 62.5923 81.9482 63.4273 81.1374C63.6926 80.8812 63.9729 80.643 64.2321 80.3657C64.7807 79.8563 64.9435 79.0545 64.639 78.3733C64.3979 77.6318 63.7468 77.1013 62.9691 77.0169C62.5532 76.9626 62.1342 76.9536 61.7212 76.9053C60.5155 76.8119 59.6082 75.772 59.6776 74.5633V72.2815C59.6143 71.2807 60.3738 70.4186 61.3746 70.3523C61.4258 70.3493 61.4771 70.3493 61.5283 70.3493C61.9563 70.3493 62.3904 70.3945 62.8184 70.4307C63.5961 70.5483 64.3497 70.1052 64.627 69.3697C64.9465 68.6342 64.7686 67.8836 64.1417 67.1783C63.8855 66.892 63.6232 66.6146 63.37 66.3253C62.6074 65.5325 62.6074 64.2756 63.37 63.4828C63.9789 62.889 64.6029 62.3042 65.2449 61.7436C66.0919 61.0624 67.3247 61.1829 68.0271 62.0088C68.3164 62.3193 68.5907 62.6449 68.8891 62.9523C69.3714 63.528 70.1612 63.739 70.8665 63.4858C71.5779 63.2658 72.0541 62.5936 72.024 61.8491V60.6464C72.0541 59.3593 72.9011 58.5756 74.1551 58.6721C74.8815 58.7293 75.6079 58.7836 76.3344 58.8469C77.522 58.9253 78.4413 59.9169 78.4323 61.1076V62.2651C78.3991 63.0789 78.8543 63.8325 79.5898 64.1761C80.262 64.568 81.115 64.4534 81.6606 63.8988C81.9198 63.6546 82.17 63.4075 82.4322 63.1693C83.2642 62.4369 84.5302 62.5183 85.2626 63.3502C85.2777 63.3653 85.2897 63.3803 85.3018 63.3984C85.9016 64.0405 86.4924 64.6915 87.0742 65.3306C87.876 66.1324 87.876 67.4315 87.0742 68.2303C86.7909 68.5046 86.4955 68.7608 86.2121 69.0381C85.7027 69.5234 85.5399 70.2679 85.8022 70.919C85.9981 71.6485 86.601 72.2001 87.3485 72.3267C87.7886 72.4111 88.2377 72.4141 88.6808 72.4623C89.8021 72.5136 90.6732 73.454 90.6371 74.5753C90.6642 75.4495 90.6642 76.3206 90.6371 77.1917C90.5979 78.4306 89.8322 79.1238 88.6205 79.0274C88.2347 79.0002 87.8489 78.955 87.463 78.943C86.7366 78.8948 86.0704 79.3469 85.8444 80.0402C85.555 80.7304 85.7087 81.5262 86.2302 82.0597C86.5075 82.3792 86.8089 82.6867 87.0893 83.0032C87.888 83.808 87.888 85.1071 87.0893 85.912C86.5105 86.4786 85.9318 87.0333 85.3199 87.5879C84.9431 87.9707 84.4156 88.1696 83.8791 88.1244L83.8761 88.1184ZM66.8304 74.0388C66.8304 78.8284 70.5651 82.9941 75.2161 83.3679C79.8671 83.7417 83.6379 80.1547 83.6379 75.3862C83.6379 70.6176 79.8701 66.4579 75.2583 66.0841C70.6465 65.7104 66.8515 69.2521 66.8274 74.0388H66.8304Z" fill="#E9E9E9"/>
<path d="M99.2534 71.2995C98.9731 71.2814 98.7139 71.1578 98.527 70.9468C98.3853 70.7931 98.2497 70.6333 98.102 70.4826C97.8518 70.1722 97.4328 70.0546 97.059 70.1902C96.6913 70.3138 96.4471 70.6665 96.4682 71.0553V71.7094C96.4773 72.2189 96.0734 72.6408 95.564 72.6499C95.5218 72.6499 95.4826 72.6499 95.4434 72.6439L94.2497 72.5504C93.662 72.4992 93.2128 72.0048 93.2158 71.414V70.7569C93.2098 70.356 92.9747 69.9973 92.613 69.8285C92.2875 69.6416 91.8805 69.6899 91.6092 69.9491C91.4615 70.0757 91.3259 70.2144 91.1842 70.3349C90.7562 70.7087 90.1081 70.6665 89.7344 70.2385C89.7253 70.2264 89.7133 70.2144 89.7042 70.2023C89.4118 69.8858 89.1164 69.5663 88.8301 69.2377C88.4141 68.8338 88.4021 68.1677 88.806 67.7517C88.815 67.7427 88.8211 67.7336 88.8301 67.7276C88.9657 67.601 89.1044 67.4774 89.24 67.3418C89.5173 67.0795 89.6017 66.6696 89.445 66.3229C89.3244 65.9431 88.9899 65.6719 88.595 65.6327C88.384 65.6056 88.17 65.6025 87.959 65.5784C87.3501 65.5181 86.8919 64.9937 86.916 64.3818V63.2243C86.8829 62.7149 87.2717 62.2778 87.7781 62.2446C87.8052 62.2446 87.8324 62.2446 87.8565 62.2446C88.0735 62.2446 88.2936 62.2688 88.5136 62.2838C88.9085 62.3441 89.2943 62.1211 89.436 61.7473C89.5957 61.3585 89.4962 60.9123 89.1888 60.626C89.0562 60.4843 88.9235 60.3396 88.803 60.1889C88.4141 59.785 88.4141 59.143 88.803 58.7391C89.1165 58.4346 89.4329 58.1392 89.7615 57.8559C90.1925 57.5092 90.8225 57.5695 91.1782 57.9915C91.3259 58.1513 91.4646 58.3171 91.6153 58.4708C91.8594 58.7632 92.2633 58.8717 92.6251 58.7421C92.9928 58.6336 93.2369 58.2899 93.2249 57.9071V57.2982C93.1917 56.7707 93.5926 56.3156 94.1201 56.2824C94.1834 56.2794 94.2497 56.2824 94.313 56.2885L95.4223 56.3759C96.0282 56.4211 96.4954 56.9275 96.4923 57.5334V58.1272C96.4743 58.5401 96.7064 58.9229 97.0801 59.1008C97.4238 59.3027 97.8578 59.2455 98.1381 58.9621C98.2708 58.8385 98.3974 58.7119 98.524 58.5763C98.946 58.2055 99.591 58.2447 99.9648 58.6667C99.9708 58.6758 99.9799 58.6818 99.9859 58.6908C100.296 59.0194 100.595 59.351 100.893 59.6886C101.3 60.0985 101.3 60.7586 100.893 61.1686C100.745 61.3072 100.595 61.4398 100.453 61.5785C100.194 61.8257 100.112 62.2085 100.245 62.54C100.342 62.9078 100.643 63.1881 101.017 63.2574C101.243 63.2906 101.469 63.3117 101.698 63.3238C102.271 63.3509 102.714 63.8332 102.696 64.4059V65.7382C102.729 66.2265 102.358 66.6515 101.867 66.6816C101.797 66.6847 101.731 66.6816 101.665 66.6726C101.469 66.6726 101.279 66.6334 101.071 66.6304C100.7 66.6063 100.36 66.8354 100.245 67.1911C100.1 67.5407 100.176 67.9476 100.441 68.2189C100.583 68.3847 100.739 68.5384 100.881 68.7012C101.288 69.1111 101.288 69.7743 100.881 70.1842C100.583 70.4736 100.278 70.7569 99.9768 71.0373C99.7869 71.2241 99.5277 71.3176 99.2625 71.2995H99.2534ZM90.5573 64.1165C90.5482 66.5701 92.396 68.6319 94.8345 68.8911C97.0198 69.072 98.9399 67.4443 99.1178 65.2589C99.1298 65.1112 99.1328 64.9665 99.1298 64.8188C99.1178 62.3833 97.2791 60.3426 94.8586 60.0744C92.6853 59.8815 90.7653 61.4881 90.5723 63.6614C90.5603 63.8121 90.5542 63.9628 90.5573 64.1135V64.1165Z" fill="#E9E9E9"/>
<defs>
<linearGradient id="paint0_linear_5989_3745" x1="84.7592" y1="82.2229" x2="104.478" y2="147.94" gradientUnits="userSpaceOnUse">
<stop/>
<stop offset="0.08" stop-opacity="0.69"/>
<stop offset="0.21" stop-opacity="0.32"/>
<stop offset="1" stop-opacity="0"/>
</linearGradient>
<linearGradient id="paint1_linear_5989_3745" x1="169.188" y1="153.169" x2="133.653" y2="122.987" gradientUnits="userSpaceOnUse">
<stop/>
<stop offset="0.08" stop-opacity="0.69"/>
<stop offset="0.21" stop-opacity="0.32"/>
<stop offset="1" stop-opacity="0"/>
</linearGradient>
</defs>
</svg>
