<svg width="20" height="20" viewBox="0 0 20 20" fill="none" xmlns="http://www.w3.org/2000/svg">
<path d="M0 16.7516C0 17.3743 0.50485 17.8792 1.12761 17.8792V17.8792C1.75038 17.8792 2.25523 17.3743 2.25523 16.7516V12.3411C2.25523 11.7183 1.75038 11.2135 1.12761 11.2135V11.2135C0.50485 11.2135 0 11.7183 0 12.3411V16.7516ZM10.4985 18.9901L7.24339 18.2791L3.98831 17.5681C3.80584 17.5263 3.64244 17.4251 3.52379 17.2803C3.40514 17.1355 3.33797 16.9554 3.33285 16.7682V12.3244C3.3294 12.1331 3.39665 11.9472 3.52171 11.8023C3.64123 11.6498 3.81015 11.5437 3.99942 11.5023L9.30976 10.8469L14.004 10.1903C14.3626 10.1401 14.7026 10.3642 14.7978 10.7136V10.7136L14.8012 10.7259C14.9096 11.1233 15.0144 11.564 14.7968 11.9137V11.9137V11.9137C14.5788 12.264 14.1406 12.3749 13.7403 12.4749L12.1205 12.8799L11.7799 12.9651C11.1889 13.1128 11.133 13.9307 11.6983 14.1575V14.1575V14.1575C12.8653 14.6258 14.1544 14.6954 15.3651 14.3555L16.031 14.1686L18.4973 13.4354C18.6043 13.4033 18.7167 13.3936 18.8276 13.407C18.9385 13.4204 19.0454 13.4565 19.1417 13.5132C19.2403 13.5685 19.3266 13.6433 19.3953 13.7331C19.4641 13.8229 19.5139 13.9257 19.5416 14.0353L19.7527 14.8796L19.9749 15.7351C20.0015 15.8401 20.007 15.9494 19.9912 16.0566C19.9754 16.1638 19.9386 16.2668 19.8828 16.3597C19.8271 16.4527 19.7535 16.5336 19.6664 16.598C19.5792 16.6624 19.4802 16.7089 19.375 16.7349L15.3422 17.8459L11.3095 18.9568C11.1789 18.9915 11.0446 19.0101 10.9095 19.0124C10.7721 19.0209 10.6342 19.0134 10.4985 18.9901Z" fill="white"/>
<path d="M14.4532 4.94055L14.4487 4.94954C14.4667 4.80119 14.4847 4.64834 14.4847 4.4955C14.4847 4.34265 14.4712 4.19879 14.4532 4.05044L14.4577 4.05943L15.5546 3.1963L14.4622 1.2992L13.172 1.82068L13.1765 1.82517C12.9427 1.64535 12.6865 1.4925 12.4077 1.37562H12.4122L12.2054 0H10.0161L9.81833 1.38012H9.82283C9.54411 1.497 9.28787 1.64985 9.0541 1.82967L9.0586 1.82517L7.76389 1.2992L6.66699 3.1963L7.76389 4.05943L7.76839 4.05044C7.75041 4.19879 7.73692 4.34265 7.73692 4.4955C7.73692 4.64834 7.75041 4.80119 7.77288 4.94954L7.76839 4.94055L6.82433 5.68231L6.67598 5.79919L7.76839 7.6873L9.06309 7.17032L9.0541 7.15233C9.29236 7.33665 9.5486 7.4895 9.83182 7.60638H9.81833L10.0206 8.99099H12.2009C12.2009 8.99099 12.2144 8.91007 12.2279 8.80218L12.3987 7.61088H12.3943C12.673 7.49399 12.9337 7.34115 13.172 7.15683L13.163 7.17481L14.4577 7.69179L15.5501 5.80369C15.5501 5.80369 15.4872 5.74974 15.4017 5.6868L14.4532 4.94055ZM11.1085 6.06892C10.2409 6.06892 9.53512 5.36313 9.53512 4.4955C9.53512 3.62787 10.2409 2.92207 11.1085 2.92207C11.9762 2.92207 12.682 3.62787 12.682 4.4955C12.682 5.36313 11.9762 6.06892 11.1085 6.06892Z" fill="white"/>
</svg>
