<svg width="39" height="39" viewBox="0 0 39 39" fill="none" xmlns="http://www.w3.org/2000/svg">
<path d="M19.5 22.75V35.75H6.5C6.5 32.3022 7.86964 28.9956 10.3076 26.5576C12.7456 24.1196 16.0522 22.75 19.5 22.75ZM19.5 21.125C14.1131 21.125 9.75 16.7619 9.75 11.375C9.75 5.98812 14.1131 1.625 19.5 1.625C24.8869 1.625 29.25 5.98812 29.25 11.375C29.25 16.7619 24.8869 21.125 19.5 21.125ZM34.125 27.625H35.75V35.75H22.75V27.625H24.375V26C24.375 24.7071 24.8886 23.4671 25.8029 22.5529C26.7171 21.6386 27.9571 21.125 29.25 21.125C30.5429 21.125 31.7829 21.6386 32.6971 22.5529C33.6114 23.4671 34.125 24.7071 34.125 26V27.625ZM30.875 27.625V26C30.875 25.569 30.7038 25.1557 30.399 24.851C30.0943 24.5462 29.681 24.375 29.25 24.375C28.819 24.375 28.4057 24.5462 28.101 24.851C27.7962 25.1557 27.625 25.569 27.625 26V27.625H30.875Z" fill="white"/>
</svg>
