<svg width="22" height="21" viewBox="0 0 22 21" fill="none" xmlns="http://www.w3.org/2000/svg">
<path d="M2.86133 10.5C2.86133 10.7321 2.95448 10.9546 3.12029 11.1187C3.2861 11.2828 3.51098 11.375 3.74547 11.375H9.05035C9.28484 11.375 9.50973 11.2828 9.67554 11.1187C9.84135 10.9546 9.9345 10.7321 9.9345 10.5V3.5C9.9345 3.26794 9.84135 3.04538 9.67554 2.88128C9.50973 2.71719 9.28484 2.625 9.05035 2.625H3.74547C3.51098 2.625 3.2861 2.71719 3.12029 2.88128C2.95448 3.04538 2.86133 3.26794 2.86133 3.5V10.5ZM2.86133 17.5C2.86133 17.7321 2.95448 17.9546 3.12029 18.1187C3.2861 18.2828 3.51098 18.375 3.74547 18.375H9.05035C9.28484 18.375 9.50973 18.2828 9.67554 18.1187C9.84135 17.9546 9.9345 17.7321 9.9345 17.5V14C9.9345 13.7679 9.84135 13.5454 9.67554 13.3813C9.50973 13.2172 9.28484 13.125 9.05035 13.125H3.74547C3.51098 13.125 3.2861 13.2172 3.12029 13.3813C2.95448 13.5454 2.86133 13.7679 2.86133 14V17.5ZM11.7028 17.5C11.7028 17.7321 11.7959 17.9546 11.9618 18.1187C12.1276 18.2828 12.3524 18.375 12.5869 18.375H17.8918C18.1263 18.375 18.3512 18.2828 18.517 18.1187C18.6828 17.9546 18.776 17.7321 18.776 17.5V10.5C18.776 10.2679 18.6828 10.0454 18.517 9.88128C18.3512 9.71719 18.1263 9.625 17.8918 9.625H12.5869C12.3524 9.625 12.1276 9.71719 11.9618 9.88128C11.7959 10.0454 11.7028 10.2679 11.7028 10.5V17.5ZM12.5869 2.625C12.3524 2.625 12.1276 2.71719 11.9618 2.88128C11.7959 3.04538 11.7028 3.26794 11.7028 3.5V7C11.7028 7.23206 11.7959 7.45462 11.9618 7.61872C12.1276 7.78281 12.3524 7.875 12.5869 7.875H17.8918C18.1263 7.875 18.3512 7.78281 18.517 7.61872C18.6828 7.45462 18.776 7.23206 18.776 7V3.5C18.776 3.26794 18.6828 3.04538 18.517 2.88128C18.3512 2.71719 18.1263 2.625 17.8918 2.625H12.5869Z" fill="#007D85"/>
</svg>
