<svg width="97" height="97" viewBox="0 0 97 97" fill="none" xmlns="http://www.w3.org/2000/svg">
<circle cx="48.5" cy="48.5" r="48.5" fill="#FFB1B1" fill-opacity="0.28"/>
<circle cx="49" cy="49" r="41" fill="#FFB1B1" fill-opacity="0.28"/>
<path d="M63.8772 39.4961C63.843 39.4961 63.7918 39.4961 63.7405 39.4961C54.7035 38.5907 45.6835 38.249 36.7489 39.1544L33.2639 39.4961C32.5464 39.5644 31.9143 39.0519 31.846 38.3344C31.7776 37.6169 32.2901 37.0019 32.9905 36.9336L36.4755 36.5919C45.5639 35.6694 54.7718 36.0282 63.9968 36.9336C64.6972 37.0019 65.2097 37.634 65.1414 38.3344C65.0901 39.0007 64.5264 39.4961 63.8772 39.4961Z" fill="#F93827"/>
<path d="M42.5247 37.773C42.4564 37.773 42.388 37.773 42.3026 37.7559C41.6193 37.6363 41.141 36.9701 41.2605 36.2867L41.6364 34.0488C41.9097 32.4088 42.2855 30.1367 46.266 30.1367H50.7418C54.7393 30.1367 55.1151 32.4942 55.3714 34.0659L55.7472 36.2867C55.8668 36.9871 55.3885 37.6534 54.7051 37.7559C54.0047 37.8755 53.3385 37.3971 53.236 36.7138L52.8601 34.493C52.621 33.0067 52.5697 32.7163 50.7589 32.7163H46.283C44.4722 32.7163 44.438 32.9555 44.1818 34.4759L43.7889 36.6967C43.6864 37.3288 43.1397 37.773 42.5247 37.773Z" fill="#F93827"/>
<path d="M53.9821 66.8653H43.0146C37.0525 66.8653 36.8134 63.5682 36.6255 60.9032L35.515 43.7003C35.4638 42.9998 36.0105 42.3848 36.7109 42.3336C37.4284 42.2994 38.0263 42.829 38.0775 43.5294L39.188 60.7323C39.3759 63.329 39.4442 64.3028 43.0146 64.3028H53.9821C57.5696 64.3028 57.638 63.329 57.8088 60.7323L58.9192 43.5294C58.9705 42.829 59.5855 42.2994 60.2859 42.3336C60.9863 42.3848 61.533 42.9828 61.4817 43.7003L60.3713 60.9032C60.1834 63.5682 59.9442 66.8653 53.9821 66.8653Z" fill="#F93827"/>
<path d="M51.3333 57.4688H45.6445C44.9441 57.4688 44.3633 56.8879 44.3633 56.1875C44.3633 55.4871 44.9441 54.9062 45.6445 54.9062H51.3333C52.0337 54.9062 52.6145 55.4871 52.6145 56.1875C52.6145 56.8879 52.0337 57.4688 51.3333 57.4688Z" fill="#F93827"/>
<path d="M52.7682 50.6367H44.2266C43.5261 50.6367 42.9453 50.0559 42.9453 49.3555C42.9453 48.6551 43.5261 48.0742 44.2266 48.0742H52.7682C53.4686 48.0742 54.0495 48.6551 54.0495 49.3555C54.0495 50.0559 53.4686 50.6367 52.7682 50.6367Z" fill="#F93827"/>
</svg>
