<svg width="160" height="151" viewBox="0 0 160 151" fill="none" xmlns="http://www.w3.org/2000/svg">
<path d="M34.5703 99.9824C33.6508 99.7174 32.7042 99.5768 31.7468 99.5605C30.5569 99.6309 29.3886 99.8797 28.2743 100.302C26.6787 100.837 25.1155 101.459 23.5902 102.162C22.8005 102.525 21.9081 103.071 21.8594 103.936C23.0115 104.639 24.4881 104.234 25.7916 103.877C27.1168 103.514 28.4582 103.222 29.8104 103.006C29.0478 104.472 28.4636 106.03 28.0688 107.636C27.82 108.361 27.8308 109.145 28.0958 109.864C28.469 110.616 29.302 111 30.0755 111.325C31.6224 111.979 33.2721 112.639 34.9435 112.374C35.9387 112.158 36.8961 111.768 37.7615 111.228L39.6925 110.178C39.8385 110.113 39.9629 110.016 40.0657 109.892C40.136 109.767 40.1847 109.632 40.2009 109.491L40.9311 105.797C41.0664 105.083 41.8506 102.968 41.472 102.384C41.2665 102.081 40.2117 101.843 39.8494 101.735C39.2814 101.519 38.7135 101.302 38.1401 101.097C36.9502 100.68 35.771 100.291 34.5703 99.9824Z" fill="#FFCABE"/>
<path d="M112.467 85.5724C111.185 91.3383 107.924 96.4605 104.538 101.307C100.362 107.181 94.8774 111.995 88.5111 115.37C84.5031 117.501 80.3653 119.665 75.8543 120.119C72.609 120.449 69.3312 119.87 66.1183 119.286L49.9998 116.371C46.7815 115.792 43.3523 115.105 41.021 112.812C39.5985 111.351 38.7763 109.415 38.7168 107.376C38.5762 105.104 39.3875 102.881 40.9507 101.226L64.3712 104.877C65.9344 105.115 67.557 105.358 69.0824 104.92C70.7645 104.433 72.1113 103.173 73.3337 101.913C78.4776 96.5957 82.7777 90.5216 86.0717 83.9011C88.3705 79.2656 89.317 73.9054 92.438 69.6649C96.1863 64.5481 104.045 64.7969 108.47 69.0753C111.337 71.8555 112.743 75.7553 112.965 79.7795C113.062 81.7267 112.894 83.6739 112.467 85.5724Z" fill="#E9E9E9"/>
<path d="M112.467 85.5723C111.185 91.3382 107.924 96.4604 104.538 101.307C100.362 107.181 94.8773 111.995 88.5111 115.37C84.5031 117.501 80.3653 119.665 75.8542 120.119C72.6089 120.449 69.3311 119.87 66.1182 119.286L49.9997 116.371C46.7815 115.792 43.3522 115.105 41.021 112.811C39.5985 111.351 38.7763 109.415 38.7168 107.376C42.8113 109.458 53.694 112.417 55.1815 112.784C61.3097 114.294 68.0763 115.83 74.3398 114.683C78.1909 113.98 82.0745 112.471 83.7783 108.787C85.7363 104.541 87.505 100.084 89.0682 95.6545C90.6313 91.2246 92.3622 86.6108 95.429 82.976C98.4959 79.3413 103.239 76.7558 107.929 77.5131C109.768 77.8214 111.499 78.5948 112.959 79.7578C113.062 81.7104 112.894 83.663 112.467 85.5723Z" fill="url(#paint0_linear_3326_2948)"/>
<path d="M92.9579 107.249C92.2223 102.452 91.5786 97.6431 91.1026 92.8183C90.486 86.4953 89.1176 78.858 90.8538 72.6864C92.1087 68.5757 95.2459 66.3905 98.767 63.8591C101.693 61.5766 104.987 59.8079 108.503 58.6233C111.007 57.9634 113.598 57.6768 116.189 57.7687C124.151 57.9364 134.99 60.2081 141.281 65.4061C146.008 69.3167 147.577 75.7803 148.718 81.8058C150.287 90.1301 151.52 98.5031 152.412 106.925C152.548 108.142 152.677 109.364 152.78 110.592C153.613 119.857 154.457 129.48 153.321 138.751C152.975 141.666 152.569 144.598 150.26 146.512C144.818 151.04 135.255 150.661 128.586 150.84C119.721 151.067 110.623 151.272 102.245 148.368C100.53 147.946 99.0267 146.918 98.0098 145.468C97.02 143.705 97.4959 141.531 97.7556 139.519C98.9131 130.551 95.3919 121.907 93.9261 113.194C93.5853 111.198 93.2662 109.218 92.9579 107.249Z" fill="#E9E9E9"/>
<path d="M110.955 58.2356C110.955 58.2356 105.844 65.9919 111.956 67.6308C118.068 69.2697 128.804 61.4322 127.182 59.3606C125.559 57.289 112.205 57.5054 110.955 58.2356Z" fill="#4EA9B0"/>
<path d="M138.537 87.7556C138.029 86.9659 134.518 80.4265 133.82 80.6645C132.614 81.1622 131.727 82.2061 131.435 83.4772C131.159 84.732 131.105 86.0248 131.267 87.3013C131.581 91.3309 132.111 95.4146 131.543 99.4009C130.975 103.387 129.12 107.439 125.691 109.586C122.364 111.668 118.075 111.69 114.7 113.697C114.3 113.972 113.867 114.194 113.413 114.362C112.91 114.486 112.385 114.524 111.866 114.481C108.096 114.373 104.32 114.508 100.567 114.892C100.026 114.946 99.3009 115.244 99.4416 115.774C99.5011 116.012 99.7282 116.158 99.9338 116.315C101.573 117.369 102.968 118.759 104.028 120.393C104.569 121.183 105.018 122.026 105.37 122.919C105.532 123.389 105.494 124.038 105.667 124.455C105.84 124.871 108.188 128.106 108.583 128.09L140.203 127.122L146.769 101.824L141.241 92.3856C140.295 90.8224 139.494 89.2539 138.537 87.7556Z" fill="url(#paint1_linear_3326_2948)"/>
<path d="M100.136 47.6869C99.7845 45.3881 99.541 43.0353 99.4112 40.7581C99.2868 38.7298 99.2652 36.6744 99.3247 34.6407C99.368 33.3263 99.3247 32.3257 100.336 31.3683C103.084 28.9613 106.464 27.3982 110.072 26.8519C112.777 26.3867 115.816 26.5544 117.958 28.2744C119.451 29.6266 120.49 31.4116 120.933 33.375C122.323 38.3079 121.858 43.5221 121.972 48.6443C122.053 52.609 122.507 56.5575 123.324 60.4357C121.642 62.0043 119.597 63.1401 117.374 63.7351C116.319 63.9028 115.243 63.9028 114.188 63.7351C113.61 63.7189 113.058 63.4755 112.647 63.0644C112.425 62.675 112.311 62.2314 112.317 61.7825C112.311 61.366 112.279 60.9495 112.225 60.5384C112.009 58.2234 111.581 55.9355 110.954 53.6962C110.927 53.5015 110.824 53.3284 110.667 53.2148C110.51 53.1661 110.337 53.1661 110.18 53.2148L109.542 53.323C108.417 53.6042 107.27 53.7882 106.113 53.8639C104.728 53.9504 103.354 53.5339 102.256 52.6847C100.855 51.5326 100.406 49.5151 100.136 47.6869Z" fill="#FFCABE"/>
<path d="M101.471 31.2712C100.509 32.1312 99.7676 33.2076 99.3078 34.4137C97.6689 33.5213 97.0631 31.4659 97.961 29.827C98.0259 29.708 98.0962 29.5944 98.1719 29.4862C95.0564 28.7939 94.2126 24.8184 95.5324 22.2654C96.0084 21.4486 96.6737 20.7617 97.4742 20.2587C98.9833 19.1877 100.747 18.5224 102.591 18.3277C105.295 18.1059 107.935 19.1066 110.234 20.4913C110.715 20.8482 111.267 21.1025 111.856 21.2269C112.387 21.2539 112.917 21.1836 113.42 21.0213C116.724 20.237 120.37 20.5508 123.269 22.3195C124.968 23.358 126.374 24.8616 128.17 25.7325C129.679 26.4735 131.496 26.8143 132.545 28.1124C133.465 29.3943 133.562 31.0927 132.794 32.472C132.01 33.8188 130.777 34.8411 129.306 35.3549C130.295 37.0262 129.744 39.1844 128.072 40.1742C128.045 40.1904 128.013 40.2067 127.986 40.2229C127.445 40.4933 126.769 40.6448 126.363 41.1045C126.044 41.4507 125.947 41.9321 125.622 42.2999C124.87 43.1545 123.772 43.598 123.605 44.88C123.583 45.4208 123.621 45.9671 123.718 46.5026C123.788 47.2923 123.599 48.082 123.177 48.7581C122.896 49.1908 122.442 50.2293 121.955 50.4078C121.468 50.5863 120.906 50.0779 120.662 49.5749C119.699 47.6114 119.58 45.3884 119.71 43.2465C119.818 41.5481 122.068 41.5481 122.182 39.5955C122.258 38.2541 120.916 36.9451 119.607 37.2696C118.023 37.6645 117.444 39.8605 115.902 40.3419L116.378 34.7004C116.416 34.457 116.416 34.2136 116.378 33.9702C116.319 33.7701 116.238 33.57 116.14 33.3861C115.729 32.4503 115.713 31.3848 116.097 30.4328C114.155 31.3848 112.035 31.9148 109.871 31.9852C107.692 32.0392 105.582 31.2225 104.008 29.7134C103.072 30.0704 102.212 30.5951 101.471 31.2712Z" fill="#4EA9B0"/>
<path d="M109.579 53.3317C112.137 52.3906 114.593 51.1844 116.903 49.7402C118.482 57.767 112.213 60.558 112.213 60.558C112.002 58.2376 111.58 55.9442 110.953 53.6995C110.926 53.5048 110.818 53.3317 110.661 53.2182C110.504 53.1695 110.336 53.1695 110.179 53.2182L109.541 53.3263H109.579V53.3317Z" fill="#DE9F93"/>
<path d="M109.918 117.516C109.209 117.564 108.501 117.521 107.803 117.397C107.143 117.224 106.499 117.007 105.872 116.737C104.671 116.32 103.449 115.985 102.205 115.731C101.009 115.385 99.76 115.26 98.5213 115.363C97.2016 115.552 96.0224 116.25 94.8487 116.888C93.1016 117.84 91.2951 118.684 89.4398 119.409C88.596 119.744 87.6441 120.139 87.3195 120.983C87.1843 121.253 87.233 121.578 87.4493 121.789C87.5738 121.859 87.7144 121.902 87.855 121.902C88.7421 121.94 89.6291 121.865 90.4946 121.675L96.4984 120.642C96.9365 122.032 97.4828 123.39 98.1211 124.699C98.2185 124.926 98.3591 125.132 98.5376 125.305C98.7269 125.44 98.9432 125.537 99.1704 125.597C101.026 126.251 102.951 126.668 104.909 126.841C106.878 127.003 108.842 126.478 110.464 125.348C110.697 125.142 110.946 124.964 111.211 124.807C111.454 124.693 111.708 124.601 111.968 124.547C114.185 123.963 116.365 123.265 118.513 122.465C118.886 122.324 118.459 119.804 118.388 119.474C118.231 118.738 117.907 117.153 117.171 116.969C116.701 116.851 115.873 117.116 115.381 117.159C114.786 117.218 114.186 117.267 113.585 117.31C112.363 117.408 111.14 117.478 109.918 117.516Z" fill="#FFCABE"/>
<path d="M156.279 92.3007C158.373 98.8834 159.595 105.709 159.914 112.611C160.049 116.23 159.763 120.184 157.302 122.861C155.533 124.776 152.921 125.668 150.384 126.279C139.972 128.789 129.073 127.756 118.428 126.62C117.671 126.685 117 126.128 116.93 125.365C116.924 125.295 116.924 125.225 116.93 125.16L115.102 114.742L134.211 111.859C141.118 110.815 137.3 101.074 136.072 96.5684C134.4 90.4455 132.286 83.9548 134.006 77.5994C135.039 73.8131 137.354 68.1663 142.157 68.7829C146.771 69.3724 149.491 75.4034 151.206 79.1571C153.175 83.4247 154.873 87.8168 156.279 92.3007Z" fill="#E9E9E9"/>
<path d="M97.1309 122.229H58.625V126.502H97.1309V122.229Z" fill="#007D85"/>
<path d="M73.4005 126.595H15.3902L5.39453 87.1855H63.3995L73.4005 126.595Z" fill="#007D85"/>
<path opacity="0.18" d="M97.1347 126.502H73.3789L73.4005 126.594H15.3956L5.39453 87.1797H63.3995L72.2971 122.229H97.1347V126.502Z" fill="#007D85"/>
<path d="M97.1347 126.502H73.3789L73.4005 126.594H15.3956L5.39453 87.1797H63.3995L72.2971 122.229H97.1347V126.502Z" fill="#4EA9B0"/>
<path d="M34.6071 112.12C38.1321 112.12 40.9896 109.263 40.9896 105.738C40.9896 102.213 38.1321 99.3555 34.6071 99.3555C31.0821 99.3555 28.2246 102.213 28.2246 105.738C28.2246 109.263 31.0821 112.12 34.6071 112.12Z" fill="#E9E9E9"/>
<path opacity="0.3" d="M97.135 126.502H73.3791L73.4008 126.594H68.1109L58.1152 87.1797H63.3997L72.2973 122.229H97.135V126.502Z" fill="white"/>
<path d="M28.5113 17.6458L28.4551 17.5977L28.6317 17.6539L28.5153 17.6418L28.5113 17.6458Z" fill="white"/>
<path d="M29.1584 24.2056C28.8252 24.4465 28.5804 24.7837 28.4479 25.173C28.4158 25.3737 28.4158 25.5785 28.4479 25.7792C28.464 25.9638 28.5001 26.1485 28.5603 26.3251C28.6607 26.5339 28.7931 26.7225 28.9497 26.8911L29.311 27.3086C29.3511 27.3648 29.4033 27.413 29.4635 27.4491C29.6 27.4973 29.7566 27.4491 29.8449 27.3367C29.9292 27.2243 29.9894 27.0959 30.0135 26.9554C30.2262 26.2368 30.8123 25.0807 30.6879 24.326C30.5474 23.4148 29.608 23.8002 29.1544 24.2096L29.1584 24.2056Z" fill="#FFB4A3"/>
<path d="M29.7252 10.5551L6.76367 48.3945L14.4373 53.051L37.3988 15.2115L29.7252 10.5551Z" fill="#E9E9E9"/>
<path d="M27.969 18.4077L13.0688 42.9626C12.5961 43.7416 12.8444 44.7563 13.6234 45.229L14.0832 45.508C14.8622 45.9807 15.8769 45.7324 16.3496 44.9534L31.2499 20.3986C31.7226 19.6196 31.4743 18.6049 30.6953 18.1322L30.2354 17.8532C29.4564 17.3805 28.4417 17.6288 27.969 18.4077Z" fill="#C2C2C2"/>
<path d="M41.0362 14.8526C37.331 17.3936 32.265 16.4503 29.72 12.7451C27.1789 9.03992 28.1223 3.97392 31.8274 1.42888C33.5054 0.276789 35.5527 -0.204923 37.5678 0.08009L35.637 3.27545L33.4653 6.87624L39.1816 10.3405L41.3734 6.71165L43.2199 3.66081C45.6606 7.36196 44.6891 12.3396 41.0321 14.8526H41.0362Z" fill="#E9E9E9"/>
<path d="M12.0413 60.8812C10.3112 61.8165 8.29601 62.0855 6.38121 61.6359L11.4231 55.0605L6.11225 50.99L1.05428 57.5895L1.02217 57.5373C-1.09736 53.5752 0.395944 48.6417 4.36204 46.5222C8.32411 44.4026 13.2576 45.8959 15.3772 49.862C17.4967 53.8241 16.0034 58.7576 12.0373 60.8772L12.0413 60.8812Z" fill="#E9E9E9"/>
<path d="M63.8877 63.0754C63.3425 63.0393 62.8304 62.7923 62.463 62.3886C62.1859 62.0874 61.9178 61.7712 61.6316 61.473C61.1437 60.8645 60.3214 60.6386 59.5895 60.9067C58.8666 61.1447 58.3937 61.8374 58.4328 62.5965V63.8826C58.4479 64.8856 57.6467 65.7079 56.6437 65.723C56.5684 65.723 56.4931 65.723 56.4208 65.711C55.6497 65.6567 54.8696 65.5965 54.0804 65.5242C52.9298 65.4218 52.0443 64.4579 52.0473 63.3013V62.0152C52.0412 61.232 51.5804 60.5212 50.8665 60.2019C50.231 59.8284 49.4268 59.9218 48.8936 60.4308C48.6075 60.6808 48.3454 60.9549 48.0623 61.2019C47.2159 61.973 45.996 61.8555 45.1677 60.9519C44.5924 60.3224 44.0111 59.6959 43.4539 59.0603C42.6165 58.1175 42.6195 56.9097 43.4539 56.0995C43.7189 55.8434 43.999 55.6055 44.2581 55.3284C44.8063 54.8193 44.9689 54.0181 44.6647 53.3374C44.4237 52.5964 43.7731 52.0663 42.996 51.982C42.5804 51.9278 42.1617 51.9187 41.749 51.8705C40.5442 51.7772 39.6376 50.738 39.7068 49.5302V47.25C39.6436 46.25 40.4026 45.3886 41.4026 45.3223C41.4538 45.3193 41.505 45.3193 41.5563 45.3193C41.984 45.3193 42.4177 45.3645 42.8454 45.4006C43.6225 45.5181 44.3755 45.0753 44.6526 44.3404C44.9719 43.6054 44.7942 42.8554 44.1677 42.1506C43.9117 41.8645 43.6496 41.5874 43.3966 41.2982C42.6346 40.506 42.6346 39.25 43.3966 38.4578C44.0051 37.8644 44.6286 37.2801 45.2701 36.7199C46.1165 36.0391 47.3484 36.1596 48.0503 36.9849C48.3394 37.2952 48.6135 37.6205 48.9117 37.9277C49.3936 38.503 50.1828 38.7138 50.8876 38.4608C51.5985 38.2409 52.0744 37.5693 52.0442 36.8253V35.6235C52.0744 34.3373 52.9208 33.5542 54.1738 33.6506C54.8997 33.7078 55.6256 33.762 56.3515 33.8253C57.5382 33.9036 58.4569 34.8945 58.4479 36.0843V37.2409C58.4148 38.0542 58.8696 38.8072 59.6045 39.1506C60.2762 39.5422 61.1286 39.4277 61.6738 38.8735C61.9328 38.6295 62.1828 38.3825 62.4449 38.1446C63.2762 37.4126 64.5413 37.494 65.2732 38.3253C65.2883 38.3403 65.3003 38.3554 65.3124 38.3735C65.9118 39.015 66.5021 39.6656 67.0835 40.3042C67.8847 41.1054 67.8847 42.4036 67.0835 43.2018C66.8003 43.4759 66.5052 43.7319 66.222 44.009C65.713 44.494 65.5503 45.238 65.8124 45.8886C66.0082 46.6175 66.6106 47.1687 67.3576 47.2952C67.7973 47.3795 68.2461 47.3826 68.6889 47.4307C69.8094 47.482 70.6799 48.4217 70.6437 49.5422C70.6708 50.4157 70.6708 51.2862 70.6437 52.1567C70.6046 53.3946 69.8395 54.0874 68.6287 53.991C68.2431 53.9639 67.8576 53.9187 67.472 53.9067C66.7461 53.8585 66.0805 54.3103 65.8545 55.0031C65.5654 55.6928 65.719 56.488 66.2401 57.0212C66.5172 57.3404 66.8184 57.6477 67.0985 57.9639C67.8967 58.7681 67.8967 60.0663 67.0985 60.8706C66.5202 61.4368 65.9419 61.9911 65.3305 62.5453C64.9539 62.9278 64.4268 63.1266 63.8907 63.0814L63.8877 63.0754ZM46.8545 49.0061C46.8545 53.7922 50.5864 57.9549 55.234 58.3284C59.8816 58.7019 63.6497 55.1175 63.6497 50.3525C63.6497 45.5874 59.8846 41.4307 55.2762 41.0572C50.6677 40.6837 46.8756 44.2229 46.8515 49.0061H46.8545Z" fill="#E9E9E9"/>
<path d="M79.2542 46.267C78.974 46.249 78.715 46.1255 78.5283 45.9146C78.3867 45.761 78.2511 45.6014 78.1036 45.4508C77.8536 45.1405 77.4349 45.0231 77.0614 45.1586C76.6939 45.2821 76.4499 45.6345 76.471 46.0231V46.6767C76.4801 47.1857 76.0764 47.6074 75.5674 47.6164C75.5252 47.6164 75.4861 47.6164 75.4469 47.6104L74.2541 47.517C73.6668 47.4658 73.218 46.9719 73.221 46.3815V45.7249C73.215 45.3243 72.98 44.9658 72.6186 44.7972C72.2933 44.6104 71.8867 44.6586 71.6156 44.9176C71.468 45.0441 71.3324 45.1827 71.1909 45.3032C70.7632 45.6767 70.1156 45.6345 69.7421 45.2068C69.733 45.1948 69.721 45.1827 69.712 45.1707C69.4198 44.8544 69.1246 44.5351 68.8385 44.2068C68.4228 43.8032 68.4107 43.1375 68.8144 42.7218C68.8234 42.7128 68.8294 42.7038 68.8385 42.6977C68.974 42.5712 69.1126 42.4477 69.2481 42.3122C69.5252 42.0502 69.6095 41.6405 69.4529 41.2941C69.3324 40.9146 68.9981 40.6435 68.6035 40.6044C68.3927 40.5773 68.1788 40.5742 67.968 40.5501C67.3595 40.4899 66.9017 39.9658 66.9258 39.3544V38.1977C66.8927 37.6887 67.2812 37.2519 67.7872 37.2188C67.8144 37.2188 67.8415 37.2188 67.8656 37.2188C68.0824 37.2188 68.3023 37.2429 68.5222 37.258C68.9168 37.3182 69.3023 37.0953 69.4439 36.7218C69.6035 36.3333 69.5041 35.8875 69.1969 35.6013C69.0644 35.4598 68.9318 35.3152 68.8114 35.1646C68.4228 34.761 68.4228 34.1194 68.8114 33.7158C69.1246 33.4116 69.4409 33.1164 69.7692 32.8332C70.1999 32.4869 70.8294 32.5471 71.1849 32.9688C71.3324 33.1284 71.471 33.2941 71.6216 33.4477C71.8656 33.7399 72.2692 33.8483 72.6306 33.7188C72.9981 33.6104 73.2421 33.267 73.23 32.8845V32.276C73.1969 31.7489 73.5975 31.2941 74.1246 31.2609C74.1879 31.2579 74.2541 31.261 74.3174 31.267L75.4258 31.3543C76.0313 31.3995 76.4981 31.9055 76.4951 32.511V33.1043C76.477 33.517 76.709 33.8995 77.0825 34.0772C77.4258 34.279 77.8596 34.2218 78.1397 33.9387C78.2722 33.8152 78.3987 33.6887 78.5253 33.5531C78.9469 33.1826 79.5915 33.2218 79.965 33.6435C79.971 33.6525 79.9801 33.6586 79.9861 33.6676C80.2963 33.9959 80.5945 34.3272 80.8927 34.6646C81.2994 35.0742 81.2994 35.7339 80.8927 36.1435C80.7451 36.2821 80.5945 36.4146 80.453 36.5531C80.1939 36.8001 80.1126 37.1827 80.2451 37.514C80.3415 37.8815 80.6427 38.1616 81.0162 38.2309C81.2421 38.264 81.468 38.2851 81.697 38.2971C82.2692 38.3242 82.712 38.8062 82.6939 39.3785V40.7098C82.7271 41.1977 82.3566 41.6224 81.8656 41.6526C81.7964 41.6556 81.7301 41.6526 81.6638 41.6435C81.468 41.6435 81.2783 41.6044 81.0704 41.6014C80.7 41.5773 80.3596 41.8062 80.2451 42.1616C80.1006 42.511 80.1759 42.9176 80.4409 43.1887C80.5825 43.3544 80.7391 43.508 80.8807 43.6706C81.2873 44.0803 81.2873 44.7429 80.8807 45.1526C80.5825 45.4417 80.2783 45.7249 79.9771 46.005C79.7873 46.1917 79.5283 46.2851 79.2632 46.267H79.2542ZM70.5644 39.0893C70.5553 41.5411 72.4017 43.6014 74.8385 43.8604C77.0222 44.0411 78.9409 42.4146 79.1186 40.2309C79.1307 40.0833 79.1337 39.9387 79.1307 39.7911C79.1186 37.3574 77.2813 35.3182 74.8626 35.0501C72.6909 34.8574 70.7722 36.4628 70.5794 38.6345C70.5674 38.7851 70.5614 38.9357 70.5644 39.0863V39.0893Z" fill="#E9E9E9"/>
<defs>
<linearGradient id="paint0_linear_3326_2948" x1="64.7714" y1="57.181" x2="84.476" y2="122.85" gradientUnits="userSpaceOnUse">
<stop/>
<stop offset="0.08" stop-opacity="0.69"/>
<stop offset="0.21" stop-opacity="0.32"/>
<stop offset="1" stop-opacity="0"/>
</linearGradient>
<linearGradient id="paint1_linear_3326_2948" x1="149.138" y1="128.073" x2="113.629" y2="97.9135" gradientUnits="userSpaceOnUse">
<stop/>
<stop offset="0.08" stop-opacity="0.69"/>
<stop offset="0.21" stop-opacity="0.32"/>
<stop offset="1" stop-opacity="0"/>
</linearGradient>
</defs>
</svg>
