<svg width="19" height="18" viewBox="0 0 19 18" fill="none" xmlns="http://www.w3.org/2000/svg">
<g clip-path="url(#clip0_788_3578)">
<path d="M9.02193 0C6.07191 0 3.6543 2.4048 3.6543 5.33988C3.6543 6.47712 4.01838 7.53408 4.63451 8.40276L8.36683 14.8401C8.8895 15.5214 9.23699 15.392 9.67162 14.8041L13.7884 7.8147C13.8714 7.66458 13.9367 7.50474 13.9935 7.34148C14.2547 6.70632 14.389 6.0264 14.389 5.33988C14.3892 2.4048 11.9723 0 9.02193 0ZM9.02193 2.502C10.6107 2.502 11.874 3.75948 11.874 5.33988C11.874 6.92028 10.6107 8.1774 9.02193 8.1774C7.43334 8.1774 6.16951 6.92064 6.16951 5.34006C6.16951 3.75948 7.43334 2.50218 9.02175 2.50218" fill="#5A5454"/>
<path d="M12.4337 8.80371L12.425 8.82639L12.4326 8.80569L12.4337 8.80371ZM6.13582 12.4305C3.58722 12.7898 1.80469 13.6493 1.80469 14.9145C1.80469 16.6188 4.78304 18.0003 9.02143 18.0003C13.2598 18.0003 16.2382 16.6188 16.2382 14.9145C16.2382 13.6493 14.4558 12.7898 11.9074 12.4305L11.5543 13.0303C13.4751 13.2962 14.7948 13.8549 14.7948 14.5032C14.7948 15.4122 12.21 16.149 9.02143 16.149C5.83289 16.149 3.24804 15.4122 3.24804 14.5032C3.24786 13.857 4.55896 13.2989 6.48565 13.0319L6.13582 12.4305Z" fill="#5A5454"/>
</g>
<defs>
<clipPath id="clip0_788_3578">
<rect width="18.0419" height="18" fill="white"/>
</clipPath>
</defs>
</svg>
