<svg width="173" height="150" viewBox="0 0 173 150" fill="none" xmlns="http://www.w3.org/2000/svg">
<path d="M81.3042 77.8481H0.695762C0.298186 77.8481 0 77.5502 0 77.153V0.695069C0 0.297885 0.298186 0 0.695762 0H81.3042C81.7018 0 82 0.297885 82 0.695069V77.153C82 77.4509 81.7018 77.8481 81.3042 77.8481ZM1.39152 76.3587H80.6085V1.29084H1.39152V76.3587Z" fill="#B5B5B5"/>
<path d="M66.8171 15.569H22.4397C22.022 15.569 21.7088 14.6793 21.8132 13.7896C21.8132 13.1224 22.1265 12.4551 22.4397 12.4551H66.8171C67.2348 12.4551 67.548 13.3448 67.4436 14.2345C67.4436 14.9017 67.1304 15.569 66.8171 15.569Z" fill="#B5B5B5"/>
<path d="M15.1784 15.569H13.9656C13.6624 15.569 13.435 14.6793 13.5108 13.7896C13.5108 13.1224 13.7382 12.4551 13.9656 12.4551H15.1026C15.4058 12.4551 15.6332 13.3448 15.5574 14.2345C15.5574 14.9017 15.4058 15.569 15.1784 15.569Z" fill="#B5B5B5"/>
<path d="M49.1126 23.8728H22.4986C22.0954 23.8728 21.793 23.428 21.793 22.8349C21.793 22.2417 22.0954 21.7969 22.4986 21.7969H49.1126C49.5159 21.7969 49.8183 22.2417 49.8183 22.8349C49.8183 23.428 49.5159 23.8728 49.1126 23.8728Z" fill="#B5B5B5"/>
<path d="M15.1425 23.8728H13.9972C13.7108 23.8728 13.4961 23.428 13.4961 22.8349C13.4961 22.2417 13.7108 21.7969 13.9972 21.7969H15.071C15.3573 21.7969 15.572 22.2417 15.572 22.8349C15.572 23.428 15.3573 23.8728 15.1425 23.8728Z" fill="#B5B5B5"/>
<path d="M70.8907 34.2517H22.518C22.1037 34.2517 21.793 33.8069 21.793 33.2138C21.793 32.6206 22.1037 32.1758 22.518 32.1758H70.8907C71.305 32.1758 71.6158 32.6206 71.6158 33.2138C71.6158 33.8069 71.305 34.2517 70.8907 34.2517Z" fill="#B5B5B5"/>
<path d="M15.1425 34.2517H13.9972C13.7108 34.2517 13.4961 33.8069 13.4961 33.2138C13.4961 32.6206 13.7108 32.1758 13.9972 32.1758H15.071C15.3573 32.1758 15.572 32.6206 15.572 33.2138C15.572 33.8069 15.3573 34.2517 15.1425 34.2517Z" fill="#B5B5B5"/>
<path d="M55.4059 43.5955H22.4332C22.0197 43.5955 21.7096 43.0024 21.813 42.4092C21.813 41.9644 22.1231 41.5195 22.4332 41.5195H55.4059C55.8194 41.5195 56.1295 42.1127 56.0261 42.7058C56.0261 43.1506 55.716 43.5955 55.4059 43.5955Z" fill="#B5B5B5"/>
<path d="M15.1784 43.5955H13.9656C13.6624 43.5955 13.435 43.0024 13.5108 42.4092C13.5108 41.9644 13.7382 41.5195 13.9656 41.5195H15.1026C15.4058 41.5195 15.6332 42.1127 15.5574 42.7058C15.5574 43.1506 15.4058 43.5955 15.1784 43.5955Z" fill="#B5B5B5"/>
<path d="M66.7581 53.9744H22.4987C22.0954 53.9744 21.793 53.5295 21.793 52.9364C21.793 52.3433 22.0954 51.8984 22.4987 51.8984H66.7581C67.1614 51.8984 67.4639 52.3433 67.4639 52.9364C67.4639 53.5295 67.1614 53.9744 66.7581 53.9744Z" fill="#B5B5B5"/>
<path d="M15.1425 53.9744H13.9972C13.7108 53.9744 13.4961 53.5295 13.4961 52.9364C13.4961 52.3433 13.7108 51.8984 13.9972 51.8984H15.071C15.3573 51.8984 15.572 52.3433 15.572 52.9364C15.572 53.5295 15.3573 53.9744 15.1425 53.9744Z" fill="#B5B5B5"/>
<path d="M61.5656 62.2791H22.5014C22.0966 62.2791 21.793 61.8342 21.793 61.2411C21.793 60.648 22.0966 60.2031 22.5014 60.2031H61.5656C61.9704 60.2031 62.274 60.648 62.274 61.2411C62.274 61.8342 61.9704 62.2791 61.5656 62.2791Z" fill="#B5B5B5"/>
<path d="M15.1425 62.2791H13.9972C13.7108 62.2791 13.4961 61.8342 13.4961 61.2411C13.4961 60.648 13.7108 60.2031 13.9972 60.2031H15.071C15.3573 60.2031 15.572 60.648 15.572 61.2411C15.572 61.8342 15.3573 62.2791 15.1425 62.2791Z" fill="#B5B5B5"/>
<path d="M134.65 70.9193H108.315C108.135 70.9193 108 70.7844 108 70.6047V32.3146C108 32.1348 108.135 32 108.315 32H134.65C134.83 32 134.965 32.1348 134.965 32.3146V70.6047C134.965 70.7844 134.83 70.9193 134.65 70.9193ZM108.629 70.2451H134.336V32.6292H108.629V70.2451Z" fill="#B5B5B5"/>
<path d="M116.686 42.9694H111.428C111.248 42.9694 111.113 42.8345 111.113 42.6548V37.3966C111.113 37.2169 111.248 37.082 111.428 37.082H116.686C116.866 37.082 117.001 37.2169 117.001 37.3966V42.6548C117.046 42.7896 116.866 42.9694 116.686 42.9694ZM111.742 42.2952H116.326V37.7112H111.742V42.2952Z" fill="#B5B5B5"/>
<path d="M113.536 41.6192C113.491 41.6192 113.491 41.6192 113.446 41.6192C113.356 41.5743 113.266 41.5293 113.221 41.4395L112.547 39.7766C112.457 39.5969 112.547 39.4171 112.727 39.3721C112.907 39.2823 113.086 39.3721 113.176 39.507C113.176 39.507 113.176 39.507 113.176 39.5519L113.715 40.8103L117.625 37.979C117.76 37.8891 117.985 37.8891 118.075 38.0688C118.165 38.2037 118.165 38.4284 117.985 38.5183L113.76 41.5743C113.671 41.6192 113.626 41.6192 113.536 41.6192Z" fill="#B5B5B5"/>
<path d="M131.511 40.0882H119.736C119.557 40.0882 119.422 39.9533 119.422 39.7736C119.422 39.5938 119.557 39.459 119.736 39.459H131.511C131.691 39.459 131.826 39.5938 131.826 39.7736C131.826 39.9533 131.691 40.0882 131.511 40.0882Z" fill="#B5B5B5"/>
<path d="M116.686 50.5592H111.428C111.248 50.5592 111.113 50.4244 111.113 50.2446V44.9865C111.113 44.8067 111.248 44.6719 111.428 44.6719H116.686C116.866 44.6719 117.001 44.8067 117.001 44.9865V50.2446C117.046 50.4244 116.866 50.5592 116.686 50.5592ZM111.742 49.93H116.326V45.346H111.742V49.93Z" fill="#B5B5B5"/>
<path d="M113.536 49.2598C113.491 49.2598 113.491 49.2598 113.446 49.2598C113.356 49.2149 113.266 49.1699 113.221 49.0801L112.547 47.4622C112.457 47.2824 112.547 47.1026 112.727 47.0577C112.907 46.9678 113.086 47.0577 113.176 47.2375L113.715 48.4958L117.625 45.6645C117.76 45.5746 117.985 45.5746 118.075 45.7544C118.165 45.8892 118.165 46.1139 117.985 46.2038L113.76 49.2598C113.671 49.2598 113.626 49.2598 113.536 49.2598Z" fill="#B5B5B5"/>
<path d="M131.511 47.7327H119.736C119.557 47.7327 119.422 47.5979 119.422 47.4181C119.422 47.2383 119.557 47.1035 119.736 47.1035H131.511C131.691 47.1035 131.826 47.2383 131.826 47.4181C131.826 47.5979 131.691 47.7327 131.511 47.7327Z" fill="#B5B5B5"/>
<path d="M116.723 52.6289H111.465V57.887H116.723V52.6289Z" fill="white"/>
<path d="M116.686 58.1998H111.428C111.248 58.1998 111.113 58.065 111.113 57.8852V52.6271C111.113 52.4473 111.248 52.3125 111.428 52.3125H116.686C116.866 52.3125 117.001 52.4473 117.001 52.6271V57.8852C117.046 58.065 116.866 58.1998 116.686 58.1998ZM111.742 57.5706H116.326V52.9866H111.742V57.5706Z" fill="#B5B5B5"/>
<path d="M113.529 56.8966H113.439C113.349 56.8516 113.259 56.8067 113.214 56.7168L112.54 55.0989C112.45 54.9191 112.54 54.7394 112.675 54.6495C112.855 54.5596 113.034 54.6495 113.124 54.7843C113.124 54.7843 113.124 54.7843 113.124 54.8293L113.664 56.0876L117.574 53.2563C117.708 53.1664 117.933 53.1664 118.023 53.3462C118.113 53.481 118.113 53.7057 117.933 53.7956L113.709 56.8966C113.709 56.8516 113.619 56.8966 113.529 56.8966Z" fill="#B5B5B5"/>
<path d="M131.511 55.3694H119.736C119.557 55.3694 119.422 55.2346 119.422 55.0548C119.422 54.8751 119.557 54.7402 119.736 54.7402H131.511C131.691 54.7402 131.826 54.8751 131.826 55.0548C131.826 55.2346 131.691 55.3694 131.511 55.3694Z" fill="#B5B5B5"/>
<path d="M116.686 65.8385H111.428C111.248 65.8385 111.113 65.7037 111.113 65.5239V60.2658C111.113 60.086 111.248 59.9512 111.428 59.9512H116.686C116.866 59.9512 117.001 60.086 117.001 60.2658V65.5239C117.046 65.7037 116.866 65.8385 116.686 65.8385ZM111.742 65.2093H116.326V60.6253H111.742V65.2093Z" fill="#B5B5B5"/>
<path d="M113.536 64.5391C113.491 64.5391 113.491 64.5391 113.446 64.5391C113.356 64.4942 113.266 64.4492 113.221 64.3594L112.547 62.7415C112.457 62.5617 112.547 62.3819 112.727 62.337C112.907 62.2471 113.086 62.337 113.176 62.4718C113.176 62.4718 113.176 62.4718 113.176 62.5168L113.715 63.7751L117.625 60.9438C117.76 60.8539 117.985 60.8539 118.075 61.0337C118.165 61.1685 118.165 61.3932 117.985 61.4831L113.76 64.5391C113.671 64.5391 113.626 64.5391 113.536 64.5391Z" fill="#B5B5B5"/>
<path d="M131.511 63.0081H119.736C119.557 63.0081 119.422 62.8733 119.422 62.6935C119.422 62.5137 119.557 62.3789 119.736 62.3789H131.511C131.691 62.3789 131.826 62.5137 131.826 62.6935C131.826 62.8283 131.691 63.0081 131.511 63.0081Z" fill="#B5B5B5"/>
<path d="M54.2401 118.107H12.3562C12.1527 118.107 12 117.955 12 117.751V92.3562C12 92.1527 12.1527 92 12.3562 92H54.2401C54.4437 92 54.5963 92.1527 54.5963 92.3562V117.751C54.5963 117.955 54.4437 118.107 54.2401 118.107ZM12.7125 117.395H53.8838V92.7634H12.7125V117.395Z" fill="#B5B5B5"/>
<path d="M54.2401 98.2086H12.3562C12.1527 98.2086 12 98.0559 12 97.8523C12 97.6488 12.1527 97.4961 12.3562 97.4961H54.2401C54.4437 97.4961 54.5963 97.6488 54.5963 97.8523C54.5963 98.005 54.4437 98.2086 54.2401 98.2086Z" fill="#B5B5B5"/>
<path d="M19.0242 117.955C18.8206 117.955 18.668 117.802 18.668 117.598V92.407C18.668 92.2035 18.8206 92.0508 19.0242 92.0508C19.2278 92.0508 19.3805 92.2035 19.3805 92.407V117.598C19.3805 117.751 19.2278 117.955 19.0242 117.955Z" fill="#B5B5B5"/>
<path d="M43.6039 102.159H24.6535C24.3225 102.159 24.0742 101.91 24.0742 101.579C24.0742 101.248 24.3225 101 24.6535 101H43.6039C43.9349 101 44.1832 101.248 44.1832 101.579C44.1832 101.91 43.9349 102.159 43.6039 102.159Z" fill="#B5B5B5"/>
<path d="M43.6039 108.196H24.6535C24.3225 108.196 24.0742 107.947 24.0742 107.616C24.0742 107.285 24.3225 107.037 24.6535 107.037H43.6039C43.9349 107.037 44.1832 107.285 44.1832 107.616C44.1832 107.947 43.9349 108.196 43.6039 108.196Z" fill="#B5B5B5"/>
<path d="M35.8337 114.319H24.5793C24.2483 114.319 24 114.07 24 113.739C24 113.408 24.2483 113.16 24.5793 113.16H35.8337C36.1647 113.16 36.4129 113.408 36.4129 113.739C36.4129 114.07 36.1647 114.319 35.8337 114.319Z" fill="#B5B5B5"/>
<path d="M102.523 91.25C105.214 89.3495 108.944 90.0069 110.844 92.6978L127.178 115.922C129.079 118.613 128.434 122.347 125.73 124.243C123.039 126.144 119.31 125.487 117.409 122.796L101.075 99.571C99.1748 96.8801 99.8195 93.1468 102.523 91.25Z" fill="#E9E9E9"/>
<path d="M68.7834 100.807C91.0779 107.474 114.556 94.805 121.223 72.5106C127.889 50.2161 115.221 26.7383 92.9263 20.0714C70.6318 13.4046 47.154 26.0732 40.4872 48.3677C33.8203 70.6622 46.489 94.14 68.7834 100.807Z" fill="#E9E9E9"/>
<path d="M72.8352 87.2288C87.6325 91.6538 103.215 83.2453 107.64 68.448C112.065 53.6506 103.657 38.0679 88.8593 33.6429C74.062 29.218 58.4793 37.6265 54.0543 52.4238C49.6294 67.2211 58.0378 82.8039 72.8352 87.2288Z" fill="white"/>
<path d="M117.242 105.554L111.34 109.708C108.74 111.537 108.116 115.127 109.945 117.726L126.596 141.391C128.425 143.99 132.015 144.615 134.614 142.786L140.517 138.633C143.116 136.803 143.741 133.213 141.912 130.614L125.261 106.949C123.432 104.35 119.842 103.725 117.242 105.554Z" fill="#D4D4D4"/>
<path d="M76.2132 54.98C76.28 53.4504 76.919 52.0063 77.9969 50.9482C79.0749 49.8902 80.5088 49.2998 82.0001 49.3C83.5346 49.3 85.0062 49.9258 86.0912 51.0398C87.1762 52.1538 87.7858 53.6646 87.7858 55.24C87.7858 56.9243 87.4026 57.9064 86.9166 58.6258C86.4435 59.3254 85.8418 59.8468 85.0254 60.5517L84.6576 60.8698C83.6998 61.704 82.5825 62.7442 81.7417 64.3388C80.8944 65.9452 80.393 67.982 80.393 70.75C80.393 71.1876 80.5623 71.6073 80.8637 71.9167C81.1651 72.2262 81.5739 72.4 82.0001 72.4C82.4263 72.4 82.8351 72.2262 83.1365 71.9167C83.4379 71.6073 83.6072 71.1876 83.6072 70.75C83.6072 68.403 84.0289 66.9326 84.5689 65.9096C85.1141 64.876 85.8456 64.1619 86.7353 63.3884L87.0683 63.1019C87.8603 62.4221 88.8207 61.5984 89.5587 60.5068C90.4587 59.1736 91 57.5157 91 55.24C91 52.7894 90.0518 50.4392 88.364 48.7063C86.6762 46.9735 84.387 46 82.0001 46C79.6803 45.9997 77.4498 46.9184 75.7735 48.5648C74.0971 50.2111 73.1042 52.458 73.0015 54.8374C72.9831 55.2747 73.1346 55.7015 73.4227 56.0241C73.7109 56.3466 74.112 56.5385 74.5379 56.5574C74.9638 56.5763 75.3796 56.4207 75.6937 56.1249C76.0079 55.8291 76.1948 55.4172 76.2132 54.98ZM82.0001 79C82.5116 79 83.0021 78.7914 83.3638 78.4201C83.7255 78.0487 83.9287 77.5451 83.9287 77.02C83.9287 76.4949 83.7255 75.9912 83.3638 75.6199C83.0021 75.2486 82.5116 75.04 82.0001 75.04C81.4886 75.04 80.9981 75.2486 80.6364 75.6199C80.2747 75.9912 80.0716 76.4949 80.0716 77.02C80.0716 77.5451 80.2747 78.0487 80.6364 78.4201C80.9981 78.7914 81.4886 79 82.0001 79Z" fill="#D4D4D4"/>
</svg>
