<svg width="24" height="24" viewBox="0 0 30 30" fill="none" xmlns="http://www.w3.org/2000/svg">
<path d="M10.6901 24.8025C11.234 25.4903 11.9271 26.0455 12.7171 26.4262C13.507 26.8069 14.3732 27.0031 15.2501 27C16.127 27.0031 16.9931 26.8069 17.7831 26.4262C18.573 26.0455 19.2661 25.4903 19.8101 24.8025C16.7839 25.2121 13.7163 25.2121 10.6901 24.8025ZM23.6876 10.75V11.63C23.6876 12.6863 23.9876 13.7188 24.5526 14.5975L25.9376 16.7512C27.2013 18.7188 26.2363 21.3925 24.0376 22.0138C18.2922 23.6408 12.2079 23.6408 6.46258 22.0138C4.26383 21.3925 3.29883 18.7188 4.56258 16.7512L5.94758 14.5975C6.51409 13.7115 6.81472 12.6816 6.81383 11.63V10.75C6.81383 5.9175 10.5913 2 15.2501 2C19.9088 2 23.6876 5.9175 23.6876 10.75Z" fill="#6C6C6C"/>
</svg>
