<svg width="19" height="17" viewBox="0 0 19 17" fill="none" xmlns="http://www.w3.org/2000/svg">
<path fill-rule="evenodd" clip-rule="evenodd" d="M2.54962 3.12598C1.87342 3.12598 1.22491 3.3946 0.746766 3.87274C0.26862 4.35089 0 4.99939 0 5.67559V14.0198C0 14.696 0.26862 15.3445 0.746766 15.8226C1.22491 16.3008 1.87342 16.5694 2.54962 16.5694H15.5295C16.2057 16.5694 16.8542 16.3008 17.3323 15.8226C17.8105 15.3445 18.0791 14.696 18.0791 14.0198V5.67559C18.0791 4.99939 17.8105 4.35089 17.3323 3.87274C16.8542 3.3946 16.2057 3.12598 15.5295 3.12598H2.54962ZM13.2117 8.68878C12.9043 8.68878 12.6095 8.81088 12.3922 9.02822C12.1748 9.24555 12.0527 9.54033 12.0527 9.84769C12.0527 10.1551 12.1748 10.4498 12.3922 10.6672C12.6095 10.8845 12.9043 11.0066 13.2117 11.0066C13.519 11.0066 13.8138 10.8845 14.0311 10.6672C14.2485 10.4498 14.3706 10.1551 14.3706 9.84769C14.3706 9.54033 14.2485 9.24555 14.0311 9.02822C13.8138 8.81088 13.519 8.68878 13.2117 8.68878Z" fill="white"/>
<path d="M13.1974 0.176787C13.4719 0.103635 13.7596 0.0945342 14.0381 0.150188C14.3167 0.205841 14.5788 0.32476 14.8041 0.497767C15.0294 0.670774 15.212 0.893242 15.3377 1.148C15.4634 1.40276 15.5289 1.683 15.5291 1.96708H6.25781L13.1974 0.176787Z" fill="white"/>
</svg>
