<svg width="18" height="16" viewBox="0 0 18 16" fill="none" xmlns="http://www.w3.org/2000/svg">
<path d="M17.6972 13.4887C17.3514 13.1475 13.1602 11.5228 12.3997 11.2164C11.6432 10.9153 11.3414 10.0809 11.3414 10.0809C11.3414 10.0809 11.0009 10.2696 11.0009 9.73966C11.0009 9.20906 11.3414 10.0809 11.682 8.03476C11.682 8.03476 12.6268 7.76913 12.4391 5.57243H12.2121C12.2121 5.57243 12.7797 3.22384 12.2121 2.42894C11.6426 1.63403 11.4196 1.1041 10.169 0.724039C8.92037 0.344652 9.3744 0.420262 8.46767 0.459071C7.5596 0.49721 6.80377 0.989677 6.80377 1.25398C6.80377 1.25398 6.23623 1.29212 6.01054 1.51961C5.78353 1.74711 5.40561 2.80699 5.40561 3.07196C5.40561 3.33692 5.59457 5.11944 5.78353 5.49682L5.55851 5.57042C5.36956 7.76779 6.31435 8.03409 6.31435 8.03409C6.65487 10.0802 6.9954 9.20839 6.9954 9.73899C6.9954 10.2689 6.65487 10.0802 6.65487 10.0802C6.65487 10.0802 6.3524 10.914 5.59657 11.2157C4.84074 11.5188 0.64493 13.1475 0.303737 13.488C-0.0367884 13.836 0.00127026 15.4258 0.00127026 15.4258H8.03767L8.62391 13.1107L8.10311 12.5887L8.99982 11.6888L9.89654 12.5881L9.37574 13.11L9.96198 15.4251H17.9984C17.9984 15.4251 18.0404 13.834 17.6959 13.4867L17.6972 13.4887Z" fill="white"/>
</svg>
