<svg width="25" height="25" viewBox="0 0 25 25" fill="none" xmlns="http://www.w3.org/2000/svg">
<path d="M22.2836 18.6037C21.8789 18.2053 16.975 16.3084 16.0852 15.9506C15.2 15.599 14.8469 14.6248 14.8469 14.6248C14.8469 14.6248 14.4485 14.8451 14.4485 14.2264C14.4485 13.6068 14.8469 14.6248 15.2453 12.2357C15.2453 12.2357 16.3508 11.9256 16.1313 9.36074H15.8656C15.8656 9.36074 16.5297 6.61856 15.8656 5.69043C15.1992 4.76231 14.9383 4.14356 13.475 3.69981C12.0141 3.25684 12.5453 3.34512 11.4844 3.39043C10.4219 3.43496 9.53752 4.00996 9.53752 4.31856C9.53752 4.31856 8.87346 4.36309 8.6094 4.62871C8.34377 4.89434 7.90158 6.13184 7.90158 6.44121C7.90158 6.75059 8.12268 8.83184 8.34377 9.27246L8.08049 9.3584C7.8594 11.924 8.96487 12.235 8.96487 12.235C9.3633 14.624 9.76174 13.6061 9.76174 14.2256C9.76174 14.8443 9.3633 14.624 9.3633 14.624C9.3633 14.624 9.0094 15.5975 8.12502 15.9498C7.24065 16.3037 2.33127 18.2053 1.93205 18.6029C1.53362 19.0092 1.57815 20.8654 1.57815 20.8654H10.9813L11.6672 18.1623L11.0578 17.5529L12.1071 16.5021L13.1563 17.5521L12.5469 18.1615L13.2328 20.8647H22.636C22.636 20.8647 22.6852 19.0068 22.2821 18.6014L22.2836 18.6037Z" fill="white"/>
</svg>
