<svg width="161" height="154" viewBox="0 0 161 154" fill="none" xmlns="http://www.w3.org/2000/svg">
<path d="M104.319 126.074C97.1732 120.813 94.4249 111.272 94.5427 102.438C94.5819 97.9621 95.4064 93.2114 98.5081 89.9919C100 88.4607 101.924 87.4006 103.926 86.5368C110.247 83.7885 118.689 83.3566 123.125 88.657C124.421 90.2275 125.206 92.112 125.952 93.9966C128.583 100.553 130.978 107.189 133.098 113.942C135.179 120.577 137.417 131.021 128.033 131.61C120.377 132.081 110.601 130.667 104.319 126.074Z" fill="white"/>
<path d="M124.035 132.354C116.54 132.354 107.331 130.886 101.121 126.639C94.0964 121.876 90.1988 113.065 90.3273 102.467C90.413 96.6329 91.8692 92.4654 94.7817 89.687C96.6662 87.9009 99.1076 86.8293 100.778 86.1149C107.845 83.2571 117.182 82.8602 122.065 88.3375C123.435 89.8855 124.292 91.7509 125.234 93.8149C128.104 100.403 130.717 107.191 133.029 113.978C135.556 121.4 135.685 126.441 133.501 129.378C132.216 131.124 130.074 132.077 127.204 132.235C126.177 132.354 125.106 132.354 124.035 132.354ZM101.463 126.163C108.487 130.926 119.324 132.156 127.119 131.68C129.774 131.521 131.745 130.648 132.901 129.06C134.957 126.282 134.786 121.44 132.301 114.176C130.031 107.389 127.419 100.642 124.549 94.053C123.65 92.0288 122.836 90.2427 121.508 88.7345C116.839 83.4953 107.802 83.8922 100.949 86.6705C99.3217 87.3056 96.9232 88.4169 95.1672 90.0839C92.3832 92.7432 90.9698 96.7916 90.9269 102.467C90.7984 112.866 94.6532 121.479 101.463 126.163Z" fill="#B0B0B0"/>
<path d="M29.5698 92.5819L8.91797 84.062C16.26 68.3964 24.505 59.0913 30.2373 55.44C37.54 49.3936 55.6005 48.9617 72.1299 48.3335C72.1299 48.3335 79.9823 47.6661 87.8739 49.8648C107.191 55.2044 125.173 83.1982 125.173 83.1982L101.773 86.3785C101.773 86.3785 104.796 114.686 107.466 149.158C107.466 149.158 77.1554 155.99 29.7661 153.32C29.7268 153.32 30.0017 97.4896 29.5698 92.5819Z" fill="#E9E9E9"/>
<path d="M74.2807 45.5455L76.872 57.9916C76.872 57.9916 74.1236 66.2366 65.7608 65.3729C57.398 64.5091 53.5503 57.7953 53.5503 57.7953L50.5664 34.9448C50.5664 34.9448 56.1416 30.94 52.608 18.1406C52.608 18.1406 62.188 21.3994 74.0451 18.2584C74.0451 18.2584 79.6203 31.8823 79.4633 38.282C79.3062 44.6818 74.2807 45.5455 74.2807 45.5455Z" fill="white"/>
<path d="M66.9791 65.6885C66.5865 65.6885 66.1546 65.6493 65.762 65.61C57.3599 64.7462 53.3945 57.9539 53.3552 57.8754C53.3159 57.8361 53.3159 57.7969 53.3159 57.7576L50.332 34.9071C50.332 34.7893 50.3713 34.7108 50.4498 34.6323C50.4891 34.593 55.7895 30.549 52.4129 18.1422C52.3737 18.0244 52.4129 17.9066 52.4914 17.8674C52.57 17.7888 52.6877 17.7496 52.8055 17.7888C52.8841 17.8281 62.464 20.9691 74.0463 17.9066C74.2034 17.8674 74.3604 17.9459 74.3997 18.0637C74.6352 18.6133 79.9749 31.8447 79.8571 38.2051C79.7393 43.8588 75.8131 45.3901 74.6745 45.7042L77.1873 57.8754C77.1873 57.9147 77.1873 57.9932 77.1873 58.0324C77.148 58.1502 74.5174 65.6885 66.9791 65.6885ZM53.8656 57.6398C54.219 58.2287 58.0667 64.2358 65.8013 65.0211C73.5359 65.8063 76.2842 58.7784 76.5591 57.9146L74.007 45.5471C74.007 45.4686 74.007 45.3901 74.0463 45.3115C74.0856 45.233 74.1641 45.1937 74.2426 45.1937C74.4389 45.1545 79.1111 44.2515 79.2289 38.2051C79.3467 32.3943 74.6352 20.3801 73.9285 18.5348C67.0969 20.3016 59.9512 20.3016 53.1196 18.5348C56.1035 29.9993 51.824 34.2789 50.9602 35.0249L53.8656 57.6398Z" fill="#B0B0B0"/>
<path d="M55.3221 33.8843C54.8903 32.8242 54.1443 31.9212 53.1627 31.293C52.2204 30.7826 51.1996 30.4293 50.1396 30.2329C49.5899 30.0759 48.9617 30.0366 48.412 30.1544C48.0194 30.2722 47.6268 30.4685 47.3127 30.7434C46.4882 31.293 45.8993 32.1175 45.6244 33.0598C45.5066 33.8451 45.5852 34.6303 45.8207 35.3763C46.017 36.2008 46.3311 37.0253 46.763 37.7713C48.6083 40.8337 52.5738 41.8545 55.6362 40.0092C55.6755 40.0092 55.6755 39.9699 55.7148 39.9699" fill="white"/>
<path d="M52.2992 41.1865C49.9042 41.1865 47.7055 39.9301 46.4884 37.8885C46.0565 37.1032 45.7031 36.318 45.5068 35.4542C45.232 34.669 45.1535 33.8052 45.3105 32.9807C45.5853 31.9599 46.2135 31.0962 47.1166 30.5072C47.4699 30.2324 47.8625 29.9968 48.3337 29.879C48.9619 29.7612 49.5901 29.8005 50.2183 29.9576C51.3176 30.1146 52.3777 30.5072 53.3592 31.0569C54.4193 31.6851 55.2045 32.6666 55.6757 33.8052C55.7149 33.9623 55.6757 34.1193 55.5186 34.1979C55.3616 34.2371 55.2045 34.1979 55.126 34.0408C54.7334 33.02 53.9874 32.1562 53.0844 31.6066C52.1814 31.0962 51.1606 30.7821 50.1397 30.5857C49.6293 30.4287 49.0797 30.4287 48.53 30.5072C48.1766 30.625 47.8233 30.7821 47.5484 31.0176C46.8025 31.528 46.2528 32.274 45.978 33.1378C45.8602 33.8838 45.9387 34.6297 46.1743 35.3365C46.3706 36.161 46.6847 36.9069 47.1166 37.6529C48.8441 40.5976 52.6525 41.5399 55.5972 39.8123C55.6364 39.8123 55.6364 39.7731 55.6757 39.7731C55.7935 39.6945 55.9898 39.7338 56.0683 39.8516C56.1468 39.9694 56.1076 40.1657 55.9898 40.2442C54.7727 40.8724 53.5555 41.1865 52.2992 41.1865Z" fill="#B0B0B0"/>
<path d="M72.6736 52.3786C70.4356 52.4179 68.2762 51.7111 66.4702 50.4155C62.3869 47.3923 62.3477 45.2722 62.3477 45.1544C62.3477 45.0759 62.3869 44.9581 62.4654 44.9188C62.544 44.8795 62.6618 44.8403 62.7403 44.8795C62.8188 44.9188 68.8652 47.196 73.8907 45.4685C73.9692 45.4292 74.0477 45.4685 74.1263 45.5077C74.2048 45.547 74.2441 45.6255 74.2833 45.704L75.579 51.6719C75.6182 51.8289 75.5397 51.986 75.3827 52.0252C74.4796 52.2608 73.5766 52.3786 72.6736 52.3786ZM63.0544 45.6255C63.2899 46.3715 64.0752 47.9027 66.8235 49.9443C70.1215 52.3786 73.93 51.7897 74.9508 51.5541L73.7729 46.1752C69.4541 47.5101 64.5856 46.1359 63.0544 45.6255Z" fill="#B0B0B0"/>
<path d="M66.8633 26.9375C66.8633 26.9375 72.1637 32.5127 71.3392 33.7691C70.5147 35.0255 67.6093 34.7899 67.6093 34.7899" fill="white"/>
<path d="M68.1547 35.1037C67.8014 35.1037 67.605 35.0644 67.5658 35.0644C67.4087 35.0644 67.2909 34.9074 67.2909 34.7503C67.2909 34.5933 67.448 34.4755 67.605 34.4755C68.351 34.554 70.4712 34.5148 71.0601 33.6117C71.492 32.9443 69.097 29.7248 66.6235 27.1335C66.5057 27.0157 66.5057 26.8194 66.6235 26.7016C66.7413 26.5838 66.9376 26.5838 67.0554 26.7016C68.351 28.0365 72.4343 32.5517 71.5705 33.8866C70.9031 34.9467 69.097 35.1037 68.1547 35.1037Z" fill="#B0B0B0"/>
<path d="M60.238 29.3764C60.7811 29.1578 60.972 28.361 60.6644 27.5965C60.3568 26.8321 59.6672 26.3896 59.1241 26.6082C58.5809 26.8267 58.39 27.6236 58.6976 28.388C59.0052 29.1524 59.6948 29.5949 60.238 29.3764Z" fill="#B0B0B0"/>
<path d="M71.195 27.5814C71.7381 27.3629 71.9291 26.566 71.6215 25.8016C71.3139 25.0372 70.6242 24.5947 70.0811 24.8133C69.538 25.0318 69.347 25.8287 69.6546 26.5931C69.9622 27.3575 70.6518 27.8 71.195 27.5814Z" fill="#B0B0B0"/>
<path d="M67.6112 42.4455C65.5696 42.4455 63.685 41.2284 62.1145 38.9512C61.2115 37.6163 60.5048 36.2028 59.9944 34.6716C59.9551 34.5146 60.0336 34.3575 60.1907 34.3182C60.3477 34.279 60.5048 34.3575 60.5441 34.5146C61.0152 35.9673 61.7219 37.3414 62.5464 38.5978C64.3132 41.1498 66.4726 42.2492 68.7106 41.6995C74.1287 40.4039 74.0502 33.9649 74.0502 33.8864C74.0502 33.7293 74.168 33.5723 74.325 33.5723C74.4821 33.5723 74.5999 33.6901 74.6391 33.8471C74.6391 33.9256 74.7569 40.7965 68.8676 42.2492C68.475 42.4062 68.0431 42.4455 67.6112 42.4455Z" fill="#B0B0B0"/>
<path d="M36.904 87.5568L26.9314 111.271L49.1537 92.0719L63.3273 96.8619C63.3273 96.8619 60.1471 117.985 40.8302 135.771C21.5133 153.556 1.52888 150.18 0.390276 133.493C-0.748323 116.807 10.991 84.4551 10.991 84.4551" fill="white"/>
<path d="M15.7045 147.979C13.4274 148.018 11.1502 147.586 9.03 146.762C3.69036 144.642 0.510138 139.93 0.0782555 133.53C-1.06034 116.962 10.6005 84.6884 10.7183 84.3743C10.7575 84.2172 10.9538 84.1387 11.1109 84.178C11.2679 84.2172 11.3465 84.4135 11.3072 84.5313C11.3072 84.5313 11.3072 84.5313 11.3072 84.5706C11.1894 84.8847 -0.392888 117.04 0.706449 133.491C1.13833 139.655 4.16151 144.17 9.26557 146.212C17.7854 149.589 29.7996 145.505 40.6359 135.572C58.5394 119.043 62.5834 99.4509 63.0153 97.0559L49.2736 92.3837L27.1691 111.465C27.0513 111.583 26.855 111.544 26.7372 111.426C26.6587 111.347 26.6587 111.23 26.6979 111.112L36.6705 87.4367C36.749 87.2797 36.9061 87.2011 37.0631 87.2797C37.2201 87.3582 37.2987 87.5152 37.2201 87.6723L27.6795 110.209L48.9595 91.8341C49.038 91.7555 49.1558 91.7555 49.2343 91.7948L63.4079 96.5848C63.5257 96.624 63.6435 96.7811 63.6042 96.8989C63.565 97.0952 60.2277 118.297 41.0286 136.004C32.6265 143.738 23.4784 147.979 15.7045 147.979Z" fill="#B0B0B0"/>
<path d="M54.8471 57.5215L80.1318 77.5844L80.8385 78.8015L84.1758 84.6516L77.7368 82.6885L76.4019 82.2958L51.1172 62.1937L54.8471 57.5215Z" fill="#00A1A8"/>
<path d="M84.1772 84.9257H84.0987L76.3248 82.5699C76.2856 82.5699 76.2463 82.5307 76.2463 82.5307L50.9615 62.4285C50.883 62.3893 50.883 62.3107 50.8438 62.2322C50.8438 62.1537 50.8438 62.0752 50.883 61.9966L54.6129 57.3245C54.7307 57.2067 54.8877 57.2067 55.0055 57.2852L80.2903 77.3874C80.3295 77.4266 80.3295 77.4266 80.3688 77.4659L84.4128 84.4938C84.4913 84.6508 84.4521 84.8079 84.295 84.8864C84.295 84.9257 84.2557 84.9257 84.1772 84.9257ZM76.5604 82.0203L83.549 84.1404L79.9369 77.78L54.927 57.9134L51.5505 62.1537L76.5604 82.0203Z" fill="#00A1A8"/>
<path d="M80.84 78.8008L84.1773 84.6508L77.7383 82.6877L80.84 78.8008Z" fill="#E9E9E9"/>
<path d="M84.1808 84.9253H84.1023L77.6633 82.9622C77.5063 82.9229 77.4278 82.7659 77.467 82.6088C77.467 82.5696 77.5063 82.5303 77.5063 82.4911L80.608 78.6041C80.6865 78.5256 80.7651 78.4863 80.8436 78.4863C80.9221 78.4863 81.0399 78.5648 81.0791 78.6434L84.4557 84.4934C84.5342 84.6505 84.4949 84.8075 84.3379 84.886C84.2986 84.9253 84.2594 84.9253 84.1808 84.9253ZM78.2523 82.5303L83.5919 84.1401L80.8043 79.3108L78.2523 82.5303Z" fill="#00A1A8"/>
<path d="M45.0327 57.0507L48.4878 52.6927C48.8019 52.3 49.3515 52.2215 49.7442 52.5356L62.2295 62.4296L57.6358 68.2012L45.1505 58.3071C44.7971 58.0323 44.7186 57.4434 45.0327 57.0507Z" fill="#00A1A8"/>
<path d="M57.6349 68.5534C57.5563 68.5534 57.5171 68.5141 57.4386 68.4748L44.9925 58.5808C44.4821 58.1882 44.3643 57.4422 44.7962 56.9318C44.7962 56.9318 44.7962 56.9318 44.8354 56.8925L48.2905 52.5345C48.7224 52.0241 49.4684 51.9455 49.9788 52.3381L62.4641 62.2322C62.5819 62.35 62.6212 62.507 62.5034 62.6641L57.8704 68.4356C57.8312 68.5141 57.7527 68.5534 57.6349 68.5534ZM49.1935 52.6522H49.115C48.958 52.6915 48.8009 52.77 48.7224 52.8878L45.2673 57.2459C45.1495 57.3637 45.1103 57.5207 45.1495 57.6778C45.1888 57.8348 45.2673 57.9919 45.3851 58.0704L57.6349 67.8074L61.8359 62.5463L49.5861 52.8093C49.4684 52.7308 49.3506 52.6915 49.1935 52.6522Z" fill="#00A1A8"/>
<path d="M52.8082 67.4154C52.7297 67.4154 52.6904 67.3762 52.6119 67.3369C52.5726 67.2976 46.3692 62.4292 45.5447 61.6439C44.5239 60.7016 44.9558 58.7778 44.9951 58.5422C45.0343 58.3852 45.1914 58.3066 45.3484 58.3066C45.5055 58.3459 45.584 58.503 45.5447 58.66C45.5447 58.66 45.1128 60.4268 45.8981 61.1728C46.6441 61.8402 52.1407 66.1983 52.926 66.8265C53.0438 66.9443 53.083 67.1013 52.9653 67.2584C53.0045 67.3369 52.926 67.3762 52.8082 67.4154Z" fill="#00A1A8"/>
<path d="M62.9765 98.6282C63.2906 97.2933 63.8403 94.545 63.8403 94.545C63.8403 94.545 69.3763 94.9769 70.5541 93.2886C71.732 91.6003 75.2263 79.5076 74.0484 77.4267C72.8706 75.3458 68.434 72.519 67.0598 71.9693C65.6856 71.4196 60.2675 72.519 60.2675 72.519L64.547 68.2001C64.547 68.2001 71.5357 72.3227 74.6766 72.0478C77.8176 71.773 78.7206 70.6344 77.1109 68.7498C75.5011 66.8652 63.7618 61.6041 61.7987 61.8397C59.8356 62.0753 51.1587 70.2418 50.9624 71.4196C50.766 72.5975 44.0915 95.2124 45.5049 97.7252" fill="white"/>
<path d="M62.9725 98.9036H62.8939C62.7369 98.8643 62.6584 98.7073 62.6976 98.5502C63.0117 97.2546 63.5614 94.5062 63.5614 94.467C63.6007 94.3099 63.7184 94.2314 63.8755 94.2314C65.3674 94.3492 69.4507 94.3884 70.3145 93.0928C70.8641 92.2683 72.042 88.8132 72.9058 85.3974C73.9266 81.3535 74.2799 78.3695 73.8088 77.545C72.6702 75.5427 68.1943 72.7158 66.9772 72.2054C65.9564 71.7735 61.8339 72.441 60.3419 72.7551C60.1849 72.7943 60.0278 72.6765 59.9885 72.5195C59.9885 72.441 59.9885 72.3232 60.0671 72.2447L64.3466 67.9258C64.4252 67.8473 64.5822 67.8081 64.7 67.8866C64.7785 67.9258 71.6494 71.9698 74.6333 71.695C76.243 71.5379 77.2638 71.1453 77.4994 70.5957C77.735 70.046 77.2638 69.3785 76.832 68.8681C75.3007 67.1013 63.6399 61.8402 61.7946 62.0758C59.9493 62.3114 51.3902 70.2816 51.1939 71.4202C51.1546 71.6557 50.919 72.598 50.4086 74.4826C48.8381 80.2934 44.6371 95.6448 45.7364 97.5294C45.8149 97.6865 45.7757 97.8435 45.6186 97.922C45.4616 98.0006 45.3045 97.9613 45.226 97.8042C44.1659 95.9589 46.9535 84.887 49.8589 74.2863C50.2908 72.7551 50.6049 71.4987 50.6442 71.3024C50.8405 69.9282 59.6745 61.7617 61.7161 61.4869C63.7577 61.212 75.5756 66.5124 77.3031 68.4755C78.0491 69.3785 78.3239 70.1638 78.0491 70.792C77.6957 71.6165 76.5964 72.0876 74.6726 72.2839C71.7672 72.5195 65.7601 69.1822 64.5822 68.5148L61.1271 71.9698C62.7762 71.695 66.0742 71.1846 67.1735 71.6165C68.5084 72.1661 73.1021 75.0715 74.3192 77.1917C75.0652 78.4873 74.1229 82.9239 73.4947 85.476C72.6309 89.0096 71.4531 92.4646 70.8249 93.3676C69.7255 94.9774 65.3282 94.8596 64.1111 94.7811C63.954 95.4878 63.5614 97.5687 63.2866 98.6288C63.2473 98.8251 63.1295 98.9036 62.9725 98.9036Z" fill="#B0B0B0"/>
<path d="M58.5 77.8597C58.5 77.8597 65.842 76.6033 67.4517 77.0745C69.0615 77.5456 73.7337 82.5319 73.7337 82.5319" fill="white"/>
<path d="M73.696 82.8048C73.6175 82.8048 73.539 82.7655 73.4604 82.7263C72.204 81.3521 68.5919 77.7007 67.3356 77.3474C66.0792 76.994 60.5432 77.8185 58.5016 78.1719C58.3445 78.2111 58.1875 78.0933 58.1482 77.9363C58.109 77.7792 58.2268 77.6222 58.3838 77.5829C58.6979 77.5437 65.8043 76.3265 67.4533 76.7977C69.1023 77.2688 73.6567 82.1373 73.8531 82.3336C73.9708 82.4514 73.9708 82.6477 73.8531 82.7655C73.8531 82.8048 73.7745 82.844 73.696 82.8048Z" fill="#B0B0B0"/>
<path d="M63.8438 94.546C63.8438 94.546 64.9431 91.0516 64.6683 88.5781Z" fill="white"/>
<path d="M63.8434 94.8204C63.8042 94.8204 63.8042 94.8204 63.7649 94.8204C63.6079 94.7812 63.5293 94.6241 63.5686 94.4671C63.5686 94.4278 64.6287 91.012 64.3931 88.5778C64.3931 88.4207 64.4716 88.2637 64.6679 88.2637C64.825 88.2637 64.982 88.3422 64.982 88.5385C65.2569 91.0905 64.1968 94.5063 64.1575 94.6634C64.079 94.7419 63.9612 94.8204 63.8434 94.8204Z" fill="#00A1A8"/>
<path d="M59.8359 88.4602C60.1893 88.3816 66.3534 88.5387 66.7461 88.4602Z" fill="white"/>
<path d="M65.8443 88.7729C65.2946 88.7729 64.4309 88.7729 63.2923 88.7336C61.8788 88.7336 60.1121 88.6943 59.9157 88.7336C59.7587 88.7729 59.6017 88.6551 59.5624 88.498C59.5231 88.341 59.6409 88.1839 59.7587 88.1447C59.955 88.1054 60.9758 88.1054 63.2923 88.1447C64.7057 88.1447 66.4725 88.1839 66.6688 88.1447C66.8259 88.1054 66.9829 88.2232 67.0222 88.3802C67.0614 88.5373 66.9829 88.6943 66.8259 88.7336C66.4725 88.7729 66.1584 88.7729 65.8443 88.7729Z" fill="#B0B0B0"/>
<path d="M57.3203 82.8056C57.3203 82.8056 62.6207 81.6277 65.0942 82.1774C67.5677 82.7271 71.9258 87.8704 72.3969 88.3415" fill="white"/>
<path d="M72.4005 88.6172C72.322 88.6172 72.2435 88.5779 72.2042 88.5386C72.1257 88.4601 72.0079 88.3423 71.8509 88.146C70.673 86.8504 67.1787 82.9242 65.0585 82.4923C62.6635 81.9819 57.4417 83.1205 57.4024 83.1205C57.2454 83.1597 57.0883 83.0812 57.0491 82.9242C57.0098 82.7671 57.0883 82.6101 57.2454 82.5708H57.2846C57.5202 82.5315 62.6635 81.3929 65.2156 81.9426C67.2572 82.3745 70.2411 85.4762 72.322 87.7927C72.4791 87.989 72.5968 88.1067 72.6754 88.1853C72.7931 88.3031 72.7931 88.4994 72.6754 88.6172C72.5576 88.6172 72.4791 88.6172 72.4005 88.6172Z" fill="#B0B0B0"/>
<path d="M16.0561 119.869C15.899 119.869 15.7812 119.752 15.7812 119.555C15.7812 119.477 15.8205 119.398 15.899 119.32L26.7746 110.996C26.8924 110.918 27.0887 110.918 27.1672 111.035C27.285 111.153 27.2458 111.349 27.128 111.428L16.2917 119.752C16.1739 119.869 16.1346 119.869 16.0561 119.869Z" fill="#B0B0B0"/>
<path d="M45.6606 28.9774C45.5428 28.9774 45.425 28.8989 45.3857 28.7419C44.4042 24.5801 43.4226 20.379 42.5589 16.2958L42.4803 15.8639C42.0877 14.0971 41.6558 12.0947 41.7736 10.2494C41.8914 8.0115 43.6582 7.85445 44.7575 7.89371C45.0324 5.96987 46.0532 4.24234 47.6629 3.143C51.7462 0.316135 56.065 1.57252 60.2268 2.78964C62.9359 3.57488 65.7235 4.39939 68.3148 4.00677C70.0423 3.7712 71.652 2.94669 73.2225 2.16145H73.2618C73.8115 1.88662 74.4004 1.61178 74.9501 1.33695C76.0887 0.826541 81.7424 -1.52918 83.2736 1.57252C83.7448 2.51481 83.3914 3.49636 82.9595 4.32086C82.4098 5.45946 81.7816 6.5588 81.0749 7.61887C81.4283 7.42256 81.8209 7.26552 82.2135 7.10847C83.7448 6.44101 85.4723 6.40175 87.0428 6.99068C87.7102 7.26552 88.2991 7.6974 88.6918 8.32559C89.477 9.58198 89.1629 11.231 87.7495 13.1941C86.9642 14.2934 86.1397 15.3928 85.2367 16.4136C86.336 15.7461 87.5532 15.1572 88.8881 15.5105C89.5163 15.6283 90.0267 16.0602 90.3408 16.6099C90.8904 17.7485 89.9874 18.9263 89.6733 19.319C87.3176 22.4207 84.2944 24.9727 80.8786 26.8573C80.7216 26.9358 80.5645 26.8965 80.486 26.7395C80.4075 26.5824 80.4467 26.4254 80.6038 26.3469C80.6038 26.3469 80.6038 26.3469 80.6431 26.3469C83.9803 24.5408 86.925 22.028 89.2414 18.9656C89.477 18.6515 90.223 17.67 89.8304 16.8455C89.5948 16.4528 89.2414 16.1387 88.7703 16.0602C87.4354 15.7069 86.2183 16.4921 85.0404 17.2381C84.6478 17.4736 84.2944 17.7092 83.9018 17.9448C83.7448 18.0233 83.5877 17.9448 83.5092 17.827C83.4699 17.7092 83.4699 17.5914 83.5484 17.5129C84.9226 16.0602 86.179 14.529 87.3176 12.88C88.5347 11.1132 88.8488 9.69976 88.2206 8.67895C87.9065 8.16854 87.3961 7.81518 86.8465 7.57961C85.5901 7.06921 84.0196 7.10847 82.4491 7.6974C81.7031 8.0115 80.9571 8.36485 80.2897 8.836C80.1719 8.91452 80.0149 8.91452 79.8971 8.79673C79.8185 8.67895 79.7793 8.5219 79.8578 8.44338C80.8001 7.0692 81.6639 5.61651 82.4098 4.12455C82.7632 3.41784 83.038 2.59333 82.7239 1.88662C81.389 -0.783203 75.8138 1.65104 75.1464 1.92588C74.5967 2.16145 74.0078 2.43628 73.4974 2.71112H73.4581C71.8484 3.49636 70.1601 4.36013 68.354 4.5957C65.645 4.98832 62.7788 4.16381 60.0305 3.37857C55.9865 2.20071 51.7855 0.983589 47.9378 3.65341C46.4066 4.71348 45.425 6.40175 45.268 8.24707C45.2287 8.40411 45.1109 8.5219 44.9539 8.5219C43.6189 8.48264 42.4411 8.60043 42.3233 10.328C42.2055 12.0555 42.6767 14.0971 43.0693 15.8246L43.1478 16.2565C44.0508 20.379 44.9931 24.5408 45.9747 28.7026C46.0139 28.8596 45.9354 29.0167 45.7784 29.0559C45.6998 28.9774 45.6998 28.9774 45.6606 28.9774Z" fill="#B0B0B0"/>
<path d="M47.82 59.9557C47.6629 59.9557 47.5059 59.7986 47.5452 59.6416C47.5452 59.5631 47.5844 59.5238 47.6237 59.4453L51.5892 54.6553C51.7069 54.5375 51.9032 54.4983 52.021 54.616C52.1388 54.7338 52.1781 54.9301 52.0603 55.0479L48.0948 59.8379C48.0163 59.9164 47.9378 59.9557 47.82 59.9557Z" fill="white"/>
<path d="M84.8433 85.3984C84.7648 85.3984 84.7255 85.3591 84.647 85.3199L83.8225 84.6917C83.7047 84.6132 83.6655 84.4168 83.744 84.2991C83.8225 84.1813 84.0188 84.142 84.1366 84.2205C84.1366 84.2205 84.1759 84.2205 84.1759 84.2598L85.0004 84.888C85.1181 85.0058 85.1574 85.1628 85.0396 85.3199C85.0396 85.3591 84.9611 85.3984 84.8433 85.3984Z" fill="#00A1A8"/>
<path d="M90.108 25.7578H158.934C160.073 25.7578 160.976 26.6608 160.976 27.7994V118.063C160.976 119.201 160.073 120.105 158.934 120.105H90.108C88.9694 120.105 88.0664 119.201 88.0664 118.063V27.7994C88.0664 26.6608 89.0087 25.7578 90.108 25.7578Z" fill="#00A1A8"/>
<path d="M156.497 31.5312H92.5391V114.296H156.497V31.5312Z" fill="white"/>
<path d="M156.542 114.609H92.5446C92.3875 114.609 92.2305 114.492 92.2305 114.295V31.5309C92.2305 31.3738 92.3483 31.2561 92.5053 31.2168H156.463C156.62 31.2168 156.738 31.3346 156.777 31.4916V114.295C156.817 114.492 156.699 114.609 156.542 114.609ZM92.8587 114.02H156.228V31.845H92.8587V114.02Z" fill="#00A1A8"/>
<path d="M141.263 22.4207H132.076C131.251 18.2589 127.247 15.5498 123.085 16.3743C120.022 16.9633 117.627 19.3583 117.039 22.4207H107.812C106.595 22.4207 105.613 23.4022 105.613 24.6194V32.3147C105.613 33.5318 106.595 34.5134 107.812 34.5134H141.263C142.48 34.5134 143.462 33.5318 143.462 32.3147V24.6194C143.462 23.4022 142.48 22.4207 141.263 22.4207ZM124.538 23.4415C123.438 23.4415 122.574 22.5777 122.574 21.4784C122.574 20.3791 123.438 19.5153 124.538 19.5153C125.637 19.5153 126.501 20.3791 126.501 21.4784C126.501 22.5385 125.637 23.4415 124.538 23.4415Z" fill="#E9E9E9"/>
<path d="M117.199 58.3849H101.73C101.415 58.3849 101.141 58.1101 101.141 57.796V41.2667C101.141 40.9526 101.415 40.6777 101.73 40.6777H117.199C117.513 40.6777 117.788 40.9526 117.788 41.2667V57.796C117.788 58.1101 117.513 58.3849 117.199 58.3849ZM101.73 41.2667V57.796H117.199V41.3059L101.73 41.2667Z" fill="#B0B0B0"/>
<path d="M120.809 45.3097C120.731 45.4667 120.652 45.5845 120.534 45.7023C117.197 49.0396 113.899 52.3376 110.562 55.6748C110.405 55.9497 110.052 56.0282 109.777 55.8712C109.698 55.8319 109.659 55.7534 109.58 55.6748L103.966 49.8641C103.73 49.6677 103.691 49.3144 103.848 49.0788C103.887 49.0396 103.927 49.0003 103.966 48.961L105.379 47.7046C105.576 47.4691 105.89 47.4298 106.125 47.6261C106.165 47.6654 106.204 47.6654 106.204 47.7046L109.541 51.0812C109.894 51.4345 110.13 51.4345 110.483 51.0812L118.257 43.3466C118.414 43.0717 118.768 43.0325 119.043 43.1895C119.121 43.2288 119.16 43.268 119.2 43.3466C119.631 43.7784 120.063 44.2103 120.495 44.6815C120.574 44.7993 120.692 44.917 120.77 45.0348L120.809 45.3097Z" fill="#00A1A8"/>
<path d="M117.199 80.9201H101.73C101.415 80.9201 101.141 80.6452 101.141 80.3311V63.8018C101.141 63.4877 101.415 63.2129 101.73 63.2129H117.199C117.513 63.2129 117.788 63.4877 117.788 63.8018V80.3311C117.788 80.6452 117.513 80.9201 117.199 80.9201ZM101.73 63.8018V80.3311H117.199V63.8018H101.73Z" fill="#B0B0B0"/>
<path d="M120.809 67.8468C120.731 68.0038 120.652 68.1216 120.534 68.2394C117.197 71.5767 113.899 74.8747 110.562 78.2119C110.405 78.4868 110.052 78.5653 109.777 78.4083C109.698 78.369 109.659 78.2905 109.58 78.2119L103.966 72.4012C103.73 72.2049 103.691 71.8515 103.848 71.6159C103.887 71.5767 103.927 71.5374 103.966 71.4981L105.379 70.2418C105.576 70.0062 105.89 69.9669 106.125 70.1632C106.165 70.2025 106.204 70.2025 106.204 70.2418L109.541 73.6183C109.894 73.9716 110.13 73.9716 110.483 73.6183L118.257 65.8837C118.414 65.6088 118.768 65.5696 119.043 65.7266C119.121 65.7659 119.16 65.8051 119.2 65.8837C119.631 66.3156 120.063 66.7474 120.495 67.2186C120.574 67.3364 120.692 67.4542 120.77 67.5719L120.809 67.8468Z" fill="#00A1A8"/>
<path d="M117.199 103.457H101.73C101.415 103.457 101.141 103.182 101.141 102.868V86.378C101.141 86.0639 101.415 85.7891 101.73 85.7891H117.199C117.513 85.7891 117.788 86.0639 117.788 86.378V102.868C117.788 103.221 117.513 103.457 117.199 103.457ZM101.73 86.378V102.907H117.199V86.4172L101.73 86.378Z" fill="#B0B0B0"/>
<path d="M148.805 47.2356H126.033C125.876 47.2356 125.719 47.1178 125.719 46.9215C125.719 46.7252 125.837 46.6074 126.033 46.6074H148.805C148.962 46.6074 149.119 46.7252 149.119 46.9215C149.119 47.1178 148.962 47.2356 148.805 47.2356Z" fill="#B0B0B0"/>
<path d="M142.876 52.4173H125.994C125.837 52.4173 125.68 52.2995 125.68 52.1032C125.68 51.9068 125.797 51.7891 125.994 51.7891H142.876C143.034 51.7891 143.191 51.9068 143.191 52.1032C143.191 52.2995 143.034 52.4173 142.876 52.4173Z" fill="#B0B0B0"/>
<path d="M148.805 69.7317H126.033C125.876 69.7317 125.719 69.6139 125.719 69.4176C125.719 69.2213 125.837 69.1035 126.033 69.1035H148.805C148.962 69.1035 149.119 69.2213 149.119 69.4176C149.119 69.6139 148.962 69.7317 148.805 69.7317Z" fill="#B0B0B0"/>
<path d="M142.876 74.9134H125.994C125.837 74.9134 125.68 74.7956 125.68 74.5993C125.68 74.4029 125.797 74.2852 125.994 74.2852H142.876C143.034 74.2852 143.191 74.4029 143.191 74.5993C143.191 74.7956 143.034 74.9134 142.876 74.9134Z" fill="#B0B0B0"/>
<path d="M148.805 92.3079H126.033C125.876 92.3079 125.719 92.1901 125.719 91.9938C125.719 91.7975 125.837 91.6797 126.033 91.6797H148.805C148.962 91.6797 149.119 91.7975 149.119 91.9938C149.119 92.1901 148.962 92.3079 148.805 92.3079Z" fill="#B0B0B0"/>
<path d="M142.876 97.4895H125.994C125.837 97.4895 125.68 97.3717 125.68 97.1754C125.68 96.9791 125.797 96.8613 125.994 96.8613H142.876C143.034 96.8613 143.191 96.9791 143.191 97.1754C143.191 97.3717 143.034 97.4895 142.876 97.4895Z" fill="#B0B0B0"/>
<mask id="path-52-inside-1_4058_2029" fill="white">
<path d="M146.919 119.871C147.076 118.85 147.155 117.79 147.233 116.769C147.391 114.688 146.88 112.372 146.252 110.448C145.977 109.584 145.584 108.681 144.839 108.092C144.093 107.503 142.875 107.503 142.365 108.289C141.894 108.956 142.09 109.859 142.286 110.644C142.758 112.804 142.875 115.002 142.601 117.201C142.247 114.256 141.855 111.194 140.245 108.681C139.891 108.092 139.42 107.621 138.871 107.268C138.282 106.914 137.536 106.954 136.986 107.307C136.162 107.896 136.24 109.113 136.319 110.134C136.593 112.725 136.554 115.356 136.201 117.947C136.397 115.67 136.24 113.393 135.73 111.155C135.376 109.702 134.748 108.092 133.335 107.621C133.021 107.503 132.707 107.503 132.353 107.543C131.686 107.778 131.215 108.328 131.097 108.995C130.979 109.663 130.979 110.33 131.097 110.998C131.372 113.628 131.293 116.259 130.861 118.85C131.175 116.573 131.097 114.256 130.626 112.018C130.508 111.115 130.155 110.252 129.605 109.545C129.016 108.877 127.995 108.446 127.171 108.838C126.542 109.192 126.111 109.78 125.993 110.487C125.875 111.194 125.875 111.901 125.914 112.568C125.993 115.199 125.482 117.829 124.462 120.303C123.637 122.344 122.538 124.582 122.734 126.859C122.93 129.215 124.815 131.257 127.014 132.121C129.212 132.984 131.725 132.906 134.041 132.474C141.698 130.943 148.058 127.291 150.767 119.949"/>
</mask>
<path d="M146.919 119.871C147.076 118.85 147.155 117.79 147.233 116.769C147.391 114.688 146.88 112.372 146.252 110.448C145.977 109.584 145.584 108.681 144.839 108.092C144.093 107.503 142.875 107.503 142.365 108.289C141.894 108.956 142.09 109.859 142.286 110.644C142.758 112.804 142.875 115.002 142.601 117.201C142.247 114.256 141.855 111.194 140.245 108.681C139.891 108.092 139.42 107.621 138.871 107.268C138.282 106.914 137.536 106.954 136.986 107.307C136.162 107.896 136.24 109.113 136.319 110.134C136.593 112.725 136.554 115.356 136.201 117.947C136.397 115.67 136.24 113.393 135.73 111.155C135.376 109.702 134.748 108.092 133.335 107.621C133.021 107.503 132.707 107.503 132.353 107.543C131.686 107.778 131.215 108.328 131.097 108.995C130.979 109.663 130.979 110.33 131.097 110.998C131.372 113.628 131.293 116.259 130.861 118.85C131.175 116.573 131.097 114.256 130.626 112.018C130.508 111.115 130.155 110.252 129.605 109.545C129.016 108.877 127.995 108.446 127.171 108.838C126.542 109.192 126.111 109.78 125.993 110.487C125.875 111.194 125.875 111.901 125.914 112.568C125.993 115.199 125.482 117.829 124.462 120.303C123.637 122.344 122.538 124.582 122.734 126.859C122.93 129.215 124.815 131.257 127.014 132.121C129.212 132.984 131.725 132.906 134.041 132.474C141.698 130.943 148.058 127.291 150.767 119.949" fill="white"/>
<path d="M147.233 116.769L148.341 116.854L148.341 116.853L147.233 116.769ZM146.252 110.448L145.193 110.785L145.196 110.793L146.252 110.448ZM142.365 108.289L143.273 108.929L143.285 108.912L143.297 108.894L142.365 108.289ZM142.286 110.644L143.372 110.407L143.368 110.391L143.364 110.375L142.286 110.644ZM142.601 117.201L141.497 117.333L143.703 117.339L142.601 117.201ZM140.245 108.681L139.292 109.253L139.3 109.267L139.309 109.28L140.245 108.681ZM138.871 107.268L139.472 106.333L139.457 106.324L139.442 106.315L138.871 107.268ZM136.986 107.307L136.385 106.372L136.362 106.387L136.34 106.403L136.986 107.307ZM136.319 110.134L135.211 110.219L135.212 110.235L135.214 110.251L136.319 110.134ZM136.201 117.947L135.094 117.852L137.302 118.097L136.201 117.947ZM135.73 111.155L136.813 110.908L136.811 110.9L136.809 110.892L135.73 111.155ZM133.335 107.621L132.945 108.661L132.964 108.669L132.983 108.675L133.335 107.621ZM132.353 107.543L132.23 106.438L132.104 106.452L131.983 106.495L132.353 107.543ZM131.097 110.998L132.202 110.882L132.198 110.843L132.191 110.804L131.097 110.998ZM130.861 118.85L129.761 118.698L131.957 119.033L130.861 118.85ZM130.626 112.018L129.524 112.162L129.529 112.205L129.538 112.247L130.626 112.018ZM129.605 109.545L130.482 108.863L130.461 108.836L130.438 108.81L129.605 109.545ZM127.171 108.838L126.693 107.835L126.659 107.851L126.626 107.87L127.171 108.838ZM125.914 112.568L127.025 112.535L127.024 112.519L127.023 112.503L125.914 112.568ZM124.462 120.303L123.434 119.879L123.431 119.887L124.462 120.303ZM122.734 126.859L123.841 126.767L123.841 126.764L122.734 126.859ZM134.041 132.474L134.245 133.566L134.252 133.565L134.259 133.563L134.041 132.474ZM148.018 120.04C148.182 118.969 148.264 117.864 148.341 116.854L146.126 116.684C146.046 117.716 145.971 118.731 145.821 119.702L148.018 120.04ZM148.341 116.853C148.514 114.56 147.955 112.083 147.308 110.103L145.196 110.793C145.806 112.661 146.267 114.816 146.126 116.685L148.341 116.853ZM147.311 110.111C147.023 109.206 146.548 108.026 145.527 107.22L144.15 108.964C144.621 109.336 144.931 109.962 145.193 110.785L147.311 110.111ZM145.527 107.22C144.934 106.752 144.176 106.527 143.454 106.565C142.726 106.604 141.925 106.926 141.433 107.683L143.297 108.894C143.315 108.866 143.378 108.795 143.572 108.785C143.774 108.774 143.997 108.843 144.15 108.964L145.527 107.22ZM141.457 107.648C141.033 108.249 140.945 108.912 140.965 109.462C140.984 110 141.112 110.526 141.209 110.914L143.364 110.375C143.265 109.978 143.196 109.659 143.186 109.382C143.176 109.118 143.226 108.996 143.273 108.929L141.457 107.648ZM141.201 110.881C141.647 112.923 141.757 114.995 141.498 117.063L143.703 117.339C143.994 115.009 143.869 112.684 143.372 110.407L141.201 110.881ZM143.704 117.069C143.356 114.167 142.95 110.843 141.18 108.082L139.309 109.28C140.76 111.544 141.139 114.346 141.497 117.333L143.704 117.069ZM141.198 108.109C140.753 107.368 140.158 106.775 139.472 106.333L138.27 108.202C138.682 108.467 139.03 108.817 139.292 109.253L141.198 108.109ZM139.442 106.315C138.47 105.731 137.269 105.804 136.385 106.372L137.587 108.242C137.802 108.103 138.094 108.097 138.299 108.22L139.442 106.315ZM136.34 106.403C135.586 106.941 135.311 107.734 135.214 108.398C135.12 109.046 135.173 109.728 135.211 110.219L137.426 110.049C137.386 109.519 137.36 109.082 137.413 108.719C137.464 108.372 137.561 108.262 137.632 108.211L136.34 106.403ZM135.214 110.251C135.479 112.753 135.441 115.294 135.1 117.797L137.302 118.097C137.667 115.417 137.708 112.697 137.424 110.017L135.214 110.251ZM137.308 118.042C137.514 115.65 137.349 113.258 136.813 110.908L134.646 111.402C135.131 113.527 135.28 115.689 135.094 117.852L137.308 118.042ZM136.809 110.892C136.623 110.125 136.346 109.237 135.888 108.457C135.424 107.668 134.729 106.914 133.686 106.567L132.983 108.675C133.354 108.799 133.68 109.086 133.972 109.583C134.269 110.088 134.483 110.732 134.65 111.417L136.809 110.892ZM133.725 106.581C133.169 106.372 132.649 106.392 132.23 106.438L132.476 108.647C132.765 108.615 132.873 108.634 132.945 108.661L133.725 106.581ZM131.983 106.495C130.952 106.859 130.193 107.725 130.003 108.802L132.191 109.188C132.237 108.93 132.419 108.698 132.723 108.59L131.983 106.495ZM130.003 108.802C129.862 109.597 129.862 110.395 130.003 111.191L132.191 110.804C132.096 110.265 132.096 109.728 132.191 109.188L130.003 108.802ZM129.992 111.113C130.256 113.645 130.181 116.175 129.765 118.667L131.957 119.033C132.406 116.342 132.487 113.611 132.202 110.882L129.992 111.113ZM131.962 119.002C132.293 116.599 132.211 114.154 131.713 111.789L129.538 112.247C129.983 114.359 130.057 116.546 129.761 118.698L131.962 119.002ZM131.727 111.875C131.585 110.783 131.158 109.731 130.482 108.863L128.728 110.227C129.151 110.772 129.431 111.448 129.524 112.162L131.727 111.875ZM130.438 108.81C129.675 107.945 128.145 107.143 126.693 107.835L127.648 109.841C127.743 109.796 127.898 109.774 128.128 109.849C128.363 109.926 128.6 110.086 128.772 110.28L130.438 108.81ZM126.626 107.87C125.721 108.378 125.073 109.247 124.897 110.305L127.089 110.67C127.148 110.314 127.363 110.005 127.715 109.807L126.626 107.87ZM124.897 110.305C124.76 111.126 124.763 111.924 124.805 112.633L127.023 112.503C126.987 111.877 126.99 111.262 127.089 110.67L124.897 110.305ZM124.804 112.601C124.877 115.066 124.399 117.541 123.434 119.879L125.489 120.727C126.565 118.117 127.108 115.332 127.025 112.535L124.804 112.601ZM123.431 119.887C123.041 120.853 122.527 122.002 122.157 123.153C121.781 124.323 121.511 125.611 121.627 126.955L123.841 126.764C123.761 125.831 123.942 124.861 124.273 123.833C124.61 122.785 125.058 121.794 125.492 120.719L123.431 119.887ZM121.627 126.952C121.867 129.831 124.119 132.177 126.607 133.155L127.42 131.086C125.511 130.336 123.994 128.6 123.841 126.767L121.627 126.952ZM126.607 133.155C129.084 134.128 131.836 134.015 134.245 133.566L133.838 131.382C131.614 131.796 129.341 131.841 127.42 131.086L126.607 133.155ZM134.259 133.563C142.121 131.991 148.915 128.178 151.809 120.334L149.725 119.565C147.201 126.405 141.275 129.894 133.824 131.384L134.259 133.563Z" fill="#B0B0B0" mask="url(#path-52-inside-1_4058_2029)"/>
</svg>
