<svg width="18" height="24" viewBox="0 0 18 24" fill="none" xmlns="http://www.w3.org/2000/svg">
<path fill-rule="evenodd" clip-rule="evenodd" d="M0 1.26425C0 0.959256 0.118527 0.66675 0.329505 0.451084C0.540484 0.235418 0.826631 0.114258 1.125 0.114258H16.875C17.1734 0.114258 17.4595 0.235418 17.6705 0.451084C17.8815 0.66675 18 0.959256 18 1.26425V21.9642C18 22.184 17.9384 22.3993 17.8224 22.5844C17.7064 22.7695 17.541 22.9168 17.3457 23.0088C17.1503 23.1008 16.9333 23.1336 16.7203 23.1033C16.5073 23.0731 16.3072 22.9811 16.1438 22.8382L14.9816 21.8204C14.7778 21.642 14.5182 21.5439 14.2498 21.5439C13.9814 21.5439 13.7219 21.642 13.518 21.8204L12.357 22.837C12.1531 23.0158 11.8933 23.1141 11.6246 23.1141C11.356 23.1141 11.0962 23.0158 10.8923 22.837L9.73238 21.8204C9.52844 21.6417 9.26866 21.5434 9 21.5434C8.73134 21.5434 8.47156 21.6417 8.26762 21.8204L7.10775 22.837C6.90382 23.0158 6.64403 23.1141 6.37537 23.1141C6.10672 23.1141 5.84693 23.0158 5.643 22.837L4.482 21.8204C4.27815 21.642 4.01859 21.5439 3.75019 21.5439C3.48179 21.5439 3.22223 21.642 3.01838 21.8204L1.85738 22.837C1.69404 22.9802 1.49396 23.0725 1.28087 23.103C1.06777 23.1335 0.850594 23.1008 0.655091 23.009C0.459589 22.9171 0.293962 22.7698 0.177851 22.5847C0.0617401 22.3995 1.67248e-05 22.1841 0 21.9642V1.26425ZM5.625 4.71424C5.32663 4.71424 5.04048 4.8354 4.8295 5.05107C4.61853 5.26674 4.5 5.55924 4.5 5.86424C4.5 6.16924 4.61853 6.46174 4.8295 6.67741C5.04048 6.89307 5.32663 7.01423 5.625 7.01423H12.375C12.6734 7.01423 12.9595 6.89307 13.1705 6.67741C13.3815 6.46174 13.5 6.16924 13.5 5.86424C13.5 5.55924 13.3815 5.26674 13.1705 5.05107C12.9595 4.8354 12.6734 4.71424 12.375 4.71424H5.625ZM5.625 9.31423C5.32663 9.31423 5.04048 9.43539 4.8295 9.65105C4.61853 9.86672 4.5 10.1592 4.5 10.4642C4.5 10.7692 4.61853 11.0617 4.8295 11.2774C5.04048 11.4931 5.32663 11.6142 5.625 11.6142H12.375C12.6734 11.6142 12.9595 11.4931 13.1705 11.2774C13.3815 11.0617 13.5 10.7692 13.5 10.4642C13.5 10.1592 13.3815 9.86672 13.1705 9.65105C12.9595 9.43539 12.6734 9.31423 12.375 9.31423H5.625ZM6.75 15.0642C6.75 14.7592 6.86853 14.4667 7.0795 14.251C7.29048 14.0354 7.57663 13.9142 7.875 13.9142H12.375C12.6734 13.9142 12.9595 14.0354 13.1705 14.251C13.3815 14.4667 13.5 14.7592 13.5 15.0642C13.5 15.3692 13.3815 15.6617 13.1705 15.8774C12.9595 16.093 12.6734 16.2142 12.375 16.2142H7.875C7.57663 16.2142 7.29048 16.093 7.0795 15.8774C6.86853 15.6617 6.75 15.3692 6.75 15.0642Z" fill="white"/>
</svg>
