<svg width="18" height="16" viewBox="0 0 18 16" fill="none" xmlns="http://www.w3.org/2000/svg">
<path d="M13.5 0.96582H4.5C1.8 0.96582 0 2.31582 0 5.46582V8.66982C0 9.00282 0.342 9.20982 0.639 9.07482C1.521 8.66982 2.429 8.27682 3.5 8.46582C5.867 8.88882 6.75 10.2803 6.5 12.9658C6.43185 13.6979 5.58203 14.1129 5.21169 14.7481C5.10676 14.928 5.02611 15.1375 5 15.3748H13.5C16.2 15.3748 18 14.0248 18 10.8748V5.46582C18 2.31582 16.2 0.96582 13.5 0.96582ZM9 10.4158C7.758 10.4158 6.75 9.40782 6.75 8.16582C6.75 6.92382 7.758 5.91582 9 5.91582C10.242 5.91582 11.25 6.92382 11.25 8.16582C11.25 9.40782 10.242 10.4158 9 10.4158ZM15.525 9.96582C15.525 10.3348 15.219 10.6408 14.85 10.6408C14.481 10.6408 14.175 10.3348 14.175 9.96582V6.36582C14.175 5.99682 14.481 5.69082 14.85 5.69082C15.219 5.69082 15.525 5.99682 15.525 6.36582V9.96582Z" fill="white"/>
<path d="M3 8.96582C2.0625 8.96582 1.215 9.40832 0.6675 10.0833C0.2475 10.6008 0 11.2533 0 11.9658C0 13.6233 1.35 14.9658 3 14.9658C4.305 14.9658 5.4225 14.1333 5.8275 12.9633C5.94 12.6558 6 12.3183 6 11.9658C6 10.3158 4.6575 8.96582 3 8.96582ZM4.77 13.2708C4.755 13.3158 4.725 13.3608 4.695 13.3908L4.155 13.9233C4.0875 13.9983 3.9975 14.0283 3.9 14.0283C3.8025 14.0283 3.705 13.9983 3.6375 13.9233C3.5175 13.8108 3.5025 13.6308 3.5775 13.4958H2.07C1.59 13.4958 1.2 13.1058 1.2 12.6183V12.5433C1.2 12.3333 1.365 12.1758 1.5675 12.1758C1.77 12.1758 1.935 12.3333 1.935 12.5433V12.6183C1.935 12.7008 1.995 12.7683 2.0775 12.7683H3.585C3.51 12.6258 3.525 12.4533 3.645 12.3333C3.7875 12.1908 4.02 12.1908 4.155 12.3333L4.695 12.8733C4.725 12.9033 4.755 12.9483 4.7775 12.9933C4.8075 13.0758 4.8075 13.1808 4.77 13.2708ZM4.8 11.3883C4.8 11.5983 4.635 11.7558 4.4325 11.7558C4.23 11.7558 4.065 11.5983 4.065 11.3883V11.3133C4.065 11.2308 4.005 11.1633 3.9225 11.1633H2.4225C2.4975 11.3058 2.4825 11.4783 2.3625 11.5983C2.295 11.6658 2.205 11.7033 2.1 11.7033C2.01 11.7033 1.9125 11.6658 1.845 11.5983L1.305 11.0583C1.275 11.0283 1.245 10.9833 1.2225 10.9383C1.1925 10.8483 1.1925 10.7508 1.2225 10.6608C1.245 10.6233 1.2675 10.5708 1.305 10.5408L1.845 10.0083C1.9875 9.85832 2.22 9.85832 2.355 10.0083C2.475 10.1208 2.49 10.3008 2.415 10.4358H3.9225C4.4025 10.4358 4.7925 10.8258 4.7925 11.3133V11.3883H4.8Z" fill="white"/>
</svg>
